<?xml version="1.0" standalone="no"?> <!DOCTYPE svg PUBLIC "-//W3C//DTD SVG 1.0//EN" "http://www.w3.org/TR/2001/REC-SVG-20010904/DTD/svg10.dtd" > <svg xmlns="http://www.w3.org/2000/svg" width="100%" height="100%">
<defs >
<font horiz-adv-x="1476" ><font-face
    font-family="DJB Up on the Scoreboard"
    units-per-em="2048"
    panose-1="2 0 5 0 0 0 0 0 0 0"
    ascent="2307"
    descent="-290"
    alphabetic="0" />
<missing-glyph horiz-adv-x="1024" d="M100 0V1434H924V0H100ZM150 50H874V1384H150V50ZM325 1148Q356 1176 383 1191Q436 1221 495 1221Q587 1221 643 1174T699 1046Q699 997 676 948T589 818Q526 738 490 686T454 587Q454 549 478 454H446Q411 551 411 602Q411
678 492 820T574 1037Q574 1094 541 1127T450 1160Q412 1160 381 1143Q355 1128 325 1103V1148ZM389 334L446 392Q457 402 466 402Q476 402 488 391L544 331Q553 320 553 311Q553 300 543 289L487 227Q473 213 466 213Q455 213 446 223L385 294Q378 303 378 312Q378
322 389 334Z" />
<glyph unicode=" " glyph-name="space" horiz-adv-x="701" />
<glyph unicode="!" glyph-name="exclam" horiz-adv-x="1634" d="M774 1924Q727 1924 694 1891T661 1811Q661 1764 694 1731T774 1697Q821 1697 854 1730T888 1811Q888 1858 855 1891T774 1924ZM773 1665Q726 1665 693 1632T660 1551Q660 1504 693 1471T773 1438Q820
1438 853 1471T887 1551Q887 1598 854 1631T773 1665ZM776 1396Q729 1396 696 1363T663 1283Q663 1236 696 1203T776 1169Q823 1169 856 1202T889 1283Q889 1330 856 1363T776 1396ZM773 1145Q726 1145 693 1112T660 1032Q660 985 693 952T773 918Q820 918 853
951T887 1032Q887 1079 854 1112T773 1145ZM784 639Q737 639 704 606T671 525Q671 478 704 445T784 412Q831 412 864 445T898 525Q898 572 865 605T784 639ZM774 2182Q727 2182 694 2149T661 2068Q661 2021 694 1988T774 1955Q821 1955 854 1988T888 2068Q888 2115
855 2148T774 2182ZM1530 2298V282H0V2298H1530Z" />
<glyph unicode="&quot;" glyph-name="quotedbl" horiz-adv-x="1634" d="M959 1922T912 1922Q865 1922 832 1889T798 1808Q798 1761 831 1728T912 1695Q959 1695 992 1728T1025 1808Q1025 1855 992 1888ZM1219 2182T1172 2182Q1125 2182 1092 2149T1058 2068Q1058
2021 1091 1988T1172 1955Q1219 1955 1252 1988T1285 2068Q1285 2115 1252 2148ZM702 2182T655 2182Q608 2182 575 2149T541 2068Q541 2021 574 1988T655 1955Q702 1955 735 1988T768 2068Q768 2115 735 2148ZM443 1922T396 1922Q349 1922 316 1889T283 1808Q283
1761 316 1728T396 1695Q443 1695 476 1728T510 1808Q510 1855 477 1888ZM1528 2298V282H-2V2298H1528Z" />
<glyph unicode="#" glyph-name="numbersign" horiz-adv-x="1631" d="M1028 1922Q981 1922 948 1889T914 1808Q914 1761 947 1728T1028 1695Q1075 1695 1108 1728T1141 1808Q1141 1855 1108 1888T1028 1922ZM513 1922Q466 1922 433 1889T399 1808Q399 1761 432
1728T513 1695Q560 1695 593 1728T626 1808Q626 1855 593 1888T513 1922ZM258 1662Q211 1662 178 1629T145 1549Q145 1502 178 1469T258 1435Q305 1435 338 1468T372 1549Q372 1596 339 1629T258 1662ZM770 1665Q723 1665 690 1632T657 1551Q657 1504 690 1471T770
1438Q817 1438 850 1471T884 1551Q884 1598 851 1631T770 1665ZM1027 1662Q980 1662 947 1629T914 1549Q914 1502 947 1469T1027 1435Q1074 1435 1107 1468T1141 1549Q1141 1596 1108 1629T1027 1662ZM512 1662Q465 1662 432 1629T398 1549Q398 1502 431 1469T512
1435Q559 1435 592 1468T625 1549Q625 1596 592 1629T512 1662ZM1030 1394Q983 1394 950 1361T916 1280Q916 1233 949 1200T1030 1167Q1077 1167 1110 1200T1143 1280Q1143 1327 1110 1360T1030 1394ZM514 1394Q467 1394 434 1361T401 1280Q401 1233 434 1200T514
1167Q561 1167 594 1200T628 1280Q628 1327 595 1360T514 1394ZM258 1143Q211 1143 178 1110T145 1029Q145 982 178 949T258 916Q305 916 338 949T372 1029Q372 1076 339 1109T258 1143ZM770 1145Q723 1145 690 1112T657 1032Q657 985 690 952T770 918Q817 918
850 951T884 1032Q884 1079 851 1112T770 1145ZM1027 1143Q980 1143 947 1110T914 1029Q914 982 947 949T1027 916Q1074 916 1107 949T1141 1029Q1141 1076 1108 1109T1027 1143ZM512 1143Q465 1143 432 1110T398 1029Q398 982 431 949T512 916Q559 916 592 949T625
1029Q625 1076 592 1109T512 1143ZM1032 890Q985 890 952 857T919 777Q919 730 952 697T1032 663Q1079 663 1112 696T1146 777Q1146 824 1113 857T1032 890ZM517 890Q470 890 437 857T403 777Q403 730 436 697T517 663Q564 663 597 696T630 777Q630 824 597 857T517
890ZM1038 636Q991 636 958 603T925 523Q925 476 958 443T1038 409Q1085 409 1118 442T1152 523Q1152 570 1119 603T1038 636ZM523 636Q476 636 443 603T409 523Q409 476 442 443T523 409Q570 409 603 442T636 523Q636 570 603 603T523 636ZM1287 1665Q1240 1665
1207 1632T1174 1551Q1174 1504 1207 1471T1287 1438Q1334 1438 1367 1471T1401 1551Q1401 1598 1368 1631T1287 1665ZM1287 1145Q1240 1145 1207 1112T1174 1032Q1174 985 1207 952T1287 918Q1334 918 1367 951T1401 1032Q1401 1079 1368 1112T1287 1145ZM1028
2179Q981 2179 948 2146T914 2066Q914 2019 947 1986T1028 1952Q1075 1952 1108 1985T1141 2066Q1141 2113 1108 2146T1028 2179ZM513 2179Q466 2179 433 2146T399 2066Q399 2019 432 1986T513 1952Q560 1952 593 1985T626 2066Q626 2113 593 2146T513 2179ZM1534
2298V282H4V2298H1534Z" />
<glyph unicode="$" glyph-name="dollar" horiz-adv-x="1634" d="M250 1922Q203 1922 170 1889T137 1808Q137 1761 170 1728T250 1695Q297 1695 330 1728T364 1808Q364 1855 331 1888T250 1922ZM249 1662Q202 1662 169 1629T136 1549Q136 1502 169 1469T249 1435Q296
1435 329 1468T363 1549Q363 1596 330 1629T249 1662ZM764 1396Q717 1396 684 1363T650 1283Q650 1236 683 1203T764 1169Q811 1169 844 1202T877 1283Q877 1330 844 1363T764 1396ZM1021 1394Q974 1394 941 1361T907 1280Q907 1233 940 1200T1021 1167Q1068 1167
1101 1200T1134 1280Q1134 1327 1101 1360T1021 1394ZM505 1394Q458 1394 425 1361T392 1280Q392 1233 425 1200T505 1167Q552 1167 585 1200T619 1280Q619 1327 586 1360T505 1394ZM260 636Q213 636 180 603T147 523Q147 476 180 443T260 409Q307 409 340 442T374
523Q374 570 341 603T260 636ZM772 639Q725 639 692 606T659 525Q659 478 692 445T772 412Q819 412 852 445T886 525Q886 572 853 605T772 639ZM1029 636Q982 636 949 603T916 523Q916 476 949 443T1029 409Q1076 409 1109 442T1143 523Q1143 570 1110 603T1029
636ZM514 636Q467 636 434 603T400 523Q400 476 433 443T514 409Q561 409 594 442T627 523Q627 570 594 603T514 636ZM1278 1145Q1231 1145 1198 1112T1165 1032Q1165 985 1198 952T1278 918Q1325 918 1358 951T1392 1032Q1392 1079 1359 1112T1278 1145ZM1283
893Q1236 893 1203 860T1170 779Q1170 732 1203 699T1283 666Q1330 666 1363 699T1397 779Q1397 826 1364 859T1283 893ZM762 2182Q715 2182 682 2149T649 2068Q649 2021 682 1988T762 1955Q809 1955 842 1988T876 2068Q876 2115 843 2148T762 2182ZM1019 2179Q972
2179 939 2146T905 2066Q905 2019 938 1986T1019 1952Q1066 1952 1099 1985T1132 2066Q1132 2113 1099 2146T1019 2179ZM504 2179Q457 2179 424 2146T390 2066Q390 2019 423 1986T504 1952Q551 1952 584 1985T617 2066Q617 2113 584 2146T504 2179ZM1279 2182Q1232
2182 1199 2149T1166 2068Q1166 2021 1199 1988T1279 1955Q1326 1955 1359 1988T1393 2068Q1393 2115 1360 2148T1279 2182ZM762 1662Q715 1662 682 1629T649 1548Q649 1501 682 1468T762 1435Q809 1435 842 1468T876 1548Q876 1595 843 1628T762 1662ZM767 1922Q720
1922 687 1889T654 1808Q654 1761 687 1728T767 1695Q814 1695 847 1728T881 1808Q881 1855 848 1888T767 1922ZM765 889Q718 889 685 856T652 775Q652 728 685 695T765 662Q812 662 845 695T879 775Q879 822 846 855T765 889ZM770 1149Q723 1149 690 1116T657
1035Q657 988 690 955T770 922Q817 922 850 955T884 1035Q884 1082 851 1115T770 1149ZM1529 2298V282H-1V2298H1529Z" />
<glyph unicode="%" glyph-name="percent" horiz-adv-x="1634" d="M513 1922Q466 1922 433 1889T399 1808Q399 1761 432 1728T513 1695Q560 1695 593 1728T626 1808Q626 1855 593 1888T513 1922ZM1027 1662Q980 1662 947 1629T913 1549Q913 1502 946 1469T1027
1435Q1074 1435 1107 1468T1140 1549Q1140 1596 1107 1629T1027 1662ZM773 1396Q726 1396 693 1363T659 1283Q659 1236 692 1203T773 1169Q820 1169 853 1202T886 1283Q886 1330 853 1363T773 1396ZM512 1143Q465 1143 432 1110T398 1029Q398 982 431 949T512 916Q559
916 592 949T625 1029Q625 1076 592 1109T512 1143ZM263 890Q216 890 183 857T150 777Q150 730 183 697T263 663Q310 663 343 696T377 777Q377 824 344 857T263 890ZM1032 890Q985 890 952 857T919 777Q919 730 952 697T1032 663Q1079 663 1112 696T1146 777Q1146
824 1113 857T1032 890ZM1288 1924Q1241 1924 1208 1891T1174 1811Q1174 1764 1207 1731T1288 1697Q1335 1697 1368 1730T1401 1811Q1401 1858 1368 1891T1288 1924ZM1526 2296V280H-4V2296H1526Z" />
<glyph unicode="&amp;" glyph-name="ampersand" horiz-adv-x="1637" d="M771 1924Q724 1924 691 1891T658 1811Q658 1764 691 1731T771 1697Q818 1697 851 1730T885 1811Q885 1858 852 1891T771 1924ZM1028 1922Q981 1922 948 1889T914 1808Q914 1761 947 1728T1028
1695Q1075 1695 1108 1728T1141 1808Q1141 1855 1108 1888T1028 1922ZM513 1922Q466 1922 433 1889T399 1808Q399 1761 432 1728T513 1695Q560 1695 593 1728T626 1808Q626 1855 593 1888T513 1922ZM258 1662Q211 1662 178 1629T145 1549Q145 1502 178 1469T258
1435Q305 1435 338 1468T372 1549Q372 1596 339 1629T258 1662ZM773 1396Q726 1396 693 1363T659 1283Q659 1236 692 1203T773 1169Q820 1169 853 1202T886 1283Q886 1330 853 1363T773 1396ZM1030 1394Q983 1394 950 1361T916 1280Q916 1233 949 1200T1030 1167Q1077
1167 1110 1200T1143 1280Q1143 1327 1110 1360T1030 1394ZM514 1394Q467 1394 434 1361T401 1280Q401 1233 434 1200T514 1167Q561 1167 594 1200T628 1280Q628 1327 595 1360T514 1394ZM258 1143Q211 1143 178 1110T145 1029Q145 982 178 949T258 916Q305 916
338 949T372 1029Q372 1076 339 1109T258 1143ZM775 893Q728 893 695 860T662 779Q662 732 695 699T775 666Q822 666 855 699T889 779Q889 826 856 859T775 893ZM1032 890Q985 890 952 857T919 777Q919 730 952 697T1032 663Q1079 663 1112 696T1146 777Q1146 824
1113 857T1032 890ZM517 890Q470 890 437 857T403 777Q403 730 436 697T517 663Q564 663 597 696T630 777Q630 824 597 857T517 890ZM781 639Q734 639 701 606T668 525Q668 478 701 445T781 412Q828 412 861 445T895 525Q895 572 862 605T781 639ZM1288 1924Q1241
1924 1208 1891T1175 1811Q1175 1764 1208 1731T1288 1697Q1335 1697 1368 1730T1402 1811Q1402 1858 1369 1891T1288 1924ZM1292 893Q1245 893 1212 860T1179 779Q1179 732 1212 699T1292 666Q1339 666 1372 699T1406 779Q1406 826 1373 859T1292 893ZM771 2182Q724
2182 691 2149T658 2068Q658 2021 691 1988T771 1955Q818 1955 851 1988T885 2068Q885 2115 852 2148T771 2182ZM1533 2298V282H3V2298H1533Z" />
<glyph unicode="&apos;" glyph-name="quotesingle" horiz-adv-x="1631" d="M576 1922Q529 1922 496 1889T463 1808Q463 1761 496 1728T576 1695Q623 1695 656 1728T690 1808Q690 1855 657 1888T576 1922ZM835 2182Q788 2182 755 2149T721 2068Q721 2021 754 1988T835
1955Q882 1955 915 1988T948 2068Q948 2115 915 2148T835 2182ZM1530 2298V282H0V2298H1530Z" />
<glyph unicode="(" glyph-name="parenleft" horiz-adv-x="1637" d="M235 1922Q188 1922 155 1889T122 1808Q122 1761 155 1728T235 1695Q282 1695 315 1728T349 1808Q349 1855 316 1888T235 1922ZM234 1662Q187 1662 154 1629T121 1549Q121 1502 154 1469T234
1435Q281 1435 314 1468T348 1549Q348 1596 315 1629T234 1662ZM237 1394Q190 1394 157 1361T124 1280Q124 1233 157 1200T237 1167Q284 1167 317 1200T350 1280Q350 1327 317 1360T237 1394ZM234 1143Q187 1143 154 1110T121 1029Q121 982 154 949T234 916Q281
916 314 949T348 1029Q348 1076 315 1109T234 1143ZM240 890Q193 890 160 857T126 777Q126 730 159 697T240 663Q287 663 320 696T353 777Q353 824 320 857T240 890ZM757 639Q710 639 677 606T644 525Q644 478 677 445T757 412Q804 412 837 445T871 525Q871 572
838 605T757 639ZM1014 636Q967 636 934 603T901 523Q901 476 934 443T1014 409Q1061 409 1094 442T1128 523Q1128 570 1095 603T1014 636ZM499 636Q452 636 419 603T385 523Q385 476 418 443T499 409Q546 409 579 442T612 523Q612 570 579 603T499 636ZM1274 639Q1227
639 1194 606T1161 525Q1161 478 1194 445T1274 412Q1321 412 1354 445T1388 525Q1388 572 1355 605T1274 639ZM747 2182Q700 2182 667 2149T634 2068Q634 2021 667 1988T747 1955Q794 1955 827 1988T861 2068Q861 2115 828 2148T747 2182ZM1004 2179Q957 2179
924 2146T890 2066Q890 2019 923 1986T1004 1952Q1051 1952 1084 1985T1117 2066Q1117 2113 1084 2146T1004 2179ZM489 2179Q442 2179 409 2146T375 2066Q375 2019 408 1986T489 1952Q536 1952 569 1985T602 2066Q602 2113 569 2146T489 2179ZM1264 2182Q1217 2182
1184 2149T1151 2068Q1151 2021 1184 1988T1264 1955Q1311 1955 1344 1988T1378 2068Q1378 2115 1345 2148T1264 2182ZM1530 2298V282H0V2298H1530Z" />
<glyph unicode=")" glyph-name="parenright" horiz-adv-x="1634" d="M270 636Q223 636 190 603T156 523Q156 476 189 443T270 409Q317 409 350 442T383 523Q383 570 350 603T270 636ZM781 639Q734 639 701 606T668 525Q668 478 701 445T781 412Q828 412 861 445T895
525Q895 572 862 605T781 639ZM1038 636Q991 636 958 603T925 523Q925 476 958 443T1038 409Q1085 409 1118 442T1152 523Q1152 570 1119 603T1038 636ZM523 636Q476 636 443 603T410 523Q410 476 443 443T523 409Q570 409 603 442T636 523Q636 570 603 603T523
636ZM1288 1924Q1241 1924 1208 1891T1175 1811Q1175 1764 1208 1731T1288 1697Q1335 1697 1368 1730T1402 1811Q1402 1858 1369 1891T1288 1924ZM1287 1665Q1240 1665 1207 1632T1174 1551Q1174 1504 1207 1471T1287 1438Q1334 1438 1367 1471T1401 1551Q1401
1598 1368 1631T1287 1665ZM1290 1396Q1243 1396 1210 1363T1176 1283Q1176 1236 1209 1203T1290 1169Q1337 1169 1370 1202T1403 1283Q1403 1330 1370 1363T1290 1396ZM1287 1145Q1240 1145 1207 1112T1174 1032Q1174 985 1207 952T1287 918Q1334 918 1367 951T1401
1032Q1401 1079 1368 1112T1287 1145ZM1292 893Q1245 893 1212 860T1179 779Q1179 732 1212 699T1292 666Q1339 666 1372 699T1406 779Q1406 826 1373 859T1292 893ZM259 2179Q212 2179 179 2146T146 2066Q146 2019 179 1986T259 1952Q306 1952 339 1985T373 2066Q373
2113 340 2146T259 2179ZM771 2182Q724 2182 691 2149T658 2068Q658 2021 691 1988T771 1955Q818 1955 851 1988T885 2068Q885 2115 852 2148T771 2182ZM1028 2179Q981 2179 948 2146T915 2066Q915 2019 948 1986T1028 1952Q1075 1952 1108 1985T1142 2066Q1142
2113 1109 2146T1028 2179ZM513 2179Q466 2179 433 2146T399 2066Q399 2019 432 1986T513 1952Q560 1952 593 1985T626 2066Q626 2113 593 2146T513 2179ZM1530 2298V282H0V2298H1530Z" />
<glyph unicode="*" glyph-name="asterisk" horiz-adv-x="1634" d="M762 1924Q715 1924 682 1891T649 1811Q649 1764 682 1731T762 1697Q809 1697 842 1730T876 1811Q876 1858 843 1891T762 1924ZM1019 1922Q972 1922 939 1889T905 1808Q905 1761 938 1728T1019
1695Q1066 1695 1099 1728T1132 1808Q1132 1855 1099 1888T1019 1922ZM504 1922Q457 1922 424 1889T390 1808Q390 1761 423 1728T504 1695Q551 1695 584 1728T617 1808Q617 1855 584 1888T504 1922ZM249 1662Q202 1662 169 1629T136 1549Q136 1502 169 1469T249
1435Q296 1435 329 1468T363 1549Q363 1596 330 1629T249 1662ZM761 1665Q714 1665 681 1632T648 1551Q648 1504 681 1471T761 1438Q808 1438 841 1471T875 1551Q875 1598 842 1631T761 1665ZM1018 1662Q971 1662 938 1629T905 1549Q905 1502 938 1469T1018 1435Q1065
1435 1098 1468T1132 1549Q1132 1596 1099 1629T1018 1662ZM503 1662Q456 1662 423 1629T389 1549Q389 1502 422 1469T503 1435Q550 1435 583 1468T616 1549Q616 1596 583 1629T503 1662ZM764 1396Q717 1396 684 1363T650 1283Q650 1236 683 1203T764 1169Q811
1169 844 1202T877 1283Q877 1330 844 1363T764 1396ZM1021 1394Q974 1394 941 1361T907 1280Q907 1233 940 1200T1021 1167Q1068 1167 1101 1200T1134 1280Q1134 1327 1101 1360T1021 1394ZM505 1394Q458 1394 425 1361T392 1280Q392 1233 425 1200T505 1167Q552
1167 585 1200T619 1280Q619 1327 586 1360T505 1394ZM249 1143Q202 1143 169 1110T136 1029Q136 982 169 949T249 916Q296 916 329 949T363 1029Q363 1076 330 1109T249 1143ZM761 1145Q714 1145 681 1112T648 1032Q648 985 681 952T761 918Q808 918 841 951T875
1032Q875 1079 842 1112T761 1145ZM1278 1665Q1231 1665 1198 1632T1165 1551Q1165 1504 1198 1471T1278 1438Q1325 1438 1358 1471T1392 1551Q1392 1598 1359 1631T1278 1665ZM1278 1145Q1231 1145 1198 1112T1165 1032Q1165 985 1198 952T1278 918Q1325 918 1358
951T1392 1032Q1392 1079 1359 1112T1278 1145ZM250 2179Q203 2179 170 2146T137 2066Q137 2019 170 1986T250 1952Q297 1952 330 1985T364 2066Q364 2113 331 2146T250 2179ZM762 2182Q715 2182 682 2149T649 2068Q649 2021 682 1988T762 1955Q809 1955 842 1988T876
2068Q876 2115 843 2148T762 2182ZM1279 2182Q1232 2182 1199 2149T1166 2068Q1166 2021 1199 1988T1279 1955Q1326 1955 1359 1988T1393 2068Q1393 2115 1360 2148T1279 2182ZM1530 2298V282H0V2298H1530Z" />
<glyph unicode="+" glyph-name="plus" horiz-adv-x="1631" d="M766 1924Q719 1924 686 1891T652 1811Q652 1764 685 1731T766 1697Q813 1697 846 1730T879 1811Q879 1858 846 1891T766 1924ZM765 1665Q718 1665 685 1632T651 1551Q651 1504 684 1471T765 1438Q812
1438 845 1471T878 1551Q878 1598 845 1631T765 1665ZM255 1394Q208 1394 175 1361T142 1280Q142 1233 175 1200T255 1167Q302 1167 335 1200T369 1280Q369 1327 336 1360T255 1394ZM767 1396Q720 1396 687 1363T654 1283Q654 1236 687 1203T767 1169Q814 1169
847 1202T881 1283Q881 1330 848 1363T767 1396ZM1024 1394Q977 1394 944 1361T911 1280Q911 1233 944 1200T1024 1167Q1071 1167 1104 1200T1138 1280Q1138 1327 1105 1360T1024 1394ZM509 1394Q462 1394 429 1361T395 1280Q395 1233 428 1200T509 1167Q556 1167
589 1200T622 1280Q622 1327 589 1360T509 1394ZM765 1145Q718 1145 685 1112T651 1032Q651 985 684 952T765 918Q812 918 845 951T878 1032Q878 1079 845 1112T765 1145ZM770 893Q723 893 690 860T656 779Q656 732 689 699T770 666Q817 666 850 699T883 779Q883
826 850 859T770 893ZM1284 1396Q1237 1396 1204 1363T1171 1283Q1171 1236 1204 1203T1284 1169Q1331 1169 1364 1202T1398 1283Q1398 1330 1365 1363T1284 1396ZM1530 2298V282H0V2298H1530Z" />
<glyph unicode="," glyph-name="comma" horiz-adv-x="1624" d="M756 893Q709 893 676 860T643 779Q643 732 676 699T756 666Q803 666 836 699T870 779Q870 826 837 859T756 893ZM762 639Q715 639 682 606T649 525Q649 478 682 445T762 412Q809 412 842 445T876
525Q876 572 843 605T762 639ZM1527 2301V285H-3V2301H1527Z" />
<glyph unicode="-" glyph-name="hyphen" horiz-adv-x="1631" d="M255 1394Q208 1394 175 1361T142 1280Q142 1233 175 1200T255 1167Q302 1167 335 1200T369 1280Q369 1327 336 1360T255 1394ZM767 1396Q720 1396 687 1363T654 1283Q654 1236 687 1203T767 1169Q814
1169 847 1202T881 1283Q881 1330 848 1363T767 1396ZM1024 1394Q977 1394 944 1361T911 1280Q911 1233 944 1200T1024 1167Q1071 1167 1104 1200T1138 1280Q1138 1327 1105 1360T1024 1394ZM509 1394Q462 1394 429 1361T395 1280Q395 1233 428 1200T509 1167Q556
1167 589 1200T622 1280Q622 1327 589 1360T509 1394ZM1284 1396Q1237 1396 1204 1363T1171 1283Q1171 1236 1204 1203T1284 1169Q1331 1169 1364 1202T1398 1283Q1398 1330 1365 1363T1284 1396ZM1527 2301V285H-3V2301H1527Z" />
<glyph unicode="." glyph-name="period" horiz-adv-x="1631" d="M756 639Q709 639 676 606T643 525Q643 478 676 445T756 412Q803 412 836 445T870 525Q870 572 837 605T756 639ZM1531 2301V285H1V2301H1531Z" />
<glyph unicode="/" glyph-name="slash" horiz-adv-x="1634" d="M1024 1662Q977 1662 944 1629T910 1549Q910 1502 943 1469T1024 1435Q1071 1435 1104 1468T1137 1549Q1137 1596 1104 1629T1024 1662ZM770 1396Q723 1396 690 1363T656 1283Q656 1236 689 1203T770
1169Q817 1169 850 1202T883 1283Q883 1330 850 1363T770 1396ZM509 1143Q462 1143 429 1110T395 1029Q395 982 428 949T509 916Q556 916 589 949T622 1029Q622 1076 589 1109T509 1143ZM260 890Q213 890 180 857T147 777Q147 730 180 697T260 663Q307 663 340
696T374 777Q374 824 341 857T260 890ZM1285 1924Q1238 1924 1205 1891T1171 1811Q1171 1764 1204 1731T1285 1697Q1332 1697 1365 1730T1398 1811Q1398 1858 1365 1891T1285 1924ZM1530 2298V282H0V2298H1530Z" />
<glyph unicode="0" glyph-name="zero" horiz-adv-x="1634" d="M259 1922Q212 1922 179 1889T146 1808Q146 1761 179 1728T259 1695Q306 1695 339 1728T373 1808Q373 1855 340 1888T259 1922ZM258 1662Q211 1662 178 1629T145 1549Q145 1502 178 1469T258 1435Q305
1435 338 1468T372 1549Q372 1596 339 1629T258 1662ZM1027 1662Q980 1662 947 1629T914 1549Q914 1502 947 1469T1027 1435Q1074 1435 1107 1468T1141 1549Q1141 1596 1108 1629T1027 1662ZM261 1394Q214 1394 181 1361T148 1280Q148 1233 181 1200T261 1167Q308
1167 341 1200T374 1280Q374 1327 341 1360T261 1394ZM773 1396Q726 1396 693 1363T659 1283Q659 1236 692 1203T773 1169Q820 1169 853 1202T886 1283Q886 1330 853 1363T773 1396ZM258 1143Q211 1143 178 1110T145 1029Q145 982 178 949T258 916Q305 916 338
949T372 1029Q372 1076 339 1109T258 1143ZM512 1143Q465 1143 432 1110T398 1029Q398 982 431 949T512 916Q559 916 592 949T625 1029Q625 1076 592 1109T512 1143ZM264 890Q217 890 184 857T150 777Q150 730 183 697T264 663Q311 663 344 696T377 777Q377 824
344 857T264 890ZM781 639Q734 639 701 606T668 525Q668 478 701 445T781 412Q828 412 861 445T895 525Q895 572 862 605T781 639ZM1038 636Q991 636 958 603T925 523Q925 476 958 443T1038 409Q1085 409 1118 442T1152 523Q1152 570 1119 603T1038 636ZM523 636Q476
636 443 603T409 523Q409 476 442 443T523 409Q570 409 603 442T636 523Q636 570 603 603T523 636ZM1288 1924Q1241 1924 1208 1891T1175 1811Q1175 1764 1208 1731T1288 1697Q1335 1697 1368 1730T1402 1811Q1402 1858 1369 1891T1288 1924ZM1287 1665Q1240 1665
1207 1632T1174 1551Q1174 1504 1207 1471T1287 1438Q1334 1438 1367 1471T1401 1551Q1401 1598 1368 1631T1287 1665ZM1290 1396Q1243 1396 1210 1363T1176 1283Q1176 1236 1209 1203T1290 1169Q1337 1169 1370 1202T1403 1283Q1403 1330 1370 1363T1290 1396ZM1287
1145Q1240 1145 1207 1112T1174 1032Q1174 985 1207 952T1287 918Q1334 918 1367 951T1401 1032Q1401 1079 1368 1112T1287 1145ZM1292 893Q1245 893 1212 860T1179 779Q1179 732 1212 699T1292 666Q1339 666 1372 699T1406 779Q1406 826 1373 859T1292 893ZM771
2182Q724 2182 691 2149T658 2068Q658 2021 691 1988T771 1955Q818 1955 851 1988T885 2068Q885 2115 852 2148T771 2182ZM1028 2179Q981 2179 948 2146T914 2066Q914 2019 947 1986T1028 1952Q1075 1952 1108 1985T1141 2066Q1141 2113 1108 2146T1028 2179ZM513
2179Q466 2179 433 2146T399 2066Q399 2019 432 1986T513 1952Q560 1952 593 1985T626 2066Q626 2113 593 2146T513 2179ZM1530 2301V285H0V2301H1530Z" />
<glyph unicode="1" glyph-name="one" horiz-adv-x="1640" d="M769 1924Q722 1924 689 1891T655 1811Q655 1764 688 1731T769 1697Q816 1697 849 1730T882 1811Q882 1858 849 1891T769 1924ZM510 1922Q463 1922 430 1889T397 1808Q397 1761 430 1728T510 1695Q557
1695 590 1728T624 1808Q624 1855 591 1888T510 1922ZM768 1665Q721 1665 688 1632T655 1551Q655 1504 688 1471T768 1438Q815 1438 848 1471T882 1551Q882 1598 849 1631T768 1665ZM771 1396Q724 1396 691 1363T657 1283Q657 1236 690 1203T771 1169Q818 1169
851 1202T884 1283Q884 1330 851 1363T771 1396ZM768 1145Q721 1145 688 1112T655 1032Q655 985 688 952T768 918Q815 918 848 951T882 1032Q882 1079 849 1112T768 1145ZM773 893Q726 893 693 860T660 779Q660 732 693 699T773 666Q820 666 853 699T887 779Q887
826 854 859T773 893ZM779 639Q732 639 699 606T666 525Q666 478 699 445T779 412Q826 412 859 445T893 525Q893 572 860 605T779 639ZM1036 636Q989 636 956 603T922 523Q922 476 955 443T1036 409Q1083 409 1116 442T1149 523Q1149 570 1116 603T1036 636ZM521
636Q474 636 441 603T407 523Q407 476 440 443T521 409Q568 409 601 442T634 523Q634 570 601 603T521 636ZM769 2182Q722 2182 689 2149T655 2068Q655 2021 688 1988T769 1955Q816 1955 849 1988T882 2068Q882 2115 849 2148T769 2182ZM1529 2301V285H-1V2301H1529Z"
/>
<glyph unicode="2" glyph-name="two" horiz-adv-x="1637" d="M244 1922Q197 1922 164 1889T131 1808Q131 1761 164 1728T244 1695Q291 1695 324 1728T358 1808Q358 1855 325 1888T244 1922ZM1015 1394Q968 1394 935 1361T901 1280Q901 1233 934 1200T1015 1167Q1062
1167 1095 1200T1128 1280Q1128 1327 1095 1360T1015 1394ZM755 1145Q708 1145 675 1112T642 1032Q642 985 675 952T755 918Q802 918 835 951T869 1032Q869 1079 836 1112T755 1145ZM502 890Q455 890 422 857T389 777Q389 730 422 697T502 663Q549 663 582 696T616
777Q616 824 583 857T502 890ZM255 636Q208 636 175 603T141 523Q141 476 174 443T255 409Q302 409 335 442T368 523Q368 570 335 603T255 636ZM766 639Q719 639 686 606T653 525Q653 478 686 445T766 412Q813 412 846 445T880 525Q880 572 847 605T766 639ZM1023
636Q976 636 943 603T910 523Q910 476 943 443T1023 409Q1070 409 1103 442T1137 523Q1137 570 1104 603T1023 636ZM508 636Q461 636 428 603T395 523Q395 476 428 443T508 409Q555 409 588 442T621 523Q621 570 588 603T508 636ZM1273 1924Q1226 1924 1193 1891T1160
1811Q1160 1764 1193 1731T1273 1697Q1320 1697 1353 1730T1387 1811Q1387 1858 1354 1891T1273 1924ZM1272 1665Q1225 1665 1192 1632T1159 1551Q1159 1504 1192 1471T1272 1438Q1319 1438 1352 1471T1386 1551Q1386 1598 1353 1631T1272 1665ZM1283 639Q1236
639 1203 606T1170 525Q1170 478 1203 445T1283 412Q1330 412 1363 445T1397 525Q1397 572 1364 605T1283 639ZM756 2182Q709 2182 676 2149T643 2068Q643 2021 676 1988T756 1955Q803 1955 836 1988T870 2068Q870 2115 837 2148T756 2182ZM1013 2179Q966 2179
933 2146T900 2066Q900 2019 933 1986T1013 1952Q1060 1952 1093 1985T1127 2066Q1127 2113 1094 2146T1013 2179ZM498 2179Q451 2179 418 2146T384 2066Q384 2019 417 1986T498 1952Q545 1952 578 1985T611 2066Q611 2113 578 2146T498 2179ZM1530 2301V285H0V2301H1530Z"
/>
<glyph unicode="3" glyph-name="three" horiz-adv-x="1634" d="M250 1922Q203 1922 170 1889T137 1808Q137 1761 170 1728T250 1695Q297 1695 330 1728T364 1808Q364 1855 331 1888T250 1922ZM764 1396Q717 1396 684 1363T651 1283Q651 1236 684 1203T764 1169Q811
1169 844 1202T877 1283Q877 1330 844 1363T764 1396ZM1021 1394Q974 1394 941 1361T907 1280Q907 1233 940 1200T1021 1167Q1068 1167 1101 1200T1134 1280Q1134 1327 1101 1360T1021 1394ZM255 890Q208 890 175 857T141 777Q141 730 174 697T255 663Q302 663
335 696T368 777Q368 824 335 857T255 890ZM772 639Q725 639 692 606T659 525Q659 478 692 445T772 412Q819 412 852 445T886 525Q886 572 853 605T772 639ZM1029 636Q982 636 949 603T916 523Q916 476 949 443T1029 409Q1076 409 1109 442T1143 523Q1143 570 1110
603T1029 636ZM514 636Q467 636 434 603T401 523Q401 476 434 443T514 409Q561 409 594 442T627 523Q627 570 594 603T514 636ZM1279 1924Q1232 1924 1199 1891T1166 1811Q1166 1764 1199 1731T1279 1697Q1326 1697 1359 1730T1393 1811Q1393 1858 1360 1891T1279
1924ZM1278 1665Q1231 1665 1198 1632T1165 1551Q1165 1504 1198 1471T1278 1438Q1325 1438 1358 1471T1392 1551Q1392 1598 1359 1631T1278 1665ZM1278 1145Q1231 1145 1198 1112T1165 1032Q1165 985 1198 952T1278 918Q1325 918 1358 951T1392 1032Q1392 1079
1359 1112T1278 1145ZM1283 893Q1236 893 1203 860T1170 779Q1170 732 1203 699T1283 666Q1330 666 1363 699T1397 779Q1397 826 1364 859T1283 893ZM762 2182Q715 2182 682 2149T649 2068Q649 2021 682 1988T762 1955Q809 1955 842 1988T876 2068Q876 2115 843
2148T762 2182ZM1019 2179Q972 2179 939 2146T906 2066Q906 2019 939 1986T1019 1952Q1066 1952 1099 1985T1133 2066Q1133 2113 1100 2146T1019 2179ZM504 2179Q457 2179 424 2146T390 2066Q390 2019 423 1986T504 1952Q551 1952 584 1985T617 2066Q617 2113 584
2146T504 2179ZM1527 2298V282H-3V2298H1527Z" />
<glyph unicode="4" glyph-name="four" horiz-adv-x="1634" d="M247 1922Q200 1922 167 1889T134 1808Q134 1761 167 1728T247 1695Q294 1695 327 1728T361 1808Q361 1855 328 1888T247 1922ZM246 1662Q199 1662 166 1629T133 1549Q133 1502 166 1469T246 1435Q293
1435 326 1468T360 1549Q360 1596 327 1629T246 1662ZM249 1394Q202 1394 169 1361T136 1280Q136 1233 169 1200T249 1167Q296 1167 329 1200T362 1280Q362 1327 329 1360T249 1394ZM761 1396Q714 1396 681 1363T647 1283Q647 1236 680 1203T761 1169Q808 1169
841 1202T874 1283Q874 1330 841 1363T761 1396ZM1018 1394Q971 1394 938 1361T904 1280Q904 1233 937 1200T1018 1167Q1065 1167 1098 1200T1131 1280Q1131 1327 1098 1360T1018 1394ZM502 1394Q455 1394 422 1361T389 1280Q389 1233 422 1200T502 1167Q549 1167
582 1200T616 1280Q616 1327 583 1360T502 1394ZM1276 1924Q1229 1924 1196 1891T1163 1811Q1163 1764 1196 1731T1276 1697Q1323 1697 1356 1730T1390 1811Q1390 1858 1357 1891T1276 1924ZM1275 1665Q1228 1665 1195 1632T1162 1551Q1162 1504 1195 1471T1275
1438Q1322 1438 1355 1471T1389 1551Q1389 1598 1356 1631T1275 1665ZM1278 1396Q1231 1396 1198 1363T1164 1283Q1164 1236 1197 1203T1278 1169Q1325 1169 1358 1202T1391 1283Q1391 1330 1358 1363T1278 1396ZM1275 1145Q1228 1145 1195 1112T1162 1032Q1162
985 1195 952T1275 918Q1322 918 1355 951T1389 1032Q1389 1079 1356 1112T1275 1145ZM1280 893Q1233 893 1200 860T1167 779Q1167 732 1200 699T1280 666Q1327 666 1360 699T1394 779Q1394 826 1361 859T1280 893ZM1286 639Q1239 639 1206 606T1173 525Q1173 478
1206 445T1286 412Q1333 412 1366 445T1400 525Q1400 572 1367 605T1286 639ZM247 2179Q200 2179 167 2146T134 2066Q134 2019 167 1986T247 1952Q294 1952 327 1985T361 2066Q361 2113 328 2146T247 2179ZM1276 2182Q1229 2182 1196 2149T1163 2068Q1163 2021
1196 1988T1276 1955Q1323 1955 1356 1988T1390 2068Q1390 2115 1357 2148T1276 2182ZM1526 2298V282H-4V2298H1526Z" />
<glyph unicode="5" glyph-name="five" horiz-adv-x="1637" d="M259 1922Q212 1922 179 1889T146 1808Q146 1761 179 1728T259 1695Q306 1695 339 1728T373 1808Q373 1855 340 1888T259 1922ZM258 1662Q211 1662 178 1629T145 1549Q145 1502 178 1469T258 1435Q305
1435 338 1468T372 1549Q372 1596 339 1629T258 1662ZM261 1394Q214 1394 181 1361T148 1280Q148 1233 181 1200T261 1167Q308 1167 341 1200T374 1280Q374 1327 341 1360T261 1394ZM773 1396Q726 1396 693 1363T659 1283Q659 1236 692 1203T773 1169Q820 1169
853 1202T886 1283Q886 1330 853 1363T773 1396ZM1030 1394Q983 1394 950 1361T916 1280Q916 1233 949 1200T1030 1167Q1077 1167 1110 1200T1143 1280Q1143 1327 1110 1360T1030 1394ZM514 1394Q467 1394 434 1361T401 1280Q401 1233 434 1200T514 1167Q561 1167
594 1200T628 1280Q628 1327 595 1360T514 1394ZM269 636Q222 636 189 603T156 523Q156 476 189 443T269 409Q316 409 349 442T383 523Q383 570 350 603T269 636ZM781 639Q734 639 701 606T668 525Q668 478 701 445T781 412Q828 412 861 445T895 525Q895 572 862
605T781 639ZM1038 636Q991 636 958 603T925 523Q925 476 958 443T1038 409Q1085 409 1118 442T1152 523Q1152 570 1119 603T1038 636ZM523 636Q476 636 443 603T409 523Q409 476 442 443T523 409Q570 409 603 442T636 523Q636 570 603 603T523 636ZM1287 1145Q1240
1145 1207 1112T1174 1032Q1174 985 1207 952T1287 918Q1334 918 1367 951T1401 1032Q1401 1079 1368 1112T1287 1145ZM1292 893Q1245 893 1212 860T1179 779Q1179 732 1212 699T1292 666Q1339 666 1372 699T1406 779Q1406 826 1373 859T1292 893ZM259 2179Q212
2179 179 2146T146 2066Q146 2019 179 1986T259 1952Q306 1952 339 1985T373 2066Q373 2113 340 2146T259 2179ZM771 2182Q724 2182 691 2149T658 2068Q658 2021 691 1988T771 1955Q818 1955 851 1988T885 2068Q885 2115 852 2148T771 2182ZM1028 2179Q981 2179
948 2146T914 2066Q914 2019 947 1986T1028 1952Q1075 1952 1108 1985T1141 2066Q1141 2113 1108 2146T1028 2179ZM513 2179Q466 2179 433 2146T399 2066Q399 2019 432 1986T513 1952Q560 1952 593 1985T626 2066Q626 2113 593 2146T513 2179ZM1288 2182Q1241 2182
1208 2149T1175 2068Q1175 2021 1208 1988T1288 1955Q1335 1955 1368 1988T1402 2068Q1402 2115 1369 2148T1288 2182ZM1529 2298V282H-1V2298H1529Z" />
<glyph unicode="6" glyph-name="six" horiz-adv-x="1637" d="M253 1922Q206 1922 173 1889T140 1808Q140 1761 173 1728T253 1695Q300 1695 333 1728T367 1808Q367 1855 334 1888T253 1922ZM252 1662Q205 1662 172 1629T139 1549Q139 1502 172 1469T252 1435Q299
1435 332 1468T366 1549Q366 1596 333 1629T252 1662ZM255 1394Q208 1394 175 1361T142 1280Q142 1233 175 1200T255 1167Q302 1167 335 1200T368 1280Q368 1327 335 1360T255 1394ZM767 1396Q720 1396 687 1363T653 1283Q653 1236 686 1203T767 1169Q814 1169
847 1202T880 1283Q880 1330 847 1363T767 1396ZM1024 1394Q977 1394 944 1361T910 1280Q910 1233 943 1200T1024 1167Q1071 1167 1104 1200T1137 1280Q1137 1327 1104 1360T1024 1394ZM508 1394Q461 1394 428 1361T395 1280Q395 1233 428 1200T508 1167Q555 1167
588 1200T622 1280Q622 1327 589 1360T508 1394ZM252 1143Q205 1143 172 1110T139 1029Q139 982 172 949T252 916Q299 916 332 949T366 1029Q366 1076 333 1109T252 1143ZM258 890Q211 890 178 857T144 777Q144 730 177 697T258 663Q305 663 338 696T371 777Q371
824 338 857T258 890ZM775 639Q728 639 695 606T662 525Q662 478 695 445T775 412Q822 412 855 445T889 525Q889 572 856 605T775 639ZM1032 636Q985 636 952 603T919 523Q919 476 952 443T1032 409Q1079 409 1112 442T1146 523Q1146 570 1113 603T1032 636ZM517
636Q470 636 437 603T403 523Q403 476 436 443T517 409Q564 409 597 442T630 523Q630 570 597 603T517 636ZM1281 1145Q1234 1145 1201 1112T1168 1032Q1168 985 1201 952T1281 918Q1328 918 1361 951T1395 1032Q1395 1079 1362 1112T1281 1145ZM1286 893Q1239
893 1206 860T1173 779Q1173 732 1206 699T1286 666Q1333 666 1366 699T1400 779Q1400 826 1367 859T1286 893ZM765 2182Q718 2182 685 2149T652 2068Q652 2021 685 1988T765 1955Q812 1955 845 1988T879 2068Q879 2115 846 2148T765 2182ZM1022 2179Q975 2179
942 2146T908 2066Q908 2019 941 1986T1022 1952Q1069 1952 1102 1985T1135 2066Q1135 2113 1102 2146T1022 2179ZM507 2179Q460 2179 427 2146T393 2066Q393 2019 426 1986T507 1952Q554 1952 587 1985T620 2066Q620 2113 587 2146T507 2179ZM1269 1928Q1222 1928
1189 1895T1156 1814Q1156 1767 1189 1734T1269 1701Q1316 1701 1349 1734T1383 1814Q1383 1861 1350 1894T1269 1928ZM1530 2301V285H0V2301H1530Z" />
<glyph unicode="7" glyph-name="seven" horiz-adv-x="1610" d="M1025 1394Q978 1394 945 1361T911 1280Q911 1233 944 1200T1025 1167Q1072 1167 1105 1200T1138 1280Q1138 1327 1105 1360T1025 1394ZM765 1145Q718 1145 685 1112T652 1032Q652 985 685 952T765
918Q812 918 845 951T879 1032Q879 1079 846 1112T765 1145ZM771 893Q724 893 691 860T657 779Q657 732 690 699T771 666Q818 666 851 699T884 779Q884 826 851 859T771 893ZM776 639Q729 639 696 606T663 525Q663 478 696 445T776 412Q823 412 856 445T890 525Q890
572 857 605T776 639ZM1283 1924Q1236 1924 1203 1891T1170 1811Q1170 1764 1203 1731T1283 1697Q1330 1697 1363 1730T1397 1811Q1397 1858 1364 1891T1283 1924ZM1282 1665Q1235 1665 1202 1632T1169 1551Q1169 1504 1202 1471T1282 1438Q1329 1438 1362 1471T1396
1551Q1396 1598 1363 1631T1282 1665ZM254 2179Q207 2179 174 2146T141 2066Q141 2019 174 1986T254 1952Q301 1952 334 1985T368 2066Q368 2113 335 2146T254 2179ZM766 2182Q719 2182 686 2149T653 2068Q653 2021 686 1988T766 1955Q813 1955 846 1988T880 2068Q880
2115 847 2148T766 2182ZM1023 2179Q976 2179 943 2146T910 2066Q910 2019 943 1986T1023 1952Q1070 1952 1103 1985T1137 2066Q1137 2113 1104 2146T1023 2179ZM508 2179Q461 2179 428 2146T394 2066Q394 2019 427 1986T508 1952Q555 1952 588 1985T621 2066Q621
2113 588 2146T508 2179ZM1283 2182Q1236 2182 1203 2149T1170 2068Q1170 2021 1203 1988T1283 1955Q1330 1955 1363 1988T1397 2068Q1397 2115 1364 2148T1283 2182ZM1524 2307V291H-6V2307H1524Z" />
<glyph unicode="8" glyph-name="eight" horiz-adv-x="1631" d="M256 1922Q209 1922 176 1889T143 1808Q143 1761 176 1728T256 1695Q303 1695 336 1728T370 1808Q370 1855 337 1888T256 1922ZM255 1662Q208 1662 175 1629T142 1549Q142 1502 175 1469T255 1435Q302
1435 335 1468T369 1549Q369 1596 336 1629T255 1662ZM770 1396Q723 1396 690 1363T656 1283Q656 1236 689 1203T770 1169Q817 1169 850 1202T883 1283Q883 1330 850 1363T770 1396ZM1027 1394Q980 1394 947 1361T913 1280Q913 1233 946 1200T1027 1167Q1074 1167
1107 1200T1140 1280Q1140 1327 1107 1360T1027 1394ZM511 1394Q464 1394 431 1361T398 1280Q398 1233 431 1200T511 1167Q558 1167 591 1200T625 1280Q625 1327 592 1360T511 1394ZM255 1143Q208 1143 175 1110T142 1029Q142 982 175 949T255 916Q302 916 335
949T369 1029Q369 1076 336 1109T255 1143ZM261 890Q214 890 181 857T147 777Q147 730 180 697T261 663Q308 663 341 696T374 777Q374 824 341 857T261 890ZM778 639Q731 639 698 606T665 525Q665 478 698 445T778 412Q825 412 858 445T892 525Q892 572 859 605T778
639ZM1035 636Q988 636 955 603T922 523Q922 476 955 443T1035 409Q1082 409 1115 442T1149 523Q1149 570 1116 603T1035 636ZM520 636Q473 636 440 603T406 523Q406 476 439 443T520 409Q567 409 600 442T633 523Q633 570 600 603T520 636ZM1285 1924Q1238 1924
1205 1891T1172 1811Q1172 1764 1205 1731T1285 1697Q1332 1697 1365 1730T1399 1811Q1399 1858 1366 1891T1285 1924ZM1284 1665Q1237 1665 1204 1632T1171 1551Q1171 1504 1204 1471T1284 1438Q1331 1438 1364 1471T1398 1551Q1398 1598 1365 1631T1284 1665ZM1284
1145Q1237 1145 1204 1112T1171 1032Q1171 985 1204 952T1284 918Q1331 918 1364 951T1398 1032Q1398 1079 1365 1112T1284 1145ZM1289 893Q1242 893 1209 860T1176 779Q1176 732 1209 699T1289 666Q1336 666 1369 699T1403 779Q1403 826 1370 859T1289 893ZM768
2182Q721 2182 688 2149T655 2068Q655 2021 688 1988T768 1955Q815 1955 848 1988T882 2068Q882 2115 849 2148T768 2182ZM1025 2179Q978 2179 945 2146T911 2066Q911 2019 944 1986T1025 1952Q1072 1952 1105 1985T1138 2066Q1138 2113 1105 2146T1025 2179ZM510
2179Q463 2179 430 2146T396 2066Q396 2019 429 1986T510 1952Q557 1952 590 1985T623 2066Q623 2113 590 2146T510 2179ZM1527 2304V288H-3V2304H1527Z" />
<glyph unicode="9" glyph-name="nine" horiz-adv-x="1627" d="M1285 669Q1332 669 1365 702T1399 783Q1399 830 1366 863T1285 896Q1238 896 1205 863T1172 783Q1172 736 1205 703T1285 669ZM1286 929Q1333 929 1366 962T1400 1042Q1400 1089 1367 1122T1286 1156Q1239
1156 1206 1123T1173 1042Q1173 995 1206 962T1286 929ZM1284 1197Q1331 1197 1364 1230T1397 1311Q1397 1358 1364 1391T1284 1424Q1237 1424 1204 1391T1170 1311Q1170 1264 1203 1231T1284 1197ZM772 1195Q819 1195 852 1228T885 1308Q885 1355 852 1388T772
1422Q725 1422 692 1389T658 1308Q658 1261 691 1228T772 1195ZM515 1197Q562 1197 595 1230T629 1311Q629 1358 596 1391T515 1424Q468 1424 435 1391T402 1311Q402 1264 435 1231T515 1197ZM1030 1197Q1077 1197 1110 1230T1144 1311Q1144 1358 1111 1391T1030
1424Q983 1424 950 1391T917 1311Q917 1264 950 1231T1030 1197ZM1286 1448Q1333 1448 1366 1481T1400 1562Q1400 1609 1367 1642T1286 1675Q1239 1675 1206 1642T1173 1562Q1173 1514 1206 1481T1286 1448ZM1281 1701Q1328 1701 1361 1734T1395 1814Q1395 1861
1362 1894T1281 1928Q1234 1928 1201 1895T1168 1814Q1168 1767 1201 1734T1281 1701ZM763 1952Q810 1952 843 1985T877 2066Q877 2113 844 2146T763 2179Q716 2179 683 2146T650 2066Q650 2019 683 1986T763 1952ZM507 1955Q554 1955 587 1988T620 2068Q620 2115
587 2148T507 2182Q460 2182 427 2149T393 2068Q393 2021 426 1988T507 1955ZM1022 1955Q1069 1955 1102 1988T1135 2068Q1135 2115 1102 2148T1022 2182Q975 2182 942 2149T908 2068Q908 2021 941 1988T1022 1955ZM258 1446Q305 1446 338 1479T371 1559Q371 1606
338 1639T258 1672Q211 1672 178 1639T144 1559Q144 1512 177 1479T258 1446ZM252 1698Q299 1698 332 1731T366 1811Q366 1858 333 1891T252 1925Q205 1925 172 1892T139 1811Q139 1764 172 1731T252 1698ZM774 409Q821 409 854 442T887 523Q887 570 854 603T774
636Q727 636 694 603T660 523Q660 476 693 443T774 409ZM517 412Q564 412 597 445T630 525Q630 572 597 605T517 639Q470 639 437 606T403 525Q403 478 436 445T517 412ZM1032 412Q1079 412 1112 445T1146 525Q1146 572 1113 605T1032 639Q985 639 952 606T919
525Q919 478 952 445T1032 412ZM270 663Q317 663 350 696T383 777Q383 824 350 857T270 890Q223 890 190 857T156 777Q156 730 189 697T270 663ZM1527 2299V283H-3V2299H1527Z" />
<glyph unicode=":" glyph-name="colon" horiz-adv-x="1624" d="M748 1665Q701 1665 668 1632T635 1551Q635 1504 668 1471T748 1438Q795 1438 828 1471T862 1551Q862 1598 829 1631T748 1665ZM748 1145Q701 1145 668 1112T635 1032Q635 985 668 952T748 918Q795
918 828 951T862 1032Q862 1079 829 1112T748 1145ZM1527 2304V288H-3V2304H1527Z" />
<glyph unicode=";" glyph-name="semicolon" horiz-adv-x="1624" d="M765 1665Q718 1665 685 1632T652 1551Q652 1504 685 1471T765 1438Q812 1438 845 1471T879 1551Q879 1598 846 1631T765 1665ZM771 893Q724 893 691 860T657 779Q657 732 690 699T771 666Q818
666 851 699T884 779Q884 826 851 859T771 893ZM776 639Q729 639 696 606T663 525Q663 478 696 445T776 412Q823 412 856 445T890 525Q890 572 857 605T776 639ZM1528 2301V285H-2V2301H1528Z" />
<glyph unicode="&lt;" glyph-name="less" horiz-adv-x="1634" d="M1022 1922Q975 1922 942 1889T909 1808Q909 1761 942 1728T1022 1695Q1069 1695 1102 1728T1136 1808Q1136 1855 1103 1888T1022 1922ZM765 1665Q718 1665 685 1632T651 1551Q651 1504 684 1471T765
1438Q812 1438 845 1471T878 1551Q878 1598 845 1631T765 1665ZM255 1394Q208 1394 175 1361T142 1280Q142 1233 175 1200T255 1167Q302 1167 335 1200T369 1280Q369 1327 336 1360T255 1394ZM509 1394Q462 1394 429 1361T395 1280Q395 1233 428 1200T509 1167Q556
1167 589 1200T622 1280Q622 1327 589 1360T509 1394ZM765 1145Q718 1145 685 1112T651 1032Q651 985 684 952T765 918Q812 918 845 951T878 1032Q878 1079 845 1112T765 1145ZM1027 890Q980 890 947 857T913 777Q913 730 946 697T1027 663Q1074 663 1107 696T1140
777Q1140 824 1107 857T1027 890ZM1293 639Q1246 639 1213 606T1179 525Q1179 478 1212 445T1293 412Q1340 412 1373 445T1406 525Q1406 572 1373 605T1293 639ZM1283 2182Q1235 2182 1202 2149T1169 2068Q1169 2021 1202 1988T1283 1955Q1330 1955 1363 1988T1396
2068Q1396 2115 1363 2148T1283 2182ZM1526 2301V285H-4V2301H1526Z" />
<glyph unicode="=" glyph-name="equal" horiz-adv-x="1628" d="M259 1662Q212 1662 179 1629T146 1549Q146 1502 179 1469T259 1435Q306 1435 339 1468T373 1549Q373 1596 340 1629T259 1662ZM771 1665Q724 1665 691 1632T658 1551Q658 1504 691 1471T771 1438Q818
1438 851 1471T885 1551Q885 1598 852 1631T771 1665ZM1028 1662Q981 1662 948 1629T915 1549Q915 1502 948 1469T1028 1435Q1075 1435 1108 1468T1142 1549Q1142 1596 1109 1629T1028 1662ZM513 1662Q466 1662 433 1629T399 1549Q399 1502 432 1469T513 1435Q560
1435 593 1468T626 1549Q626 1596 593 1629T513 1662ZM259 1143Q212 1143 179 1110T146 1029Q146 982 179 949T259 916Q306 916 339 949T373 1029Q373 1076 340 1109T259 1143ZM771 1145Q724 1145 691 1112T658 1032Q658 985 691 952T771 918Q818 918 851 951T885
1032Q885 1079 852 1112T771 1145ZM1028 1143Q981 1143 948 1110T915 1029Q915 982 948 949T1028 916Q1075 916 1108 949T1142 1029Q1142 1076 1109 1109T1028 1143ZM513 1143Q466 1143 433 1110T399 1029Q399 982 432 949T513 916Q560 916 593 949T626 1029Q626
1076 593 1109T513 1143ZM1288 1665Q1241 1665 1208 1632T1175 1551Q1175 1504 1208 1471T1288 1438Q1335 1438 1368 1471T1402 1551Q1402 1598 1369 1631T1288 1665ZM1288 1145Q1241 1145 1208 1112T1175 1032Q1175 985 1208 952T1288 918Q1335 918 1368 951T1402
1032Q1402 1079 1369 1112T1288 1145ZM1530 2298V282H0V2298H1530Z" />
<glyph unicode="&gt;" glyph-name="greater" horiz-adv-x="1618" d="M488 1922T455 1889T421 1808Q421 1761 454 1728T535 1695Q582 1695 615 1728T648 1808Q648 1855 615 1888T535 1922Q488 1922 455 1889ZM745 1665T712 1632T679 1551Q679 1504 712 1471T792
1438Q839 1438 872 1471T906 1551Q906 1598 873 1631T792 1665Q745 1665 712 1632ZM1255 1394T1222 1361T1188 1280Q1188 1233 1221 1200T1302 1167Q1349 1167 1382 1200T1415 1280Q1415 1327 1382 1360T1302 1394Q1255 1394 1222 1361ZM1001 1394T968 1361T935
1280Q935 1233 968 1200T1048 1167Q1095 1167 1128 1200T1162 1280Q1162 1327 1129 1360T1048 1394Q1001 1394 968 1361ZM745 1145T712 1112T679 1032Q679 985 712 952T792 918Q839 918 872 951T906 1032Q906 1079 873 1112T792 1145Q745 1145 712 1112ZM484 890T451
857T417 777Q417 730 450 697T531 663Q578 663 611 696T644 777Q644 824 611 857T531 890Q484 890 451 857ZM217 639T184 606T151 525Q151 478 184 445T264 412Q311 412 344 445T378 525Q378 572 345 605T264 639Q217 639 184 606ZM228 2182T195 2149T161 2068Q161
2021 194 1988T275 1955Q322 1955 355 1988T388 2068Q388 2115 355 2148T275 2182Q228 2182 195 2149ZM1530 2301V285H0V2301H1530Z" />
<glyph unicode="?" glyph-name="question" horiz-adv-x="1621" d="M253 1922Q206 1922 173 1889T140 1808Q140 1761 173 1728T253 1695Q300 1695 333 1728T367 1808Q367 1855 334 1888T253 1922ZM767 1396Q720 1396 687 1363T654 1283Q654 1236 687 1203T767 1169Q814
1169 847 1202T880 1283Q880 1330 847 1363T767 1396ZM1024 1394Q977 1394 944 1361T910 1280Q910 1233 943 1200T1024 1167Q1071 1167 1104 1200T1137 1280Q1137 1327 1104 1360T1024 1394ZM764 1145Q717 1145 684 1112T651 1032Q651 985 684 952T764 918Q811
918 844 951T878 1032Q878 1079 845 1112T764 1145ZM775 639Q728 639 695 606T662 525Q662 478 695 445T775 412Q822 412 855 445T889 525Q889 572 856 605T775 639ZM1282 1924Q1235 1924 1202 1891T1169 1811Q1169 1764 1202 1731T1282 1697Q1329 1697 1362 1730T1396
1811Q1396 1858 1363 1891T1282 1924ZM1281 1665Q1234 1665 1201 1632T1168 1551Q1168 1504 1201 1471T1281 1438Q1328 1438 1361 1471T1395 1551Q1395 1598 1362 1631T1281 1665ZM765 2182Q718 2182 685 2149T652 2068Q652 2021 685 1988T765 1955Q812 1955 845
1988T879 2068Q879 2115 846 2148T765 2182ZM1022 2179Q975 2179 942 2146T909 2066Q909 2019 942 1986T1022 1952Q1069 1952 1102 1985T1136 2066Q1136 2113 1103 2146T1022 2179ZM507 2179Q460 2179 427 2146T393 2066Q393 2019 426 1986T507 1952Q554 1952 587
1985T620 2066Q620 2113 587 2146T507 2179ZM1530 2301V285H0V2301H1530Z" />
<glyph unicode="@" glyph-name="at" horiz-adv-x="1634" d="M259 1922Q212 1922 179 1889T146 1808Q146 1761 179 1728T259 1695Q306 1695 339 1728T373 1808Q373 1855 340 1888T259 1922ZM258 1662Q211 1662 178 1629T145 1549Q145 1502 178 1469T258 1435Q305
1435 338 1468T372 1549Q372 1596 339 1629T258 1662ZM770 1665Q723 1665 690 1632T657 1551Q657 1504 690 1471T770 1438Q817 1438 850 1471T884 1551Q884 1598 851 1631T770 1665ZM1027 1662Q980 1662 947 1629T914 1549Q914 1502 947 1469T1027 1435Q1074 1435
1107 1468T1141 1549Q1141 1596 1108 1629T1027 1662ZM261 1394Q214 1394 181 1361T148 1280Q148 1233 181 1200T261 1167Q308 1167 341 1200T374 1280Q374 1327 341 1360T261 1394ZM773 1396Q726 1396 693 1363T659 1283Q659 1236 692 1203T773 1169Q820 1169
853 1202T886 1283Q886 1330 853 1363T773 1396ZM258 1143Q211 1143 178 1110T145 1029Q145 982 178 949T258 916Q305 916 338 949T372 1029Q372 1076 339 1109T258 1143ZM770 1145Q723 1145 690 1112T657 1032Q657 985 690 952T770 918Q817 918 850 951T884 1032Q884
1079 851 1112T770 1145ZM1027 1143Q980 1143 947 1110T914 1029Q914 982 947 949T1027 916Q1074 916 1107 949T1141 1029Q1141 1076 1108 1109T1027 1143ZM264 890Q217 890 184 857T150 777Q150 730 183 697T264 663Q311 663 344 696T377 777Q377 824 344 857T264
890ZM781 639Q734 639 701 606T668 525Q668 478 701 445T781 412Q828 412 861 445T895 525Q895 572 862 605T781 639ZM523 636Q476 636 443 603T409 523Q409 476 442 443T523 409Q570 409 603 442T636 523Q636 570 603 603T523 636ZM1288 1924Q1241 1924 1208 1891T1175
1811Q1175 1764 1208 1731T1288 1697Q1335 1697 1368 1730T1402 1811Q1402 1858 1369 1891T1288 1924ZM1287 1665Q1240 1665 1207 1632T1174 1551Q1174 1504 1207 1471T1287 1438Q1334 1438 1367 1471T1401 1551Q1401 1598 1368 1631T1287 1665ZM1290 1396Q1243
1396 1210 1363T1176 1283Q1176 1236 1209 1203T1290 1169Q1337 1169 1370 1202T1403 1283Q1403 1330 1370 1363T1290 1396ZM771 2182Q724 2182 691 2149T658 2068Q658 2021 691 1988T771 1955Q818 1955 851 1988T885 2068Q885 2115 852 2148T771 2182ZM1028 2179Q981
2179 948 2146T914 2066Q914 2019 947 1986T1028 1952Q1075 1952 1108 1985T1141 2066Q1141 2113 1108 2146T1028 2179ZM513 2179Q466 2179 433 2146T399 2066Q399 2019 432 1986T513 1952Q560 1952 593 1985T626 2066Q626 2113 593 2146T513 2179ZM1527 2298V282H-3V2298H1527ZM1287
1143Q1240 1143 1207 1110T1174 1029Q1174 982 1207 949T1287 916Q1334 916 1367 949T1401 1029Q1401 1076 1368 1109T1287 1143Z" />
<glyph unicode="A" glyph-name="A" horiz-adv-x="1627" d="M253 1922Q206 1922 173 1889T140 1808Q140 1761 173 1728T253 1695Q300 1695 333 1728T367 1808Q367 1855 334 1888T253 1922ZM252 1662Q205 1662 172 1629T139 1549Q139 1502 172 1469T252 1435Q299
1435 332 1468T366 1549Q366 1596 333 1629T252 1662ZM255 1394Q208 1394 175 1361T142 1280Q142 1233 175 1200T255 1167Q302 1167 335 1200T368 1280Q368 1327 335 1360T255 1394ZM767 1396Q720 1396 687 1363T653 1283Q653 1236 686 1203T767 1169Q814 1169
847 1202T880 1283Q880 1330 847 1363T767 1396ZM1024 1394Q977 1394 944 1361T910 1280Q910 1233 943 1200T1024 1167Q1071 1167 1104 1200T1137 1280Q1137 1327 1104 1360T1024 1394ZM508 1394Q461 1394 428 1361T395 1280Q395 1233 428 1200T508 1167Q555 1167
588 1200T622 1280Q622 1327 589 1360T508 1394ZM252 1143Q205 1143 172 1110T139 1029Q139 982 172 949T252 916Q299 916 332 949T366 1029Q366 1076 333 1109T252 1143ZM258 890Q211 890 178 857T144 777Q144 730 177 697T258 663Q305 663 338 696T371 777Q371
824 338 857T258 890ZM263 636Q216 636 183 603T150 523Q150 476 183 443T263 409Q310 409 343 442T377 523Q377 570 344 603T263 636ZM1282 1924Q1235 1924 1202 1891T1169 1811Q1169 1764 1202 1731T1282 1697Q1329 1697 1362 1730T1396 1811Q1396 1858 1363
1891T1282 1924ZM1281 1665Q1234 1665 1201 1632T1168 1551Q1168 1504 1201 1471T1281 1438Q1328 1438 1361 1471T1395 1551Q1395 1598 1362 1631T1281 1665ZM1284 1396Q1237 1396 1204 1363T1170 1283Q1170 1236 1203 1203T1284 1169Q1331 1169 1364 1202T1397
1283Q1397 1330 1364 1363T1284 1396ZM1281 1145Q1234 1145 1201 1112T1168 1032Q1168 985 1201 952T1281 918Q1328 918 1361 951T1395 1032Q1395 1079 1362 1112T1281 1145ZM1286 893Q1239 893 1206 860T1173 779Q1173 732 1206 699T1286 666Q1333 666 1366 699T1400
779Q1400 826 1367 859T1286 893ZM1292 639Q1245 639 1212 606T1179 525Q1179 478 1212 445T1292 412Q1339 412 1372 445T1406 525Q1406 572 1373 605T1292 639ZM765 2182Q718 2182 685 2149T652 2068Q652 2021 685 1988T765 1955Q812 1955 845 1988T879 2068Q879
2115 846 2148T765 2182ZM1022 2179Q975 2179 942 2146T908 2066Q908 2019 941 1986T1022 1952Q1069 1952 1102 1985T1135 2066Q1135 2113 1102 2146T1022 2179ZM507 2179Q460 2179 427 2146T393 2066Q393 2019 426 1986T507 1952Q554 1952 587 1985T620 2066Q620
2113 587 2146T507 2179ZM1530 2298V282H0V2298H1530Z" />
<glyph unicode="B" glyph-name="B" horiz-adv-x="1627" d="M250 1922Q203 1922 170 1889T137 1808Q137 1761 170 1728T250 1695Q297 1695 330 1728T364 1808Q364 1855 331 1888T250 1922ZM249 1662Q202 1662 169 1629T136 1549Q136 1502 169 1469T249 1435Q296
1435 329 1468T363 1549Q363 1596 330 1629T249 1662ZM252 1394Q205 1394 172 1361T139 1280Q139 1233 172 1200T252 1167Q299 1167 332 1200T365 1280Q365 1327 332 1360T252 1394ZM764 1396Q717 1396 684 1363T650 1283Q650 1236 683 1203T764 1169Q811 1169
844 1202T877 1283Q877 1330 844 1363T764 1396ZM1021 1394Q974 1394 941 1361T907 1280Q907 1233 940 1200T1021 1167Q1068 1167 1101 1200T1134 1280Q1134 1327 1101 1360T1021 1394ZM505 1394Q458 1394 425 1361T392 1280Q392 1233 425 1200T505 1167Q552 1167
585 1200T619 1280Q619 1327 586 1360T505 1394ZM249 1143Q202 1143 169 1110T136 1029Q136 982 169 949T249 916Q296 916 329 949T363 1029Q363 1076 330 1109T249 1143ZM255 890Q208 890 175 857T141 777Q141 730 174 697T255 663Q302 663 335 696T368 777Q368
824 335 857T255 890ZM260 636Q213 636 180 603T147 523Q147 476 180 443T260 409Q307 409 340 442T374 523Q374 570 341 603T260 636ZM772 639Q725 639 692 606T659 525Q659 478 692 445T772 412Q819 412 852 445T886 525Q886 572 853 605T772 639ZM1029 636Q982
636 949 603T916 523Q916 476 949 443T1029 409Q1076 409 1109 442T1143 523Q1143 570 1110 603T1029 636ZM514 636Q467 636 434 603T400 523Q400 476 433 443T514 409Q561 409 594 442T627 523Q627 570 594 603T514 636ZM1279 1924Q1232 1924 1199 1891T1166 1811Q1166
1764 1199 1731T1279 1697Q1326 1697 1359 1730T1393 1811Q1393 1858 1360 1891T1279 1924ZM1278 1665Q1231 1665 1198 1632T1165 1551Q1165 1504 1198 1471T1278 1438Q1325 1438 1358 1471T1392 1551Q1392 1598 1359 1631T1278 1665ZM1278 1145Q1231 1145 1198
1112T1165 1032Q1165 985 1198 952T1278 918Q1325 918 1358 951T1392 1032Q1392 1079 1359 1112T1278 1145ZM1283 893Q1236 893 1203 860T1170 779Q1170 732 1203 699T1283 666Q1330 666 1363 699T1397 779Q1397 826 1364 859T1283 893ZM250 2179Q203 2179 170
2146T137 2066Q137 2019 170 1986T250 1952Q297 1952 330 1985T364 2066Q364 2113 331 2146T250 2179ZM762 2182Q715 2182 682 2149T649 2068Q649 2021 682 1988T762 1955Q809 1955 842 1988T876 2068Q876 2115 843 2148T762 2182ZM1019 2179Q972 2179 939 2146T905
2066Q905 2019 938 1986T1019 1952Q1066 1952 1099 1985T1132 2066Q1132 2113 1099 2146T1019 2179ZM504 2179Q457 2179 424 2146T390 2066Q390 2019 423 1986T504 1952Q551 1952 584 1985T617 2066Q617 2113 584 2146T504 2179ZM1530 2304V282H0V2304H1530Z" />
<glyph unicode="C" glyph-name="C" horiz-adv-x="1627" d="M253 1922Q206 1922 173 1889T140 1808Q140 1761 173 1728T253 1695Q300 1695 333 1728T367 1808Q367 1855 334 1888T253 1922ZM252 1662Q205 1662 172 1629T139 1549Q139 1502 172 1469T252 1435Q299
1435 332 1468T366 1549Q366 1596 333 1629T252 1662ZM255 1394Q208 1394 175 1361T142 1280Q142 1233 175 1200T255 1167Q302 1167 335 1200T368 1280Q368 1327 335 1360T255 1394ZM252 1143Q205 1143 172 1110T139 1029Q139 982 172 949T252 916Q299 916 332
949T366 1029Q366 1076 333 1109T252 1143ZM258 890Q211 890 178 857T144 777Q144 730 177 697T258 663Q305 663 338 696T371 777Q371 824 338 857T258 890ZM775 639Q728 639 695 606T662 525Q662 478 695 445T775 412Q822 412 855 445T889 525Q889 572 856 605T775
639ZM1032 636Q985 636 952 603T919 523Q919 476 952 443T1032 409Q1079 409 1112 442T1146 523Q1146 570 1113 603T1032 636ZM517 636Q470 636 437 603T403 523Q403 476 436 443T517 409Q564 409 597 442T630 523Q630 570 597 603T517 636ZM1282 1924Q1235 1924
1202 1891T1169 1811Q1169 1764 1202 1731T1282 1697Q1329 1697 1362 1730T1396 1811Q1396 1858 1363 1891T1282 1924ZM1286 893Q1239 893 1206 860T1173 779Q1173 732 1206 699T1286 666Q1333 666 1366 699T1400 779Q1400 826 1367 859T1286 893ZM765 2182Q718
2182 685 2149T652 2068Q652 2021 685 1988T765 1955Q812 1955 845 1988T879 2068Q879 2115 846 2148T765 2182ZM1022 2179Q975 2179 942 2146T908 2066Q908 2019 941 1986T1022 1952Q1069 1952 1102 1985T1135 2066Q1135 2113 1102 2146T1022 2179ZM507 2179Q460
2179 427 2146T393 2066Q393 2019 426 1986T507 1952Q554 1952 587 1985T620 2066Q620 2113 587 2146T507 2179ZM1530 2301V282H0V2301H1530Z" />
<glyph unicode="D" glyph-name="D" horiz-adv-x="1624" d="M253 1922Q206 1922 173 1889T140 1808Q140 1761 173 1728T253 1695Q300 1695 333 1728T367 1808Q367 1855 334 1888T253 1922ZM252 1662Q205 1662 172 1629T139 1549Q139 1502 172 1469T252 1435Q299
1435 332 1468T366 1549Q366 1596 333 1629T252 1662ZM255 1394Q208 1394 175 1361T142 1280Q142 1233 175 1200T255 1167Q302 1167 335 1200T368 1280Q368 1327 335 1360T255 1394ZM252 1143Q205 1143 172 1110T139 1029Q139 982 172 949T252 916Q299 916 332
949T366 1029Q366 1076 333 1109T252 1143ZM258 890Q211 890 178 857T144 777Q144 730 177 697T258 663Q305 663 338 696T371 777Q371 824 338 857T258 890ZM263 636Q216 636 183 603T150 523Q150 476 183 443T263 409Q310 409 343 442T377 523Q377 570 344 603T263
636ZM775 639Q728 639 695 606T662 525Q662 478 695 445T775 412Q822 412 855 445T889 525Q889 572 856 605T775 639ZM1032 636Q985 636 952 603T919 523Q919 476 952 443T1032 409Q1079 409 1112 442T1146 523Q1146 570 1113 603T1032 636ZM517 636Q470 636 437
603T403 523Q403 476 436 443T517 409Q564 409 597 442T630 523Q630 570 597 603T517 636ZM1282 1924Q1235 1924 1202 1891T1169 1811Q1169 1764 1202 1731T1282 1697Q1329 1697 1362 1730T1396 1811Q1396 1858 1363 1891T1282 1924ZM1281 1665Q1234 1665 1201
1632T1168 1551Q1168 1504 1201 1471T1281 1438Q1328 1438 1361 1471T1395 1551Q1395 1598 1362 1631T1281 1665ZM1284 1396Q1237 1396 1204 1363T1170 1283Q1170 1236 1203 1203T1284 1169Q1331 1169 1364 1202T1397 1283Q1397 1330 1364 1363T1284 1396ZM1281
1145Q1234 1145 1201 1112T1168 1032Q1168 985 1201 952T1281 918Q1328 918 1361 951T1395 1032Q1395 1079 1362 1112T1281 1145ZM1286 893Q1239 893 1206 860T1173 779Q1173 732 1206 699T1286 666Q1333 666 1366 699T1400 779Q1400 826 1367 859T1286 893ZM253
2179Q206 2179 173 2146T140 2066Q140 2019 173 1986T253 1952Q300 1952 333 1985T367 2066Q367 2113 334 2146T253 2179ZM765 2182Q718 2182 685 2149T652 2068Q652 2021 685 1988T765 1955Q812 1955 845 1988T879 2068Q879 2115 846 2148T765 2182ZM1022 2179Q975
2179 942 2146T908 2066Q908 2019 941 1986T1022 1952Q1069 1952 1102 1985T1135 2066Q1135 2113 1102 2146T1022 2179ZM507 2179Q460 2179 427 2146T393 2066Q393 2019 426 1986T507 1952Q554 1952 587 1985T620 2066Q620 2113 587 2146T507 2179ZM1530 2301V282H0V2301H1530Z"
/>
<glyph unicode="E" glyph-name="E" horiz-adv-x="1631" d="M256 1922Q209 1922 176 1889T143 1808Q143 1761 176 1728T256 1695Q303 1695 336 1728T370 1808Q370 1855 337 1888T256 1922ZM255 1662Q208 1662 175 1629T142 1549Q142 1502 175 1469T255 1435Q302
1435 335 1468T369 1549Q369 1596 336 1629T255 1662ZM258 1394Q211 1394 178 1361T145 1280Q145 1233 178 1200T258 1167Q305 1167 338 1200T371 1280Q371 1327 338 1360T258 1394ZM770 1396Q723 1396 690 1363T656 1283Q656 1236 689 1203T770 1169Q817 1169
850 1202T883 1283Q883 1330 850 1363T770 1396ZM1027 1394Q980 1394 947 1361T913 1280Q913 1233 946 1200T1027 1167Q1074 1167 1107 1200T1140 1280Q1140 1327 1107 1360T1027 1394ZM511 1394Q464 1394 431 1361T398 1280Q398 1233 431 1200T511 1167Q558 1167
591 1200T625 1280Q625 1327 592 1360T511 1394ZM255 1143Q208 1143 175 1110T142 1029Q142 982 175 949T255 916Q302 916 335 949T369 1029Q369 1076 336 1109T255 1143ZM261 890Q214 890 181 857T147 777Q147 730 180 697T261 663Q308 663 341 696T374 777Q374
824 341 857T261 890ZM266 636Q219 636 186 603T153 523Q153 476 186 443T266 409Q313 409 346 442T380 523Q380 570 347 603T266 636ZM778 639Q731 639 698 606T665 525Q665 478 698 445T778 412Q825 412 858 445T892 525Q892 572 859 605T778 639ZM1035 636Q988
636 955 603T922 523Q922 476 955 443T1035 409Q1082 409 1115 442T1149 523Q1149 570 1116 603T1035 636ZM520 636Q473 636 440 603T406 523Q406 476 439 443T520 409Q567 409 600 442T633 523Q633 570 600 603T520 636ZM1295 639Q1248 639 1215 606T1182 525Q1182
478 1215 445T1295 412Q1342 412 1375 445T1409 525Q1409 572 1376 605T1295 639ZM256 2179Q209 2179 176 2146T143 2066Q143 2019 176 1986T256 1952Q303 1952 336 1985T370 2066Q370 2113 337 2146T256 2179ZM768 2182Q721 2182 688 2149T655 2068Q655 2021 688
1988T768 1955Q815 1955 848 1988T882 2068Q882 2115 849 2148T768 2182ZM1025 2179Q978 2179 945 2146T911 2066Q911 2019 944 1986T1025 1952Q1072 1952 1105 1985T1138 2066Q1138 2113 1105 2146T1025 2179ZM510 2179Q463 2179 430 2146T396 2066Q396 2019 429
1986T510 1952Q557 1952 590 1985T623 2066Q623 2113 590 2146T510 2179ZM1285 2182Q1238 2182 1205 2149T1172 2068Q1172 2021 1205 1988T1285 1955Q1332 1955 1365 1988T1399 2068Q1399 2115 1366 2148T1285 2182ZM1530 2301V282H0V2301H1530Z" />
<glyph unicode="F" glyph-name="F" horiz-adv-x="1627" d="M243 1922Q196 1922 163 1889T130 1808Q130 1761 163 1728T243 1695Q290 1695 323 1728T357 1808Q357 1855 324 1888T243 1922ZM242 1662Q195 1662 162 1629T129 1549Q129 1502 162 1469T242 1435Q289
1435 322 1468T356 1549Q356 1596 323 1629T242 1662ZM245 1394Q198 1394 165 1361T132 1280Q132 1233 165 1200T245 1167Q292 1167 325 1200T358 1280Q358 1327 325 1360T245 1394ZM757 1396Q710 1396 677 1363T643 1283Q643 1236 676 1203T757 1169Q804 1169
837 1202T870 1283Q870 1330 837 1363T757 1396ZM1014 1394Q967 1394 934 1361T900 1280Q900 1233 933 1200T1014 1167Q1061 1167 1094 1200T1127 1280Q1127 1327 1094 1360T1014 1394ZM498 1394Q451 1394 418 1361T385 1280Q385 1233 418 1200T498 1167Q545 1167
578 1200T612 1280Q612 1327 579 1360T498 1394ZM242 1143Q195 1143 162 1110T129 1029Q129 982 162 949T242 916Q289 916 322 949T356 1029Q356 1076 323 1109T242 1143ZM248 890Q201 890 168 857T134 777Q134 730 167 697T248 663Q295 663 328 696T361 777Q361
824 328 857T248 890ZM253 636Q206 636 173 603T140 523Q140 476 173 443T253 409Q300 409 333 442T367 523Q367 570 334 603T253 636ZM243 2179Q196 2179 163 2146T130 2066Q130 2019 163 1986T243 1952Q290 1952 323 1985T357 2066Q357 2113 324 2146T243 2179ZM755
2182Q708 2182 675 2149T642 2068Q642 2021 675 1988T755 1955Q802 1955 835 1988T869 2068Q869 2115 836 2148T755 2182ZM1012 2179Q965 2179 932 2146T898 2066Q898 2019 931 1986T1012 1952Q1059 1952 1092 1985T1125 2066Q1125 2113 1092 2146T1012 2179ZM497
2179Q450 2179 417 2146T383 2066Q383 2019 416 1986T497 1952Q544 1952 577 1985T610 2066Q610 2113 577 2146T497 2179ZM1272 2182Q1225 2182 1192 2149T1159 2068Q1159 2021 1192 1988T1272 1955Q1319 1955 1352 1988T1386 2068Q1386 2115 1353 2148T1272 2182ZM1530
2301V282H0V2301H1530Z" />
<glyph unicode="G" glyph-name="G" horiz-adv-x="1634" d="M244 1922Q197 1922 164 1889T131 1808Q131 1761 164 1728T244 1695Q291 1695 324 1728T358 1808Q358 1855 325 1888T244 1922ZM243 1662Q196 1662 163 1629T130 1549Q130 1502 163 1469T243 1435Q290
1435 323 1468T357 1549Q357 1596 324 1629T243 1662ZM246 1394Q199 1394 166 1361T133 1280Q133 1233 166 1200T246 1167Q293 1167 326 1200T359 1280Q359 1327 326 1360T246 1394ZM758 1396Q711 1396 678 1363T644 1283Q644 1236 677 1203T758 1169Q805 1169
838 1202T871 1283Q871 1330 838 1363T758 1396ZM1015 1394Q968 1394 935 1361T901 1280Q901 1233 934 1200T1015 1167Q1062 1167 1095 1200T1128 1280Q1128 1327 1095 1360T1015 1394ZM243 1143Q196 1143 163 1110T130 1029Q130 982 163 949T243 916Q290 916 323
949T357 1029Q357 1076 324 1109T243 1143ZM249 890Q202 890 169 857T135 777Q135 730 168 697T249 663Q296 663 329 696T362 777Q362 824 329 857T249 890ZM766 639Q719 639 686 606T653 525Q653 478 686 445T766 412Q813 412 846 445T880 525Q880 572 847 605T766
639ZM1023 636Q976 636 943 603T910 523Q910 476 943 443T1023 409Q1070 409 1103 442T1137 523Q1137 570 1104 603T1023 636ZM508 636Q461 636 428 603T394 523Q394 476 427 443T508 409Q555 409 588 442T621 523Q621 570 588 603T508 636ZM1273 1924Q1226 1924
1193 1891T1160 1811Q1160 1764 1193 1731T1273 1697Q1320 1697 1353 1730T1387 1811Q1387 1858 1354 1891T1273 1924ZM1275 1396Q1228 1396 1195 1363T1161 1283Q1161 1236 1194 1203T1275 1169Q1322 1169 1355 1202T1388 1283Q1388 1330 1355 1363T1275 1396ZM1272
1145Q1225 1145 1192 1112T1159 1032Q1159 985 1192 952T1272 918Q1319 918 1352 951T1386 1032Q1386 1079 1353 1112T1272 1145ZM1277 893Q1230 893 1197 860T1164 779Q1164 732 1197 699T1277 666Q1324 666 1357 699T1391 779Q1391 826 1358 859T1277 893ZM756
2182Q709 2182 676 2149T643 2068Q643 2021 676 1988T756 1955Q803 1955 836 1988T870 2068Q870 2115 837 2148T756 2182ZM1013 2179Q966 2179 933 2146T899 2066Q899 2019 932 1986T1013 1952Q1060 1952 1093 1985T1126 2066Q1126 2113 1093 2146T1013 2179ZM498
2179Q451 2179 418 2146T384 2066Q384 2019 417 1986T498 1952Q545 1952 578 1985T611 2066Q611 2113 578 2146T498 2179ZM1530 2298V282H0V2298H1530Z" />
<glyph unicode="H" glyph-name="H" horiz-adv-x="1637" d="M250 1922Q203 1922 170 1889T137 1808Q137 1761 170 1728T250 1695Q297 1695 330 1728T364 1808Q364 1855 331 1888T250 1922ZM249 1662Q202 1662 169 1629T136 1549Q136 1502 169 1469T249 1435Q296
1435 329 1468T363 1549Q363 1596 330 1629T249 1662ZM252 1394Q205 1394 172 1361T139 1280Q139 1233 172 1200T252 1167Q299 1167 332 1200T365 1280Q365 1327 332 1360T252 1394ZM764 1396Q717 1396 684 1363T650 1283Q650 1236 683 1203T764 1169Q811 1169
844 1202T877 1283Q877 1330 844 1363T764 1396ZM1021 1394Q974 1394 941 1361T907 1280Q907 1233 940 1200T1021 1167Q1068 1167 1101 1200T1134 1280Q1134 1327 1101 1360T1021 1394ZM505 1394Q458 1394 425 1361T392 1280Q392 1233 425 1200T505 1167Q552 1167
585 1200T619 1280Q619 1327 586 1360T505 1394ZM249 1143Q202 1143 169 1110T136 1029Q136 982 169 949T249 916Q296 916 329 949T363 1029Q363 1076 330 1109T249 1143ZM255 890Q208 890 175 857T141 777Q141 730 174 697T255 663Q302 663 335 696T368 777Q368
824 335 857T255 890ZM260 636Q213 636 180 603T147 523Q147 476 180 443T260 409Q307 409 340 442T374 523Q374 570 341 603T260 636ZM1279 1924Q1232 1924 1199 1891T1166 1811Q1166 1764 1199 1731T1279 1697Q1326 1697 1359 1730T1393 1811Q1393 1858 1360
1891T1279 1924ZM1278 1665Q1231 1665 1198 1632T1165 1551Q1165 1504 1198 1471T1278 1438Q1325 1438 1358 1471T1392 1551Q1392 1598 1359 1631T1278 1665ZM1281 1396Q1234 1396 1201 1363T1167 1283Q1167 1236 1200 1203T1281 1169Q1328 1169 1361 1202T1394
1283Q1394 1330 1361 1363T1281 1396ZM1278 1145Q1231 1145 1198 1112T1165 1032Q1165 985 1198 952T1278 918Q1325 918 1358 951T1392 1032Q1392 1079 1359 1112T1278 1145ZM1283 893Q1236 893 1203 860T1170 779Q1170 732 1203 699T1283 666Q1330 666 1363 699T1397
779Q1397 826 1364 859T1283 893ZM1289 639Q1242 639 1209 606T1176 525Q1176 478 1209 445T1289 412Q1336 412 1369 445T1403 525Q1403 572 1370 605T1289 639ZM250 2179Q203 2179 170 2146T137 2066Q137 2019 170 1986T250 1952Q297 1952 330 1985T364 2066Q364
2113 331 2146T250 2179ZM1279 2182Q1232 2182 1199 2149T1166 2068Q1166 2021 1199 1988T1279 1955Q1326 1955 1359 1988T1393 2068Q1393 2115 1360 2148T1279 2182ZM1530 2301V282H0V2301H1530Z" />
<glyph unicode="I" glyph-name="I" horiz-adv-x="1627" d="M768 1924Q721 1924 688 1891T655 1811Q655 1764 688 1731T768 1697Q815 1697 848 1730T882 1811Q882 1858 849 1891T768 1924ZM767 1665Q720 1665 687 1632T654 1551Q654 1504 687 1471T767 1438Q814
1438 847 1471T881 1551Q881 1598 848 1631T767 1665ZM770 1396Q723 1396 690 1363T657 1283Q657 1236 690 1203T770 1169Q817 1169 850 1202T883 1283Q883 1330 850 1363T770 1396ZM767 1145Q720 1145 687 1112T654 1032Q654 985 687 952T767 918Q814 918 847
951T881 1032Q881 1079 848 1112T767 1145ZM773 893Q726 893 693 860T659 779Q659 732 692 699T773 666Q820 666 853 699T886 779Q886 826 853 859T773 893ZM267 636Q220 636 187 603T153 523Q153 476 186 443T267 409Q314 409 347 442T380 523Q380 570 347 603T267
636ZM778 639Q731 639 698 606T665 525Q665 478 698 445T778 412Q825 412 858 445T892 525Q892 572 859 605T778 639ZM1035 636Q988 636 955 603T922 523Q922 476 955 443T1035 409Q1082 409 1115 442T1149 523Q1149 570 1116 603T1035 636ZM520 636Q473 636 440
603T407 523Q407 476 440 443T520 409Q567 409 600 442T633 523Q633 570 600 603T520 636ZM1295 639Q1248 639 1215 606T1182 525Q1182 478 1215 445T1295 412Q1342 412 1375 445T1409 525Q1409 572 1376 605T1295 639ZM256 2179Q209 2179 176 2146T143 2066Q143
2019 176 1986T256 1952Q303 1952 336 1985T370 2066Q370 2113 337 2146T256 2179ZM768 2182Q721 2182 688 2149T655 2068Q655 2021 688 1988T768 1955Q815 1955 848 1988T882 2068Q882 2115 849 2148T768 2182ZM1025 2179Q978 2179 945 2146T912 2066Q912 2019
945 1986T1025 1952Q1072 1952 1105 1985T1139 2066Q1139 2113 1106 2146T1025 2179ZM510 2179Q463 2179 430 2146T396 2066Q396 2019 429 1986T510 1952Q557 1952 590 1985T623 2066Q623 2113 590 2146T510 2179ZM1285 2182Q1238 2182 1205 2149T1172 2068Q1172
2021 1205 1988T1285 1955Q1332 1955 1365 1988T1399 2068Q1399 2115 1366 2148T1285 2182ZM1530 2301V282H0V2301H1530Z" />
<glyph unicode="J" glyph-name="J" horiz-adv-x="1637" d="M248 890Q201 890 168 857T135 777Q135 730 168 697T248 663Q295 663 328 696T362 777Q362 824 329 857T248 890ZM766 639Q719 639 686 606T653 525Q653 478 686 445T766 412Q813 412 846 445T880 525Q880
572 847 605T766 639ZM1023 636Q976 636 943 603T910 523Q910 476 943 443T1023 409Q1070 409 1103 442T1136 523Q1136 570 1103 603T1023 636ZM508 636Q461 636 428 603T394 523Q394 476 427 443T508 409Q555 409 588 442T621 523Q621 570 588 603T508 636ZM1273
1924Q1226 1924 1193 1891T1159 1811Q1159 1764 1192 1731T1273 1697Q1320 1697 1353 1730T1386 1811Q1386 1858 1353 1891T1273 1924ZM1272 1665Q1225 1665 1192 1632T1159 1551Q1159 1504 1192 1471T1272 1438Q1319 1438 1352 1471T1386 1551Q1386 1598 1353
1631T1272 1665ZM1275 1396Q1228 1396 1195 1363T1161 1283Q1161 1236 1194 1203T1275 1169Q1322 1169 1355 1202T1388 1283Q1388 1330 1355 1363T1275 1396ZM1272 1145Q1225 1145 1192 1112T1159 1032Q1159 985 1192 952T1272 918Q1319 918 1352 951T1386 1032Q1386
1079 1353 1112T1272 1145ZM1277 893Q1230 893 1197 860T1164 779Q1164 732 1197 699T1277 666Q1324 666 1357 699T1391 779Q1391 826 1358 859T1277 893ZM1273 2182Q1226 2182 1193 2149T1159 2068Q1159 2021 1192 1988T1273 1955Q1320 1955 1353 1988T1386 2068Q1386
2115 1353 2148T1273 2182ZM1530 2298V282H0V2298H1530Z" />
<glyph unicode="K" glyph-name="K" horiz-adv-x="1631" d="M250 1922Q203 1922 170 1889T137 1808Q137 1761 170 1728T250 1695Q297 1695 330 1728T364 1808Q364 1855 331 1888T250 1922ZM1019 1922Q972 1922 939 1889T905 1808Q905 1761 938 1728T1019 1695Q1066
1695 1099 1728T1132 1808Q1132 1855 1099 1888T1019 1922ZM249 1662Q202 1662 169 1629T136 1549Q136 1502 169 1469T249 1435Q296 1435 329 1468T363 1549Q363 1596 330 1629T249 1662ZM761 1665Q714 1665 681 1632T648 1551Q648 1504 681 1471T761 1438Q808
1438 841 1471T875 1551Q875 1598 842 1631T761 1665ZM252 1394Q205 1394 172 1361T139 1280Q139 1233 172 1200T252 1167Q299 1167 332 1200T365 1280Q365 1327 332 1360T252 1394ZM505 1394Q458 1394 425 1361T392 1280Q392 1233 425 1200T505 1167Q552 1167
585 1200T619 1280Q619 1327 586 1360T505 1394ZM249 1143Q202 1143 169 1110T136 1029Q136 982 169 949T249 916Q296 916 329 949T363 1029Q363 1076 330 1109T249 1143ZM761 1145Q714 1145 681 1112T648 1032Q648 985 681 952T761 918Q808 918 841 951T875 1032Q875
1079 842 1112T761 1145ZM255 890Q208 890 175 857T141 777Q141 730 174 697T255 663Q302 663 335 696T368 777Q368 824 335 857T255 890ZM1023 890Q976 890 943 857T910 777Q910 730 943 697T1023 663Q1070 663 1103 696T1137 777Q1137 824 1104 857T1023 890ZM260
636Q213 636 180 603T147 523Q147 476 180 443T260 409Q307 409 340 442T374 523Q374 570 341 603T260 636ZM1289 639Q1242 639 1209 606T1176 525Q1176 478 1209 445T1289 412Q1336 412 1369 445T1403 525Q1403 572 1370 605T1289 639ZM250 2179Q203 2179 170
2146T137 2066Q137 2019 170 1986T250 1952Q297 1952 330 1985T364 2066Q364 2113 331 2146T250 2179ZM1279 2182Q1232 2182 1199 2149T1166 2068Q1166 2021 1199 1988T1279 1955Q1326 1955 1359 1988T1393 2068Q1393 2115 1360 2148T1279 2182ZM1527 2301V282H-3V2301H1527Z"
/>
<glyph unicode="L" glyph-name="L" horiz-adv-x="1637" d="M239 1922Q192 1922 159 1889T126 1808Q126 1761 159 1728T239 1695Q286 1695 319 1728T353 1808Q353 1855 320 1888T239 1922ZM238 1662Q191 1662 158 1629T125 1549Q125 1502 158 1469T238 1435Q285
1435 318 1468T352 1549Q352 1596 319 1629T238 1662ZM241 1394Q194 1394 161 1361T128 1280Q128 1233 161 1200T241 1167Q288 1167 321 1200T354 1280Q354 1327 321 1360T241 1394ZM238 1143Q191 1143 158 1110T125 1029Q125 982 158 949T238 916Q285 916 318
949T352 1029Q352 1076 319 1109T238 1143ZM244 890Q197 890 164 857T130 777Q130 730 163 697T244 663Q291 663 324 696T357 777Q357 824 324 857T244 890ZM249 636Q202 636 169 603T136 523Q136 476 169 443T249 409Q296 409 329 442T363 523Q363 570 330 603T249
636ZM761 639Q714 639 681 606T648 525Q648 478 681 445T761 412Q808 412 841 445T875 525Q875 572 842 605T761 639ZM1018 636Q971 636 938 603T905 523Q905 476 938 443T1018 409Q1065 409 1098 442T1132 523Q1132 570 1099 603T1018 636ZM503 636Q456 636 423
603T389 523Q389 476 422 443T503 409Q550 409 583 442T616 523Q616 570 583 603T503 636ZM1278 639Q1231 639 1198 606T1165 525Q1165 478 1198 445T1278 412Q1325 412 1358 445T1392 525Q1392 572 1359 605T1278 639ZM239 2179Q192 2179 159 2146T126 2066Q126
2019 159 1986T239 1952Q286 1952 319 1985T353 2066Q353 2113 320 2146T239 2179ZM1525 2298V279H-5V2298H1525Z" />
<glyph unicode="M" glyph-name="M" horiz-adv-x="1640" d="M248 1922Q201 1922 168 1889T135 1808Q135 1761 168 1728T248 1695Q295 1695 328 1728T362 1808Q362 1855 329 1888T248 1922ZM1017 1922Q970 1922 937 1889T903 1808Q903 1761 936 1728T1017 1695Q1064
1695 1097 1728T1130 1808Q1130 1855 1097 1888T1017 1922ZM502 1922Q455 1922 422 1889T388 1808Q388 1761 421 1728T502 1695Q549 1695 582 1728T615 1808Q615 1855 582 1888T502 1922ZM247 1662Q200 1662 167 1629T134 1549Q134 1502 167 1469T247 1435Q294
1435 327 1468T361 1549Q361 1596 328 1629T247 1662ZM759 1665Q712 1665 679 1632T646 1551Q646 1504 679 1471T759 1438Q806 1438 839 1471T873 1551Q873 1598 840 1631T759 1665ZM250 1394Q203 1394 170 1361T137 1280Q137 1233 170 1200T250 1167Q297 1167
330 1200T363 1280Q363 1327 330 1360T250 1394ZM247 1143Q200 1143 167 1110T134 1029Q134 982 167 949T247 916Q294 916 327 949T361 1029Q361 1076 328 1109T247 1143ZM253 890Q206 890 173 857T139 777Q139 730 172 697T253 663Q300 663 333 696T366 777Q366
824 333 857T253 890ZM258 636Q211 636 178 603T145 523Q145 476 178 443T258 409Q305 409 338 442T372 523Q372 570 339 603T258 636ZM1277 1924Q1230 1924 1197 1891T1164 1811Q1164 1764 1197 1731T1277 1697Q1324 1697 1357 1730T1391 1811Q1391 1858 1358
1891T1277 1924ZM1276 1665Q1229 1665 1196 1632T1163 1551Q1163 1504 1196 1471T1276 1438Q1323 1438 1356 1471T1390 1551Q1390 1598 1357 1631T1276 1665ZM1279 1396Q1232 1396 1199 1363T1165 1283Q1165 1236 1198 1203T1279 1169Q1326 1169 1359 1202T1392
1283Q1392 1330 1359 1363T1279 1396ZM1276 1145Q1229 1145 1196 1112T1163 1032Q1163 985 1196 952T1276 918Q1323 918 1356 951T1390 1032Q1390 1079 1357 1112T1276 1145ZM1281 893Q1234 893 1201 860T1168 779Q1168 732 1201 699T1281 666Q1328 666 1361 699T1395
779Q1395 826 1362 859T1281 893ZM1287 639Q1240 639 1207 606T1174 525Q1174 478 1207 445T1287 412Q1334 412 1367 445T1401 525Q1401 572 1368 605T1287 639ZM248 2179Q201 2179 168 2146T135 2066Q135 2019 168 1986T248 1952Q295 1952 328 1985T362 2066Q362
2113 329 2146T248 2179ZM1277 2182Q1230 2182 1197 2149T1164 2068Q1164 2021 1197 1988T1277 1955Q1324 1955 1357 1988T1391 2068Q1391 2115 1358 2148T1277 2182ZM764 1400Q717 1400 684 1367T651 1286Q651 1239 684 1206T764 1173Q811 1173 844 1206T878 1286Q878
1333 845 1366T764 1400ZM1529 2301V285H-1V2301H1529Z" />
<glyph unicode="N" glyph-name="N" horiz-adv-x="1627" d="M247 1922Q200 1922 167 1889T134 1808Q134 1761 167 1728T247 1695Q294 1695 327 1728T361 1808Q361 1855 328 1888T247 1922ZM501 1922Q454 1922 421 1889T387 1808Q387 1761 420 1728T501 1695Q548
1695 581 1728T614 1808Q614 1855 581 1888T501 1922ZM246 1662Q199 1662 166 1629T133 1549Q133 1502 166 1469T246 1435Q293 1435 326 1468T360 1549Q360 1596 327 1629T246 1662ZM758 1665Q711 1665 678 1632T645 1551Q645 1504 678 1471T758 1438Q805 1438
838 1471T872 1551Q872 1598 839 1631T758 1665ZM249 1394Q202 1394 169 1361T136 1280Q136 1233 169 1200T249 1167Q296 1167 329 1200T362 1280Q362 1327 329 1360T249 1394ZM1018 1394Q971 1394 938 1361T904 1280Q904 1233 937 1200T1018 1167Q1065 1167 1098
1200T1131 1280Q1131 1327 1098 1360T1018 1394ZM246 1143Q199 1143 166 1110T133 1029Q133 982 166 949T246 916Q293 916 326 949T360 1029Q360 1076 327 1109T246 1143ZM252 890Q205 890 172 857T138 777Q138 730 171 697T252 663Q299 663 332 696T365 777Q365
824 332 857T252 890ZM257 636Q210 636 177 603T144 523Q144 476 177 443T257 409Q304 409 337 442T371 523Q371 570 338 603T257 636ZM1276 1924Q1229 1924 1196 1891T1163 1811Q1163 1764 1196 1731T1276 1697Q1323 1697 1356 1730T1390 1811Q1390 1858 1357
1891T1276 1924ZM1275 1665Q1228 1665 1195 1632T1162 1551Q1162 1504 1195 1471T1275 1438Q1322 1438 1355 1471T1389 1551Q1389 1598 1356 1631T1275 1665ZM1278 1396Q1231 1396 1198 1363T1164 1283Q1164 1236 1197 1203T1278 1169Q1325 1169 1358 1202T1391
1283Q1391 1330 1358 1363T1278 1396ZM1275 1145Q1228 1145 1195 1112T1162 1032Q1162 985 1195 952T1275 918Q1322 918 1355 951T1389 1032Q1389 1079 1356 1112T1275 1145ZM1280 893Q1233 893 1200 860T1167 779Q1167 732 1200 699T1280 666Q1327 666 1360 699T1394
779Q1394 826 1361 859T1280 893ZM1286 639Q1239 639 1206 606T1173 525Q1173 478 1206 445T1286 412Q1333 412 1366 445T1400 525Q1400 572 1367 605T1286 639ZM247 2179Q200 2179 167 2146T134 2066Q134 2019 167 1986T247 1952Q294 1952 327 1985T361 2066Q361
2113 328 2146T247 2179ZM1276 2182Q1229 2182 1196 2149T1163 2068Q1163 2021 1196 1988T1276 1955Q1323 1955 1356 1988T1390 2068Q1390 2115 1357 2148T1276 2182ZM1529 2301V285H-1V2301H1529Z" />
<glyph unicode="O" glyph-name="O" horiz-adv-x="1631" d="M253 1922Q206 1922 173 1889T140 1808Q140 1761 173 1728T253 1695Q300 1695 333 1728T367 1808Q367 1855 334 1888T253 1922ZM252 1662Q205 1662 172 1629T139 1549Q139 1502 172 1469T252 1435Q299
1435 332 1468T366 1549Q366 1596 333 1629T252 1662ZM255 1394Q208 1394 175 1361T142 1280Q142 1233 175 1200T255 1167Q302 1167 335 1200T368 1280Q368 1327 335 1360T255 1394ZM252 1143Q205 1143 172 1110T139 1029Q139 982 172 949T252 916Q299 916 332
949T366 1029Q366 1076 333 1109T252 1143ZM258 890Q211 890 178 857T144 777Q144 730 177 697T258 663Q305 663 338 696T371 777Q371 824 338 857T258 890ZM775 639Q728 639 695 606T662 525Q662 478 695 445T775 412Q822 412 855 445T889 525Q889 572 856 605T775
639ZM1032 636Q985 636 952 603T919 523Q919 476 952 443T1032 409Q1079 409 1112 442T1146 523Q1146 570 1113 603T1032 636ZM517 636Q470 636 437 603T403 523Q403 476 436 443T517 409Q564 409 597 442T630 523Q630 570 597 603T517 636ZM1282 1924Q1235 1924
1202 1891T1169 1811Q1169 1764 1202 1731T1282 1697Q1329 1697 1362 1730T1396 1811Q1396 1858 1363 1891T1282 1924ZM1281 1665Q1234 1665 1201 1632T1168 1551Q1168 1504 1201 1471T1281 1438Q1328 1438 1361 1471T1395 1551Q1395 1598 1362 1631T1281 1665ZM1284
1396Q1237 1396 1204 1363T1170 1283Q1170 1236 1203 1203T1284 1169Q1331 1169 1364 1202T1397 1283Q1397 1330 1364 1363T1284 1396ZM1281 1145Q1234 1145 1201 1112T1168 1032Q1168 985 1201 952T1281 918Q1328 918 1361 951T1395 1032Q1395 1079 1362 1112T1281
1145ZM1286 893Q1239 893 1206 860T1173 779Q1173 732 1206 699T1286 666Q1333 666 1366 699T1400 779Q1400 826 1367 859T1286 893ZM765 2182Q718 2182 685 2149T652 2068Q652 2021 685 1988T765 1955Q812 1955 845 1988T879 2068Q879 2115 846 2148T765 2182ZM1022
2179Q975 2179 942 2146T908 2066Q908 2019 941 1986T1022 1952Q1069 1952 1102 1985T1135 2066Q1135 2113 1102 2146T1022 2179ZM507 2179Q460 2179 427 2146T393 2066Q393 2019 426 1986T507 1952Q554 1952 587 1985T620 2066Q620 2113 587 2146T507 2179ZM1526
2298V282H-4V2298H1526Z" />
<glyph unicode="P" glyph-name="P" horiz-adv-x="1637" d="M251 1922Q204 1922 171 1889T138 1808Q138 1761 171 1728T251 1695Q298 1695 331 1728T365 1808Q365 1855 332 1888T251 1922ZM250 1662Q203 1662 170 1629T137 1549Q137 1502 170 1469T250 1435Q297
1435 330 1468T364 1549Q364 1596 331 1629T250 1662ZM253 1394Q206 1394 173 1361T140 1280Q140 1233 173 1200T253 1167Q300 1167 333 1200T366 1280Q366 1327 333 1360T253 1394ZM765 1396Q718 1396 685 1363T651 1283Q651 1236 684 1203T765 1169Q812 1169
845 1202T878 1283Q878 1330 845 1363T765 1396ZM1022 1394Q975 1394 942 1361T908 1280Q908 1233 941 1200T1022 1167Q1069 1167 1102 1200T1135 1280Q1135 1327 1102 1360T1022 1394ZM506 1394Q459 1394 426 1361T393 1280Q393 1233 426 1200T506 1167Q553 1167
586 1200T620 1280Q620 1327 587 1360T506 1394ZM250 1143Q203 1143 170 1110T137 1029Q137 982 170 949T250 916Q297 916 330 949T364 1029Q364 1076 331 1109T250 1143ZM256 890Q209 890 176 857T142 777Q142 730 175 697T256 663Q303 663 336 696T369 777Q369
824 336 857T256 890ZM261 636Q214 636 181 603T148 523Q148 476 181 443T261 409Q308 409 341 442T375 523Q375 570 342 603T261 636ZM1280 1924Q1233 1924 1200 1891T1167 1811Q1167 1764 1200 1731T1280 1697Q1327 1697 1360 1730T1394 1811Q1394 1858 1361
1891T1280 1924ZM1279 1665Q1232 1665 1199 1632T1166 1551Q1166 1504 1199 1471T1279 1438Q1326 1438 1359 1471T1393 1551Q1393 1598 1360 1631T1279 1665ZM251 2179Q204 2179 171 2146T138 2066Q138 2019 171 1986T251 1952Q298 1952 331 1985T365 2066Q365
2113 332 2146T251 2179ZM763 2182Q716 2182 683 2149T650 2068Q650 2021 683 1988T763 1955Q810 1955 843 1988T877 2068Q877 2115 844 2148T763 2182ZM1020 2179Q973 2179 940 2146T906 2066Q906 2019 939 1986T1020 1952Q1067 1952 1100 1985T1133 2066Q1133
2113 1100 2146T1020 2179ZM505 2179Q458 2179 425 2146T391 2066Q391 2019 424 1986T505 1952Q552 1952 585 1985T618 2066Q618 2113 585 2146T505 2179ZM1528 2298V282H-2V2298H1528Z" />
<glyph unicode="Q" glyph-name="Q" horiz-adv-x="1637" d="M247 1922Q200 1922 167 1889T134 1808Q134 1761 167 1728T247 1695Q294 1695 327 1728T361 1808Q361 1855 328 1888T247 1922ZM246 1662Q199 1662 166 1629T133 1549Q133 1502 166 1469T246 1435Q293
1435 326 1468T360 1549Q360 1596 327 1629T246 1662ZM249 1394Q202 1394 169 1361T136 1280Q136 1233 169 1200T249 1167Q296 1167 329 1200T362 1280Q362 1327 329 1360T249 1394ZM246 1143Q199 1143 166 1110T133 1029Q133 982 166 949T246 916Q293 916 326
949T360 1029Q360 1076 327 1109T246 1143ZM758 1145Q711 1145 678 1112T645 1032Q645 985 678 952T758 918Q805 918 838 951T872 1032Q872 1079 839 1112T758 1145ZM252 890Q205 890 172 857T138 777Q138 730 171 697T252 663Q299 663 332 696T365 777Q365 824
332 857T252 890ZM1020 890Q973 890 940 857T907 777Q907 730 940 697T1020 663Q1067 663 1100 696T1134 777Q1134 824 1101 857T1020 890ZM769 639Q722 639 689 606T656 525Q656 478 689 445T769 412Q816 412 849 445T883 525Q883 572 850 605T769 639ZM1026 636Q979
636 946 603T913 523Q913 476 946 443T1026 409Q1073 409 1106 442T1140 523Q1140 570 1107 603T1026 636ZM511 636Q464 636 431 603T397 523Q397 476 430 443T511 409Q558 409 591 442T624 523Q624 570 591 603T511 636ZM1276 1924Q1229 1924 1196 1891T1163 1811Q1163
1764 1196 1731T1276 1697Q1323 1697 1356 1730T1390 1811Q1390 1858 1357 1891T1276 1924ZM1275 1665Q1228 1665 1195 1632T1162 1551Q1162 1504 1195 1471T1275 1438Q1322 1438 1355 1471T1389 1551Q1389 1598 1356 1631T1275 1665ZM1278 1396Q1231 1396 1198
1363T1164 1283Q1164 1236 1197 1203T1278 1169Q1325 1169 1358 1202T1391 1283Q1391 1330 1358 1363T1278 1396ZM1275 1145Q1228 1145 1195 1112T1162 1032Q1162 985 1195 952T1275 918Q1322 918 1355 951T1389 1032Q1389 1079 1356 1112T1275 1145ZM1280 893Q1233
893 1200 860T1167 779Q1167 732 1200 699T1280 666Q1327 666 1360 699T1394 779Q1394 826 1361 859T1280 893ZM759 2182Q712 2182 679 2149T646 2068Q646 2021 679 1988T759 1955Q806 1955 839 1988T873 2068Q873 2115 840 2148T759 2182ZM1016 2179Q969 2179
936 2146T902 2066Q902 2019 935 1986T1016 1952Q1063 1952 1096 1985T1129 2066Q1129 2113 1096 2146T1016 2179ZM501 2179Q454 2179 421 2146T387 2066Q387 2019 420 1986T501 1952Q548 1952 581 1985T614 2066Q614 2113 581 2146T501 2179ZM1529 2301V285H-1V2301H1529Z"
/>
<glyph unicode="R" glyph-name="R" horiz-adv-x="1631" d="M250 1922Q203 1922 170 1889T137 1808Q137 1761 170 1728T250 1695Q297 1695 330 1728T364 1808Q364 1855 331 1888T250 1922ZM249 1662Q202 1662 169 1629T136 1549Q136 1502 169 1469T249 1435Q296
1435 329 1468T363 1549Q363 1596 330 1629T249 1662ZM252 1394Q205 1394 172 1361T139 1280Q139 1233 172 1200T252 1167Q299 1167 332 1200T365 1280Q365 1327 332 1360T252 1394ZM764 1396Q717 1396 684 1363T650 1283Q650 1236 683 1203T764 1169Q811 1169
844 1202T877 1283Q877 1330 844 1363T764 1396ZM1021 1394Q974 1394 941 1361T907 1280Q907 1233 940 1200T1021 1167Q1068 1167 1101 1200T1134 1280Q1134 1327 1101 1360T1021 1394ZM505 1394Q458 1394 425 1361T392 1280Q392 1233 425 1200T505 1167Q552 1167
585 1200T619 1280Q619 1327 586 1360T505 1394ZM249 1143Q202 1143 169 1110T136 1029Q136 982 169 949T249 916Q296 916 329 949T363 1029Q363 1076 330 1109T249 1143ZM761 1145Q714 1145 681 1112T648 1032Q648 985 681 952T761 918Q808 918 841 951T875 1032Q875
1079 842 1112T761 1145ZM255 890Q208 890 175 857T141 777Q141 730 174 697T255 663Q302 663 335 696T368 777Q368 824 335 857T255 890ZM1023 890Q976 890 943 857T910 777Q910 730 943 697T1023 663Q1070 663 1103 696T1137 777Q1137 824 1104 857T1023 890ZM260
636Q213 636 180 603T147 523Q147 476 180 443T260 409Q307 409 340 442T374 523Q374 570 341 603T260 636ZM1279 1924Q1232 1924 1199 1891T1166 1811Q1166 1764 1199 1731T1279 1697Q1326 1697 1359 1730T1393 1811Q1393 1858 1360 1891T1279 1924ZM1278 1665Q1231
1665 1198 1632T1165 1551Q1165 1504 1198 1471T1278 1438Q1325 1438 1358 1471T1392 1551Q1392 1598 1359 1631T1278 1665ZM1289 639Q1242 639 1209 606T1176 525Q1176 478 1209 445T1289 412Q1336 412 1369 445T1403 525Q1403 572 1370 605T1289 639ZM250 2179Q203
2179 170 2146T137 2066Q137 2019 170 1986T250 1952Q297 1952 330 1985T364 2066Q364 2113 331 2146T250 2179ZM762 2182Q715 2182 682 2149T649 2068Q649 2021 682 1988T762 1955Q809 1955 842 1988T876 2068Q876 2115 843 2148T762 2182ZM1019 2179Q972 2179
939 2146T905 2066Q905 2019 938 1986T1019 1952Q1066 1952 1099 1985T1132 2066Q1132 2113 1099 2146T1019 2179ZM504 2179Q457 2179 424 2146T390 2066Q390 2019 423 1986T504 1952Q551 1952 584 1985T617 2066Q617 2113 584 2146T504 2179ZM1527 2301V285H-3V2301H1527Z"
/>
<glyph unicode="S" glyph-name="S" horiz-adv-x="1634" d="M247 1922Q200 1922 167 1889T134 1808Q134 1761 167 1728T247 1695Q294 1695 327 1728T361 1808Q361 1855 328 1888T247 1922ZM246 1662Q199 1662 166 1629T133 1549Q133 1502 166 1469T246 1435Q293
1435 326 1468T360 1549Q360 1596 327 1629T246 1662ZM761 1396Q714 1396 681 1363T647 1283Q647 1236 680 1203T761 1169Q808 1169 841 1202T874 1283Q874 1330 841 1363T761 1396ZM1018 1394Q971 1394 938 1361T904 1280Q904 1233 937 1200T1018 1167Q1065 1167
1098 1200T1131 1280Q1131 1327 1098 1360T1018 1394ZM502 1394Q455 1394 422 1361T389 1280Q389 1233 422 1200T502 1167Q549 1167 582 1200T616 1280Q616 1327 583 1360T502 1394ZM257 636Q210 636 177 603T144 523Q144 476 177 443T257 409Q304 409 337 442T371
523Q371 570 338 603T257 636ZM769 639Q722 639 689 606T656 525Q656 478 689 445T769 412Q816 412 849 445T883 525Q883 572 850 605T769 639ZM1026 636Q979 636 946 603T913 523Q913 476 946 443T1026 409Q1073 409 1106 442T1140 523Q1140 570 1107 603T1026
636ZM511 636Q464 636 431 603T397 523Q397 476 430 443T511 409Q558 409 591 442T624 523Q624 570 591 603T511 636ZM1275 1145Q1228 1145 1195 1112T1162 1032Q1162 985 1195 952T1275 918Q1322 918 1355 951T1389 1032Q1389 1079 1356 1112T1275 1145ZM1280
893Q1233 893 1200 860T1167 779Q1167 732 1200 699T1280 666Q1327 666 1360 699T1394 779Q1394 826 1361 859T1280 893ZM759 2182Q712 2182 679 2149T646 2068Q646 2021 679 1988T759 1955Q806 1955 839 1988T873 2068Q873 2115 840 2148T759 2182ZM1016 2179Q969
2179 936 2146T902 2066Q902 2019 935 1986T1016 1952Q1063 1952 1096 1985T1129 2066Q1129 2113 1096 2146T1016 2179ZM501 2179Q454 2179 421 2146T387 2066Q387 2019 420 1986T501 1952Q548 1952 581 1985T614 2066Q614 2113 581 2146T501 2179ZM1276 2182Q1229
2182 1196 2149T1163 2068Q1163 2021 1196 1988T1276 1955Q1323 1955 1356 1988T1390 2068Q1390 2115 1357 2148T1276 2182ZM1529 2301V285H-1V2301H1529Z" />
<glyph unicode="T" glyph-name="T" horiz-adv-x="1631" d="M759 1924Q712 1924 679 1891T646 1811Q646 1764 679 1731T759 1697Q806 1697 839 1730T873 1811Q873 1858 840 1891T759 1924ZM758 1665Q711 1665 678 1632T645 1551Q645 1504 678 1471T758 1438Q805
1438 838 1471T872 1551Q872 1598 839 1631T758 1665ZM761 1396Q714 1396 681 1363T648 1283Q648 1236 681 1203T761 1169Q808 1169 841 1202T874 1283Q874 1330 841 1363T761 1396ZM758 1145Q711 1145 678 1112T645 1032Q645 985 678 952T758 918Q805 918 838
951T872 1032Q872 1079 839 1112T758 1145ZM764 893Q717 893 684 860T650 779Q650 732 683 699T764 666Q811 666 844 699T877 779Q877 826 844 859T764 893ZM769 639Q722 639 689 606T656 525Q656 478 689 445T769 412Q816 412 849 445T883 525Q883 572 850 605T769
639ZM247 2179Q200 2179 167 2146T134 2066Q134 2019 167 1986T247 1952Q294 1952 327 1985T361 2066Q361 2113 328 2146T247 2179ZM759 2182Q712 2182 679 2149T646 2068Q646 2021 679 1988T759 1955Q806 1955 839 1988T873 2068Q873 2115 840 2148T759 2182ZM1016
2179Q969 2179 936 2146T903 2066Q903 2019 936 1986T1016 1952Q1063 1952 1096 1985T1130 2066Q1130 2113 1097 2146T1016 2179ZM501 2179Q454 2179 421 2146T387 2066Q387 2019 420 1986T501 1952Q548 1952 581 1985T614 2066Q614 2113 581 2146T501 2179ZM1276
2182Q1229 2182 1196 2149T1163 2068Q1163 2021 1196 1988T1276 1955Q1323 1955 1356 1988T1390 2068Q1390 2115 1357 2148T1276 2182ZM1530 2298V282H0V2298H1530Z" />
<glyph unicode="U" glyph-name="U" horiz-adv-x="1637" d="M244 1922Q197 1922 164 1889T131 1808Q131 1761 164 1728T244 1695Q291 1695 324 1728T358 1808Q358 1855 325 1888T244 1922ZM243 1662Q196 1662 163 1629T130 1549Q130 1502 163 1469T243 1435Q290
1435 323 1468T357 1549Q357 1596 324 1629T243 1662ZM246 1394Q199 1394 166 1361T133 1280Q133 1233 166 1200T246 1167Q293 1167 326 1200T359 1280Q359 1327 326 1360T246 1394ZM243 1143Q196 1143 163 1110T130 1029Q130 982 163 949T243 916Q290 916 323
949T357 1029Q357 1076 324 1109T243 1143ZM249 890Q202 890 169 857T135 777Q135 730 168 697T249 663Q296 663 329 696T362 777Q362 824 329 857T249 890ZM766 639Q719 639 686 606T653 525Q653 478 686 445T766 412Q813 412 846 445T880 525Q880 572 847 605T766
639ZM1023 636Q976 636 943 603T910 523Q910 476 943 443T1023 409Q1070 409 1103 442T1137 523Q1137 570 1104 603T1023 636ZM508 636Q461 636 428 603T394 523Q394 476 427 443T508 409Q555 409 588 442T621 523Q621 570 588 603T508 636ZM1273 1924Q1226 1924
1193 1891T1160 1811Q1160 1764 1193 1731T1273 1697Q1320 1697 1353 1730T1387 1811Q1387 1858 1354 1891T1273 1924ZM1272 1665Q1225 1665 1192 1632T1159 1551Q1159 1504 1192 1471T1272 1438Q1319 1438 1352 1471T1386 1551Q1386 1598 1353 1631T1272 1665ZM1275
1396Q1228 1396 1195 1363T1161 1283Q1161 1236 1194 1203T1275 1169Q1322 1169 1355 1202T1388 1283Q1388 1330 1355 1363T1275 1396ZM1272 1145Q1225 1145 1192 1112T1159 1032Q1159 985 1192 952T1272 918Q1319 918 1352 951T1386 1032Q1386 1079 1353 1112T1272
1145ZM1277 893Q1230 893 1197 860T1164 779Q1164 732 1197 699T1277 666Q1324 666 1357 699T1391 779Q1391 826 1358 859T1277 893ZM244 2179Q197 2179 164 2146T131 2066Q131 2019 164 1986T244 1952Q291 1952 324 1985T358 2066Q358 2113 325 2146T244 2179ZM1273
2182Q1226 2182 1193 2149T1160 2068Q1160 2021 1193 1988T1273 1955Q1320 1955 1353 1988T1387 2068Q1387 2115 1354 2148T1273 2182ZM1527 2301V285H-3V2301H1527Z" />
<glyph unicode="V" glyph-name="V" horiz-adv-x="1634" d="M253 1922Q206 1922 173 1889T140 1808Q140 1761 173 1728T253 1695Q300 1695 333 1728T367 1808Q367 1855 334 1888T253 1922ZM252 1662Q205 1662 172 1629T139 1549Q139 1502 172 1469T252 1435Q299
1435 332 1468T366 1549Q366 1596 333 1629T252 1662ZM255 1394Q208 1394 175 1361T142 1280Q142 1233 175 1200T255 1167Q302 1167 335 1200T368 1280Q368 1327 335 1360T255 1394ZM252 1143Q205 1143 172 1110T139 1029Q139 982 172 949T252 916Q299 916 332
949T366 1029Q366 1076 333 1109T252 1143ZM1026 890Q979 890 946 857T913 777Q913 730 946 697T1026 663Q1073 663 1106 696T1140 777Q1140 824 1107 857T1026 890ZM511 890Q464 890 431 857T397 777Q397 730 430 697T511 663Q558 663 591 696T624 777Q624 824
591 857T511 890ZM775 639Q728 639 695 606T662 525Q662 478 695 445T775 412Q822 412 855 445T889 525Q889 572 856 605T775 639ZM1282 1924Q1235 1924 1202 1891T1169 1811Q1169 1764 1202 1731T1282 1697Q1329 1697 1362 1730T1396 1811Q1396 1858 1363 1891T1282
1924ZM1281 1665Q1234 1665 1201 1632T1168 1551Q1168 1504 1201 1471T1281 1438Q1328 1438 1361 1471T1395 1551Q1395 1598 1362 1631T1281 1665ZM1284 1396Q1237 1396 1204 1363T1170 1283Q1170 1236 1203 1203T1284 1169Q1331 1169 1364 1202T1397 1283Q1397
1330 1364 1363T1284 1396ZM1281 1145Q1234 1145 1201 1112T1168 1032Q1168 985 1201 952T1281 918Q1328 918 1361 951T1395 1032Q1395 1079 1362 1112T1281 1145ZM253 2179Q206 2179 173 2146T140 2066Q140 2019 173 1986T253 1952Q300 1952 333 1985T367 2066Q367
2113 334 2146T253 2179ZM1282 2182Q1235 2182 1202 2149T1169 2068Q1169 2021 1202 1988T1282 1955Q1329 1955 1362 1988T1396 2068Q1396 2115 1363 2148T1282 2182ZM1530 2301V285H0V2301H1530Z" />
<glyph unicode="W" glyph-name="W" horiz-adv-x="1634" d="M288 669T321 702T355 783Q355 830 322 863T241 896Q194 896 161 863T128 783Q128 736 161 703T241 669Q288 669 321 702ZM1057 669T1090 702T1123 783Q1123 830 1090 863T1010 896Q963 896 930 863T896
783Q896 736 929 703T1010 669Q1057 669 1090 702ZM542 669T575 702T608 783Q608 830 575 863T495 896Q448 896 415 863T381 783Q381 736 414 703T495 669Q542 669 575 702ZM287 929T320 962T354 1042Q354 1089 321 1122T240 1156Q193 1156 160 1123T127 1042Q127
995 160 962T240 929Q287 929 320 962ZM799 926T832 959T866 1040Q866 1087 833 1120T752 1153Q705 1153 672 1120T639 1040Q639 993 672 960T752 926Q799 926 832 959ZM290 1197T323 1230T356 1311Q356 1358 323 1391T243 1424Q196 1424 163 1391T130 1311Q130
1264 163 1231T243 1197Q290 1197 323 1230ZM287 1448T320 1481T354 1562Q354 1609 321 1642T240 1675Q193 1675 160 1642T127 1562Q127 1514 160 1481T240 1448Q287 1448 320 1481ZM293 1701T326 1734T359 1814Q359 1861 326 1894T246 1928Q199 1928 166 1895T132
1814Q132 1767 165 1734T246 1701Q293 1701 326 1734ZM298 1955T331 1988T365 2068Q365 2115 332 2148T251 2182Q204 2182 171 2149T138 2068Q138 2021 171 1988T251 1955Q298 1955 331 1988ZM1317 667T1350 700T1384 780Q1384 827 1351 860T1270 894Q1223 894
1190 861T1157 780Q1157 733 1190 700T1270 667Q1317 667 1350 700ZM1316 926T1349 959T1383 1040Q1383 1087 1350 1120T1269 1153Q1222 1153 1189 1120T1156 1040Q1156 993 1189 960T1269 926Q1316 926 1349 959ZM1319 1195T1352 1228T1385 1308Q1385 1355 1352
1388T1272 1422Q1225 1422 1192 1389T1158 1308Q1158 1261 1191 1228T1272 1195Q1319 1195 1352 1228ZM1316 1446T1349 1479T1383 1559Q1383 1606 1350 1639T1269 1672Q1222 1672 1189 1639T1156 1559Q1156 1512 1189 1479T1269 1446Q1316 1446 1349 1479ZM1321
1698T1354 1731T1388 1811Q1388 1858 1355 1891T1274 1925Q1227 1925 1194 1892T1161 1811Q1161 1764 1194 1731T1274 1698Q1321 1698 1354 1731ZM1327 1952T1360 1985T1394 2066Q1394 2113 1361 2146T1280 2179Q1233 2179 1200 2146T1167 2066Q1167 2019 1200
1986T1280 1952Q1327 1952 1360 1985ZM288 412T321 445T355 525Q355 572 322 605T241 639Q194 639 161 606T128 525Q128 478 161 445T241 412Q288 412 321 445ZM1317 409T1350 442T1384 523Q1384 570 1351 603T1270 636Q1223 636 1190 603T1157 523Q1157 476 1190
443T1270 409Q1317 409 1350 442ZM804 1191T837 1224T871 1305Q871 1352 838 1385T757 1418Q710 1418 677 1385T644 1305Q644 1258 677 1225T757 1191Q804 1191 837 1224ZM1530 2298V282H0V2298H1530Z" />
<glyph unicode="X" glyph-name="X" horiz-adv-x="1631" d="M244 1922Q197 1922 164 1889T131 1808Q131 1761 164 1728T244 1695Q291 1695 324 1728T358 1808Q358 1855 325 1888T244 1922ZM1012 1662Q965 1662 932 1629T899 1549Q899 1502 932 1469T1012 1435Q1059
1435 1092 1468T1126 1549Q1126 1596 1093 1629T1012 1662ZM497 1662Q450 1662 417 1629T384 1549Q384 1502 417 1469T497 1435Q544 1435 577 1468T610 1549Q610 1596 577 1629T497 1662ZM758 1396Q711 1396 678 1363T645 1283Q645 1236 678 1203T758 1169Q805
1169 838 1202T871 1283Q871 1330 838 1363T758 1396ZM1012 1143Q965 1143 932 1110T899 1029Q899 982 932 949T1012 916Q1059 916 1092 949T1126 1029Q1126 1076 1093 1109T1012 1143ZM497 1143Q450 1143 417 1110T384 1029Q384 982 417 949T497 916Q544 916 577
949T610 1029Q610 1076 577 1109T497 1143ZM249 890Q202 890 169 857T135 777Q135 730 168 697T249 663Q296 663 329 696T362 777Q362 824 329 857T249 890ZM255 636Q208 636 175 603T141 523Q141 476 174 443T255 409Q302 409 335 442T368 523Q368 570 335 603T255
636ZM1273 1924Q1226 1924 1193 1891T1160 1811Q1160 1764 1193 1731T1273 1697Q1320 1697 1353 1730T1387 1811Q1387 1858 1354 1891T1273 1924ZM1277 893Q1230 893 1197 860T1164 779Q1164 732 1197 699T1277 666Q1324 666 1357 699T1391 779Q1391 826 1358 859T1277
893ZM1283 639Q1236 639 1203 606T1170 525Q1170 478 1203 445T1283 412Q1330 412 1363 445T1397 525Q1397 572 1364 605T1283 639ZM244 2179Q197 2179 164 2146T131 2066Q131 2019 164 1986T244 1952Q291 1952 324 1985T358 2066Q358 2113 325 2146T244 2179ZM1273
2182Q1226 2182 1193 2149T1160 2068Q1160 2021 1193 1988T1273 1955Q1320 1955 1353 1988T1387 2068Q1387 2115 1354 2148T1273 2182ZM1530 2304V288H0V2304H1530Z" />
<glyph unicode="Y" glyph-name="Y" horiz-adv-x="1637" d="M250 1922Q203 1922 170 1889T137 1808Q137 1761 170 1728T250 1695Q297 1695 330 1728T364 1808Q364 1855 331 1888T250 1922ZM249 1662Q202 1662 169 1629T136 1549Q136 1502 169 1469T249 1435Q296
1435 329 1468T363 1549Q363 1596 330 1629T249 1662ZM764 1396Q717 1396 684 1363T650 1283Q650 1236 683 1203T764 1169Q811 1169 844 1202T877 1283Q877 1330 844 1363T764 1396ZM1021 1394Q974 1394 941 1361T907 1280Q907 1233 940 1200T1021 1167Q1068 1167
1101 1200T1134 1280Q1134 1327 1101 1360T1021 1394ZM505 1394Q458 1394 425 1361T392 1280Q392 1233 425 1200T505 1167Q552 1167 585 1200T619 1280Q619 1327 586 1360T505 1394ZM761 1145Q714 1145 681 1112T648 1032Q648 985 681 952T761 918Q808 918 841
951T875 1032Q875 1079 842 1112T761 1145ZM766 893Q719 893 686 860T653 779Q653 732 686 699T766 666Q813 666 846 699T880 779Q880 826 847 859T766 893ZM772 639Q725 639 692 606T659 525Q659 478 692 445T772 412Q819 412 852 445T886 525Q886 572 853 605T772
639ZM1279 1924Q1232 1924 1199 1891T1166 1811Q1166 1764 1199 1731T1279 1697Q1326 1697 1359 1730T1393 1811Q1393 1858 1360 1891T1279 1924ZM1278 1665Q1231 1665 1198 1632T1165 1551Q1165 1504 1198 1471T1278 1438Q1325 1438 1358 1471T1392 1551Q1392
1598 1359 1631T1278 1665ZM250 2179Q203 2179 170 2146T137 2066Q137 2019 170 1986T250 1952Q297 1952 330 1985T364 2066Q364 2113 331 2146T250 2179ZM1279 2182Q1232 2182 1199 2149T1166 2068Q1166 2021 1199 1988T1279 1955Q1326 1955 1359 1988T1393 2068Q1393
2115 1360 2148T1279 2182ZM1530 2298V282H0V2298H1530Z" />
<glyph unicode="Z" glyph-name="Z" horiz-adv-x="1634" d="M1012 1662Q965 1662 932 1629T899 1549Q899 1502 932 1469T1012 1435Q1059 1435 1092 1468T1126 1549Q1126 1596 1093 1629T1012 1662ZM758 1396Q711 1396 678 1363T645 1283Q645 1236 678 1203T758
1169Q805 1169 838 1202T871 1283Q871 1330 838 1363T758 1396ZM497 1143Q450 1143 417 1110T384 1029Q384 982 417 949T497 916Q544 916 577 949T610 1029Q610 1076 577 1109T497 1143ZM249 890Q202 890 169 857T135 777Q135 730 168 697T249 663Q296 663 329
696T362 777Q362 824 329 857T249 890ZM255 636Q208 636 175 603T141 523Q141 476 174 443T255 409Q302 409 335 442T368 523Q368 570 335 603T255 636ZM766 639Q719 639 686 606T653 525Q653 478 686 445T766 412Q813 412 846 445T880 525Q880 572 847 605T766
639ZM1023 636Q976 636 943 603T910 523Q910 476 943 443T1023 409Q1070 409 1103 442T1137 523Q1137 570 1104 603T1023 636ZM508 636Q461 636 428 603T395 523Q395 476 428 443T508 409Q555 409 588 442T621 523Q621 570 588 603T508 636ZM1273 1924Q1226 1924
1193 1891T1160 1811Q1160 1764 1193 1731T1273 1697Q1320 1697 1353 1730T1387 1811Q1387 1858 1354 1891T1273 1924ZM1283 639Q1236 639 1203 606T1170 525Q1170 478 1203 445T1283 412Q1330 412 1363 445T1397 525Q1397 572 1364 605T1283 639ZM244 2179Q197
2179 164 2146T131 2066Q131 2019 164 1986T244 1952Q291 1952 324 1985T358 2066Q358 2113 325 2146T244 2179ZM756 2182Q709 2182 676 2149T643 2068Q643 2021 676 1988T756 1955Q803 1955 836 1988T870 2068Q870 2115 837 2148T756 2182ZM1013 2179Q966 2179
933 2146T900 2066Q900 2019 933 1986T1013 1952Q1060 1952 1093 1985T1127 2066Q1127 2113 1094 2146T1013 2179ZM498 2179Q451 2179 418 2146T384 2066Q384 2019 417 1986T498 1952Q545 1952 578 1985T611 2066Q611 2113 578 2146T498 2179ZM1273 2182Q1226 2182
1193 2149T1160 2068Q1160 2021 1193 1988T1273 1955Q1320 1955 1353 1988T1387 2068Q1387 2115 1354 2148T1273 2182ZM1527 2298V282H-3V2298H1527Z" />
<glyph unicode="[" glyph-name="bracketleft" horiz-adv-x="1637" d="M244 1922Q197 1922 164 1889T131 1808Q131 1761 164 1728T244 1695Q291 1695 324 1728T358 1808Q358 1855 325 1888T244 1922ZM243 1662Q196 1662 163 1629T130 1549Q130 1502 163 1469T243
1435Q290 1435 323 1468T357 1549Q357 1596 324 1629T243 1662ZM246 1394Q199 1394 166 1361T133 1280Q133 1233 166 1200T246 1167Q293 1167 326 1200T359 1280Q359 1327 326 1360T246 1394ZM243 1143Q196 1143 163 1110T130 1029Q130 982 163 949T243 916Q290
916 323 949T357 1029Q357 1076 324 1109T243 1143ZM249 890Q202 890 169 857T135 777Q135 730 168 697T249 663Q296 663 329 696T362 777Q362 824 329 857T249 890ZM254 636Q207 636 174 603T141 523Q141 476 174 443T254 409Q301 409 334 442T368 523Q368 570
335 603T254 636ZM766 639Q719 639 686 606T653 525Q653 478 686 445T766 412Q813 412 846 445T880 525Q880 572 847 605T766 639ZM1023 636Q976 636 943 603T910 523Q910 476 943 443T1023 409Q1070 409 1103 442T1137 523Q1137 570 1104 603T1023 636ZM508 636Q461
636 428 603T394 523Q394 476 427 443T508 409Q555 409 588 442T621 523Q621 570 588 603T508 636ZM1283 639Q1236 639 1203 606T1170 525Q1170 478 1203 445T1283 412Q1330 412 1363 445T1397 525Q1397 572 1364 605T1283 639ZM244 2179Q197 2179 164 2146T131
2066Q131 2019 164 1986T244 1952Q291 1952 324 1985T358 2066Q358 2113 325 2146T244 2179ZM756 2182Q709 2182 676 2149T643 2068Q643 2021 676 1988T756 1955Q803 1955 836 1988T870 2068Q870 2115 837 2148T756 2182ZM1013 2179Q966 2179 933 2146T899 2066Q899
2019 932 1986T1013 1952Q1060 1952 1093 1985T1126 2066Q1126 2113 1093 2146T1013 2179ZM498 2179Q451 2179 418 2146T384 2066Q384 2019 417 1986T498 1952Q545 1952 578 1985T611 2066Q611 2113 578 2146T498 2179ZM1273 2182Q1226 2182 1193 2149T1160 2068Q1160
2021 1193 1988T1273 1955Q1320 1955 1353 1988T1387 2068Q1387 2115 1354 2148T1273 2182ZM1527 2298V282H-3V2298H1527Z" />
<glyph unicode="\" glyph-name="backslash" horiz-adv-x="1624" d="M465 1662T432 1629T399 1549Q399 1502 432 1469T512 1435Q559 1435 592 1468T626 1549Q626 1596 593 1629T512 1662Q465 1662 432 1629ZM720 1396T687 1363T653 1283Q653 1236 686 1203T767
1169Q814 1169 847 1202T880 1283Q880 1330 847 1363T767 1396Q720 1396 687 1363ZM981 1143T948 1110T914 1029Q914 982 947 949T1028 916Q1075 916 1108 949T1141 1029Q1141 1076 1108 1109T1028 1143Q981 1143 948 1110ZM1229 890T1196 857T1162 777Q1162 730
1195 697T1276 663Q1323 663 1356 696T1389 777Q1389 824 1356 857T1276 890Q1229 890 1196 857ZM204 1924T171 1891T138 1811Q138 1764 171 1731T251 1697Q298 1697 331 1730T365 1811Q365 1858 332 1891T251 1924Q204 1924 171 1891ZM1530 2298V282H0V2298H1530Z"
/>
<glyph unicode="]" glyph-name="bracketright" horiz-adv-x="1631" d="M258 636Q211 636 178 603T144 523Q144 476 177 443T258 409Q305 409 338 442T371 523Q371 570 338 603T258 636ZM769 639Q722 639 689 606T656 525Q656 478 689 445T769 412Q816 412 849
445T883 525Q883 572 850 605T769 639ZM1026 636Q979 636 946 603T913 523Q913 476 946 443T1026 409Q1073 409 1106 442T1140 523Q1140 570 1107 603T1026 636ZM511 636Q464 636 431 603T398 523Q398 476 431 443T511 409Q558 409 591 442T624 523Q624 570 591
603T511 636ZM1276 1924Q1229 1924 1196 1891T1163 1811Q1163 1764 1196 1731T1276 1697Q1323 1697 1356 1730T1390 1811Q1390 1858 1357 1891T1276 1924ZM1275 1665Q1228 1665 1195 1632T1162 1551Q1162 1504 1195 1471T1275 1438Q1322 1438 1355 1471T1389 1551Q1389
1598 1356 1631T1275 1665ZM1278 1396Q1231 1396 1198 1363T1164 1283Q1164 1236 1197 1203T1278 1169Q1325 1169 1358 1202T1391 1283Q1391 1330 1358 1363T1278 1396ZM1275 1145Q1228 1145 1195 1112T1162 1032Q1162 985 1195 952T1275 918Q1322 918 1355 951T1389
1032Q1389 1079 1356 1112T1275 1145ZM1280 893Q1233 893 1200 860T1167 779Q1167 732 1200 699T1280 666Q1327 666 1360 699T1394 779Q1394 826 1361 859T1280 893ZM1286 639Q1239 639 1206 606T1173 525Q1173 478 1206 445T1286 412Q1333 412 1366 445T1400 525Q1400
572 1367 605T1286 639ZM247 2179Q200 2179 167 2146T134 2066Q134 2019 167 1986T247 1952Q294 1952 327 1985T361 2066Q361 2113 328 2146T247 2179ZM759 2182Q712 2182 679 2149T646 2068Q646 2021 679 1988T759 1955Q806 1955 839 1988T873 2068Q873 2115 840
2148T759 2182ZM1016 2179Q969 2179 936 2146T903 2066Q903 2019 936 1986T1016 1952Q1063 1952 1096 1985T1130 2066Q1130 2113 1097 2146T1016 2179ZM501 2179Q454 2179 421 2146T387 2066Q387 2019 420 1986T501 1952Q548 1952 581 1985T614 2066Q614 2113 581
2146T501 2179ZM1276 2182Q1229 2182 1196 2149T1163 2068Q1163 2021 1196 1988T1276 1955Q1323 1955 1356 1988T1390 2068Q1390 2115 1357 2148T1276 2182ZM1530 2298V282H0V2298H1530Z" />
<glyph unicode="^" glyph-name="asciicircum" horiz-adv-x="1624" d="M786 1665Q739 1665 706 1632T673 1551Q673 1504 706 1471T786 1438Q833 1438 866 1471T900 1551Q900 1598 867 1631T786 1665ZM786 1145Q739 1145 706 1112T673 1032Q673 985 706 952T786
918Q833 918 866 951T900 1032Q900 1079 867 1112T786 1145ZM1524 2301V285H-6V2301H1524Z" />
<glyph unicode="_" glyph-name="underscore" horiz-adv-x="1631" d="M257 636Q210 636 177 603T144 523Q144 476 177 443T257 409Q304 409 337 442T371 523Q371 570 338 603T257 636ZM769 639Q722 639 689 606T656 525Q656 478 689 445T769 412Q816 412 849 445T883
525Q883 572 850 605T769 639ZM1026 636Q979 636 946 603T913 523Q913 476 946 443T1026 409Q1073 409 1106 442T1140 523Q1140 570 1107 603T1026 636ZM511 636Q464 636 431 603T397 523Q397 476 430 443T511 409Q558 409 591 442T624 523Q624 570 591 603T511
636ZM1286 639Q1239 639 1206 606T1173 525Q1173 478 1206 445T1286 412Q1333 412 1366 445T1400 525Q1400 572 1367 605T1286 639ZM1530 2298V282H0V2298H1530Z" />
<glyph unicode="`" glyph-name="grave" horiz-adv-x="1631" d="M1531 2294V295H1V2294H1531Z" />
<glyph unicode="a" glyph-name="a" horiz-adv-x="1621" d="M755 1396Q708 1396 675 1363T641 1283Q641 1236 674 1203T755 1169Q802 1169 835 1202T868 1283Q868 1330 835 1363T755 1396ZM1012 1394Q965 1394 932 1361T898 1280Q898 1233 931 1200T1012 1167Q1059
1167 1092 1200T1125 1280Q1125 1327 1092 1360T1012 1394ZM496 1394Q449 1394 416 1361T383 1280Q383 1233 416 1200T496 1167Q543 1167 576 1200T610 1280Q610 1327 577 1360T496 1394ZM240 1143Q193 1143 160 1110T127 1029Q127 982 160 949T240 916Q287 916
320 949T354 1029Q354 1076 321 1109T240 1143ZM246 890Q199 890 166 857T132 777Q132 730 165 697T246 663Q293 663 326 696T359 777Q359 824 326 857T246 890ZM763 639Q716 639 683 606T650 525Q650 478 683 445T763 412Q810 412 843 445T877 525Q877 572 844
605T763 639ZM1020 636Q973 636 940 603T907 523Q907 476 940 443T1020 409Q1067 409 1100 442T1134 523Q1134 570 1101 603T1020 636ZM505 636Q458 636 425 603T391 523Q391 476 424 443T505 409Q552 409 585 442T618 523Q618 570 585 603T505 636ZM1269 1665Q1222
1665 1189 1632T1156 1551Q1156 1504 1189 1471T1269 1438Q1316 1438 1349 1471T1383 1551Q1383 1598 1350 1631T1269 1665ZM1272 1396Q1225 1396 1192 1363T1158 1283Q1158 1236 1191 1203T1272 1169Q1319 1169 1352 1202T1385 1283Q1385 1330 1352 1363T1272
1396ZM1269 1145Q1222 1145 1189 1112T1156 1032Q1156 985 1189 952T1269 918Q1316 918 1349 951T1383 1032Q1383 1079 1350 1112T1269 1145ZM1274 893Q1227 893 1194 860T1161 779Q1161 732 1194 699T1274 666Q1321 666 1354 699T1388 779Q1388 826 1355 859T1274
893ZM758 1922Q711 1922 678 1889T645 1808Q645 1761 678 1728T758 1695Q805 1695 838 1728T872 1808Q872 1855 839 1888T758 1922ZM1015 1919Q968 1919 935 1886T901 1806Q901 1759 934 1726T1015 1692Q1062 1692 1095 1725T1128 1806Q1128 1853 1095 1886T1015
1919ZM500 1919Q453 1919 420 1886T386 1806Q386 1759 419 1726T500 1692Q547 1692 580 1725T613 1806Q613 1853 580 1886T500 1919ZM1527 2298V282H-3V2298H1527Z" />
<glyph unicode="b" glyph-name="b" horiz-adv-x="1631" d="M256 1922Q209 1922 176 1889T143 1808Q143 1761 176 1728T256 1695Q303 1695 336 1728T370 1808Q370 1855 337 1888T256 1922ZM255 1662Q208 1662 175 1629T142 1549Q142 1502 175 1469T255 1435Q302
1435 335 1468T369 1549Q369 1596 336 1629T255 1662ZM767 1665Q720 1665 687 1632T654 1551Q654 1504 687 1471T767 1438Q814 1438 847 1471T881 1551Q881 1598 848 1631T767 1665ZM1024 1662Q977 1662 944 1629T911 1549Q911 1502 944 1469T1024 1435Q1071 1435
1104 1468T1138 1549Q1138 1596 1105 1629T1024 1662ZM509 1662Q462 1662 429 1629T395 1549Q395 1502 428 1469T509 1435Q556 1435 589 1468T622 1549Q622 1596 589 1629T509 1662ZM258 1394Q211 1394 178 1361T145 1280Q145 1233 178 1200T258 1167Q305 1167
338 1200T371 1280Q371 1327 338 1360T258 1394ZM255 1143Q208 1143 175 1110T142 1029Q142 982 175 949T255 916Q302 916 335 949T369 1029Q369 1076 336 1109T255 1143ZM261 890Q214 890 181 857T147 777Q147 730 180 697T261 663Q308 663 341 696T374 777Q374
824 341 857T261 890ZM266 636Q219 636 186 603T153 523Q153 476 186 443T266 409Q313 409 346 442T380 523Q380 570 347 603T266 636ZM778 639Q731 639 698 606T665 525Q665 478 698 445T778 412Q825 412 858 445T892 525Q892 572 859 605T778 639ZM1035 636Q988
636 955 603T922 523Q922 476 955 443T1035 409Q1082 409 1115 442T1149 523Q1149 570 1116 603T1035 636ZM520 636Q473 636 440 603T406 523Q406 476 439 443T520 409Q567 409 600 442T633 523Q633 570 600 603T520 636ZM1287 1396Q1240 1396 1207 1363T1173 1283Q1173
1236 1206 1203T1287 1169Q1334 1169 1367 1202T1400 1283Q1400 1330 1367 1363T1287 1396ZM1284 1145Q1237 1145 1204 1112T1171 1032Q1171 985 1204 952T1284 918Q1331 918 1364 951T1398 1032Q1398 1079 1365 1112T1284 1145ZM1289 893Q1242 893 1209 860T1176
779Q1176 732 1209 699T1289 666Q1336 666 1369 699T1403 779Q1403 826 1370 859T1289 893ZM256 2179Q209 2179 176 2146T143 2066Q143 2019 176 1986T256 1952Q303 1952 336 1985T370 2066Q370 2113 337 2146T256 2179ZM1527 2298V282H-3V2298H1527Z" />
<glyph unicode="c" glyph-name="c" horiz-adv-x="1631" d="M771 1924Q724 1924 691 1891T658 1811Q658 1764 691 1731T771 1697Q818 1697 851 1730T885 1811Q885 1858 852 1891T771 1924ZM1028 1922Q981 1922 948 1889T914 1808Q914 1761 947 1728T1028 1695Q1075
1695 1108 1728T1141 1808Q1141 1855 1108 1888T1028 1922ZM513 1922Q466 1922 433 1889T399 1808Q399 1761 432 1728T513 1695Q560 1695 593 1728T626 1808Q626 1855 593 1888T513 1922ZM258 1662Q211 1662 178 1629T145 1549Q145 1502 178 1469T258 1435Q305
1435 338 1468T372 1549Q372 1596 339 1629T258 1662ZM261 1394Q214 1394 181 1361T148 1280Q148 1233 181 1200T261 1167Q308 1167 341 1200T374 1280Q374 1327 341 1360T261 1394ZM258 1143Q211 1143 178 1110T145 1029Q145 982 178 949T258 916Q305 916 338
949T372 1029Q372 1076 339 1109T258 1143ZM264 890Q217 890 184 857T150 777Q150 730 183 697T264 663Q311 663 344 696T377 777Q377 824 344 857T264 890ZM781 639Q734 639 701 606T668 525Q668 478 701 445T781 412Q828 412 861 445T895 525Q895 572 862 605T781
639ZM1038 636Q991 636 958 603T925 523Q925 476 958 443T1038 409Q1085 409 1118 442T1152 523Q1152 570 1119 603T1038 636ZM523 636Q476 636 443 603T409 523Q409 476 442 443T523 409Q570 409 603 442T636 523Q636 570 603 603T523 636ZM1287 1665Q1240 1665
1207 1632T1174 1551Q1174 1504 1207 1471T1287 1438Q1334 1438 1367 1471T1401 1551Q1401 1598 1368 1631T1287 1665ZM1292 893Q1245 893 1212 860T1179 779Q1179 732 1212 699T1292 666Q1339 666 1372 699T1406 779Q1406 826 1373 859T1292 893ZM1527 2298V282H-3V2298H1527Z"
/>
<glyph unicode="d" glyph-name="d" horiz-adv-x="1637" d="M1229 1922T1196 1889T1163 1808Q1163 1761 1196 1728T1276 1695Q1323 1695 1356 1728T1390 1808Q1390 1855 1357 1888T1276 1922Q1229 1922 1196 1889ZM1230 1662T1197 1629T1164 1549Q1164 1502 1197
1469T1277 1435Q1324 1435 1357 1468T1391 1549Q1391 1596 1358 1629T1277 1662Q1230 1662 1197 1629ZM718 1665T685 1632T652 1551Q652 1504 685 1471T765 1438Q812 1438 845 1471T879 1551Q879 1598 846 1631T765 1665Q718 1665 685 1632ZM462 1662T429 1629T395
1549Q395 1502 428 1469T509 1435Q556 1435 589 1468T622 1549Q622 1596 589 1629T509 1662Q462 1662 429 1629ZM977 1662T944 1629T910 1549Q910 1502 943 1469T1024 1435Q1071 1435 1104 1468T1137 1549Q1137 1596 1104 1629T1024 1662Q977 1662 944 1629ZM1228
1394T1195 1361T1161 1280Q1161 1233 1194 1200T1275 1167Q1322 1167 1355 1200T1388 1280Q1388 1327 1355 1360T1275 1394Q1228 1394 1195 1361ZM1230 1143T1197 1110T1164 1029Q1164 982 1197 949T1277 916Q1324 916 1357 949T1391 1029Q1391 1076 1358 1109T1277
1143Q1230 1143 1197 1110ZM1225 890T1192 857T1159 777Q1159 730 1192 697T1272 663Q1319 663 1352 696T1386 777Q1386 824 1353 857T1272 890Q1225 890 1192 857ZM1219 636T1186 603T1153 523Q1153 476 1186 443T1266 409Q1313 409 1346 442T1380 523Q1380 570
1347 603T1266 636Q1219 636 1186 603ZM707 639T674 606T641 525Q641 478 674 445T754 412Q801 412 834 445T868 525Q868 572 835 605T754 639Q707 639 674 606ZM451 636T418 603T384 523Q384 476 417 443T498 409Q545 409 578 442T611 523Q611 570 578 603T498
636Q451 636 418 603ZM966 636T933 603T899 523Q899 476 932 443T1013 409Q1060 409 1093 442T1126 523Q1126 570 1093 603T1013 636Q966 636 933 603ZM199 1396T166 1363T133 1283Q133 1236 166 1203T246 1169Q293 1169 326 1202T359 1283Q359 1330 326 1363T246
1396Q199 1396 166 1363ZM202 1145T169 1112T135 1032Q135 985 168 952T249 918Q296 918 329 951T362 1032Q362 1079 329 1112T249 1145Q202 1145 169 1112ZM196 893T163 860T130 779Q130 732 163 699T243 666Q290 666 323 699T357 779Q357 826 324 859T243 893Q196
893 163 860ZM1229 2179T1196 2146T1163 2066Q1163 2019 1196 1986T1276 1952Q1323 1952 1356 1985T1390 2066Q1390 2113 1357 2146T1276 2179Q1229 2179 1196 2146ZM1527 2298V282H-3V2298H1527Z" />
<glyph unicode="e" glyph-name="e" horiz-adv-x="1631" d="M774 1924Q727 1924 694 1891T661 1811Q661 1764 694 1731T774 1697Q821 1697 854 1730T888 1811Q888 1858 855 1891T774 1924ZM1031 1922Q984 1922 951 1889T917 1808Q917 1761 950 1728T1031 1695Q1078
1695 1111 1728T1144 1808Q1144 1855 1111 1888T1031 1922ZM516 1922Q469 1922 436 1889T402 1808Q402 1761 435 1728T516 1695Q563 1695 596 1728T629 1808Q629 1855 596 1888T516 1922ZM261 1662Q214 1662 181 1629T148 1549Q148 1502 181 1469T261 1435Q308
1435 341 1468T375 1549Q375 1596 342 1629T261 1662ZM264 1394Q217 1394 184 1361T151 1280Q151 1233 184 1200T264 1167Q311 1167 344 1200T377 1280Q377 1327 344 1360T264 1394ZM776 1396Q729 1396 696 1363T662 1283Q662 1236 695 1203T776 1169Q823 1169
856 1202T889 1283Q889 1330 856 1363T776 1396ZM1033 1394Q986 1394 953 1361T919 1280Q919 1233 952 1200T1033 1167Q1080 1167 1113 1200T1146 1280Q1146 1327 1113 1360T1033 1394ZM517 1394Q470 1394 437 1361T404 1280Q404 1233 437 1200T517 1167Q564 1167
597 1200T631 1280Q631 1327 598 1360T517 1394ZM261 1143Q214 1143 181 1110T148 1029Q148 982 181 949T261 916Q308 916 341 949T375 1029Q375 1076 342 1109T261 1143ZM267 890Q220 890 187 857T153 777Q153 730 186 697T267 663Q314 663 347 696T380 777Q380
824 347 857T267 890ZM784 639Q737 639 704 606T671 525Q671 478 704 445T784 412Q831 412 864 445T898 525Q898 572 865 605T784 639ZM1041 636Q994 636 961 603T928 523Q928 476 961 443T1041 409Q1088 409 1121 442T1155 523Q1155 570 1122 603T1041 636ZM526
636Q479 636 446 603T412 523Q412 476 445 443T526 409Q573 409 606 442T639 523Q639 570 606 603T526 636ZM1290 1665Q1243 1665 1210 1632T1177 1551Q1177 1504 1210 1471T1290 1438Q1337 1438 1370 1471T1404 1551Q1404 1598 1371 1631T1290 1665ZM1293 1396Q1246
1396 1213 1363T1179 1283Q1179 1236 1212 1203T1293 1169Q1340 1169 1373 1202T1406 1283Q1406 1330 1373 1363T1293 1396ZM1295 893Q1248 893 1215 860T1182 779Q1182 732 1215 699T1295 666Q1342 666 1375 699T1409 779Q1409 826 1376 859T1295 893ZM1529 2300V284H-1V2300H1529Z"
/>
<glyph unicode="f" glyph-name="f" horiz-adv-x="1634" d="M256 1922Q209 1922 176 1889T143 1808Q143 1761 176 1728T256 1695Q303 1695 336 1728T370 1808Q370 1855 337 1888T256 1922ZM255 1662Q208 1662 175 1629T142 1549Q142 1502 175 1469T255 1435Q302
1435 335 1468T369 1549Q369 1596 336 1629T255 1662ZM767 1665Q720 1665 687 1632T654 1551Q654 1504 687 1471T767 1438Q814 1438 847 1471T881 1551Q881 1598 848 1631T767 1665ZM509 1662Q462 1662 429 1629T395 1549Q395 1502 428 1469T509 1435Q556 1435
589 1468T622 1549Q622 1596 589 1629T509 1662ZM258 1394Q211 1394 178 1361T145 1280Q145 1233 178 1200T258 1167Q305 1167 338 1200T371 1280Q371 1327 338 1360T258 1394ZM255 1143Q208 1143 175 1110T142 1029Q142 982 175 949T255 916Q302 916 335 949T369
1029Q369 1076 336 1109T255 1143ZM261 890Q214 890 181 857T147 777Q147 730 180 697T261 663Q308 663 341 696T374 777Q374 824 341 857T261 890ZM266 636Q219 636 186 603T153 523Q153 476 186 443T266 409Q313 409 346 442T380 523Q380 570 347 603T266 636ZM1285
1924Q1238 1924 1205 1891T1172 1811Q1172 1764 1205 1731T1285 1697Q1332 1697 1365 1730T1399 1811Q1399 1858 1366 1891T1285 1924ZM768 2182Q721 2182 688 2149T655 2068Q655 2021 688 1988T768 1955Q815 1955 848 1988T882 2068Q882 2115 849 2148T768 2182ZM1025
2179Q978 2179 945 2146T911 2066Q911 2019 944 1986T1025 1952Q1072 1952 1105 1985T1138 2066Q1138 2113 1105 2146T1025 2179ZM510 2179Q463 2179 430 2146T396 2066Q396 2019 429 1986T510 1952Q557 1952 590 1985T623 2066Q623 2113 590 2146T510 2179ZM1527
2301V285H-3V2301H1527Z" />
<glyph unicode="g" glyph-name="g" horiz-adv-x="1631" d="M768 1924Q721 1924 688 1891T655 1811Q655 1764 688 1731T768 1697Q815 1697 848 1730T882 1811Q882 1858 849 1891T768 1924ZM1025 1922Q978 1922 945 1889T911 1808Q911 1761 944 1728T1025 1695Q1072
1695 1105 1728T1138 1808Q1138 1855 1105 1888T1025 1922ZM510 1922Q463 1922 430 1889T396 1808Q396 1761 429 1728T510 1695Q557 1695 590 1728T623 1808Q623 1855 590 1888T510 1922ZM255 1662Q208 1662 175 1629T142 1549Q142 1502 175 1469T255 1435Q302
1435 335 1468T369 1549Q369 1596 336 1629T255 1662ZM770 1396Q723 1396 690 1363T656 1283Q656 1236 689 1203T770 1169Q817 1169 850 1202T883 1283Q883 1330 850 1363T770 1396ZM1027 1394Q980 1394 947 1361T913 1280Q913 1233 946 1200T1027 1167Q1074 1167
1107 1200T1140 1280Q1140 1327 1107 1360T1027 1394ZM511 1394Q464 1394 431 1361T398 1280Q398 1233 431 1200T511 1167Q558 1167 591 1200T625 1280Q625 1327 592 1360T511 1394ZM778 639Q731 639 698 606T665 525Q665 478 698 445T778 412Q825 412 858 445T892
525Q892 572 859 605T778 639ZM1035 636Q988 636 955 603T922 523Q922 476 955 443T1035 409Q1082 409 1115 442T1149 523Q1149 570 1116 603T1035 636ZM520 636Q473 636 440 603T406 523Q406 476 439 443T520 409Q567 409 600 442T633 523Q633 570 600 603T520
636ZM1284 1665Q1237 1665 1204 1632T1171 1551Q1171 1504 1204 1471T1284 1438Q1331 1438 1364 1471T1398 1551Q1398 1598 1365 1631T1284 1665ZM1287 1396Q1240 1396 1207 1363T1173 1283Q1173 1236 1206 1203T1287 1169Q1334 1169 1367 1202T1400 1283Q1400
1330 1367 1363T1287 1396ZM1284 1145Q1237 1145 1204 1112T1171 1032Q1171 985 1204 952T1284 918Q1331 918 1364 951T1398 1032Q1398 1079 1365 1112T1284 1145ZM1289 893Q1242 893 1209 860T1176 779Q1176 732 1209 699T1289 666Q1336 666 1369 699T1403 779Q1403
826 1370 859T1289 893ZM1526 2301V285H-4V2301H1526Z" />
<glyph unicode="h" glyph-name="h" horiz-adv-x="1627" d="M262 1922Q215 1922 182 1889T149 1808Q149 1761 182 1728T262 1695Q309 1695 342 1728T376 1808Q376 1855 343 1888T262 1922ZM261 1662Q214 1662 181 1629T148 1549Q148 1502 181 1469T261 1435Q308
1435 341 1468T375 1549Q375 1596 342 1629T261 1662ZM264 1394Q217 1394 184 1361T151 1280Q151 1233 184 1200T264 1167Q311 1167 344 1200T377 1280Q377 1327 344 1360T264 1394ZM776 1396Q729 1396 696 1363T662 1283Q662 1236 695 1203T776 1169Q823 1169
856 1202T889 1283Q889 1330 856 1363T776 1396ZM1033 1394Q986 1394 953 1361T919 1280Q919 1233 952 1200T1033 1167Q1080 1167 1113 1200T1146 1280Q1146 1327 1113 1360T1033 1394ZM517 1394Q470 1394 437 1361T404 1280Q404 1233 437 1200T517 1167Q564 1167
597 1200T631 1280Q631 1327 598 1360T517 1394ZM261 1143Q214 1143 181 1110T148 1029Q148 982 181 949T261 916Q308 916 341 949T375 1029Q375 1076 342 1109T261 1143ZM267 890Q220 890 187 857T153 777Q153 730 186 697T267 663Q314 663 347 696T380 777Q380
824 347 857T267 890ZM272 636Q225 636 192 603T159 523Q159 476 192 443T272 409Q319 409 352 442T386 523Q386 570 353 603T272 636ZM1290 1145Q1243 1145 1210 1112T1177 1032Q1177 985 1210 952T1290 918Q1337 918 1370 951T1404 1032Q1404 1079 1371 1112T1290
1145ZM1295 893Q1248 893 1215 860T1182 779Q1182 732 1215 699T1295 666Q1342 666 1375 699T1409 779Q1409 826 1376 859T1295 893ZM1301 639Q1254 639 1221 606T1188 525Q1188 478 1221 445T1301 412Q1348 412 1381 445T1415 525Q1415 572 1382 605T1301 639ZM1528
2301V285H-2V2301H1528Z" />
<glyph unicode="i" glyph-name="i" horiz-adv-x="1624" d="M803 1924Q756 1924 723 1891T690 1811Q690 1764 723 1731T803 1697Q850 1697 883 1730T917 1811Q917 1858 884 1891T803 1924ZM805 1396Q758 1396 725 1363T692 1283Q692 1236 725 1203T805 1169Q852
1169 885 1202T918 1283Q918 1330 885 1363T805 1396ZM802 1145Q755 1145 722 1112T689 1032Q689 985 722 952T802 918Q849 918 882 951T916 1032Q916 1079 883 1112T802 1145ZM808 893Q761 893 728 860T694 779Q694 732 727 699T808 666Q855 666 888 699T921 779Q921
826 888 859T808 893ZM813 639Q766 639 733 606T700 525Q700 478 733 445T813 412Q860 412 893 445T927 525Q927 572 894 605T813 639ZM1527 2301V285H-3V2301H1527Z" />
<glyph unicode="j" glyph-name="j" horiz-adv-x="1631" d="M248 890Q201 890 168 857T135 777Q135 730 168 697T248 663Q295 663 328 696T362 777Q362 824 329 857T248 890ZM766 639Q719 639 686 606T653 525Q653 478 686 445T766 412Q813 412 846 445T880 525Q880
572 847 605T766 639ZM1023 636Q976 636 943 603T910 523Q910 476 943 443T1023 409Q1070 409 1103 442T1136 523Q1136 570 1103 603T1023 636ZM508 636Q461 636 428 603T394 523Q394 476 427 443T508 409Q555 409 588 442T621 523Q621 570 588 603T508 636ZM1273
1924Q1226 1924 1193 1891T1159 1811Q1159 1764 1192 1731T1273 1697Q1320 1697 1353 1730T1386 1811Q1386 1858 1353 1891T1273 1924ZM1275 1396Q1228 1396 1195 1363T1161 1283Q1161 1236 1194 1203T1275 1169Q1322 1169 1355 1202T1388 1283Q1388 1330 1355
1363T1275 1396ZM1272 1145Q1225 1145 1192 1112T1159 1032Q1159 985 1192 952T1272 918Q1319 918 1352 951T1386 1032Q1386 1079 1353 1112T1272 1145ZM1277 893Q1230 893 1197 860T1164 779Q1164 732 1197 699T1277 666Q1324 666 1357 699T1391 779Q1391 826
1358 859T1277 893ZM1512 2301V285H-18V2301H1512Z" />
<glyph unicode="k" glyph-name="k" horiz-adv-x="1634" d="M262 1922Q215 1922 182 1889T149 1808Q149 1761 182 1728T262 1695Q309 1695 342 1728T376 1808Q376 1855 343 1888T262 1922ZM261 1662Q214 1662 181 1629T148 1549Q148 1502 181 1469T261 1435Q308
1435 341 1468T375 1549Q375 1596 342 1629T261 1662ZM773 1665Q726 1665 693 1632T660 1551Q660 1504 693 1471T773 1438Q820 1438 853 1471T887 1551Q887 1598 854 1631T773 1665ZM264 1394Q217 1394 184 1361T151 1280Q151 1233 184 1200T264 1167Q311 1167
344 1200T377 1280Q377 1327 344 1360T264 1394ZM517 1394Q470 1394 437 1361T404 1280Q404 1233 437 1200T517 1167Q564 1167 597 1200T631 1280Q631 1327 598 1360T517 1394ZM261 1143Q214 1143 181 1110T148 1029Q148 982 181 949T261 916Q308 916 341 949T375
1029Q375 1076 342 1109T261 1143ZM773 1145Q726 1145 693 1112T660 1032Q660 985 693 952T773 918Q820 918 853 951T887 1032Q887 1079 854 1112T773 1145ZM267 890Q220 890 187 857T153 777Q153 730 186 697T267 663Q314 663 347 696T380 777Q380 824 347 857T267
890ZM1035 890Q988 890 955 857T922 777Q922 730 955 697T1035 663Q1082 663 1115 696T1149 777Q1149 824 1116 857T1035 890ZM272 636Q225 636 192 603T159 523Q159 476 192 443T272 409Q319 409 352 442T386 523Q386 570 353 603T272 636ZM1301 639Q1254 639
1221 606T1188 525Q1188 478 1221 445T1301 412Q1348 412 1381 445T1415 525Q1415 572 1382 605T1301 639ZM1012 1916Q965 1916 932 1883T899 1802Q899 1755 932 1722T1012 1689Q1059 1689 1092 1722T1126 1802Q1126 1849 1093 1882T1012 1916ZM1530 2301V285H0V2301H1530Z"
/>
<glyph unicode="l" glyph-name="l" horiz-adv-x="1634" d="M774 1924Q727 1924 694 1891T661 1811Q661 1764 694 1731T774 1697Q821 1697 854 1730T888 1811Q888 1858 855 1891T774 1924ZM773 1665Q726 1665 693 1632T660 1551Q660 1504 693 1471T773 1438Q820
1438 853 1471T887 1551Q887 1598 854 1631T773 1665ZM776 1396Q729 1396 696 1363T663 1283Q663 1236 696 1203T776 1169Q823 1169 856 1202T889 1283Q889 1330 856 1363T776 1396ZM773 1145Q726 1145 693 1112T660 1032Q660 985 693 952T773 918Q820 918 853
951T887 1032Q887 1079 854 1112T773 1145ZM779 893Q732 893 699 860T665 779Q665 732 698 699T779 666Q826 666 859 699T892 779Q892 826 859 859T779 893ZM784 639Q737 639 704 606T671 525Q671 478 704 445T784 412Q831 412 864 445T898 525Q898 572 865 605T784
639ZM774 2181Q727 2181 694 2148T661 2068Q661 2021 694 1988T774 1954Q821 1954 854 1987T888 2068Q888 2115 855 2148T774 2181ZM1530 2298V282H0V2298H1530Z" />
<glyph unicode="m" glyph-name="m" horiz-adv-x="1637" d="M244 1922Q197 1922 164 1889T131 1808Q131 1761 164 1728T244 1695Q291 1695 324 1728T358 1808Q358 1855 325 1888T244 1922ZM756 1924Q709 1924 676 1891T643 1811Q643 1764 676 1731T756 1697Q803
1697 836 1730T870 1811Q870 1858 837 1891T756 1924ZM1013 1922Q966 1922 933 1889T899 1808Q899 1761 932 1728T1013 1695Q1060 1695 1093 1728T1126 1808Q1126 1855 1093 1888T1013 1922ZM498 1922Q451 1922 418 1889T384 1808Q384 1761 417 1728T498 1695Q545
1695 578 1728T611 1808Q611 1855 578 1888T498 1922ZM243 1662Q196 1662 163 1629T130 1549Q130 1502 163 1469T243 1435Q290 1435 323 1468T357 1549Q357 1596 324 1629T243 1662ZM755 1665Q708 1665 675 1632T642 1551Q642 1504 675 1471T755 1438Q802 1438
835 1471T869 1551Q869 1598 836 1631T755 1665ZM246 1394Q199 1394 166 1361T133 1280Q133 1233 166 1200T246 1167Q293 1167 326 1200T359 1280Q359 1327 326 1360T246 1394ZM758 1396Q711 1396 678 1363T644 1283Q644 1236 677 1203T758 1169Q805 1169 838 1202T871
1283Q871 1330 838 1363T758 1396ZM243 1143Q196 1143 163 1110T130 1029Q130 982 163 949T243 916Q290 916 323 949T357 1029Q357 1076 324 1109T243 1143ZM755 1145Q708 1145 675 1112T642 1032Q642 985 675 952T755 918Q802 918 835 951T869 1032Q869 1079 836
1112T755 1145ZM249 890Q202 890 169 857T135 777Q135 730 168 697T249 663Q296 663 329 696T362 777Q362 824 329 857T249 890ZM760 893Q713 893 680 860T647 779Q647 732 680 699T760 666Q807 666 840 699T874 779Q874 826 841 859T760 893ZM254 636Q207 636
174 603T141 523Q141 476 174 443T254 409Q301 409 334 442T368 523Q368 570 335 603T254 636ZM766 639Q719 639 686 606T653 525Q653 478 686 445T766 412Q813 412 846 445T880 525Q880 572 847 605T766 639ZM1272 1665Q1225 1665 1192 1632T1159 1551Q1159 1504
1192 1471T1272 1438Q1319 1438 1352 1471T1386 1551Q1386 1598 1353 1631T1272 1665ZM1275 1396Q1228 1396 1195 1363T1161 1283Q1161 1236 1194 1203T1275 1169Q1322 1169 1355 1202T1388 1283Q1388 1330 1355 1363T1275 1396ZM1272 1145Q1225 1145 1192 1112T1159
1032Q1159 985 1192 952T1272 918Q1319 918 1352 951T1386 1032Q1386 1079 1353 1112T1272 1145ZM1277 893Q1230 893 1197 860T1164 779Q1164 732 1197 699T1277 666Q1324 666 1357 699T1391 779Q1391 826 1358 859T1277 893ZM1283 639Q1236 639 1203 606T1170
525Q1170 478 1203 445T1283 412Q1330 412 1363 445T1397 525Q1397 572 1364 605T1283 639ZM1530 2301V285H0V2301H1530Z" />
<glyph unicode="n" glyph-name="n" horiz-adv-x="1637" d="M244 1922Q197 1922 164 1889T131 1808Q131 1761 164 1728T244 1695Q291 1695 324 1728T358 1808Q358 1855 325 1888T244 1922ZM756 1924Q709 1924 676 1891T643 1811Q643 1764 676 1731T756 1697Q803
1697 836 1730T870 1811Q870 1858 837 1891T756 1924ZM1013 1922Q966 1922 933 1889T899 1808Q899 1761 932 1728T1013 1695Q1060 1695 1093 1728T1126 1808Q1126 1855 1093 1888T1013 1922ZM498 1922Q451 1922 418 1889T384 1808Q384 1761 417 1728T498 1695Q545
1695 578 1728T611 1808Q611 1855 578 1888T498 1922ZM243 1662Q196 1662 163 1629T130 1549Q130 1502 163 1469T243 1435Q290 1435 323 1468T357 1549Q357 1596 324 1629T243 1662ZM246 1394Q199 1394 166 1361T133 1280Q133 1233 166 1200T246 1167Q293 1167
326 1200T359 1280Q359 1327 326 1360T246 1394ZM243 1143Q196 1143 163 1110T130 1029Q130 982 163 949T243 916Q290 916 323 949T357 1029Q357 1076 324 1109T243 1143ZM249 890Q202 890 169 857T135 777Q135 730 168 697T249 663Q296 663 329 696T362 777Q362
824 329 857T249 890ZM254 636Q207 636 174 603T141 523Q141 476 174 443T254 409Q301 409 334 442T368 523Q368 570 335 603T254 636ZM1272 1665Q1225 1665 1192 1632T1159 1551Q1159 1504 1192 1471T1272 1438Q1319 1438 1352 1471T1386 1551Q1386 1598 1353
1631T1272 1665ZM1275 1396Q1228 1396 1195 1363T1161 1283Q1161 1236 1194 1203T1275 1169Q1322 1169 1355 1202T1388 1283Q1388 1330 1355 1363T1275 1396ZM1272 1145Q1225 1145 1192 1112T1159 1032Q1159 985 1192 952T1272 918Q1319 918 1352 951T1386 1032Q1386
1079 1353 1112T1272 1145ZM1277 893Q1230 893 1197 860T1164 779Q1164 732 1197 699T1277 666Q1324 666 1357 699T1391 779Q1391 826 1358 859T1277 893ZM1283 639Q1236 639 1203 606T1170 525Q1170 478 1203 445T1283 412Q1330 412 1363 445T1397 525Q1397 572
1364 605T1283 639ZM1527 2298V282H-3V2298H1527Z" />
<glyph unicode="o" glyph-name="o" horiz-adv-x="1634" d="M759 1924Q712 1924 679 1891T646 1811Q646 1764 679 1731T759 1697Q806 1697 839 1730T873 1811Q873 1858 840 1891T759 1924ZM1016 1922Q969 1922 936 1889T902 1808Q902 1761 935 1728T1016 1695Q1063
1695 1096 1728T1129 1808Q1129 1855 1096 1888T1016 1922ZM501 1922Q454 1922 421 1889T387 1808Q387 1761 420 1728T501 1695Q548 1695 581 1728T614 1808Q614 1855 581 1888T501 1922ZM246 1662Q199 1662 166 1629T133 1549Q133 1502 166 1469T246 1435Q293
1435 326 1468T360 1549Q360 1596 327 1629T246 1662ZM249 1394Q202 1394 169 1361T136 1280Q136 1233 169 1200T249 1167Q296 1167 329 1200T362 1280Q362 1327 329 1360T249 1394ZM246 1143Q199 1143 166 1110T133 1029Q133 982 166 949T246 916Q293 916 326
949T360 1029Q360 1076 327 1109T246 1143ZM252 890Q205 890 172 857T138 777Q138 730 171 697T252 663Q299 663 332 696T365 777Q365 824 332 857T252 890ZM769 639Q722 639 689 606T656 525Q656 478 689 445T769 412Q816 412 849 445T883 525Q883 572 850 605T769
639ZM1026 636Q979 636 946 603T913 523Q913 476 946 443T1026 409Q1073 409 1106 442T1140 523Q1140 570 1107 603T1026 636ZM511 636Q464 636 431 603T397 523Q397 476 430 443T511 409Q558 409 591 442T624 523Q624 570 591 603T511 636ZM1275 1665Q1228 1665
1195 1632T1162 1551Q1162 1504 1195 1471T1275 1438Q1322 1438 1355 1471T1389 1551Q1389 1598 1356 1631T1275 1665ZM1278 1396Q1231 1396 1198 1363T1164 1283Q1164 1236 1197 1203T1278 1169Q1325 1169 1358 1202T1391 1283Q1391 1330 1358 1363T1278 1396ZM1275
1145Q1228 1145 1195 1112T1162 1032Q1162 985 1195 952T1275 918Q1322 918 1355 951T1389 1032Q1389 1079 1356 1112T1275 1145ZM1280 893Q1233 893 1200 860T1167 779Q1167 732 1200 699T1280 666Q1327 666 1360 699T1394 779Q1394 826 1361 859T1280 893ZM1530
2298V282H0V2298H1530Z" />
<glyph unicode="p" glyph-name="p" horiz-adv-x="1634" d="M759 1924Q712 1924 679 1891T646 1811Q646 1764 679 1731T759 1697Q806 1697 839 1730T873 1811Q873 1858 840 1891T759 1924ZM1016 1922Q969 1922 936 1889T902 1808Q902 1761 935 1728T1016 1695Q1063
1695 1096 1728T1129 1808Q1129 1855 1096 1888T1016 1922ZM501 1922Q454 1922 421 1889T387 1808Q387 1761 420 1728T501 1695Q548 1695 581 1728T614 1808Q614 1855 581 1888T501 1922ZM246 1662Q199 1662 166 1629T133 1549Q133 1502 166 1469T246 1435Q293
1435 326 1468T360 1549Q360 1596 327 1629T246 1662ZM249 1394Q202 1394 169 1361T136 1280Q136 1233 169 1200T249 1167Q296 1167 329 1200T362 1280Q362 1327 329 1360T249 1394ZM246 1143Q199 1143 166 1110T133 1029Q133 982 166 949T246 916Q293 916 326
949T360 1029Q360 1076 327 1109T246 1143ZM252 890Q205 890 172 857T138 777Q138 730 171 697T252 663Q299 663 332 696T365 777Q365 824 332 857T252 890ZM1027 1140Q980 1140 947 1107T914 1027Q914 980 947 947T1027 913Q1074 913 1107 946T1141 1027Q1141
1074 1108 1107T1027 1140ZM257 639Q210 639 177 606T143 526Q143 479 176 446T257 412Q304 412 337 445T370 526Q370 573 337 606T257 639ZM1275 1665Q1228 1665 1195 1632T1162 1551Q1162 1504 1195 1471T1275 1438Q1322 1438 1355 1471T1389 1551Q1389 1598
1356 1631T1275 1665ZM1278 1396Q1231 1396 1198 1363T1164 1283Q1164 1236 1197 1203T1278 1169Q1325 1169 1358 1202T1391 1283Q1391 1330 1358 1363T1278 1396ZM508 1138Q461 1138 428 1105T395 1024Q395 977 428 944T508 911Q555 911 588 944T622 1024Q622
1071 589 1104T508 1138ZM765 1138Q718 1138 685 1105T652 1025Q652 978 685 945T765 911Q812 911 845 944T879 1025Q879 1072 846 1105T765 1138ZM1530 2298V282H0V2298H1530Z" />
<glyph unicode="q" glyph-name="q" horiz-adv-x="1631" d="M768 1924Q721 1924 688 1891T655 1811Q655 1764 688 1731T768 1697Q815 1697 848 1730T882 1811Q882 1858 849 1891T768 1924ZM1025 1922Q978 1922 945 1889T911 1808Q911 1761 944 1728T1025 1695Q1072
1695 1105 1728T1138 1808Q1138 1855 1105 1888T1025 1922ZM510 1922Q463 1922 430 1889T396 1808Q396 1761 429 1728T510 1695Q557 1695 590 1728T623 1808Q623 1855 590 1888T510 1922ZM255 1662Q208 1662 175 1629T142 1549Q142 1502 175 1469T255 1435Q302
1435 335 1468T369 1549Q369 1596 336 1629T255 1662ZM258 1394Q211 1394 178 1361T145 1280Q145 1233 178 1200T258 1167Q305 1167 338 1200T371 1280Q371 1327 338 1360T258 1394ZM255 1143Q208 1143 175 1110T142 1029Q142 982 175 949T255 916Q302 916 335
949T369 1029Q369 1076 336 1109T255 1143ZM261 890Q214 890 181 857T147 777Q147 730 180 697T261 663Q308 663 341 696T374 777Q374 824 341 857T261 890ZM778 639Q731 639 698 606T665 525Q665 478 698 445T778 412Q825 412 858 445T892 525Q892 572 859 605T778
639ZM1035 636Q988 636 955 603T922 523Q922 476 955 443T1035 409Q1082 409 1115 442T1149 523Q1149 570 1116 603T1035 636ZM520 636Q473 636 440 603T406 523Q406 476 439 443T520 409Q567 409 600 442T633 523Q633 570 600 603T520 636ZM1284 1665Q1237 1665
1204 1632T1171 1551Q1171 1504 1204 1471T1284 1438Q1331 1438 1364 1471T1398 1551Q1398 1598 1365 1631T1284 1665ZM1287 1396Q1240 1396 1207 1363T1173 1283Q1173 1236 1206 1203T1287 1169Q1334 1169 1367 1202T1400 1283Q1400 1330 1367 1363T1287 1396ZM1284
1145Q1237 1145 1204 1112T1171 1032Q1171 985 1204 952T1284 918Q1331 918 1364 951T1398 1032Q1398 1079 1365 1112T1284 1145ZM1289 893Q1242 893 1209 860T1176 779Q1176 732 1209 699T1289 666Q1336 666 1369 699T1403 779Q1403 826 1370 859T1289 893ZM830
1127Q783 1127 750 1094T717 1014Q717 967 750 934T830 900Q877 900 910 933T944 1014Q944 1061 911 1094T830 1127ZM1030 893Q983 893 950 860T917 780Q917 733 950 700T1030 666Q1077 666 1110 699T1144 780Q1144 827 1111 860T1030 893ZM1529 2298V282H-1V2298H1529Z"
/>
<glyph unicode="r" glyph-name="r" horiz-adv-x="1631" d="M768 1924Q721 1924 688 1891T655 1811Q655 1764 688 1731T768 1697Q815 1697 848 1730T882 1811Q882 1858 849 1891T768 1924ZM1025 1922Q978 1922 945 1889T911 1808Q911 1761 944 1728T1025 1695Q1072
1695 1105 1728T1138 1808Q1138 1855 1105 1888T1025 1922ZM510 1922Q463 1922 430 1889T396 1808Q396 1761 429 1728T510 1695Q557 1695 590 1728T623 1808Q623 1855 590 1888T510 1922ZM255 1662Q208 1662 175 1629T142 1549Q142 1502 175 1469T255 1435Q302
1435 335 1468T369 1549Q369 1596 336 1629T255 1662ZM258 1394Q211 1394 178 1361T145 1280Q145 1233 178 1200T258 1167Q305 1167 338 1200T371 1280Q371 1327 338 1360T258 1394ZM255 1143Q208 1143 175 1110T142 1029Q142 982 175 949T255 916Q302 916 335
949T369 1029Q369 1076 336 1109T255 1143ZM261 890Q214 890 181 857T147 777Q147 730 180 697T261 663Q308 663 341 696T374 777Q374 824 341 857T261 890ZM266 636Q219 636 186 603T153 523Q153 476 186 443T266 409Q313 409 346 442T380 523Q380 570 347 603T266
636ZM1282 1672Q1235 1672 1202 1639T1169 1559Q1169 1512 1202 1479T1282 1445Q1329 1445 1362 1478T1396 1559Q1396 1606 1363 1639T1282 1672ZM1526 2298V282H-4V2298H1526Z" />
<glyph unicode="s" glyph-name="s" horiz-adv-x="1634" d="M774 1924Q727 1924 694 1891T661 1811Q661 1764 694 1731T774 1697Q821 1697 854 1730T888 1811Q888 1858 855 1891T774 1924ZM1031 1922Q984 1922 951 1889T917 1808Q917 1761 950 1728T1031 1695Q1078
1695 1111 1728T1144 1808Q1144 1855 1111 1888T1031 1922ZM516 1922Q469 1922 436 1889T402 1808Q402 1761 435 1728T516 1695Q563 1695 596 1728T629 1808Q629 1855 596 1888T516 1922ZM261 1662Q214 1662 181 1629T148 1549Q148 1502 181 1469T261 1435Q308
1435 341 1468T375 1549Q375 1596 342 1629T261 1662ZM776 1396Q729 1396 696 1363T662 1283Q662 1236 695 1203T776 1169Q823 1169 856 1202T889 1283Q889 1330 856 1363T776 1396ZM1033 1394Q986 1394 953 1361T919 1280Q919 1233 952 1200T1033 1167Q1080 1167
1113 1200T1146 1280Q1146 1327 1113 1360T1033 1394ZM517 1394Q470 1394 437 1361T404 1280Q404 1233 437 1200T517 1167Q564 1167 597 1200T631 1280Q631 1327 598 1360T517 1394ZM784 639Q737 639 704 606T671 525Q671 478 704 445T784 412Q831 412 864 445T898
525Q898 572 865 605T784 639ZM1041 636Q994 636 961 603T928 523Q928 476 961 443T1041 409Q1088 409 1121 442T1155 523Q1155 570 1122 603T1041 636ZM267 898Q220 898 187 865T154 785Q154 738 187 705T267 671Q314 671 347 704T381 785Q381 832 348 865T267
898ZM526 636Q479 636 446 603T412 523Q412 476 445 443T526 409Q573 409 606 442T639 523Q639 570 606 603T526 636ZM1291 1924Q1244 1924 1211 1891T1178 1811Q1178 1764 1211 1731T1291 1697Q1338 1697 1371 1730T1405 1811Q1405 1858 1372 1891T1291 1924ZM1290
1145Q1243 1145 1210 1112T1177 1032Q1177 985 1210 952T1290 918Q1337 918 1370 951T1404 1032Q1404 1079 1371 1112T1290 1145ZM1295 893Q1248 893 1215 860T1182 779Q1182 732 1215 699T1295 666Q1342 666 1375 699T1409 779Q1409 826 1376 859T1295 893ZM1530
2301V285H0V2301H1530Z" />
<glyph unicode="t" glyph-name="t" horiz-adv-x="1627" d="M768 1924Q721 1924 688 1891T655 1811Q655 1764 688 1731T768 1697Q815 1697 848 1730T882 1811Q882 1858 849 1891T768 1924ZM255 1662Q208 1662 175 1629T142 1549Q142 1502 175 1469T255 1435Q302
1435 335 1468T369 1549Q369 1596 336 1629T255 1662ZM767 1665Q720 1665 687 1632T654 1551Q654 1504 687 1471T767 1438Q814 1438 847 1471T881 1551Q881 1598 848 1631T767 1665ZM1024 1662Q977 1662 944 1629T911 1549Q911 1502 944 1469T1024 1435Q1071 1435
1104 1468T1138 1549Q1138 1596 1105 1629T1024 1662ZM509 1662Q462 1662 429 1629T395 1549Q395 1502 428 1469T509 1435Q556 1435 589 1468T622 1549Q622 1596 589 1629T509 1662ZM770 1396Q723 1396 690 1363T656 1283Q656 1236 689 1203T770 1169Q817 1169
850 1202T883 1283Q883 1330 850 1363T770 1396ZM767 1145Q720 1145 687 1112T654 1032Q654 985 687 952T767 918Q814 918 847 951T881 1032Q881 1079 848 1112T767 1145ZM772 893Q725 893 692 860T659 779Q659 732 692 699T772 666Q819 666 852 699T886 779Q886
826 853 859T772 893ZM773 639Q726 639 693 606T660 526Q660 479 693 446T773 412Q820 412 853 445T887 526Q887 573 854 606T773 639ZM1284 1665Q1237 1665 1204 1632T1171 1551Q1171 1504 1204 1471T1284 1438Q1331 1438 1364 1471T1398 1551Q1398 1598 1365
1631T1284 1665ZM1530 2301V285H0V2301H1530Z" />
<glyph unicode="u" glyph-name="u" horiz-adv-x="1627" d="M247 1922Q200 1922 167 1889T134 1808Q134 1761 167 1728T247 1695Q294 1695 327 1728T361 1808Q361 1855 328 1888T247 1922ZM246 1662Q199 1662 166 1629T133 1549Q133 1502 166 1469T246 1435Q293
1435 326 1468T360 1549Q360 1596 327 1629T246 1662ZM249 1394Q202 1394 169 1361T136 1280Q136 1233 169 1200T249 1167Q296 1167 329 1200T362 1280Q362 1327 329 1360T249 1394ZM246 1143Q199 1143 166 1110T133 1029Q133 982 166 949T246 916Q293 916 326
949T360 1029Q360 1076 327 1109T246 1143ZM252 890Q205 890 172 857T138 777Q138 730 171 697T252 663Q299 663 332 696T365 777Q365 824 332 857T252 890ZM769 639Q722 639 689 606T656 525Q656 478 689 445T769 412Q816 412 849 445T883 525Q883 572 850 605T769
639ZM1026 636Q979 636 946 603T913 523Q913 476 946 443T1026 409Q1073 409 1106 442T1140 523Q1140 570 1107 603T1026 636ZM511 636Q464 636 431 603T397 523Q397 476 430 443T511 409Q558 409 591 442T624 523Q624 570 591 603T511 636ZM1276 1924Q1229 1924
1196 1891T1163 1811Q1163 1764 1196 1731T1276 1697Q1323 1697 1356 1730T1390 1811Q1390 1858 1357 1891T1276 1924ZM1275 1665Q1228 1665 1195 1632T1162 1551Q1162 1504 1195 1471T1275 1438Q1322 1438 1355 1471T1389 1551Q1389 1598 1356 1631T1275 1665ZM1278
1396Q1231 1396 1198 1363T1164 1283Q1164 1236 1197 1203T1278 1169Q1325 1169 1358 1202T1391 1283Q1391 1330 1358 1363T1278 1396ZM1275 1145Q1228 1145 1195 1112T1162 1032Q1162 985 1195 952T1275 918Q1322 918 1355 951T1389 1032Q1389 1079 1356 1112T1275
1145ZM1280 893Q1233 893 1200 860T1167 779Q1167 732 1200 699T1280 666Q1327 666 1360 699T1394 779Q1394 826 1361 859T1280 893ZM1286 639Q1239 639 1206 606T1173 525Q1173 478 1206 445T1286 412Q1333 412 1366 445T1400 525Q1400 572 1367 605T1286 639ZM1530
2301V285H0V2301H1530Z" />
<glyph unicode="v" glyph-name="v" horiz-adv-x="1631" d="M247 1922Q200 1922 167 1889T134 1808Q134 1761 167 1728T247 1695Q294 1695 327 1728T361 1808Q361 1855 328 1888T247 1922ZM246 1662Q199 1662 166 1629T133 1549Q133 1502 166 1469T246 1435Q293
1435 326 1468T360 1549Q360 1596 327 1629T246 1662ZM249 1394Q202 1394 169 1361T136 1280Q136 1233 169 1200T249 1167Q296 1167 329 1200T362 1280Q362 1327 329 1360T249 1394ZM246 1143Q199 1143 166 1110T133 1029Q133 982 166 949T246 916Q293 916 326
949T360 1029Q360 1076 327 1109T246 1143ZM1020 890Q973 890 940 857T907 777Q907 730 940 697T1020 663Q1067 663 1100 696T1134 777Q1134 824 1101 857T1020 890ZM505 890Q458 890 425 857T391 777Q391 730 424 697T505 663Q552 663 585 696T618 777Q618 824
585 857T505 890ZM769 639Q722 639 689 606T656 525Q656 478 689 445T769 412Q816 412 849 445T883 525Q883 572 850 605T769 639ZM1276 1924Q1229 1924 1196 1891T1163 1811Q1163 1764 1196 1731T1276 1697Q1323 1697 1356 1730T1390 1811Q1390 1858 1357 1891T1276
1924ZM1275 1665Q1228 1665 1195 1632T1162 1551Q1162 1504 1195 1471T1275 1438Q1322 1438 1355 1471T1389 1551Q1389 1598 1356 1631T1275 1665ZM1278 1396Q1231 1396 1198 1363T1164 1283Q1164 1236 1197 1203T1278 1169Q1325 1169 1358 1202T1391 1283Q1391
1330 1358 1363T1278 1396ZM1275 1145Q1228 1145 1195 1112T1162 1032Q1162 985 1195 952T1275 918Q1322 918 1355 951T1389 1032Q1389 1079 1356 1112T1275 1145ZM1530 2298V282H0V2298H1530Z" />
<glyph unicode="w" glyph-name="w" horiz-adv-x="1631" d="M247 1922Q200 1922 167 1889T134 1808Q134 1761 167 1728T247 1695Q294 1695 327 1728T361 1808Q361 1855 328 1888T247 1922ZM246 1662Q199 1662 166 1629T133 1549Q133 1502 166 1469T246 1435Q293
1435 326 1468T360 1549Q360 1596 327 1629T246 1662ZM249 1394Q202 1394 169 1361T136 1280Q136 1233 169 1200T249 1167Q296 1167 329 1200T362 1280Q362 1327 329 1360T249 1394ZM246 1143Q199 1143 166 1110T133 1029Q133 982 166 949T246 916Q293 916 326
949T360 1029Q360 1076 327 1109T246 1143ZM758 1145Q711 1145 678 1112T645 1032Q645 985 678 952T758 918Q805 918 838 951T872 1032Q872 1079 839 1112T758 1145ZM252 890Q205 890 172 857T138 777Q138 730 171 697T252 663Q299 663 332 696T365 777Q365 824
332 857T252 890ZM1020 890Q973 890 940 857T907 777Q907 730 940 697T1020 663Q1067 663 1100 696T1134 777Q1134 824 1101 857T1020 890ZM505 890Q458 890 425 857T391 777Q391 730 424 697T505 663Q552 663 585 696T618 777Q618 824 585 857T505 890ZM257 636Q210
636 177 603T144 523Q144 476 177 443T257 409Q304 409 337 442T371 523Q371 570 338 603T257 636ZM1276 1924Q1229 1924 1196 1891T1163 1811Q1163 1764 1196 1731T1276 1697Q1323 1697 1356 1730T1390 1811Q1390 1858 1357 1891T1276 1924ZM1275 1665Q1228 1665
1195 1632T1162 1551Q1162 1504 1195 1471T1275 1438Q1322 1438 1355 1471T1389 1551Q1389 1598 1356 1631T1275 1665ZM1278 1396Q1231 1396 1198 1363T1164 1283Q1164 1236 1197 1203T1278 1169Q1325 1169 1358 1202T1391 1283Q1391 1330 1358 1363T1278 1396ZM1275
1145Q1228 1145 1195 1112T1162 1032Q1162 985 1195 952T1275 918Q1322 918 1355 951T1389 1032Q1389 1079 1356 1112T1275 1145ZM1280 893Q1233 893 1200 860T1167 779Q1167 732 1200 699T1280 666Q1327 666 1360 699T1394 779Q1394 826 1361 859T1280 893ZM1286
639Q1239 639 1206 606T1173 525Q1173 478 1206 445T1286 412Q1333 412 1366 445T1400 525Q1400 572 1367 605T1286 639ZM1530 2298V282H0V2298H1530Z" />
<glyph unicode="x" glyph-name="x" horiz-adv-x="1627" d="M244 1922Q197 1922 164 1889T131 1808Q131 1761 164 1728T244 1695Q291 1695 324 1728T358 1808Q358 1855 325 1888T244 1922ZM1012 1662Q965 1662 932 1629T899 1549Q899 1502 932 1469T1012 1435Q1059
1435 1092 1468T1126 1549Q1126 1596 1093 1629T1012 1662ZM497 1662Q450 1662 417 1629T384 1549Q384 1502 417 1469T497 1435Q544 1435 577 1468T610 1549Q610 1596 577 1629T497 1662ZM758 1396Q711 1396 678 1363T645 1283Q645 1236 678 1203T758 1169Q805
1169 838 1202T871 1283Q871 1330 838 1363T758 1396ZM755 1145Q708 1145 675 1112T642 1032Q642 985 675 952T755 918Q802 918 835 951T869 1032Q869 1079 836 1112T755 1145ZM1017 890Q970 890 937 857T904 777Q904 730 937 697T1017 663Q1064 663 1097 696T1131
777Q1131 824 1098 857T1017 890ZM502 890Q455 890 422 857T389 777Q389 730 422 697T502 663Q549 663 582 696T616 777Q616 824 583 857T502 890ZM255 636Q208 636 175 603T141 523Q141 476 174 443T255 409Q302 409 335 442T368 523Q368 570 335 603T255 636ZM1273
1924Q1226 1924 1193 1891T1160 1811Q1160 1764 1193 1731T1273 1697Q1320 1697 1353 1730T1387 1811Q1387 1858 1354 1891T1273 1924ZM1283 639Q1236 639 1203 606T1170 525Q1170 478 1203 445T1283 412Q1330 412 1363 445T1397 525Q1397 572 1364 605T1283 639ZM1527
2298V282H-3V2298H1527Z" />
<glyph unicode="y" glyph-name="y" horiz-adv-x="1627" d="M247 1922Q200 1922 167 1889T134 1808Q134 1761 167 1728T247 1695Q294 1695 327 1728T361 1808Q361 1855 328 1888T247 1922ZM246 1662Q199 1662 166 1629T133 1549Q133 1502 166 1469T246 1435Q293
1435 326 1468T360 1549Q360 1596 327 1629T246 1662ZM249 1394Q202 1394 169 1361T136 1280Q136 1233 169 1200T249 1167Q296 1167 329 1200T362 1280Q362 1327 329 1360T249 1394ZM758 1145Q711 1145 678 1112T645 1032Q645 985 678 952T758 918Q805 918 838
951T872 1032Q872 1079 839 1112T758 1145ZM1015 1143Q968 1143 935 1110T902 1029Q902 982 935 949T1015 916Q1062 916 1095 949T1129 1029Q1129 1076 1096 1109T1015 1143ZM500 1143Q453 1143 420 1110T386 1029Q386 982 419 949T500 916Q547 916 580 949T613
1029Q613 1076 580 1109T500 1143ZM257 636Q210 636 177 603T144 523Q144 476 177 443T257 409Q304 409 337 442T371 523Q371 570 338 603T257 636ZM769 639Q722 639 689 606T656 525Q656 478 689 445T769 412Q816 412 849 445T883 525Q883 572 850 605T769 639ZM1026
636Q979 636 946 603T913 523Q913 476 946 443T1026 409Q1073 409 1106 442T1140 523Q1140 570 1107 603T1026 636ZM511 636Q464 636 431 603T397 523Q397 476 430 443T511 409Q558 409 591 442T624 523Q624 570 591 603T511 636ZM1276 1924Q1229 1924 1196 1891T1163
1811Q1163 1764 1196 1731T1276 1697Q1323 1697 1356 1730T1390 1811Q1390 1858 1357 1891T1276 1924ZM1275 1665Q1228 1665 1195 1632T1162 1551Q1162 1504 1195 1471T1275 1438Q1322 1438 1355 1471T1389 1551Q1389 1598 1356 1631T1275 1665ZM1278 1396Q1231
1396 1198 1363T1164 1283Q1164 1236 1197 1203T1278 1169Q1325 1169 1358 1202T1391 1283Q1391 1330 1358 1363T1278 1396ZM1275 1145Q1228 1145 1195 1112T1162 1032Q1162 985 1195 952T1275 918Q1322 918 1355 951T1389 1032Q1389 1079 1356 1112T1275 1145ZM1280
893Q1233 893 1200 860T1167 779Q1167 732 1200 699T1280 666Q1327 666 1360 699T1394 779Q1394 826 1361 859T1280 893ZM1530 2298V282H0V2298H1530Z" />
<glyph unicode="z" glyph-name="z" horiz-adv-x="1634" d="M244 1922Q197 1922 164 1889T131 1808Q131 1761 164 1728T244 1695Q291 1695 324 1728T358 1808Q358 1855 325 1888T244 1922ZM756 1924Q709 1924 676 1891T643 1811Q643 1764 676 1731T756 1697Q803
1697 836 1730T870 1811Q870 1858 837 1891T756 1924ZM1013 1922Q966 1922 933 1889T900 1808Q900 1761 933 1728T1013 1695Q1060 1695 1093 1728T1127 1808Q1127 1855 1094 1888T1013 1922ZM498 1922Q451 1922 418 1889T384 1808Q384 1761 417 1728T498 1695Q545
1695 578 1728T611 1808Q611 1855 578 1888T498 1922ZM1015 1394Q968 1394 935 1361T901 1280Q901 1233 934 1200T1015 1167Q1062 1167 1095 1200T1128 1280Q1128 1327 1095 1360T1015 1394ZM755 1145Q708 1145 675 1112T642 1032Q642 985 675 952T755 918Q802
918 835 951T869 1032Q869 1079 836 1112T755 1145ZM502 890Q455 890 422 857T389 777Q389 730 422 697T502 663Q549 663 582 696T616 777Q616 824 583 857T502 890ZM255 636Q208 636 175 603T141 523Q141 476 174 443T255 409Q302 409 335 442T368 523Q368 570
335 603T255 636ZM766 639Q719 639 686 606T653 525Q653 478 686 445T766 412Q813 412 846 445T880 525Q880 572 847 605T766 639ZM1023 636Q976 636 943 603T910 523Q910 476 943 443T1023 409Q1070 409 1103 442T1137 523Q1137 570 1104 603T1023 636ZM508 636Q461
636 428 603T395 523Q395 476 428 443T508 409Q555 409 588 442T621 523Q621 570 588 603T508 636ZM1273 1924Q1226 1924 1193 1891T1160 1811Q1160 1764 1193 1731T1273 1697Q1320 1697 1353 1730T1387 1811Q1387 1858 1354 1891T1273 1924ZM1272 1665Q1225 1665
1192 1632T1159 1551Q1159 1504 1192 1471T1272 1438Q1319 1438 1352 1471T1386 1551Q1386 1598 1353 1631T1272 1665ZM1283 639Q1236 639 1203 606T1170 525Q1170 478 1203 445T1283 412Q1330 412 1363 445T1397 525Q1397 572 1364 605T1283 639ZM1527 2298V282H-3V2298H1527Z"
/>
<glyph unicode="{" glyph-name="braceleft" horiz-adv-x="1624" d="M247 1922Q200 1922 167 1889T134 1808Q134 1761 167 1728T247 1695Q294 1695 327 1728T361 1808Q361 1855 328 1888T247 1922ZM246 1662Q199 1662 166 1629T133 1549Q133 1502 166 1469T246
1435Q293 1435 326 1468T360 1549Q360 1596 327 1629T246 1662ZM502 1394Q455 1394 422 1361T389 1280Q389 1233 422 1200T502 1167Q549 1167 582 1200T616 1280Q616 1327 583 1360T502 1394ZM246 1143Q199 1143 166 1110T133 1029Q133 982 166 949T246 916Q293
916 326 949T360 1029Q360 1076 327 1109T246 1143ZM252 890Q205 890 172 857T138 777Q138 730 171 697T252 663Q299 663 332 696T365 777Q365 824 332 857T252 890ZM769 639Q722 639 689 606T656 525Q656 478 689 445T769 412Q816 412 849 445T883 525Q883 572
850 605T769 639ZM1026 636Q979 636 946 603T913 523Q913 476 946 443T1026 409Q1073 409 1106 442T1140 523Q1140 570 1107 603T1026 636ZM511 636Q464 636 431 603T397 523Q397 476 430 443T511 409Q558 409 591 442T624 523Q624 570 591 603T511 636ZM1276 1924Q1229
1924 1196 1891T1163 1811Q1163 1764 1196 1731T1276 1697Q1323 1697 1356 1730T1390 1811Q1390 1858 1357 1891T1276 1924ZM1280 893Q1233 893 1200 860T1167 779Q1167 732 1200 699T1280 666Q1327 666 1360 699T1394 779Q1394 826 1361 859T1280 893ZM759 2182Q712
2182 679 2149T646 2068Q646 2021 679 1988T759 1955Q806 1955 839 1988T873 2068Q873 2115 840 2148T759 2182ZM1016 2179Q969 2179 936 2146T902 2066Q902 2019 935 1986T1016 1952Q1063 1952 1096 1985T1129 2066Q1129 2113 1096 2146T1016 2179ZM501 2179Q454
2179 421 2146T387 2066Q387 2019 420 1986T501 1952Q548 1952 581 1985T614 2066Q614 2113 581 2146T501 2179ZM1530 2298V282H0V2298H1530Z" />
<glyph unicode="|" glyph-name="bar" horiz-adv-x="1624" d="M259 1922Q212 1922 179 1889T146 1808Q146 1761 179 1728T259 1695Q306 1695 339 1728T373 1808Q373 1855 340 1888T259 1922ZM771 1924Q724 1924 691 1891T658 1811Q658 1764 691 1731T771 1697Q818
1697 851 1730T885 1811Q885 1858 852 1891T771 1924ZM1028 1922Q981 1922 948 1889T914 1808Q914 1761 947 1728T1028 1695Q1075 1695 1108 1728T1141 1808Q1141 1855 1108 1888T1028 1922ZM513 1922Q466 1922 433 1889T399 1808Q399 1761 432 1728T513 1695Q560
1695 593 1728T626 1808Q626 1855 593 1888T513 1922ZM258 1662Q211 1662 178 1629T145 1549Q145 1502 178 1469T258 1435Q305 1435 338 1468T372 1549Q372 1596 339 1629T258 1662ZM770 1665Q723 1665 690 1632T657 1551Q657 1504 690 1471T770 1438Q817 1438
850 1471T884 1551Q884 1598 851 1631T770 1665ZM1027 1662Q980 1662 947 1629T914 1549Q914 1502 947 1469T1027 1435Q1074 1435 1107 1468T1141 1549Q1141 1596 1108 1629T1027 1662ZM512 1662Q465 1662 432 1629T398 1549Q398 1502 431 1469T512 1435Q559 1435
592 1468T625 1549Q625 1596 592 1629T512 1662ZM261 1394Q214 1394 181 1361T148 1280Q148 1233 181 1200T261 1167Q308 1167 341 1200T374 1280Q374 1327 341 1360T261 1394ZM773 1396Q726 1396 693 1363T659 1283Q659 1236 692 1203T773 1169Q820 1169 853 1202T886
1283Q886 1330 853 1363T773 1396ZM1030 1394Q983 1394 950 1361T916 1280Q916 1233 949 1200T1030 1167Q1077 1167 1110 1200T1143 1280Q1143 1327 1110 1360T1030 1394ZM514 1394Q467 1394 434 1361T401 1280Q401 1233 434 1200T514 1167Q561 1167 594 1200T628
1280Q628 1327 595 1360T514 1394ZM258 1143Q211 1143 178 1110T145 1029Q145 982 178 949T258 916Q305 916 338 949T372 1029Q372 1076 339 1109T258 1143ZM770 1145Q723 1145 690 1112T657 1032Q657 985 690 952T770 918Q817 918 850 951T884 1032Q884 1079 851
1112T770 1145ZM1027 1143Q980 1143 947 1110T914 1029Q914 982 947 949T1027 916Q1074 916 1107 949T1141 1029Q1141 1076 1108 1109T1027 1143ZM512 1143Q465 1143 432 1110T398 1029Q398 982 431 949T512 916Q559 916 592 949T625 1029Q625 1076 592 1109T512
1143ZM264 890Q217 890 184 857T150 777Q150 730 183 697T264 663Q311 663 344 696T377 777Q377 824 344 857T264 890ZM775 893Q728 893 695 860T662 779Q662 732 695 699T775 666Q822 666 855 699T889 779Q889 826 856 859T775 893ZM1032 890Q985 890 952 857T919
777Q919 730 952 697T1032 663Q1079 663 1112 696T1146 777Q1146 824 1113 857T1032 890ZM517 890Q470 890 437 857T403 777Q403 730 436 697T517 663Q564 663 597 696T630 777Q630 824 597 857T517 890ZM269 636Q222 636 189 603T156 523Q156 476 189 443T269
409Q316 409 349 442T383 523Q383 570 350 603T269 636ZM781 639Q734 639 701 606T668 525Q668 478 701 445T781 412Q828 412 861 445T895 525Q895 572 862 605T781 639ZM1038 636Q991 636 958 603T925 523Q925 476 958 443T1038 409Q1085 409 1118 442T1152 523Q1152
570 1119 603T1038 636ZM523 636Q476 636 443 603T409 523Q409 476 442 443T523 409Q570 409 603 442T636 523Q636 570 603 603T523 636ZM1288 1924Q1241 1924 1208 1891T1175 1811Q1175 1764 1208 1731T1288 1697Q1335 1697 1368 1730T1402 1811Q1402 1858 1369
1891T1288 1924ZM1287 1665Q1240 1665 1207 1632T1174 1551Q1174 1504 1207 1471T1287 1438Q1334 1438 1367 1471T1401 1551Q1401 1598 1368 1631T1287 1665ZM1290 1396Q1243 1396 1210 1363T1176 1283Q1176 1236 1209 1203T1290 1169Q1337 1169 1370 1202T1403
1283Q1403 1330 1370 1363T1290 1396ZM1287 1145Q1240 1145 1207 1112T1174 1032Q1174 985 1207 952T1287 918Q1334 918 1367 951T1401 1032Q1401 1079 1368 1112T1287 1145ZM1292 893Q1245 893 1212 860T1179 779Q1179 732 1212 699T1292 666Q1339 666 1372 699T1406
779Q1406 826 1373 859T1292 893ZM1298 639Q1251 639 1218 606T1185 525Q1185 478 1218 445T1298 412Q1345 412 1378 445T1412 525Q1412 572 1379 605T1298 639ZM259 2179Q212 2179 179 2146T146 2066Q146 2019 179 1986T259 1952Q306 1952 339 1985T373 2066Q373
2113 340 2146T259 2179ZM771 2182Q724 2182 691 2149T658 2068Q658 2021 691 1988T771 1955Q818 1955 851 1988T885 2068Q885 2115 852 2148T771 2182ZM1028 2179Q981 2179 948 2146T914 2066Q914 2019 947 1986T1028 1952Q1075 1952 1108 1985T1141 2066Q1141
2113 1108 2146T1028 2179ZM513 2179Q466 2179 433 2146T399 2066Q399 2019 432 1986T513 1952Q560 1952 593 1985T626 2066Q626 2113 593 2146T513 2179ZM1288 2182Q1241 2182 1208 2149T1175 2068Q1175 2021 1208 1988T1288 1955Q1335 1955 1368 1988T1402 2068Q1402
2115 1369 2148T1288 2182ZM1531 2294V295H1V2294H1531Z" />
<glyph unicode="}" glyph-name="braceright" horiz-adv-x="1624" d="M1250 1922T1217 1889T1184 1808Q1184 1761 1217 1728T1297 1695Q1344 1695 1377 1728T1411 1808Q1411 1855 1378 1888T1297 1922Q1250 1922 1217 1889ZM1251 1662T1218 1629T1185 1549Q1185
1502 1218 1469T1298 1435Q1345 1435 1378 1468T1412 1549Q1412 1596 1379 1629T1298 1662Q1251 1662 1218 1629ZM995 1394T962 1361T929 1280Q929 1233 962 1200T1042 1167Q1089 1167 1122 1200T1156 1280Q1156 1327 1123 1360T1042 1394Q995 1394 962 1361ZM1251
1143T1218 1110T1185 1029Q1185 982 1218 949T1298 916Q1345 916 1378 949T1412 1029Q1412 1076 1379 1109T1298 1143Q1251 1143 1218 1110ZM1246 890T1213 857T1180 777Q1180 730 1213 697T1293 663Q1340 663 1373 696T1407 777Q1407 824 1374 857T1293 890Q1246
890 1213 857ZM728 639T695 606T662 525Q662 478 695 445T775 412Q822 412 855 445T889 525Q889 572 856 605T775 639Q728 639 695 606ZM472 636T439 603T405 523Q405 476 438 443T519 409Q566 409 599 442T632 523Q632 570 599 603T519 636Q472 636 439 603ZM987
636T954 603T920 523Q920 476 953 443T1034 409Q1081 409 1114 442T1147 523Q1147 570 1114 603T1034 636Q987 636 954 603ZM222 1924T189 1891T155 1811Q155 1764 188 1731T269 1697Q316 1697 349 1730T382 1811Q382 1858 349 1891T269 1924Q222 1924 189 1891ZM217
893T184 860T151 779Q151 732 184 699T264 666Q311 666 344 699T378 779Q378 826 345 859T264 893Q217 893 184 860ZM739 2182T706 2149T672 2068Q672 2021 705 1988T786 1955Q833 1955 866 1988T899 2068Q899 2115 866 2148T786 2182Q739 2182 706 2149ZM482 2179T449
2146T415 2066Q415 2019 448 1986T529 1952Q576 1952 609 1985T642 2066Q642 2113 609 2146T529 2179Q482 2179 449 2146ZM997 2179T964 2146T931 2066Q931 2019 964 1986T1044 1952Q1091 1952 1124 1985T1158 2066Q1158 2113 1125 2146T1044 2179Q997 2179 964
2146ZM1533 2297V298H3V2297H1533Z" />
<glyph unicode="~" glyph-name="asciitilde" horiz-adv-x="1014" />
</font>
</defs>
</svg>
