<?xml version="1.0" encoding="utf-8"?>
<!-- Generator: Adobe Illustrator 19.2.1, SVG Export Plug-In . SVG Version: 6.00 Build 0)  -->
<svg version="1.1" id="grid_lines" xmlns="http://www.w3.org/2000/svg" xmlns:xlink="http://www.w3.org/1999/xlink" x="0px" y="0px"
	 viewBox="0 0 649 560" style="enable-background:new 0 0 649 560;" xml:space="preserve">
<style type="text/css">
	.st0{fill:#1ABCD8;}
	.st1{fill:#F2CF0B;}
	.st2{fill:#418365;}
	.st3{fill:#FFFFFF;}
	.st4{fill:#E33B2E;}
</style>
<g>
	<path class="st0" d="M599.8,241.8h-9.4H581h-9.4h-9.4h-9.4h-9.4H534h-9.4h-9.4h-9.4h-9.4h-9.4h-9.4h-9.4h-9.4h-9.4h-9.4h-9.4h-9.4
		h-9.4h-9.4h-9.4h-9.4h-9.4h-9.4h-9.4h-9.4h-9.4h-9.4h-9.4h-9.4h-9.4h-9.4h-9.4h-9.4h-9.4h-9.4h-9.4h-9.4h-9.4h-9.4h-9.4h-9.4h-9.4
		H177h-9.4h-9.4h-9.4h-9.4H130h-9.4h-9.4h-9.4h-9.4H83h-9.4h-9.4h-9.4h-9.4H36v9.3v0.1v9.3v0.1v9.3v0.1v9.3v0.1v9.3v0.1v9.3v0.1v9.3
		v0.1h9.4h9.4h9.4h9.4H83h9.4h9.4h9.4h9.4h9.4h9.4h9.4h9.4h9.4h9.4h9.4h9.4h9.4h9.4h9.4h9.4h9.4h9.4h9.4h9.4h9.4h9.4h9.4h9.4h9.4
		h9.4h9.4h9.4h9.4h9.4h9.4h9.4h9.4h9.4h9.4h9.4h9.4h9.4h9.4h9.4h9.4h9.4h9.4h9.4h9.4h9.4h9.4h9.4h9.4h9.4h9.4h9.4h9.4h9.4h9.4h9.4
		v-0.1V298v-0.1v-9.3h-9.4h-9.4H581h-9.4h-9.4h-9.4v-0.1v-9.3h9.4v-0.1v-9.3h9.4v-0.1v-9.3h9.4v-0.1v-9.3h9.4v9.3v0.1h9.4v9.3v0.1
		h9.4v-0.1v-9.3v-0.1v-9.3V251v-9.3H599.8z M534,288.5L534,288.5l-9.4,0.1h-9.4h-9.4h-9.4h-9.4h-9.4h-9.4v-0.1v-9.3h9.4v-0.1v-9.3
		h9.4v-0.1v-9.3h9.4v-0.1v-9.3h9.4v9.3v0.1h9.4v9.3v0.1h9.4v9.3v0.1h9.4V288.5z M421.3,260.4L421.3,260.4l9.4,0.1v9.3v0.1h9.4v9.3
		v0.1h9.4v9.3v0.1h-9.4h-9.4h-9.4h-9.4h-9.4h-9.4h-9.4v-0.1v-9.3h9.4v-0.1v-9.3h9.4v-0.1v-9.3h9.4v-0.1v-9.3h9.4V260.4z
		 M336.7,260.4L336.7,260.4l9.4,0.1v9.3v0.1h9.4v9.3v0.1h9.4v9.3v0.1h-9.4h-9.4h-9.4h-9.4h-9.4h-9.4h-9.4v-0.1v-9.3h9.4v-0.1v-9.3
		h9.4v-0.1v-9.3h9.4v-0.1v-9.3h9.4V260.4z M252.1,260.4L252.1,260.4l9.4,0.1v9.3v0.1h9.4v9.3v0.1h9.4v9.3v0.1h-9.4h-9.4h-9.4h-9.4
		h-9.4h-9.4h-9.4v-0.1v-9.3h9.4v-0.1v-9.3h9.4v-0.1v-9.3h9.4v-0.1v-9.3h9.4V260.4z M167.6,260.4L167.6,260.4l9.4,0.1v9.3v0.1h9.4
		v9.3v0.1h9.4v9.3v0.1h-9.4H177h-9.4h-9.4h-9.4h-9.4H130v-0.1v-9.3h9.4v-0.1v-9.3h9.4v-0.1v-9.3h9.4v-0.1v-9.3h9.4V260.4z
		 M45.4,288.5v-9.3h9.4v-0.1v-9.3h9.4v-0.1v-9.3h9.4v-0.1v-9.3H83v9.3v0.1h9.4v9.3v0.1h9.4v9.3v0.1h9.4v9.3v0.1h-9.4h-9.4H83h-9.4
		h-9.4h-9.4L45.4,288.5L45.4,288.5z M599.8,476.1h9.4v9.4v0h-9.4h-9.4v0v-9.4H581v0v-9.4h-9.4v0v-9.3h-9.4v0V448h-9.4v0v-9.3h-9.4v0
		v-9.3h9.4h9.4v9.3v0h9.4v9.3v0h9.4v9.3v0h9.4v9.3v0h9.4V476.1L599.8,476.1z M543.4,476.1h9.4v9.4v0h-9.4H534v0v-9.4h-9.4v0v-9.4
		h-9.4v0v-9.3h-9.4v0V448h-9.4v0v-9.3h-9.4v0v-9.3h9.4h9.4v9.3v0h9.4v9.3v0h9.4v9.3v0h9.4v9.3v0h9.4V476.1L543.4,476.1z
		 M487.1,476.1h9.4v9.4v0h-9.4h-9.4v0v-9.4h-9.4v0v-9.4h-9.4v0v-9.3h-9.4v0V448h-9.4v0v-9.3h-9.4v0v-9.3h9.4h9.4v9.3v0h9.4v9.3v0
		h9.4v9.3v0h9.4v9.3v0h9.4V476.1L487.1,476.1z M430.7,476.1h9.4v9.4v0h-9.4h-9.4v0v-9.4h-9.4v0v-9.4h-9.4v0v-9.3h-9.4v0V448h-9.4v0
		v-9.3h-9.4v0v-9.3h9.4h9.4v9.3v0h9.4v9.3v0h9.4v9.3v0h9.4v9.3v0h9.4V476.1L430.7,476.1z M374.3,476.1h9.4v9.4v0h-9.4h-9.4v0v-9.4
		h-9.4v0v-9.4h-9.4v0v-9.3h-9.4v0V448h-9.4v0v-9.3h-9.4v0v-9.3h9.4h9.4v9.3v0h9.4v9.3v0h9.4v9.3v0h9.4v9.3v0h9.4V476.1L374.3,476.1z
		 M317.9,476.1h9.4v9.4v0h-9.4h-9.4v0v-9.4h-9.4v0v-9.4h-9.4v0v-9.3h-9.4v0V448h-9.4v0v-9.3h-9.4v0v-9.3h9.4h9.4v9.3v0h9.4v9.3v0
		h9.4v9.3v0h9.4v9.3v0h9.4V476.1L317.9,476.1z M261.5,476.1h9.4v9.4v0h-9.4h-9.4v0v-9.4h-9.4v0v-9.4h-9.4v0v-9.3h-9.4v0V448h-9.4v0
		v-9.3h-9.4v0v-9.3h9.4h9.4v9.3v0h9.4v9.3v0h9.4v9.3v0h9.4v9.3v0h9.4V476.1L261.5,476.1z M205.2,476.1h9.4v9.4v0h-9.4h-9.4v0v-9.4
		h-9.4v0v-9.4H177v0v-9.3h-9.4v0V448h-9.4v0v-9.3h-9.4v0v-9.3h9.4h9.4v9.3v0h9.4v9.3v0h9.4v9.3v0h9.4v9.3v0h9.4V476.1L205.2,476.1z
		 M148.8,476.1h9.4v9.4v0h-9.4h-9.4v0v-9.4H130v0v-9.4h-9.4v0v-9.3h-9.4v0V448h-9.4v0v-9.3h-9.4v0v-9.3h9.4h9.4v9.3v0h9.4v9.3v0h9.4
		v9.3v0h9.4v9.3v0h9.4V476.1L148.8,476.1z M92.4,476.1h9.4v9.4v0h-9.4H83v0v-9.4h-9.4v0v-9.4h-9.4v0v-9.3h-9.4v0V448h-9.4v0v-9.3H36
		v0v-9.3h9.4h9.4v9.3v0h9.4v9.3v0h9.4v9.3v0H83v9.3v0h9.4V476.1L92.4,476.1z"/>
	<path class="st1" d="M609.2,213.6v9.3v0.1h-9.4h-9.4H581h-9.4h-9.4h-9.4h-9.4H534h-9.4h-9.4h-9.4h-9.4h-9.4h-9.4h-9.4h-9.4h-9.4
		h-9.4h-9.4h-9.4h-9.4h-9.4h-9.4h-9.4h-9.4h-9.4h-9.4h-9.4h-9.4h-9.4h-9.4h-9.4h-9.4h-9.4h-9.4h-9.4h-9.4h-9.4h-9.4h-9.4h-9.4h-9.4
		h-9.4h-9.4h-9.4H177h-9.4h-9.4h-9.4h-9.4H130h-9.4h-9.4h-9.4h-9.4H83h-9.4h-9.4h-9.4h-9.4H36v-0.1v-9.3h9.4h9.4h9.4h9.4H83h9.4h9.4
		h9.4h9.4h9.4h9.4h9.4h9.4h9.4h9.4h9.4h9.4h9.4h9.4h9.4h9.4h9.4h9.4h9.4h9.4h9.4h9.4h9.4h9.4h9.4h9.4h9.4h9.4h9.4h9.4h9.4h9.4h9.4
		h9.4h9.4h9.4h9.4h9.4h9.4h9.4h9.4h9.4h9.4h9.4h9.4h9.4h9.4h9.4h9.4h9.4h9.4h9.4h9.4h9.4h9.4H609.2z M590.4,391.8H581h-9.4h-9.4
		h-9.4h-9.4H534h-9.4h-9.4h-9.4h-9.4h-9.4h-9.4h-9.4h-9.4h-9.4h-9.4h-9.4h-9.4h-9.4h-9.4h-9.4h-9.4h-9.4h-9.4h-9.4h-9.4h-9.4h-9.4
		h-9.4h-9.4h-9.4h-9.4h-9.4h-9.4h-9.4h-9.4h-9.4h-9.4h-9.4h-9.4h-9.4h-9.4h-9.4H177h-9.4h-9.4h-9.4h-9.4H130h-9.4h-9.4h-9.4h-9.4H83
		h-9.4h-9.4h-9.4h-9.4H36v9.3v0h9.4h9.4h9.4h9.4H83h9.4h9.4h9.4h9.4h9.4h9.4h9.4h9.4h9.4h9.4h9.4h9.4h9.4h9.4h9.4h9.4h9.4h9.4h9.4
		h9.4h9.4h9.4h9.4h9.4h9.4h9.4h9.4h9.4h9.4h9.4h9.4h9.4h9.4h9.4h9.4h9.4h9.4h9.4h9.4h9.4h9.4h9.4h9.4h9.4h9.4h9.4h9.4h9.4h9.4h9.4
		h9.4h9.4h9.4h9.4h9.4h9.4v0v-9.3h-9.4H590.4z M599.8,307.4h9.4v9.3v0.1v9.3v0.1v9.3v0.1v9.3v0.1v9.3v0.1v9.3v0h-9.4v0v-9.3h-9.4
		v-0.1v-9.3H581v-0.1v-9.3h-9.4v-0.1v-9.3h-9.4v-0.1v-9.3h-9.4h-9.4v9.3v0.1h9.4v9.3v0.1h9.4v9.3v0.1h9.4v9.3v0.1h9.4v9.3v0h9.4v9.3
		v0h9.4h9.4v9.3v0h-9.4h-9.4H581h-9.4h-9.4h-9.4h-9.4H534h-9.4h-9.4h-9.4h-9.4h-9.4h-9.4h-9.4h-9.4h-9.4h-9.4h-9.4h-9.4h-9.4h-9.4
		h-9.4h-9.4h-9.4h-9.4h-9.4h-9.4h-9.4h-9.4h-9.4h-9.4h-9.4h-9.4h-9.4h-9.4h-9.4h-9.4h-9.4h-9.4h-9.4h-9.4h-9.4h-9.4h-9.4H177h-9.4
		h-9.4h-9.4h-9.4H130h-9.4h-9.4h-9.4h-9.4H83h-9.4h-9.4h-9.4h-9.4H36v0V373v0v-9.3v0v-9.3v-0.1v-9.3v-0.1v-9.3v-0.1v-9.3h9.4v9.3
		v0.1h9.4v9.3v0.1h9.4v9.3v0.1h9.4v9.3v0H83v9.3v0h9.4h9.4v0v-9.3h-9.4v0v-9.3H83v-0.1v-9.3h-9.4v-0.1v-9.3h-9.4v-0.1v-9.3h-9.4
		v-0.1v-9.3h-9.4H36v-0.1v-9.3h9.4h9.4h9.4h9.4H83h9.4h9.4h9.4h9.4h9.4h9.4h9.4h9.4h9.4h9.4h9.4h9.4h9.4h9.4h9.4h9.4h9.4h9.4h9.4
		h9.4h9.4h9.4h9.4h9.4h9.4h9.4h9.4h9.4h9.4h9.4h9.4h9.4h9.4h9.4h9.4h9.4h9.4h9.4h9.4h9.4h9.4h9.4h9.4h9.4h9.4h9.4h9.4h9.4h9.4h9.4
		h9.4h9.4h9.4h9.4H599.8z M139.4,373h9.4h9.4v0v-9.3h-9.4v0v-9.3h-9.4v-0.1v-9.3H130v-0.1v-9.3h-9.4v-0.1v-9.3h-9.4v-0.1v-9.3h-9.4
		h-9.4v9.3v0.1h9.4v9.3v0.1h9.4v9.3v0.1h9.4v9.3v0.1h9.4v9.3v0h9.4V373L139.4,373z M195.8,373h9.4h9.4v0v-9.3h-9.4v0v-9.3h-9.4v-0.1
		v-9.3h-9.4v-0.1v-9.3H177v-0.1v-9.3h-9.4v-0.1v-9.3h-9.4h-9.4v9.3v0.1h9.4v9.3v0.1h9.4v9.3v0.1h9.4v9.3v0.1h9.4v9.3v0h9.4V373
		L195.8,373z M252.1,373h9.4h9.4v0v-9.3h-9.4v0v-9.3h-9.4v-0.1v-9.3h-9.4v-0.1v-9.3h-9.4v-0.1v-9.3h-9.4v-0.1v-9.3h-9.4h-9.4v9.3
		v0.1h9.4v9.3v0.1h9.4v9.3v0.1h9.4v9.3v0.1h9.4v9.3v0h9.4V373L252.1,373z M308.5,373h9.4h9.4v0v-9.3h-9.4v0v-9.3h-9.4v-0.1v-9.3
		h-9.4v-0.1v-9.3h-9.4v-0.1v-9.3h-9.4v-0.1v-9.3h-9.4h-9.4v9.3v0.1h9.4v9.3v0.1h9.4v9.3v0.1h9.4v9.3v0.1h9.4v9.3v0h9.4V373
		L308.5,373z M364.9,373h9.4h9.4v0v-9.3h-9.4v0v-9.3h-9.4v-0.1v-9.3h-9.4v-0.1v-9.3h-9.4v-0.1v-9.3h-9.4v-0.1v-9.3h-9.4h-9.4v9.3
		v0.1h9.4v9.3v0.1h9.4v9.3v0.1h9.4v9.3v0.1h9.4v9.3v0h9.4V373L364.9,373z M421.3,373h9.4h9.4v0v-9.3h-9.4v0v-9.3h-9.4v-0.1v-9.3
		h-9.4v-0.1v-9.3h-9.4v-0.1v-9.3h-9.4v-0.1v-9.3h-9.4h-9.4v9.3v0.1h9.4v9.3v0.1h9.4v9.3v0.1h9.4v9.3v0.1h9.4v9.3v0h9.4V373
		L421.3,373z M477.7,373h9.4h9.4v0v-9.3h-9.4v0v-9.3h-9.4v-0.1v-9.3h-9.4v-0.1v-9.3h-9.4v-0.1v-9.3h-9.4v-0.1v-9.3h-9.4h-9.4v9.3
		v0.1h9.4v9.3v0.1h9.4v9.3v0.1h9.4v9.3v0.1h9.4v9.3v0h9.4V373L477.7,373z M534,373h9.4h9.4v0v-9.3h-9.4v0v-9.3H534v-0.1v-9.3h-9.4
		v-0.1v-9.3h-9.4v-0.1v-9.3h-9.4v-0.1v-9.3h-9.4h-9.4v9.3v0.1h9.4v9.3v0.1h9.4v9.3v0.1h9.4v9.3v0.1h9.4v9.3v0h9.4V373L534,373z"/>
	<path d="M609.2,204.2v9.3v0.1h-9.4h-9.4H581h-9.4h-9.4h-9.4h-9.4H534h-9.4h-9.4h-9.4h-9.4h-9.4h-9.4h-9.4h-9.4h-9.4h-9.4h-9.4h-9.4
		h-9.4h-9.4h-9.4h-9.4h-9.4h-9.4h-9.4h-9.4h-9.4h-9.4h-9.4h-9.4h-9.4h-9.4h-9.4h-9.4h-9.4h-9.4h-9.4h-9.4h-9.4h-9.4h-9.4h-9.4h-9.4
		H177h-9.4h-9.4h-9.4h-9.4H130h-9.4h-9.4h-9.4h-9.4H83h-9.4h-9.4h-9.4h-9.4H36v-0.1v-9.3h9.4h9.4h9.4h9.4H83h9.4h9.4h9.4h9.4h9.4
		h9.4h9.4h9.4h9.4h9.4h9.4h9.4h9.4h9.4h9.4h9.4h9.4h9.4h9.4h9.4h9.4h9.4h9.4h9.4h9.4h9.4h9.4h9.4h9.4h9.4h9.4h9.4h9.4h9.4h9.4h9.4
		h9.4h9.4h9.4h9.4h9.4h9.4h9.4h9.4h9.4h9.4h9.4h9.4h9.4h9.4h9.4h9.4h9.4h9.4h9.4H609.2z M590.4,504.2H581h-9.4h-9.4h-9.4h-9.4H534
		h-9.4h-9.4h-9.4h-9.4h-9.4h-9.4h-9.4h-9.4h-9.4h-9.4h-9.4h-9.4h-9.4h-9.4h-9.4h-9.4h-9.4h-9.4h-9.4h-9.4h-9.4h-9.4h-9.4h-9.4h-9.4
		h-9.4h-9.4h-9.4h-9.4h-9.4h-9.4h-9.4h-9.4h-9.4h-9.4h-9.4h-9.4H177h-9.4h-9.4h-9.4h-9.4H130h-9.4h-9.4h-9.4h-9.4H83h-9.4h-9.4h-9.4
		h-9.4H36v9.4v0h9.4h9.4h9.4h9.4H83h9.4h9.4h9.4h9.4h9.4h9.4h9.4h9.4h9.4h9.4h9.4h9.4h9.4h9.4h9.4h9.4h9.4h9.4h9.4h9.4h9.4h9.4h9.4
		h9.4h9.4h9.4h9.4h9.4h9.4h9.4h9.4h9.4h9.4h9.4h9.4h9.4h9.4h9.4h9.4h9.4h9.4h9.4h9.4h9.4h9.4h9.4h9.4h9.4h9.4h9.4h9.4h9.4h9.4h9.4
		h9.4h9.4v0v-9.4h-9.4H590.4z M599.8,419.9h9.4v9.3v0v9.3v0v9.3v0v9.3v0v9.3v0v9.4v0h-9.4v0v-9.4h-9.4v0v-9.3H581v0V448h-9.4v0v-9.3
		h-9.4v0v-9.3h-9.4h-9.4v9.3v0h9.4v9.3v0h9.4v9.3v0h9.4v9.3v0h9.4v9.4v0h9.4v9.4v0h9.4h9.4v9.4v0h-9.4h-9.4H581h-9.4h-9.4h-9.4h-9.4
		H534h-9.4h-9.4h-9.4h-9.4h-9.4h-9.4h-9.4h-9.4h-9.4h-9.4h-9.4h-9.4h-9.4h-9.4h-9.4h-9.4h-9.4h-9.4h-9.4h-9.4h-9.4h-9.4h-9.4h-9.4
		h-9.4h-9.4h-9.4h-9.4h-9.4h-9.4h-9.4h-9.4h-9.4h-9.4h-9.4h-9.4h-9.4H177h-9.4h-9.4h-9.4h-9.4H130h-9.4h-9.4h-9.4h-9.4H83h-9.4h-9.4
		h-9.4h-9.4H36v0v-9.4v0v-9.4v0v-9.4v0v-9.3v0V448v0v-9.3h9.4v9.3v0h9.4v9.3v0h9.4v9.3v0h9.4v9.4v0H83v9.4v0h9.4h9.4v0v-9.4h-9.4v0
		v-9.4H83v0v-9.3h-9.4v0V448h-9.4v0v-9.3h-9.4v0v-9.3h-9.4H36v0v-9.3h9.4h9.4h9.4h9.4H83h9.4h9.4h9.4h9.4h9.4h9.4h9.4h9.4h9.4h9.4
		h9.4h9.4h9.4h9.4h9.4h9.4h9.4h9.4h9.4h9.4h9.4h9.4h9.4h9.4h9.4h9.4h9.4h9.4h9.4h9.4h9.4h9.4h9.4h9.4h9.4h9.4h9.4h9.4h9.4h9.4h9.4
		h9.4h9.4h9.4h9.4h9.4h9.4h9.4h9.4h9.4h9.4h9.4h9.4h9.4H599.8z M139.4,485.5h9.4h9.4v0v-9.4h-9.4v0v-9.4h-9.4v0v-9.3H130v0V448h-9.4
		v0v-9.3h-9.4v0v-9.3h-9.4h-9.4v9.3v0h9.4v9.3v0h9.4v9.3v0h9.4v9.3v0h9.4v9.4v0h9.4V485.5L139.4,485.5z M195.8,485.5h9.4h9.4v0v-9.4
		h-9.4v0v-9.4h-9.4v0v-9.3h-9.4v0V448H177v0v-9.3h-9.4v0v-9.3h-9.4h-9.4v9.3v0h9.4v9.3v0h9.4v9.3v0h9.4v9.3v0h9.4v9.4v0h9.4V485.5
		L195.8,485.5z M252.1,485.5h9.4h9.4v0v-9.4h-9.4v0v-9.4h-9.4v0v-9.3h-9.4v0V448h-9.4v0v-9.3h-9.4v0v-9.3h-9.4h-9.4v9.3v0h9.4v9.3v0
		h9.4v9.3v0h9.4v9.3v0h9.4v9.4v0h9.4V485.5L252.1,485.5z M308.5,485.5h9.4h9.4v0v-9.4h-9.4v0v-9.4h-9.4v0v-9.3h-9.4v0V448h-9.4v0
		v-9.3h-9.4v0v-9.3h-9.4h-9.4v9.3v0h9.4v9.3v0h9.4v9.3v0h9.4v9.3v0h9.4v9.4v0h9.4V485.5L308.5,485.5z M364.9,485.5h9.4h9.4v0v-9.4
		h-9.4v0v-9.4h-9.4v0v-9.3h-9.4v0V448h-9.4v0v-9.3h-9.4v0v-9.3h-9.4h-9.4v9.3v0h9.4v9.3v0h9.4v9.3v0h9.4v9.3v0h9.4v9.4v0h9.4V485.5
		L364.9,485.5z M421.3,485.5h9.4h9.4v0v-9.4h-9.4v0v-9.4h-9.4v0v-9.3h-9.4v0V448h-9.4v0v-9.3h-9.4v0v-9.3h-9.4h-9.4v9.3v0h9.4v9.3v0
		h9.4v9.3v0h9.4v9.3v0h9.4v9.4v0h9.4V485.5L421.3,485.5z M477.7,485.5h9.4h9.4v0v-9.4h-9.4v0v-9.4h-9.4v0v-9.3h-9.4v0V448h-9.4v0
		v-9.3h-9.4v0v-9.3h-9.4h-9.4v9.3v0h9.4v9.3v0h9.4v9.3v0h9.4v9.3v0h9.4v9.4v0h9.4V485.5L477.7,485.5z M534,485.5h9.4h9.4v0v-9.4
		h-9.4v0v-9.4H534v0v-9.3h-9.4v0V448h-9.4v0v-9.3h-9.4v0v-9.3h-9.4h-9.4v9.3v0h9.4v9.3v0h9.4v9.3v0h9.4v9.3v0h9.4v9.4v0h9.4V485.5
		L534,485.5z M590.4,401.1H581h-9.4h-9.4h-9.4h-9.4H534h-9.4h-9.4h-9.4h-9.4h-9.4h-9.4h-9.4h-9.4h-9.4h-9.4h-9.4h-9.4h-9.4h-9.4
		h-9.4h-9.4h-9.4h-9.4h-9.4h-9.4h-9.4h-9.4h-9.4h-9.4h-9.4h-9.4h-9.4h-9.4h-9.4h-9.4h-9.4h-9.4h-9.4h-9.4h-9.4h-9.4h-9.4H177h-9.4
		h-9.4h-9.4h-9.4H130h-9.4h-9.4h-9.4h-9.4H83h-9.4h-9.4h-9.4h-9.4H36v9.3v0h9.4h9.4h9.4h9.4H83h9.4h9.4h9.4h9.4h9.4h9.4h9.4h9.4h9.4
		h9.4h9.4h9.4h9.4h9.4h9.4h9.4h9.4h9.4h9.4h9.4h9.4h9.4h9.4h9.4h9.4h9.4h9.4h9.4h9.4h9.4h9.4h9.4h9.4h9.4h9.4h9.4h9.4h9.4h9.4h9.4
		h9.4h9.4h9.4h9.4h9.4h9.4h9.4h9.4h9.4h9.4h9.4h9.4h9.4h9.4h9.4h9.4v0v-9.3h-9.4H590.4z M599.8,363.6v-9.3h-9.4v-0.1v-9.3H581v-0.1
		v-9.3h-9.4v-0.1v-9.3h-9.4v-0.1v-9.3h-9.4h-9.4v9.3v0.1h9.4v9.3v0.1h9.4v9.3v0.1h9.4v9.3v0.1h9.4v9.3v0h9.4v9.3v0h9.4h9.4v0v-9.3
		L599.8,363.6L599.8,363.6z M505.8,316.8h-9.4h-9.4v9.3v0.1h9.4v9.3v0.1h9.4v9.3v0.1h9.4v9.3v0.1h9.4v9.3v0h9.4v9.3v0h9.4h9.4v0
		v-9.3h-9.4v0v-9.3H534v-0.1v-9.3h-9.4v-0.1v-9.3h-9.4v-0.1v-9.3h-9.4v-0.1V316.8z M449.5,316.8h-9.4h-9.4v9.3v0.1h9.4v9.3v0.1h9.4
		v9.3v0.1h9.4v9.3v0.1h9.4v9.3v0h9.4v9.3v0h9.4h9.4v0v-9.3h-9.4v0v-9.3h-9.4v-0.1v-9.3h-9.4v-0.1v-9.3h-9.4v-0.1v-9.3h-9.4v-0.1
		V316.8z M393.1,316.8h-9.4h-9.4v9.3v0.1h9.4v9.3v0.1h9.4v9.3v0.1h9.4v9.3v0.1h9.4v9.3v0h9.4v9.3v0h9.4h9.4v0v-9.3h-9.4v0v-9.3h-9.4
		v-0.1v-9.3h-9.4v-0.1v-9.3h-9.4v-0.1v-9.3h-9.4v-0.1V316.8z M336.7,316.8h-9.4h-9.4v9.3v0.1h9.4v9.3v0.1h9.4v9.3v0.1h9.4v9.3v0.1
		h9.4v9.3v0h9.4v9.3v0h9.4h9.4v0v-9.3h-9.4v0v-9.3h-9.4v-0.1v-9.3h-9.4v-0.1v-9.3h-9.4v-0.1v-9.3h-9.4v-0.1V316.8z M280.3,316.8
		h-9.4h-9.4v9.3v0.1h9.4v9.3v0.1h9.4v9.3v0.1h9.4v9.3v0.1h9.4v9.3v0h9.4v9.3v0h9.4h9.4v0v-9.3h-9.4v0v-9.3h-9.4v-0.1v-9.3h-9.4v-0.1
		v-9.3h-9.4v-0.1v-9.3h-9.4v-0.1V316.8z M223.9,316.8h-9.4h-9.4v9.3v0.1h9.4v9.3v0.1h9.4v9.3v0.1h9.4v9.3v0.1h9.4v9.3v0h9.4v9.3v0
		h9.4h9.4v0v-9.3h-9.4v0v-9.3h-9.4v-0.1v-9.3h-9.4v-0.1v-9.3h-9.4v-0.1v-9.3h-9.4v-0.1V316.8z M167.6,316.8h-9.4h-9.4v9.3v0.1h9.4
		v9.3v0.1h9.4v9.3v0.1h9.4v9.3v0.1h9.4v9.3v0h9.4v9.3v0h9.4h9.4v0v-9.3h-9.4v0v-9.3h-9.4v-0.1v-9.3h-9.4v-0.1v-9.3H177v-0.1v-9.3
		h-9.4v-0.1V316.8z M111.2,316.8h-9.4h-9.4v9.3v0.1h9.4v9.3v0.1h9.4v9.3v0.1h9.4v9.3v0.1h9.4v9.3v0h9.4v9.3v0h9.4h9.4v0v-9.3h-9.4v0
		v-9.3h-9.4v-0.1v-9.3H130v-0.1v-9.3h-9.4v-0.1v-9.3h-9.4v-0.1V316.8z M45.4,335.4L45.4,335.4l9.4,0.1v9.3v0.1h9.4v9.3v0.1h9.4v9.3
		v0H83v9.3v0h9.4h9.4v0v-9.3h-9.4v0v-9.3H83v-0.1v-9.3h-9.4v-0.1v-9.3h-9.4v-0.1v-9.3h-9.4v-0.1v-9.3h-9.4H36v9.3v0.1h9.4V335.4z"/>
	<polygon class="st2" points="599.8,138.6 599.8,147.9 599.8,148 590.4,148 590.4,147.9 590.4,138.6 581,138.6 581,138.5 581,129.2 
		571.6,129.2 571.6,129.1 571.6,119.9 562.2,119.9 562.2,129.1 562.2,129.2 552.8,129.2 552.8,138.5 552.8,138.6 543.4,138.6 
		543.4,147.9 543.4,148 534,148 534,147.9 534,138.6 524.7,138.6 524.7,138.5 524.7,129.2 515.2,129.2 515.2,129.1 515.2,119.9 
		505.8,119.9 505.8,129.1 505.8,129.2 496.5,129.2 496.5,138.5 496.5,138.6 487.1,138.6 487.1,147.9 487.1,148 477.7,148 
		477.7,147.9 477.7,138.6 468.3,138.6 468.3,138.5 468.3,129.2 458.9,129.2 458.9,129.1 458.9,119.9 449.5,119.9 449.5,129.1 
		449.5,129.2 440.1,129.2 440.1,138.5 440.1,138.6 430.7,138.6 430.7,147.9 430.7,148 421.3,148 421.3,147.9 421.3,138.6 
		411.9,138.6 411.9,138.5 411.9,129.2 402.5,129.2 402.5,129.1 402.5,119.9 393.1,119.9 393.1,129.1 393.1,129.2 383.7,129.2 
		383.7,138.5 383.7,138.6 374.3,138.6 374.3,147.9 374.3,148 364.9,148 364.9,147.9 364.9,138.6 355.5,138.6 355.5,138.5 
		355.5,129.2 346.1,129.2 346.1,129.1 346.1,119.9 336.7,119.9 336.7,129.1 336.7,129.2 327.3,129.2 327.3,138.5 327.3,138.6 
		317.9,138.6 317.9,147.9 317.9,148 308.5,148 308.5,147.9 308.5,138.6 299.1,138.6 299.1,138.5 299.1,129.2 289.7,129.2 
		289.7,129.1 289.7,119.9 280.3,119.9 280.3,129.1 280.3,129.2 270.9,129.2 270.9,138.5 270.9,138.6 261.5,138.6 261.5,147.9 
		261.5,148 252.1,148 252.1,147.9 252.1,138.6 242.7,138.6 242.7,138.5 242.7,129.2 233.3,129.2 233.3,129.1 233.3,119.9 
		223.9,119.9 223.9,129.1 223.9,129.2 214.5,129.2 214.5,138.5 214.5,138.6 205.2,138.6 205.2,147.9 205.2,148 195.8,148 
		195.8,147.9 195.8,138.6 186.3,138.6 186.3,138.5 186.3,129.2 177,129.2 177,129.1 177,119.9 167.6,119.9 167.6,129.1 167.6,129.2 
		158.2,129.2 158.2,138.5 158.2,138.6 148.8,138.6 148.8,147.9 148.8,148 139.4,148 139.4,147.9 139.4,138.6 130,138.6 130,138.5 
		130,129.2 120.6,129.2 120.6,129.1 120.6,119.9 111.2,119.9 111.2,129.1 111.2,129.2 101.8,129.2 101.8,138.5 101.8,138.6 
		92.4,138.6 92.4,147.9 92.4,148 83,148 83,157.2 83,157.4 73.6,157.4 73.6,157.2 73.6,148 64.2,148 64.2,147.9 64.2,138.6 
		54.8,138.6 54.8,138.5 54.8,129.2 45.4,129.2 45.4,129.1 45.4,119.9 36,119.9 36,129.1 36,129.2 36,138.5 36,138.6 36,147.9 
		36,148 36,157.2 36,157.4 45.4,157.4 45.4,166.6 45.4,166.8 54.8,166.8 54.8,176 54.8,176.1 64.2,176.1 64.2,185.4 64.2,185.5 
		73.6,185.5 73.6,194.8 73.6,194.9 83,194.9 83,194.8 83,185.5 92.4,185.5 92.4,185.4 92.4,176.1 101.8,176.1 101.8,176 
		101.8,166.8 111.2,166.8 111.2,166.6 111.2,157.4 120.6,157.4 120.6,166.6 120.6,166.8 130,166.8 130,176 130,176.1 139.4,176.1 
		139.4,185.4 139.4,185.5 148.8,185.5 148.8,185.4 148.8,176.1 158.2,176.1 158.2,176 158.2,166.8 167.6,166.8 167.6,166.6 
		167.6,157.4 177,157.4 177,166.6 177,166.8 186.3,166.8 186.3,176 186.3,176.1 195.8,176.1 195.8,185.4 195.8,185.5 205.2,185.5 
		205.2,185.4 205.2,176.1 214.5,176.1 214.5,176 214.5,166.8 223.9,166.8 223.9,166.6 223.9,157.4 233.3,157.4 233.3,166.6 
		233.3,166.8 242.7,166.8 242.7,176 242.7,176.1 252.1,176.1 252.1,185.4 252.1,185.5 261.5,185.5 261.5,185.4 261.5,176.1 
		270.9,176.1 270.9,176 270.9,166.8 280.3,166.8 280.3,166.6 280.3,157.4 289.7,157.4 289.7,166.6 289.7,166.8 299.1,166.8 
		299.1,176 299.1,176.1 308.5,176.1 308.5,185.4 308.5,185.5 317.9,185.5 317.9,185.4 317.9,176.1 327.3,176.1 327.3,176 
		327.3,166.8 336.7,166.8 336.7,166.6 336.7,157.4 346.1,157.4 346.1,166.6 346.1,166.8 355.5,166.8 355.5,176 355.5,176.1 
		364.9,176.1 364.9,185.4 364.9,185.5 374.3,185.5 374.3,185.4 374.3,176.1 383.7,176.1 383.7,176 383.7,166.8 393.1,166.8 
		393.1,166.6 393.1,157.4 402.5,157.4 402.5,166.6 402.5,166.8 411.9,166.8 411.9,176 411.9,176.1 421.3,176.1 421.3,185.4 
		421.3,185.5 430.7,185.5 430.7,185.4 430.7,176.1 440.1,176.1 440.1,176 440.1,166.8 449.5,166.8 449.5,166.6 449.5,157.4 
		458.9,157.4 458.9,166.6 458.9,166.8 468.3,166.8 468.3,176 468.3,176.1 477.7,176.1 477.7,185.4 477.7,185.5 487.1,185.5 
		487.1,185.4 487.1,176.1 496.5,176.1 496.5,176 496.5,166.8 505.8,166.8 505.8,166.6 505.8,157.4 515.2,157.4 515.2,166.6 
		515.2,166.8 524.7,166.8 524.7,176 524.7,176.1 534,176.1 534,185.4 534,185.5 543.4,185.5 543.4,185.4 543.4,176.1 552.8,176.1 
		552.8,176 552.8,166.8 562.2,166.8 562.2,166.6 562.2,157.4 571.6,157.4 571.6,166.6 571.6,166.8 581,166.8 581,176 581,176.1 
		590.4,176.1 590.4,185.4 590.4,185.5 599.8,185.5 599.8,185.4 599.8,176.1 609.2,176.1 609.2,176 609.2,166.8 609.2,166.6 
		609.2,157.4 609.2,157.2 609.2,148 609.2,147.9 609.2,138.6 	"/>
	<path class="st3" d="M609.2,54.1v9.4v9.4h-9.4h-9.4v-9.4h9.4v-9.4H609.2z M599.8,269.8v-9.3h-9.4v-0.1v-9.3H581v9.3v0.1h-9.4v9.3
		v0.1h-9.4v9.3v0.1h-9.4v9.3v0.1h9.4h9.4h9.4h9.4h9.4h9.4v-0.1v-9.3v-0.1v-9.3L599.8,269.8L599.8,269.8z M590.4,223H581h-9.4h-9.4
		h-9.4h-9.4H534h-9.4h-9.4h-9.4h-9.4h-9.4h-9.4h-9.4h-9.4h-9.4h-9.4h-9.4h-9.4h-9.4h-9.4h-9.4h-9.4h-9.4h-9.4h-9.4h-9.4h-9.4h-9.4
		h-9.4h-9.4h-9.4h-9.4h-9.4h-9.4h-9.4h-9.4h-9.4h-9.4h-9.4h-9.4h-9.4h-9.4h-9.4H177h-9.4h-9.4h-9.4h-9.4H130h-9.4h-9.4h-9.4h-9.4H83
		h-9.4h-9.4h-9.4h-9.4H36v9.3v0.1h9.4h9.4h9.4h9.4H83h9.4h9.4h9.4h9.4h9.4h9.4h9.4h9.4h9.4h9.4h9.4h9.4h9.4h9.4h9.4h9.4h9.4h9.4h9.4
		h9.4h9.4h9.4h9.4h9.4h9.4h9.4h9.4h9.4h9.4h9.4h9.4h9.4h9.4h9.4h9.4h9.4h9.4h9.4h9.4h9.4h9.4h9.4h9.4h9.4h9.4h9.4h9.4h9.4h9.4h9.4
		h9.4h9.4h9.4h9.4h9.4h9.4v-0.1V223h-9.4H590.4z M590.4,82.4v9.2v0.2h9.4v9.2v0.1h9.4V101v-9.2v-0.2v-9.2h-9.4H590.4z M562.2,72.8
		h9.4v-9.4h-9.4v-9.4h-9.4v-9.4h-9.4v9.4v9.4v9.4h9.4H562.2z M543.4,91.8v9.2v0.1v9.2v0.1h9.4v-0.1v-9.2h9.4V101v-9.2h9.4v-0.2v-9.2
		h-9.4h-9.4h-9.4v9.2V91.8z M543.4,82.2V73H534v9.2v0.2h9.4V82.2z M524.7,279.2v-9.3h-9.4v-0.1v-9.3h-9.4v-0.1v-9.3h-9.4v9.3v0.1
		h-9.4v9.3v0.1h-9.4v9.3v0.1h-9.4v9.3v0.1h9.4h9.4h9.4h9.4h9.4h9.4h9.4v-0.1v-9.3L524.7,279.2L524.7,279.2z M515.2,101v0.1h9.4v9.2
		v0.1h9.4v-0.1v-9.2V101v-9.2v-0.2v-9.2h-9.4h-9.4h-9.4v9.2v0.2h9.4V101z M524.7,72.8h9.4v-9.4v-9.4v-9.4h-9.4v9.4h-9.4v9.4h-9.4
		v9.4h9.4H524.7z M477.7,72.8h9.4v-9.4h-9.4v-9.4h-9.4v-9.4h-9.4v9.4v9.4v9.4h9.4H477.7z M458.9,91.8v9.2v0.1v9.2v0.1h9.4v-0.1v-9.2
		h9.4V101v-9.2h9.4v-0.2v-9.2h-9.4h-9.4h-9.4v9.2V91.8z M458.9,82.2V73h-9.4v9.2v0.2h9.4V82.2z M440.1,279.2v-9.3h-9.4v-0.1v-9.3
		h-9.4v-0.1v-9.3h-9.4v9.3v0.1h-9.4v9.3v0.1h-9.4v9.3v0.1h-9.4v9.3v0.1h9.4h9.4h9.4h9.4h9.4h9.4h9.4v-0.1v-9.3L440.1,279.2
		L440.1,279.2z M430.7,101v0.1h9.4v9.2v0.1h9.4v-0.1v-9.2V101v-9.2v-0.2v-9.2h-9.4h-9.4h-9.4v9.2v0.2h9.4V101z M440.1,72.8h9.4v-9.4
		v-9.4v-9.4h-9.4v9.4h-9.4v9.4h-9.4v9.4h9.4H440.1z M393.1,72.8h9.4v-9.4h-9.4v-9.4h-9.4v-9.4h-9.4v9.4v9.4v9.4h9.4H393.1z
		 M374.3,91.8v9.2v0.1v9.2v0.1h9.4v-0.1v-9.2h9.4V101v-9.2h9.4v-0.2v-9.2h-9.4h-9.4h-9.4v9.2V91.8z M374.3,82.2V73h-9.4v9.2v0.2h9.4
		V82.2z M355.5,279.2v-9.3h-9.4v-0.1v-9.3h-9.4v-0.1v-9.3h-9.4v9.3v0.1h-9.4v9.3v0.1h-9.4v9.3v0.1h-9.4v9.3v0.1h9.4h9.4h9.4h9.4h9.4
		h9.4h9.4v-0.1v-9.3L355.5,279.2L355.5,279.2z M346.1,101v0.1h9.4v9.2v0.1h9.4v-0.1v-9.2V101v-9.2v-0.2v-9.2h-9.4h-9.4h-9.4v9.2v0.2
		h9.4V101z M355.5,72.8h9.4v-9.4v-9.4v-9.4h-9.4v9.4h-9.4v9.4h-9.4v9.4h9.4H355.5z M308.5,72.8h9.4v-9.4h-9.4v-9.4h-9.4v-9.4h-9.4
		v9.4v9.4v9.4h9.4H308.5z M289.7,91.8v9.2v0.1v9.2v0.1h9.4v-0.1v-9.2h9.4V101v-9.2h9.4v-0.2v-9.2h-9.4h-9.4h-9.4v9.2V91.8z
		 M289.7,82.2V73h-9.4v9.2v0.2h9.4V82.2z M270.9,279.2v-9.3h-9.4v-0.1v-9.3h-9.4v-0.1v-9.3h-9.4v9.3v0.1h-9.4v9.3v0.1h-9.4v9.3v0.1
		h-9.4v9.3v0.1h9.4h9.4h9.4h9.4h9.4h9.4h9.4v-0.1v-9.3L270.9,279.2L270.9,279.2z M261.5,101v0.1h9.4v9.2v0.1h9.4v-0.1v-9.2V101v-9.2
		v-0.2v-9.2h-9.4h-9.4h-9.4v9.2v0.2h9.4V101z M270.9,72.8h9.4v-9.4v-9.4v-9.4h-9.4v9.4h-9.4v9.4h-9.4v9.4h9.4H270.9z M223.9,72.8
		h9.4v-9.4h-9.4v-9.4h-9.4v-9.4h-9.4v9.4v9.4v9.4h9.4H223.9z M205.2,91.8v9.2v0.1v9.2v0.1h9.4v-0.1v-9.2h9.4V101v-9.2h9.4v-0.2v-9.2
		h-9.4h-9.4h-9.4v9.2V91.8z M205.2,82.2V73h-9.4v9.2v0.2h9.4V82.2z M186.3,279.2v-9.3H177v-0.1v-9.3h-9.4v-0.1v-9.3h-9.4v9.3v0.1
		h-9.4v9.3v0.1h-9.4v9.3v0.1H130v9.3v0.1h9.4h9.4h9.4h9.4h9.4h9.4h9.4v-0.1v-9.3L186.3,279.2L186.3,279.2z M177,101v0.1h9.4v9.2v0.1
		h9.4v-0.1v-9.2V101v-9.2v-0.2v-9.2h-9.4H177h-9.4v9.2v0.2h9.4V101z M186.3,72.8h9.4v-9.4v-9.4v-9.4h-9.4v9.4H177v9.4h-9.4v9.4h9.4
		H186.3z M120.6,91.8v9.2v0.1v9.2v0.1h9.4v-0.1v-9.2h9.4V101v-9.2h9.4v-0.2v-9.2h-9.4H130h-9.4v9.2V91.8z M120.6,82.2V73h-9.4v9.2
		v0.2h9.4V82.2z M101.8,279.2v-9.3h-9.4v-0.1v-9.3H83v-0.1v-9.3h-9.4v9.3v0.1h-9.4v9.3v0.1h-9.4v9.3v0.1h-9.4v9.3v0.1h9.4h9.4h9.4
		H83h9.4h9.4h9.4v-0.1v-9.3L101.8,279.2L101.8,279.2z M92.4,101v0.1h9.4v9.2v0.1h9.4v-0.1v-9.2V101v-9.2v-0.2v-9.2h-9.4h-9.4H83v9.2
		v0.2h9.4V101z M101.8,72.8h9.4v-9.4v-9.4v-9.4h-9.4v9.4h-9.4v9.4H83v9.4h9.4H101.8z M54.8,72.8h9.4v-9.4h-9.4v-9.4h-9.4v-9.4H36
		v9.4v9.4v9.4h9.4H54.8z M45.4,110.4v-9.2h9.4V101v-9.2h9.4v-0.2v-9.2h-9.4h-9.4H36v9.2v0.2v9.2v0.1v9.2v0.1h9.4V110.4z M186.3,44.7
		v9.4H177v9.4h-9.4V73h18.8h9.4v-9.5V44.7H186.3z"/>
	<path class="st4" d="M599.8,176.1h9.4v9.2v0.1v9.3v0.1v9.3v0.1h-9.4h-9.4H581h-9.4h-9.4h-9.4h-9.4H534h-9.4h-9.4h-9.4h-9.4h-9.4
		h-9.4h-9.4h-9.4h-9.4h-9.4h-9.4h-9.4h-9.4h-9.4h-9.4h-9.4h-9.4h-9.4h-9.4h-9.4h-9.4h-9.4h-9.4h-9.4h-9.4h-9.4h-9.4h-9.4h-9.4h-9.4
		h-9.4h-9.4h-9.4h-9.4h-9.4h-9.4h-9.4H177h-9.4h-9.4h-9.4h-9.4H130h-9.4h-9.4h-9.4h-9.4H83h-9.4h-9.4h-9.4h-9.4H36v-0.1v-9.3v-0.1
		v-9.3v-0.1v-9.2V176v-9.3v-0.1v-9.2h9.4v9.2v0.1h9.4v9.3v0.1h9.4v9.2v0.1h9.4v9.3v0.1H83v-0.1v-9.3h9.4v-0.1v-9.2h9.4V176v-9.3h9.4
		v-0.1v-9.2h9.4v9.2v0.1h9.4v9.3v0.1h9.4v9.2v0.1h9.4v-0.1v-9.2h9.4V176v-9.3h9.4v-0.1v-9.2h9.4v9.2v0.1h9.4v9.3v0.1h9.4v9.2v0.1
		h9.4v-0.1v-9.2h9.4V176v-9.3h9.4v-0.1v-9.2h9.4v9.2v0.1h9.4v9.3v0.1h9.4v9.2v0.1h9.4v-0.1v-9.2h9.4V176v-9.3h9.4v-0.1v-9.2h9.4v9.2
		v0.1h9.4v9.3v0.1h9.4v9.2v0.1h9.4v-0.1v-9.2h9.4V176v-9.3h9.4v-0.1v-9.2h9.4v9.2v0.1h9.4v9.3v0.1h9.4v9.2v0.1h9.4v-0.1v-9.2h9.4
		V176v-9.3h9.4v-0.1v-9.2h9.4v9.2v0.1h9.4v9.3v0.1h9.4v9.2v0.1h9.4v-0.1v-9.2h9.4V176v-9.3h9.4v-0.1v-9.2h9.4v9.2v0.1h9.4v9.3v0.1
		h9.4v9.2v0.1h9.4v-0.1v-9.2h9.4V176v-9.3h9.4v-0.1v-9.2h9.4v9.2v0.1h9.4v9.3v0.1h9.4v9.2v0.1h9.4v-0.1v-9.2h9.4V176v-9.3h9.4v-0.1
		v-9.2h9.4v9.2v0.1h9.4v9.3v0.1h9.4v9.2v0.1h9.4v-0.1V176.1z M599.8,35.3h-9.4H581h-9.4h-9.4h-9.4h-9.4H534h-9.4h-9.4h-9.4h-9.4
		h-9.4h-9.4h-9.4h-9.4h-9.4h-9.4h-9.4h-9.4h-9.4h-9.4h-9.4h-9.4h-9.4h-9.4h-9.4h-9.4h-9.4h-9.4h-9.4h-9.4h-9.4h-9.4h-9.4h-9.4h-9.4
		h-9.4h-9.4h-9.4h-9.4h-9.4h-9.4h-9.4h-9.4H177h-9.4h-9.4h-9.4h-9.4H130h-9.4h-9.4h-9.4h-9.4H83h-9.4h-9.4h-9.4h-9.4H36v9.4h9.4v9.4
		h9.4v9.4h9.4v9.4h9.4H83v-9.4h9.4v-9.4h9.4v-9.4h9.4v9.4v9.4v9.4h9.4v-9.4v-9.4v-9.4h9.4v9.4h9.4v9.4h9.4v9.4h9.4h9.4v-9.4h9.4
		v-9.4h9.4v-9.4h9.4v9.4v9.4v9.4h9.4v-9.4v-9.4v-9.4h9.4v9.4h9.4v9.4h9.4v9.4h9.4h9.4v-9.4h9.4v-9.4h9.4v-9.4h9.4v9.4v9.4v9.4h9.4
		v-9.4v-9.4v-9.4h9.4v9.4h9.4v9.4h9.4v9.4h9.4h9.4v-9.4h9.4v-9.4h9.4v-9.4h9.4v9.4v9.4v9.4h9.4v-9.4v-9.4v-9.4h9.4v9.4h9.4v9.4h9.4
		v9.4h9.4h9.4v-9.4h9.4v-9.4h9.4v-9.4h9.4v9.4v9.4v9.4h9.4v-9.4v-9.4v-9.4h9.4v9.4h9.4v9.4h9.4v9.4h9.4h9.4v-9.4h9.4v-9.4h9.4v-9.4
		h9.4v9.4v9.4v9.4h9.4v-9.4v-9.4v-9.4h9.4v9.4h9.4v9.4h9.4v9.4h9.4h9.4v-9.4h9.4v-9.4h9.4v-9.4v-9.4H599.8z M590.4,513.6H581h-9.4
		h-9.4h-9.4h-9.4H534h-9.4h-9.4h-9.4h-9.4h-9.4h-9.4h-9.4h-9.4h-9.4h-9.4h-9.4h-9.4h-9.4h-9.4h-9.4h-9.4h-9.4h-9.4h-9.4h-9.4h-9.4
		h-9.4h-9.4h-9.4h-9.4h-9.4h-9.4h-9.4h-9.4h-9.4h-9.4h-9.4h-9.4h-9.4h-9.4h-9.4h-9.4H177h-9.4h-9.4h-9.4h-9.4H130h-9.4h-9.4h-9.4
		h-9.4H83h-9.4h-9.4h-9.4h-9.4H36v9.4h9.4h9.4h9.4h9.4H83h9.4h9.4h9.4h9.4h9.4h9.4h9.4h9.4h9.4h9.4h9.4h9.4h9.4h9.4h9.4h9.4h9.4h9.4
		h9.4h9.4h9.4h9.4h9.4h9.4h9.4h9.4h9.4h9.4h9.4h9.4h9.4h9.4h9.4h9.4h9.4h9.4h9.4h9.4h9.4h9.4h9.4h9.4h9.4h9.4h9.4h9.4h9.4h9.4h9.4
		h9.4h9.4h9.4h9.4h9.4h9.4h9.4v-9.4h-9.4H590.4z M590.4,494.9H581h-9.4h-9.4h-9.4h-9.4H534h-9.4h-9.4h-9.4h-9.4h-9.4h-9.4h-9.4h-9.4
		h-9.4h-9.4h-9.4h-9.4h-9.4h-9.4h-9.4h-9.4h-9.4h-9.4h-9.4h-9.4h-9.4h-9.4h-9.4h-9.4h-9.4h-9.4h-9.4h-9.4h-9.4h-9.4h-9.4h-9.4h-9.4
		h-9.4h-9.4h-9.4h-9.4H177h-9.4h-9.4h-9.4h-9.4H130h-9.4h-9.4h-9.4h-9.4H83h-9.4h-9.4h-9.4h-9.4H36v9.4v0h9.4h9.4h9.4h9.4H83h9.4
		h9.4h9.4h9.4h9.4h9.4h9.4h9.4h9.4h9.4h9.4h9.4h9.4h9.4h9.4h9.4h9.4h9.4h9.4h9.4h9.4h9.4h9.4h9.4h9.4h9.4h9.4h9.4h9.4h9.4h9.4h9.4
		h9.4h9.4h9.4h9.4h9.4h9.4h9.4h9.4h9.4h9.4h9.4h9.4h9.4h9.4h9.4h9.4h9.4h9.4h9.4h9.4h9.4h9.4h9.4h9.4v0v-9.4h-9.4H590.4z
		 M590.4,410.5H581h-9.4h-9.4h-9.4h-9.4H534h-9.4h-9.4h-9.4h-9.4h-9.4h-9.4h-9.4h-9.4h-9.4h-9.4h-9.4h-9.4h-9.4h-9.4h-9.4h-9.4h-9.4
		h-9.4h-9.4h-9.4h-9.4h-9.4h-9.4h-9.4h-9.4h-9.4h-9.4h-9.4h-9.4h-9.4h-9.4h-9.4h-9.4h-9.4h-9.4h-9.4h-9.4H177h-9.4h-9.4h-9.4h-9.4
		H130h-9.4h-9.4h-9.4h-9.4H83h-9.4h-9.4h-9.4h-9.4H36v9.3v0h9.4h9.4h9.4h9.4H83h9.4h9.4h9.4h9.4h9.4h9.4h9.4h9.4h9.4h9.4h9.4h9.4
		h9.4h9.4h9.4h9.4h9.4h9.4h9.4h9.4h9.4h9.4h9.4h9.4h9.4h9.4h9.4h9.4h9.4h9.4h9.4h9.4h9.4h9.4h9.4h9.4h9.4h9.4h9.4h9.4h9.4h9.4h9.4
		h9.4h9.4h9.4h9.4h9.4h9.4h9.4h9.4h9.4h9.4h9.4h9.4h9.4v0v-9.3h-9.4H590.4z M590.4,382.4H581h-9.4h-9.4h-9.4h-9.4H534h-9.4h-9.4
		h-9.4h-9.4h-9.4h-9.4h-9.4h-9.4h-9.4h-9.4h-9.4h-9.4h-9.4h-9.4h-9.4h-9.4h-9.4h-9.4h-9.4h-9.4h-9.4h-9.4h-9.4h-9.4h-9.4h-9.4h-9.4
		h-9.4h-9.4h-9.4h-9.4h-9.4h-9.4h-9.4h-9.4h-9.4h-9.4H177h-9.4h-9.4h-9.4h-9.4H130h-9.4h-9.4h-9.4h-9.4H83h-9.4h-9.4h-9.4h-9.4H36
		v9.3v0h9.4h9.4h9.4h9.4H83h9.4h9.4h9.4h9.4h9.4h9.4h9.4h9.4h9.4h9.4h9.4h9.4h9.4h9.4h9.4h9.4h9.4h9.4h9.4h9.4h9.4h9.4h9.4h9.4h9.4
		h9.4h9.4h9.4h9.4h9.4h9.4h9.4h9.4h9.4h9.4h9.4h9.4h9.4h9.4h9.4h9.4h9.4h9.4h9.4h9.4h9.4h9.4h9.4h9.4h9.4h9.4h9.4h9.4h9.4h9.4h9.4v0
		v-9.3h-9.4H590.4z M590.4,232.4H581h-9.4h-9.4h-9.4h-9.4H534h-9.4h-9.4h-9.4h-9.4h-9.4h-9.4h-9.4h-9.4h-9.4h-9.4h-9.4h-9.4h-9.4
		h-9.4h-9.4h-9.4h-9.4h-9.4h-9.4h-9.4h-9.4h-9.4h-9.4h-9.4h-9.4h-9.4h-9.4h-9.4h-9.4h-9.4h-9.4h-9.4h-9.4h-9.4h-9.4h-9.4h-9.4H177
		h-9.4h-9.4h-9.4h-9.4H130h-9.4h-9.4h-9.4h-9.4H83h-9.4h-9.4h-9.4h-9.4H36v9.3v0.1h9.4h9.4h9.4h9.4H83h9.4h9.4h9.4h9.4h9.4h9.4h9.4
		h9.4h9.4h9.4h9.4h9.4h9.4h9.4h9.4h9.4h9.4h9.4h9.4h9.4h9.4h9.4h9.4h9.4h9.4h9.4h9.4h9.4h9.4h9.4h9.4h9.4h9.4h9.4h9.4h9.4h9.4h9.4
		h9.4h9.4h9.4h9.4h9.4h9.4h9.4h9.4h9.4h9.4h9.4h9.4h9.4h9.4h9.4h9.4h9.4h9.4v-0.1v-9.3h-9.4H590.4z M590.4,73H581h-9.4h-9.4h-9.4
		h-9.4v9.2v0.2h9.4h9.4h9.4v9.2v0.2h-9.4v9.2v0.1h-9.4v9.2v0.1h-9.4v-0.1v-9.2V101v-9.2v-0.2v-9.2H534v9.2v0.2v9.2v0.1v9.2v0.1h-9.4
		v-0.1v-9.2h-9.4V101v-9.2h-9.4v-0.2v-9.2h9.4h9.4h9.4v-0.2V73h-9.4h-9.4h-9.4h-9.4h-9.4h-9.4h-9.4h-9.4v9.2v0.2h9.4h9.4h9.4v9.2
		v0.2h-9.4v9.2v0.1h-9.4v9.2v0.1h-9.4v-0.1v-9.2V101v-9.2v-0.2v-9.2h-9.4v9.2v0.2v9.2v0.1v9.2v0.1h-9.4v-0.1v-9.2h-9.4V101v-9.2
		h-9.4v-0.2v-9.2h9.4h9.4h9.4v-0.2V73h-9.4h-9.4h-9.4h-9.4h-9.4h-9.4h-9.4h-9.4v9.2v0.2h9.4h9.4h9.4v9.2v0.2h-9.4v9.2v0.1h-9.4v9.2
		v0.1h-9.4v-0.1v-9.2V101v-9.2v-0.2v-9.2h-9.4v9.2v0.2v9.2v0.1v9.2v0.1h-9.4v-0.1v-9.2h-9.4V101v-9.2h-9.4v-0.2v-9.2h9.4h9.4h9.4
		v-0.2V73h-9.4h-9.4h-9.4h-9.4h-9.4h-9.4h-9.4h-9.4v9.2v0.2h9.4h9.4h9.4v9.2v0.2h-9.4v9.2v0.1h-9.4v9.2v0.1h-9.4v-0.1v-9.2V101v-9.2
		v-0.2v-9.2h-9.4v9.2v0.2v9.2v0.1v9.2v0.1h-9.4v-0.1v-9.2h-9.4V101v-9.2h-9.4v-0.2v-9.2h9.4h9.4h9.4v-0.2V73h-9.4h-9.4h-9.4h-9.4
		h-9.4h-9.4h-9.4h-9.4v9.2v0.2h9.4h9.4h9.4v9.2v0.2h-9.4v9.2v0.1h-9.4v9.2v0.1h-9.4v-0.1v-9.2V101v-9.2v-0.2v-9.2h-9.4v9.2v0.2v9.2
		v0.1v9.2v0.1h-9.4v-0.1v-9.2H177V101v-9.2h-9.4v-0.2v-9.2h9.4h9.4h9.4v-0.2V73h-9.4H177h-9.4h-9.4h-9.4h-9.4H130h-9.4v9.2v0.2h9.4
		h9.4h9.4v9.2v0.2h-9.4v9.2v0.1H130v9.2v0.1h-9.4v-0.1v-9.2V101v-9.2v-0.2v-9.2h-9.4v9.2v0.2v9.2v0.1v9.2v0.1h-9.4v-0.1v-9.2h-9.4
		V101v-9.2H83v-0.2v-9.2h9.4h9.4h9.4v-0.2V73h-9.4h-9.4H83h-9.4h-9.4h-9.4h-9.4H36v9.2v0.2h9.4h9.4h9.4v9.2v0.2h-9.4v9.2v0.1h-9.4
		v9.2v0.1H36v9.2v0.1h9.4v9.2v0.1h9.4v9.2v0.1h9.4v9.2v0.1h9.4v9.2v0.1H83v-0.1V148h9.4v-0.1v-9.2h9.4v-0.1v-9.2h9.4v-0.1v-9.2h9.4
		v9.2v0.1h9.4v9.2v0.1h9.4v9.2v0.1h9.4v-0.1v-9.2h9.4v-0.1v-9.2h9.4v-0.1v-9.2h9.4v9.2v0.1h9.4v9.2v0.1h9.4v9.2v0.1h9.4v-0.1v-9.2
		h9.4v-0.1v-9.2h9.4v-0.1v-9.2h9.4v9.2v0.1h9.4v9.2v0.1h9.4v9.2v0.1h9.4v-0.1v-9.2h9.4v-0.1v-9.2h9.4v-0.1v-9.2h9.4v9.2v0.1h9.4v9.2
		v0.1h9.4v9.2v0.1h9.4v-0.1v-9.2h9.4v-0.1v-9.2h9.4v-0.1v-9.2h9.4v9.2v0.1h9.4v9.2v0.1h9.4v9.2v0.1h9.4v-0.1v-9.2h9.4v-0.1v-9.2h9.4
		v-0.1v-9.2h9.4v9.2v0.1h9.4v9.2v0.1h9.4v9.2v0.1h9.4v-0.1v-9.2h9.4v-0.1v-9.2h9.4v-0.1v-9.2h9.4v9.2v0.1h9.4v9.2v0.1h9.4v9.2v0.1
		h9.4v-0.1v-9.2h9.4v-0.1v-9.2h9.4v-0.1v-9.2h9.4v9.2v0.1h9.4v9.2v0.1h9.4v9.2v0.1h9.4v-0.1v-9.2h9.4v-0.1v-9.2h9.4v-0.1v-9.2h9.4
		v9.2v0.1h9.4v9.2v0.1h9.4v9.2v0.1h9.4v-0.1v-9.2h9.4v-0.1v-9.2v-0.1v-9.2v-0.1v-9.2v-0.1v-9.2h-9.4V101v-9.2h-9.4v-0.2v-9.2h9.4
		h9.4v-0.2V73h-9.4H590.4z"/>
</g>
</svg>
