<svg width="159" height="125" viewBox="0 0 159 125" xmlns="http://www.w3.org/2000/svg"><g fill="#006FA2" fill-rule="evenodd"><path d="M4.716 0A4.715 4.715 0 0 0 0 4.716v115.185a4.715 4.715 0 0 0 4.716 4.716h148.619a4.716 4.716 0 0 0 4.716-4.716V4.716A4.716 4.716 0 0 0 153.335 0H4.716zm150.599 4.716v115.185c0 1.092-.888 1.98-1.98 1.98H4.716a1.982 1.982 0 0 1-1.98-1.98V4.716c0-1.092.888-1.98 1.98-1.98h148.619c1.092 0 1.98.888 1.98 1.98z"/><path d="M88.37 84.168c-1.496 1.294-4.247 1.95-8.177 1.95H68.86V72.523h11.279c4.01 0 6.796.625 8.279 1.858 1.425 1.184 2.117 2.72 2.117 4.693 0 2.169-.708 3.835-2.165 5.094zm1.796-11.891c-2.015-1.675-5.295-2.49-10.027-2.49H66.125v19.067h14.068c4.671 0 7.931-.857 9.966-2.617 2.064-1.783 3.111-4.194 3.111-7.163 0-2.798-1.044-5.084-3.104-6.797zm17.475-16.643c-1.809 2.078-4.535 3.758-8.103 4.992l-4.413 1.529 4.54 1.094c5.464 1.315 9.514 3.57 12.038 6.703 2.518 3.125 3.794 7.137 3.794 11.924 0 4.038-.914 7.59-2.716 10.562-6.387 10.525-27.212 10.998-27.419 10.998H43.735V25.572H88.99c5.362 0 9.83.974 13.368 2.877a3.695 3.695 0 0 0 3.922 3.216c.104-.007.2-.036.302-.052 3.465 3.487 5.175 7.63 5.175 12.659 0 4.465-1.346 8.182-4.116 11.362zm23.238-12.35a3.685 3.685 0 0 0-1.614.518l-19.716-14.743c.132-.426.197-.881.163-1.353a3.705 3.705 0 0 0-3.959-3.432 3.664 3.664 0 0 0-1.773.62L87.622 12.662a3.69 3.69 0 0 0 .132-1.22 3.705 3.705 0 1 0-3.433 3.959 3.662 3.662 0 0 0 1.662-.55l12.12 9.064c-2.735-.704-5.764-1.078-9.113-1.078H41v83.334h44.362c.222 0 22.488-.336 29.757-12.315 2.066-3.404 3.113-7.435 3.113-11.98 0-5.427-1.48-10.016-4.4-13.64-2.28-2.83-5.566-5.021-9.796-6.54 2.327-1.182 4.226-2.61 5.667-4.266 3.178-3.648 4.79-8.075 4.79-13.158 0-3.657-.835-6.977-2.462-9.942l15.561 11.636a3.66 3.66 0 0 0-.145 1.277 3.705 3.705 0 1 0 3.432-3.959zM68.86 41.899h9.629c3.37 0 5.807.569 7.048 1.645 1.218 1.058 1.81 2.519 1.81 4.467 0 2.135-.594 3.697-1.815 4.773-1.241 1.09-3.733 1.666-7.208 1.666H68.86V41.899zm18.478 12.938c1.821-1.605 2.744-3.902 2.744-6.826 0-2.748-.925-4.946-2.752-6.532-1.796-1.558-4.689-2.315-8.841-2.315H66.125v18.02h12.199c4.267 0 7.215-.766 9.014-2.347z"/></g></svg>