<svg width="164" height="131" viewBox="0 0 164 131" xmlns="http://www.w3.org/2000/svg"><g transform="translate(3 3)" fill="none" fill-rule="evenodd"><g fill="#006FA2"><path d="M89.65 53.518c-1.11 2.253-.784 4.889.875 7.049.145.189.313.358.502.503 1.298.998 2.776 1.526 4.274 1.526a6.305 6.305 0 0 0 6.183-7.509A6.301 6.301 0 0 0 95.301 50a6.264 6.264 0 0 0-5.652 3.518zM96 52.802a3.574 3.574 0 0 1 2.797 2.798 3.57 3.57 0 0 1-3.497 4.261c-.834 0-1.735-.288-2.607-.959-2.247-2.927-.19-6.167 2.607-6.167.23 0 .463.022.7.067zM62.301 50a6.264 6.264 0 0 0-5.652 3.518c-1.11 2.253-.783 4.889.876 7.049.145.189.313.358.502.503 1.298.998 2.776 1.526 4.274 1.526a6.305 6.305 0 0 0 6.183-7.509A6.301 6.301 0 0 0 62.301 50m0 2.735c.23 0 .463.022.7.067a3.574 3.574 0 0 1 2.797 2.798 3.57 3.57 0 0 1-3.497 4.261c-.834 0-1.735-.288-2.607-.959-2.247-2.927-.19-6.167 2.607-6.167M108.466 72.77H48.941c-4.93 0-8.941 4.01-8.941 8.94s4.011 8.942 8.941 8.942h59.525c4.93 0 8.94-4.012 8.94-8.942 0-4.93-4.01-8.94-8.94-8.94m0 2.735a6.212 6.212 0 0 1 6.205 6.205 6.212 6.212 0 0 1-6.205 6.207H48.941a6.213 6.213 0 0 1-6.206-6.207 6.213 6.213 0 0 1 6.206-6.205h59.525"/><path d="M65.069 78.513a2.351 2.351 0 0 0 2.344-2.344v-.845h-4.688v.845a2.351 2.351 0 0 0 2.344 2.344M53.115 78.91a2.285 2.285 0 0 0 2.278-2.279v-1.307h-4.556v1.307a2.285 2.285 0 0 0 2.278 2.278M76.754 78.513a2.09 2.09 0 0 0 2.084-2.084v-1.105H74.67v1.105a2.09 2.09 0 0 0 2.084 2.084M100.434 79.438c1.38 0 2.51-1.13 2.51-2.51v-1.603h-5.02v1.603c0 1.38 1.13 2.51 2.51 2.51M88.513 78.513a2.285 2.285 0 0 0 2.278-2.278v-.911h-4.556v.911a2.285 2.285 0 0 0 2.278 2.278M102.062 83a2.318 2.318 0 0 0-2.311 2.311v2.771h4.622v-2.771A2.318 2.318 0 0 0 102.062 83M92.915 85a2.13 2.13 0 0 0-2.124 2.124v1.483h4.248v-1.483A2.13 2.13 0 0 0 92.915 85M84.891 85a2.12 2.12 0 0 0-2.113 2.113v1.362h4.226v-1.362A2.12 2.12 0 0 0 84.891 85M59.653 86.183a1.888 1.888 0 0 0-1.882 1.882v.668h3.764v-.668a1.888 1.888 0 0 0-1.882-1.882M50.985 84.136a2.434 2.434 0 0 0-2.427 2.427v2.17h4.854v-2.17a2.434 2.434 0 0 0-2.427-2.427M68.195 84.004a2.727 2.727 0 0 0-2.72 2.719v2.01h5.439v-2.01a2.727 2.727 0 0 0-2.72-2.72M74.406 87.344v1.39h4.432v-1.39c0-1.22-.997-2.217-2.216-2.217a2.222 2.222 0 0 0-2.216 2.217z"/></g><rect stroke="#006FA2" stroke-width="3" x="-1.5" y="-1.127" width="161" height="127" rx="4"/><path d="M125.254 86.874a39.824 39.824 0 0 1 3.218 5.147c2.048 3.881 3.23 7.147 5.02 13.075.504 1.676.75 2.455 1.017 3.195l1.17 3.234 1.574-3.057c2.23-4.33 2.61-10.692 1.097-17.378-2.03-8.966-7.02-16.87-13.128-20.685-.348-10.009-3.865-19.448-10.17-27.318 3.093.94 5.705 1.434 7.71 1.426 2.112-.117 3.722-1.001 3.66-2.745-.086-2.417-3.393-4.272-7.97-4.315.086-.226.176-.453.335-.853.25-.623.353-.888.477-1.234.527-1.473.758-2.786.758-4.668 0-8.559-6.96-15.519-15.52-15.519a15.364 15.364 0 0 0-11.14 4.731c-.369-.484-.69-.913-1.25-1.664-2.151-2.893-2.56-3.39-3.442-3.674l-1.62-.52-.214 1.142a5.085 5.085 0 0 0-.024.023c-2.199 2.106-1.906 3.168 1.863 9.511.63 1.061.95 1.602 1.315 2.224a46.217 46.217 0 0 0-11.186-1.373c-25.613 0-46.449 20.835-46.449 46.448v7.849c-1.969-2.635-3.845-5.883-5.795-9.882-1.105-2.268-1.933-4.106-3.635-7.993-2.018-4.613-2.92-6.54-3.769-7.793l-1.765-2.606-.912 3.012c-.18.595-.349 1.39-.5 2.425-1.544 10.497.682 19.32 5.646 26.512 3.259 4.721 7.17 8.07 10.73 10.167v32.155h92.9V86.874z" stroke="#006FA2" stroke-width="3" stroke-linecap="round" stroke-linejoin="round"/></g></svg>