
<svg width="21px" height="24px" viewBox="0 0 21 24" version="1.1" xmlns="http://www.w3.org/2000/svg" xmlns:xlink="http://www.w3.org/1999/xlink">
    <!-- Generator: Sketch 43.1 (39012) - http://www.bohemiancoding.com/sketch -->
    <desc>Created with Sketch.</desc>
    <defs></defs>
    <g id="Page-1" stroke="none" stroke-width="1" fill="none" fill-rule="evenodd">
        <g id="icon-bitbucket" fill-rule="nonzero" fill="#006FA2">
            <path d="M10.2,0.5 C4.6,0.5 0,2 0,3.9 C0,4.4 1.2,11.5 1.7,14.3 C1.9,15.6 5.2,17.4 10.2,17.4 C15.2,17.4 18.4,15.6 18.7,14.3 C19.2,11.5 20.4,4.4 20.4,3.9 C20.3,2 15.8,0.5 10.2,0.5 Z M10.2,15.1 C8.4,15.1 7,13.7 7,11.9 C7,10.1 8.4,8.7 10.2,8.7 C12,8.7 13.4,10.1 13.4,11.9 C13.4,13.6 12,15.1 10.2,15.1 L10.2,15.1 Z M10.2,4.9 C6.6,4.9 3.7,4.3 3.7,3.5 C3.7,2.7 6.6,2.1 10.2,2.1 C13.8,2.1 16.7,2.7 16.7,3.5 C16.7,4.3 13.8,4.9 10.2,4.9 Z" id="Shape"></path>
            <path d="M17.5,17 C17.3,17 17.2,17.1 17.2,17.1 C17.2,17.1 14.7,19.1 10.2,19.1 C5.7,19.1 3.2,17.1 3.2,17.1 C3.2,17.1 3,17 2.9,17 C2.7,17 2.5,17.1 2.5,17.4 L2.5,17.5 C2.9,19.6 3.2,21.1 3.2,21.3 C3.5,22.8 6.5,24 10.1,24 C13.7,24 16.7,22.8 17,21.3 C17,21.1 17.3,19.6 17.7,17.5 L17.7,17.4 C17.8,17.2 17.7,17 17.5,17 Z" id="Shape"></path>
        </g>
    </g>
</svg>
