<svg id="Layer_1" xmlns="http://www.w3.org/2000/svg" viewBox="0 0 144.4 144.5"><style>.st0{fill:#fff}.st1{fill:#ff55a1}</style><path class="st1" d="M.9 61.1C6.2 26.5 36.2 0 72.2 0c38.2 0 69.5 29.7 72.1 67.2-18.3 2.4-36.4 6-53.8 12.2-6-7.1-13.7-12.5-20.5-18.8 2.2-.6 4.4-1.2 6.6-1.9 10.1-3.5 27.7-13.5 24.1-26.7C97.6 20.7 80.9 17.4 71 18.9c-10.8 1.6-22.6 9-22.9 21-.2 5.2 1.7 10.1 4.6 14.7-4.1.5-8.2.9-12 1.4-13.4 1.8-26.6 3.5-39.8 5.1zm56.6 45.6c-4.3 4.4 1.7 7.2 5.8 7.6 8 .8 15.4-4.9 19.8-11.1 3.1-4.4 4.8-8.6 3.6-12.7-6.1 2.5-12.1 5.4-17.9 8.7-3.8 2.2-8.3 4.4-11.3 7.5zM92 35c-.1-2.4-2.8-3.9-4.7-4.9-5.1-2.5-11.2-3.4-16.8-2.1-5.1 1.2-11.2 4.1-13 9.4-1.9 5.4 1.9 11.3 5.4 15.7 8.4-1.5 16.4-4 22.9-9.3 2.3-1.9 6.4-5.4 6.2-8.8zm3.2 52.2c3.5 10.8-3.9 22.7-12.8 29.6-5.8 4.5-13.1 7.2-20.5 6.3-6.7-.8-13.9-4.8-15-12-1.3-8.1 6.5-13 12.4-16.7 7-4.5 14.5-8.3 22.1-11.5 0 0 .1 0 .1-.1-3.8-3.8-8-7.1-12-10.6-3.2-2.8-6.9-6-10.3-9.6-9.3 1.5-18.9 2.2-28 3.5C20.8 67.7 10.4 69 .1 70.2c-.1.7-.1 1.4-.1 2 0 39.9 32.3 72.2 72.2 72.2 38.6 0 70.1-30.2 72.1-68.3-16.7 2.4-33.3 5.6-49.1 11.1z"/></svg>