<?xml version="1.0" encoding="utf-8"?>
<!-- Generator: Adobe Illustrator 19.2.1, SVG Export Plug-In . SVG Version: 6.00 Build 0)  -->
<svg version="1.1" id="Layer_1" xmlns="http://www.w3.org/2000/svg" xmlns:xlink="http://www.w3.org/1999/xlink" x="0px" y="0px"
	 viewBox="0 0 351.4 387.1" style="enable-background:new 0 0 351.4 387.1;" xml:space="preserve">
<style type="text/css">
	.st0{fill-rule:evenodd;clip-rule:evenodd;}
</style>
<g>
	<path class="st0" d="M173.4,0c60.1,1.3,102.1,27.7,129.3,64.3c7.2,9.8,14.4,19.7,19.5,30.8c3.2,7,6.5,15.3,4.9,23.2
		c-1.6,7.5-7.7,13-10.7,20c-7.1,16.3,6.2,29.3,12.1,43.3c6.8,16.3,11.4,33.9,11.6,51.7c3.7,1,8.2,3.2,10.2,6
		c3.5,7.4-1.6,22.6-3,30.7c-2.2,24.7-4.4,49.3-6.6,74c-1.8,9.5-1,24-10.8,25.3c-14.4-4.3-42.4-3.1-57.7-3.8
		c-44.2-2-88.3,0.5-132.5,1c-20.6,0.2-41.2-0.5-61.8,0.5c-5.1,0.2-61.4,0.8-60.7,2.3c-10.8-25.4-7.8-60.8-13.2-93.8
		c-1.9-11.7-5.9-26-3.6-37.3c3.4-1.6,6.8-3.2,10.2-4.8c-0.1-10.7,3-18.7,4.8-27.1c0.2-10,0.4-20,0.6-30.1
		c2.2-14.8,4.4-29.7,6.6-44.5c0.4-7.6,0.8-15.2,1.2-22.9c8.8-39.3,42.6-70.8,73.4-89c16.9-10,38.5-13.1,61.3-18
		C163.4,1.2,168.4,0.6,173.4,0z"/>
	<path class="st0" d="M82,369c0.4,0,0.8,0,1.2,0C82.8,369,82.4,369,82,369z"/>
	<path class="st0" d="M77.8,369.6c0.4,0,0.8,0,1.2,0C78.6,369.6,78.2,369.6,77.8,369.6z"/>
</g>
</svg>
