<svg xmlns="http://www.w3.org/2000/svg" viewBox="0 0 158.051 124.617"><g fill="#006fa2"><path d="M15.623 20.295h125.832v40.986H15.623zM15.623 73.336H73.98v30.863H15.623z"/><path d="M154.051 0H4C1.8 0 0 1.8 0 4v116.617c0 2.2 1.8 4 4 4h150.051c2.2 0 4-1.8 4-4V4c0-2.2-1.8-4-4-4zM76.715 106.936H12.888V70.6h63.828v36.336zm66.108 0h-58V104.2h58v2.736zm0-8.4h-58V95.8h58v2.736zm0-8.4h-58V87.4h58v2.736zm0-8.399h-58V79h58v2.737zm0-8.401h-58V70.6h58v2.736zm1.367-9.318H12.888V17.559H144.19v46.459z"/></g><path d="M154.051 124.617H4c-2.2 0-4-1.8-4-4V4c0-2.2 1.8-4 4-4h150.051c2.2 0 4 1.8 4 4v116.617c0 2.2-1.8 4-4 4z" fill="none"/></svg>
