<svg xmlns="http://www.w3.org/2000/svg" viewBox="0 0 158.051 124.617"><g fill="#006fa2"><circle cx="99.22" cy="53.116" r="3.563"/><circle cx="65.759" cy="53.116" r="3.563"/><path d="M51.847 74.209a6.212 6.212 0 0 0-6.205 6.204 6.212 6.212 0 0 0 6.205 6.205h1.464v-2.171a2.434 2.434 0 0 1 2.427-2.427 2.434 2.434 0 0 1 2.427 2.427v2.171h4.359v-.668c0-1.035.847-1.882 1.882-1.882s1.882.847 1.882 1.882v.668h3.94v-2.011a2.727 2.727 0 0 1 2.719-2.719 2.727 2.727 0 0 1 2.719 2.719v2.011h3.492v-1.391c0-1.219.997-2.217 2.216-2.217s2.216.997 2.216 2.217v1.391h4.095v-1.362a2.12 2.12 0 0 1 2.113-2.113 2.12 2.12 0 0 1 2.113 2.113v1.362h4.403v-1.483a2.13 2.13 0 0 1 2.124-2.124 2.13 2.13 0 0 1 2.124 2.124v1.483h4.095v-2.771c0-1.271 1.04-2.311 2.311-2.311s2.311 1.04 2.311 2.311v2.771h2.091a6.212 6.212 0 0 0 6.205-6.205 6.212 6.212 0 0 0-6.205-6.204h-3.677v1.604c0 1.38-1.129 2.51-2.51 2.51a2.517 2.517 0 0 1-2.51-2.51v-1.604H95.54v.91a2.285 2.285 0 0 1-2.278 2.278 2.285 2.285 0 0 1-2.278-2.278v-.91H83.59v1.104c0 1.146-.938 2.084-2.084 2.084s-2.084-.938-2.084-2.084v-1.104h-7.256v.844a2.351 2.351 0 0 1-2.344 2.344 2.351 2.351 0 0 1-2.344-2.344v-.844h-7.331v1.306a2.285 2.285 0 0 1-2.278 2.278 2.285 2.285 0 0 1-2.278-2.278v-1.306h-3.744z"/><path d="M154.051 0H4C1.8 0 0 1.8 0 4v116.617c0 2.2 1.8 4 4 4h30.629v-31.33c-4.592-2.893-19.776-14.352-16.364-37.553.421-2.868 1.041-4.823 2.692-5.044 2.221-.313 3.607 2.83 6.609 9.69 1.952 4.462 4.277 9.775 7.062 14.323v-3.801c0-26.293 21.391-47.685 47.685-47.685 2.915 0 5.823.269 8.68.8-3.192-5.372-4.61-7.866-1.525-10.82.813-.778 1.622-1.117 2.482-1.05 1.611.136 2.695 1.592 4.662 4.235.132.179.27.362.412.553 3.044-2.667 6.89-4.118 10.987-4.118 9.239 0 16.755 7.517 16.755 16.756 0 2.597-.465 4.147-1.023 5.601 4.773.479 7.335 2.948 7.422 5.428.065 1.864-1.377 3.829-4.748 4.017-1.193.069-2.821-.127-4.758-.556 5.012 7.285 7.854 15.678 8.28 24.527 6.088 4.084 11.083 12.089 13.125 21.102 1.751 7.734 1.066 14.802-1.88 19.393-.717 1.117-1.532 1.259-2.085 1.182-1.556-.217-2.097-2.01-3.282-5.938-1.162-3.852-2.802-9.286-5.819-14.454v34.742h24.052c2.2 0 4-1.8 4-4V4a4.01 4.01 0 0 0-3.999-4z"/><path d="M82.313 25.955c-24.785 0-44.949 20.163-44.949 44.948v12.284l-2.455-3.212c-4.106-5.372-7.291-12.65-9.85-18.498-1.226-2.802-2.7-6.17-3.637-7.553-.132.437-.293 1.127-.452 2.208-3.351 22.785 12.504 33.324 15.717 35.205l.676.396v31.515h89.899v-41.96l2.457 3.238c4.947 6.52 7.215 14.037 8.716 19.013.329 1.091.686 2.271.992 3.118 2.044-3.968 2.415-9.973.968-16.36-1.954-8.627-6.749-16.206-12.515-19.778l-.623-.386-.024-.731c-.328-9.849-3.823-19.125-10.109-26.827l-2.88-3.529 4.348 1.358c3.299 1.031 6.095 1.566 7.673 1.485 1.318-.073 2.188-.552 2.166-1.19-.037-1.033-2.029-2.941-6.643-2.87l-2.007.03.707-1.879c.141-.373.28-.722.415-1.06.655-1.637 1.128-2.819 1.128-5.346 0-7.73-6.289-14.02-14.02-14.02-3.877 0-7.485 1.554-10.159 4.376l-1.104 1.166-.975-1.276c-.499-.653-.947-1.256-1.355-1.804-1.043-1.401-2.224-2.988-2.698-3.141-.003.016-.131.079-.36.299-1.439 1.378-1.281 1.95 2.113 7.663.451.759.945 1.59 1.479 2.506l1.65 2.829-3.172-.814a44.69 44.69 0 0 0-11.117-1.403zM65.759 46.817a6.306 6.306 0 0 1 6.299 6.299c0 3.474-2.826 6.3-6.299 6.3s-6.299-2.826-6.299-6.3a6.306 6.306 0 0 1 6.299-6.299zm45.613 24.655c4.93 0 8.94 4.011 8.94 8.94s-4.011 8.941-8.94 8.941H51.847c-4.93 0-8.94-4.012-8.94-8.941s4.011-8.94 8.94-8.94h59.525zM99.22 46.817a6.306 6.306 0 0 1 6.299 6.299c0 3.474-2.826 6.3-6.299 6.3s-6.299-2.826-6.299-6.3a6.306 6.306 0 0 1 6.299-6.299z"/></g></svg>
