<?xml version="1.0" encoding="iso-8859-1"?>
<!-- Generator: Adobe Illustrator 19.2.1, SVG Export Plug-In . SVG Version: 6.00 Build 0)  -->
<svg version="1.1" id="category-illustration" xmlns="http://www.w3.org/2000/svg" xmlns:xlink="http://www.w3.org/1999/xlink"
	 x="0px" y="0px" viewBox="0 0 158.051 124.617" style="enable-background:new 0 0 158.051 124.617;" xml:space="preserve">
<g>
	<circle style="fill:#FFFFFF;" cx="99.22" cy="53.116" r="3.563"/>
	<circle style="fill:#FFFFFF;" cx="65.759" cy="53.116" r="3.563"/>
	<path style="fill:#FFFFFF;" d="M51.847,74.209c-3.421,0-6.205,2.783-6.205,6.204c0,3.422,2.784,6.205,6.205,6.205h1.464v-2.171
		c0-1.335,1.092-2.427,2.427-2.427c1.335,0,2.427,1.092,2.427,2.427v2.171h4.359V85.95c0-1.035,0.847-1.882,1.882-1.882
		c1.035,0,1.882,0.847,1.882,1.882v0.668h3.94v-2.011c0-1.495,1.223-2.719,2.719-2.719h0c1.495,0,2.719,1.223,2.719,2.719v2.011
		h3.492v-1.391c0-1.219,0.997-2.217,2.216-2.217s2.216,0.997,2.216,2.217v1.391h4.095v-1.362c0-1.162,0.951-2.113,2.113-2.113
		c1.162,0,2.113,0.951,2.113,2.113v1.362h4.403v-1.483c0-1.168,0.956-2.124,2.124-2.124c1.168,0,2.124,0.956,2.124,2.124v1.483
		h4.095v-2.771c0-1.271,1.04-2.311,2.311-2.311s2.311,1.04,2.311,2.311v2.771h2.091c3.421,0,6.205-2.783,6.205-6.205
		c0-3.421-2.784-6.204-6.205-6.204h-3.677v1.604c0,1.38-1.129,2.51-2.51,2.51c-1.38,0-2.51-1.129-2.51-2.51v-1.604h-7.133v0.91
		c0,1.253-1.025,2.278-2.278,2.278c-1.253,0-2.278-1.025-2.278-2.278v-0.91H83.59v1.104c0,1.146-0.938,2.084-2.084,2.084
		s-2.084-0.938-2.084-2.084v-1.104h-7.256v0.844c0,1.289-1.055,2.344-2.344,2.344c-1.289,0-2.344-1.055-2.344-2.344v-0.844h-7.331
		v1.306c0,1.253-1.025,2.278-2.278,2.278c-1.253,0-2.278-1.025-2.278-2.278v-1.306H51.847z"/>
	<path style="fill:#FFFFFF;" d="M154.051,0H4C1.8,0,0,1.8,0,4v116.617c0,2.2,1.8,4,4,4h30.629v-31.33
		c-4.592-2.893-19.776-14.352-16.364-37.553c0.421-2.868,1.041-4.823,2.692-5.044c2.221-0.313,3.607,2.83,6.609,9.69
		c1.952,4.462,4.277,9.775,7.062,14.323v-3.801c0-26.293,21.391-47.685,47.685-47.685c2.915,0,5.823,0.269,8.68,0.8
		c-3.192-5.372-4.61-7.866-1.525-10.82c0.813-0.778,1.622-1.117,2.482-1.05c1.611,0.136,2.695,1.592,4.662,4.235
		c0.132,0.179,0.27,0.362,0.412,0.553c3.044-2.667,6.89-4.118,10.987-4.118c9.239,0,16.755,7.517,16.755,16.756
		c0,2.597-0.465,4.147-1.023,5.601c4.773,0.479,7.335,2.948,7.422,5.428c0.065,1.864-1.377,3.829-4.748,4.017
		c-1.193,0.069-2.821-0.127-4.758-0.556c5.012,7.285,7.854,15.678,8.28,24.527c6.088,4.084,11.083,12.089,13.125,21.102
		c1.751,7.734,1.066,14.802-1.88,19.393c-0.717,1.117-1.532,1.259-2.085,1.182c-1.556-0.217-2.097-2.01-3.282-5.938
		c-1.162-3.852-2.802-9.286-5.819-14.454v34.742h24.052c2.2,0,4-1.8,4-4V4C158.051,1.8,156.251,0,154.051,0z"/>
	<path style="fill:#FFFFFF;" d="M82.313,25.955c-24.785,0-44.949,20.163-44.949,44.948v12.284l-2.455-3.212
		c-4.106-5.372-7.291-12.65-9.85-18.498c-1.226-2.802-2.7-6.17-3.637-7.553c-0.132,0.437-0.293,1.127-0.452,2.208
		c-3.351,22.785,12.504,33.324,15.717,35.205l0.676,0.396v31.515h89.899V81.288l2.457,3.238c4.947,6.52,7.215,14.037,8.716,19.013
		c0.329,1.091,0.686,2.271,0.992,3.118c2.044-3.968,2.415-9.973,0.968-16.36c-1.954-8.627-6.749-16.206-12.515-19.778l-0.623-0.386
		l-0.024-0.731c-0.328-9.849-3.823-19.125-10.109-26.827l-2.88-3.529l4.348,1.358c3.299,1.031,6.095,1.566,7.673,1.485
		c1.318-0.073,2.188-0.552,2.166-1.19c-0.037-1.033-2.029-2.941-6.643-2.87l-2.007,0.03l0.707-1.879
		c0.141-0.373,0.28-0.722,0.415-1.06c0.655-1.637,1.128-2.819,1.128-5.346c0-7.73-6.289-14.02-14.02-14.02
		c-3.877,0-7.485,1.554-10.159,4.376l-1.104,1.166l-0.975-1.276c-0.499-0.653-0.947-1.256-1.355-1.804
		c-1.043-1.401-2.224-2.988-2.698-3.141c-0.003,0.016-0.131,0.079-0.36,0.299c-1.439,1.378-1.281,1.95,2.113,7.663
		c0.451,0.759,0.945,1.59,1.479,2.506l1.65,2.829l-3.172-0.814C89.808,26.427,86.067,25.955,82.313,25.955z M65.759,46.817
		c3.473,0,6.299,2.826,6.299,6.299c0,3.474-2.826,6.3-6.299,6.3s-6.299-2.826-6.299-6.3C59.46,49.643,62.286,46.817,65.759,46.817z
		 M111.372,71.472c4.93,0,8.94,4.011,8.94,8.94s-4.011,8.941-8.94,8.941H51.847c-4.93,0-8.94-4.012-8.94-8.941s4.011-8.94,8.94-8.94
		H111.372z M99.22,46.817c3.473,0,6.299,2.826,6.299,6.299c0,3.474-2.826,6.3-6.299,6.3s-6.299-2.826-6.299-6.3
		C92.921,49.643,95.747,46.817,99.22,46.817z"/>
</g>
</svg>
