<svg xmlns="http://www.w3.org/2000/svg" viewBox="0 0 158.051 124.617"><g fill="#006fa2"><path d="M103.698 31.572a3.694 3.694 0 0 1-3.921-3.216c-3.538-1.903-8.006-2.877-13.369-2.877H41.153v77.863H82.78c.208 0 21.033-.473 27.419-10.998 1.802-2.971 2.716-6.524 2.716-10.561 0-4.787-1.276-8.799-3.794-11.924-2.524-3.132-6.574-5.388-12.037-6.704l-4.54-1.094 4.413-1.528c3.568-1.235 6.293-2.915 8.102-4.992 2.77-3.181 4.117-6.897 4.117-11.363 0-5.028-1.71-9.172-5.176-12.659-.102.016-.198.046-.302.053zm-40.155 7.499h12.364c4.153 0 7.045.757 8.841 2.314 1.827 1.586 2.752 3.784 2.752 6.533 0 2.924-.923 5.221-2.744 6.826-1.799 1.58-4.747 2.348-9.015 2.348H63.543V39.071zm24.034 47.073c-2.035 1.76-5.295 2.617-9.965 2.617H63.543V69.694h14.014c4.732 0 8.012.814 10.028 2.49 2.06 1.712 3.104 3.999 3.104 6.797-.001 2.969-1.048 5.379-3.112 7.163z"/><path d="M82.95 52.691c1.221-1.077 1.815-2.639 1.815-4.773 0-1.948-.592-3.409-1.81-4.467-1.241-1.076-3.678-1.645-7.048-1.645h-9.628v12.55h9.463c3.475.001 5.967-.575 7.208-1.665zM85.836 74.288c-1.483-1.233-4.269-1.858-8.28-1.858H66.278v13.595h11.333c3.93 0 6.681-.656 8.177-1.95 1.457-1.259 2.165-2.925 2.165-5.094 0-1.974-.692-3.509-2.117-4.693z"/><path d="M154.051 0H4C1.8 0 0 1.8 0 4v116.617c0 2.2 1.8 4 4 4h150.051c2.2 0 4-1.8 4-4V4c0-2.2-1.8-4-4-4zm-25.228 50.582a3.705 3.705 0 0 1-3.959-3.432 3.66 3.66 0 0 1 .145-1.277l-15.561-11.636c1.627 2.965 2.462 6.285 2.462 9.942 0 5.083-1.611 9.51-4.79 13.159-1.441 1.656-3.34 3.083-5.667 4.266 4.231 1.519 7.517 3.71 9.797 6.541 2.919 3.624 4.4 8.213 4.4 13.64 0 4.545-1.047 8.575-3.113 11.98-7.269 11.979-29.535 12.314-29.757 12.314H38.418V22.744h47.99c3.349 0 6.379.374 9.113 1.078l-12.12-9.063a3.662 3.662 0 0 1-1.662.549 3.705 3.705 0 1 1 3.432-3.959c.03.424-.027.831-.132 1.22l16.358 12.232a3.664 3.664 0 0 1 1.774-.62 3.705 3.705 0 0 1 3.959 3.432c.034.472-.031.926-.163 1.353l19.716 14.743a3.66 3.66 0 0 1 1.614-.518 3.705 3.705 0 0 1 .526 7.391z"/></g></svg>
