<svg width="159" height="125" viewBox="0 0 159 125" xmlns="http://www.w3.org/2000/svg" xmlns:xlink="http://www.w3.org/1999/xlink"><defs><path id="a" d="M0 0v124.617h158.05V0z"/></defs><g fill="none" fill-rule="evenodd"><mask id="b" fill="#fff"><use xlink:href="#a"/></mask><path d="M153.335 0H4.716A4.715 4.715 0 0 0 0 4.716v115.185a4.715 4.715 0 0 0 4.716 4.716h148.619a4.716 4.716 0 0 0 4.716-4.716V4.716A4.716 4.716 0 0 0 153.335 0m0 2.736c1.092 0 1.98.888 1.98 1.98v115.185c0 1.092-.888 1.98-1.98 1.98H4.716a1.982 1.982 0 0 1-1.98-1.98V4.716c0-1.092.888-1.98 1.98-1.98h148.619" fill="#006FA2" mask="url(#b)"/><g mask="url(#b)" fill="#006FA2"><path d="M86.677 76.336h58V73.6h-58zM86.677 84.737h58v-2.736h-58zM86.677 93.137h58v-2.736h-58zM86.677 101.537h58v-2.736h-58zM86.677 109.938h58v-2.736h-58z"/></g><path stroke="#006FA2" stroke-width="3" mask="url(#b)" d="M13.374 61.018h131.303V14.559H13.374zM13.374 109.936h63.828V73.6H13.374z"/></g></svg>