<?xml version="1.0" encoding="utf-8"?>
<!-- Generator: Adobe Illustrator 19.2.1, SVG Export Plug-In . SVG Version: 6.00 Build 0)  -->
<svg version="1.1" id="Layer_1" xmlns="http://www.w3.org/2000/svg" xmlns:xlink="http://www.w3.org/1999/xlink" x="0px" y="0px"
	 viewBox="0 0 312.5 237" style="enable-background:new 0 0 312.5 237;" xml:space="preserve">
<path fill="#fff" d="M6.4,231c0-75,0-150,0-225c100,0,200,0,300,0c0,75,0,150,0,225C206.4,231,106.4,231,6.4,231z M282,22.4
	c-0.2-0.4-0.4-0.8-0.6-1.2c-82.8,0-165.6,0-249.8,0c2,2.4,3.1,3.8,4.3,5c35.3,35.8,70.7,71.6,106.1,107.3c9.7,9.8,19.9,9.8,29.6,0.1
	C205.9,99.4,240.1,65,274.3,30.7C276.9,28,279.5,25.2,282,22.4z M31.7,215.8c83.8,0,166,0,249.1,0c-1.3-1.9-1.9-3.1-2.8-4
	c-26.1-26.8-52.3-53.6-78.5-80.5c-2.5-2.5-4.3-2.4-6.6,0.1c-4.1,4.4-8.4,8.5-12.7,12.8c-13.7,13.6-33.1,13.7-46.7,0.1
	c-3.9-3.9-7.7-7.8-11.6-11.7c-4.9-5-5-5-9.7-0.1c-25.5,26.1-51,52.2-76.4,78.3C34.7,212,33.7,213.5,31.7,215.8z M21.5,31.5
	c0,58.6,0,115.6,0,173.8c2.1-1.8,3.4-2.7,4.5-3.8c25.9-26.4,51.6-53,77.6-79.3c3.2-3.3,3.1-5.2-0.1-8.4C77.7,87.9,52.1,61.9,26.5,36
	C25.3,34.7,23.9,33.6,21.5,31.5z M291.5,33.3c-2.3,1.8-3.5,2.6-4.5,3.6C261,63,235.1,89.2,209.1,115.3c-2.5,2.5-2.4,4.2,0,6.6
	c25.9,26.4,51.7,52.9,77.5,79.3c1.1,1.2,2.7,1.9,4.8,3.5C291.5,147.2,291.5,91.1,291.5,33.3z"/>
</svg>
