
<svg width="301px" height="225px" viewBox="0 0 301 225" version="1.1" xmlns="http://www.w3.org/2000/svg" xmlns:xlink="http://www.w3.org/1999/xlink">
    <!-- Generator: Sketch 43.1 (39012) - http://www.bohemiancoding.com/sketch -->
    <desc>Created with Sketch.</desc>
    <defs></defs>
    <g id="Page-1" stroke="none" stroke-width="1" fill="none" fill-rule="evenodd">
        <g id="icon-mail" fill-rule="nonzero" fill="#006FA2">
            <path d="M0.4,225 L0.4,0 L300.4,0 L300.4,225 L0.4,225 Z M276,16.4 C275.8,16 275.6,15.6 275.4,15.2 L25.6,15.2 C27.6,17.6 28.7,19 29.9,20.2 C65.2,56 100.6,91.8 136,127.5 C145.7,137.3 155.9,137.3 165.6,127.6 C199.9,93.4 234.1,59 268.3,24.7 C270.9,22 273.5,19.2 276,16.4 Z M25.7,209.8 L274.8,209.8 C273.5,207.9 272.9,206.7 272,205.8 C245.9,179 219.7,152.2 193.5,125.3 C191,122.8 189.2,122.9 186.9,125.4 C182.8,129.8 178.5,133.9 174.2,138.2 C160.5,151.8 141.1,151.9 127.5,138.3 C123.6,134.4 119.8,130.5 115.9,126.6 C111,121.6 110.9,121.6 106.2,126.5 C80.7,152.6 55.2,178.7 29.8,204.8 C28.7,206 27.7,207.5 25.7,209.8 Z M15.5,25.5 L15.5,199.3 C17.6,197.5 18.9,196.6 20,195.5 C45.9,169.1 71.6,142.5 97.6,116.2 C100.8,112.9 100.7,111 97.5,107.8 C71.7,81.9 46.1,55.9 20.5,30 C19.3,28.7 17.9,27.6 15.5,25.5 Z M285.5,27.3 C283.2,29.1 282,29.9 281,30.9 C255,57 229.1,83.2 203.1,109.3 C200.6,111.8 200.7,113.5 203.1,115.9 C229,142.3 254.8,168.8 280.6,195.2 C281.7,196.4 283.3,197.1 285.4,198.7 C285.5,141.2 285.5,85.1 285.5,27.3 Z" id="Shape"></path>
        </g>
    </g>
</svg>
