<svg width="21" height="24" viewBox="0 0 21 24" xmlns="http://www.w3.org/2000/svg"><g fill-rule="nonzero" fill="#fff"><path d="M10.2.5C4.6.5 0 2 0 3.9c0 .5 1.2 7.6 1.7 10.4.2 1.3 3.5 3.1 8.5 3.1s8.2-1.8 8.5-3.1c.5-2.8 1.7-9.9 1.7-10.4C20.3 2 15.8.5 10.2.5zm0 14.6c-1.8 0-3.2-1.4-3.2-3.2 0-1.8 1.4-3.2 3.2-3.2 1.8 0 3.2 1.4 3.2 3.2 0 1.7-1.4 3.2-3.2 3.2zm0-10.2c-3.6 0-6.5-.6-6.5-1.4 0-.8 2.9-1.4 6.5-1.4s6.5.6 6.5 1.4c0 .8-2.9 1.4-6.5 1.4z"/><path d="M17.5 17c-.2 0-.3.1-.3.1s-2.5 2-7 2-7-2-7-2-.2-.1-.3-.1c-.2 0-.4.1-.4.4v.1c.4 2.1.7 3.6.7 3.8.3 1.5 3.3 2.7 6.9 2.7 3.6 0 6.6-1.2 6.9-2.7 0-.2.3-1.7.7-3.8v-.1c.1-.2 0-.4-.2-.4z"/><circle cx="10.2" cy="11.8" r="1.6"/></g></svg>
