
<svg width="322px" height="127px" viewBox="0 0 322 127" version="1.1" xmlns="http://www.w3.org/2000/svg" xmlns:xlink="http://www.w3.org/1999/xlink">
    <!-- Generator: Sketch 43.1 (39012) - http://www.bohemiancoding.com/sketch -->
    <desc>Created with Sketch.</desc>
    <defs></defs>
    <g id="Page-1" stroke="none" stroke-width="1" fill="none" fill-rule="evenodd">
        <g id="logo-signature-simon" transform="translate(-1.000000, 0.000000)" fill-rule="nonzero" fill="#006FA2">
            <path d="M48.892,33.674 C45.716,22.384 38.789,7.872 24.92,8.095 C20.123,8.172 15.126,10.502 12.481,14.604 C9.115,19.826 10.493,26.611 11.941,32.237 C15.56,46.297 23.848,58.558 28.1,72.388 C29.27,76.194 30.321,80.282 30.449,84.271 C30.5607711,85.5678601 30.5009211,86.8737993 30.271,88.155 L25.279,91.912 C23.29,92.352 19.383,90.564 17.657,89.729 C10.675,86.349 5.578,80.249 3.23,72.898 C2.791,71.522 0.614,72.11 1.057,73.497 C4.212,83.375 14.01,94.243 25.278,94.165 C38.458,94.075 30.955,73.128 28.479,66.633 C23.239,52.89 14.204,39.698 12.792,24.757 C11.716,13.348 22.761,7.044 32.57,12.334 C40.79,16.767 44.326,25.766 46.719,34.273 C47.111,35.667 49.286,35.074 48.892,33.674 L48.892,33.674 Z M54.303,50.945 C52.8723963,58.2529007 52.0154508,65.6614836 51.74,73.103 C51.686,74.553 53.94,74.551 53.993,73.103 C54.2571466,65.8629595 55.0870091,58.6546569 56.475,51.544 C56.753,50.127 54.581,49.521 54.303,50.945 L54.303,50.945 Z M63.107,51.256 C63.453,59.035 63.359,66.791 62.825,74.559 C62.725,76.011 64.962,75.993 65.078,74.559 C65.729,66.516 66.525,58.565 69.299,50.937 L67.126,50.937 C68.7506609,58.4956849 70.8131365,65.9535861 73.303,73.273 C73.631,74.239 75.254,74.446 75.476,73.273 C76.893,65.787 78.399,58.364 81.03,51.194 L78.817,50.895 C79.587,57.825 81.377,64.605 84.127,71.013 C84.442,71.751 85.758,71.752 86.073,71.013 C89.6341432,62.6595354 92.9278192,54.1945611 95.949,45.631 L93.736,45.332 C93.169,51.547 92.703,57.94 93.13,64.181 C93.323,67.001 93.786,69.457 96.365,70.96 C96.916,71.281 97.565,71.062 97.906,70.556 C103.59,62.122 104.244,51.7 99.834,42.563 L98.065,43.928 C102.429,49.274 108.983,47.084 114.335,44.61 L112.68,43.937 C113.984315,51.4506082 114.12765,59.1199019 113.105,66.677 C112.949,67.836 114.494,68.773 115.164,67.545 L120.187,58.339 C120.43,57.893 121.95,54.192 122.47,54.155 C125.112,53.966 124.893,58.802 125.031,60.231 C125.682,67.007 125.66,73.829 125.226,80.617 C125.133,82.065 127.387,82.059 127.479,80.617 C127.953,73.202 127.885,65.779 127.103,58.385 C126.783,55.355 126.363,51.353 122.71,50.826 C122.22,50.755 121.696,50.87 121.438,51.344 L113.219,66.408 L115.278,67.276 C116.36,59.234 116.227,51.335 114.853,43.338 C114.719,42.558 113.791,42.391 113.198,42.665 C108.861,44.67 103.311,46.811 99.658,42.336 C98.801,41.286 97.368,42.623 97.889,43.701 C101.964,52.144 101.188,61.664 95.961,69.42 L97.502,69.016 C94.079,67.021 95.269,59.886 95.329,56.634 C95.399,52.857 95.645,49.094 95.989,45.333 C96.111,43.999 94.174,43.905 93.776,45.034 C90.8244723,53.4157583 87.6065048,61.7012993 84.127,69.878 L86.073,69.878 C83.4829807,63.8308364 81.7975685,57.4352326 81.071,50.897 C80.93,49.64 79.312,49.36 78.858,50.598 C76.227,57.768 74.721,65.191 73.304,72.677 L75.477,72.677 C72.9872635,65.357547 70.9247899,57.8996532 69.3,50.341 C69.048,49.169 67.478,49.378 67.127,50.341 C64.282,58.165 63.492,66.321 62.825,74.562 L65.078,74.562 C65.612,66.794 65.706,59.038 65.36,51.259 C65.296,49.812 63.043,49.804 63.107,51.256 L63.107,51.256 Z M160.423,10.355 C156.626,29.131 154.47,49.2 156.643,68.319 C158.037,80.581 166.483,96.252 181.316,91.817 C182.702,91.403 182.112,89.227 180.717,89.644 C173.167,91.902 165.969,87.234 162.381,80.697 C158.596,73.799 158.466,65.38 158.306,57.713 C157.978,42.007 159.482,26.345 162.594,10.954 C162.882,9.539 160.71,8.933 160.423,10.355 L160.423,10.355 Z" id="Shape"></path>
            <path d="M187.398,42.779 C185.811,36.13 179.123,41.404 176.956,44.557 C172.585,50.918 170.505,60.174 173.108,67.64 C175.473,74.425 181.424,69.996 184.287,66.14 C189.272,59.427 191.412,51.201 190.766,42.91 C190.669,41.659 188.956,41.361 188.553,42.611 C186.032,50.433 181.853,72.014 193.693,74.781 C194.334,74.931 194.848,74.581 195.079,73.994 C198.763,64.612 201.005,54.894 201.861,44.856 L199.608,44.856 C199.434,49.149 197.616,71.563 206.178,70.545 C209.856,70.108 211.206,64.426 212.158,61.634 C214.355,55.189 215.296,48.497 215.264,41.704 L213.011,41.704 C213.3,59.296 213.597,76.909 212.684,94.488 C212.291,102.059 212.572,110.788 210.176,118.045 C208.295,123.743 202.879,126.399 197.478,122.748 C193.359,119.963 191.661,114.794 190.124,110.338 C189.654,108.975 187.477,109.561 187.951,110.937 C190.283,117.699 193.816,126.248 202.175,126.764 C209.73,127.23 212.536,119.79 213.403,113.579 C216.703,89.936 215.656,65.497 215.265,41.704 C215.241,40.256 213.005,40.251 213.012,41.704 C213.032,45.859 212.731,49.951 211.895,54.033 C211.297,56.951 210.08,64.578 207.816,66.359 C202.6,70.462 202.005,59.162 201.812,56.457 C201.537,52.595 201.705,48.718 201.862,44.855 C201.922,43.391 199.731,43.429 199.609,44.855 C198.767,54.717 196.522,64.188 192.907,73.394 L194.293,72.607 C184.249,70.26 188.647,49.661 190.727,43.209 L188.514,42.91 C188.838,47.063 188.542,51.148 187.33,55.155 C186.167,59.001 183.517,65.681 179.773,67.779 C173.263,71.426 174.222,58.541 174.826,55.429 C175.247473,53.2213164 175.954758,51.0779471 176.93,49.053 C177.386,48.117 177.896,47.212 178.46,46.336 C179.652,43.555 181.907,42.569 185.226,43.377 C185.561,44.787 187.735,44.191 187.398,42.779 L187.398,42.779 Z" id="Shape"></path>
            <path d="M186.865,26.881 C203.168,31.519 220.65,33.588 237.554,31.63 C242.692,31.035 248.084,29.486 250.689,24.594 C253.099,20.068 252.207,14.448 250.204,9.962 C248.429,5.988 244.803,0.387 239.959,0.019 C235.469,-0.322 233.523,4.028 232.529,7.675 C228.267,23.307 229.142,40.231 229.983,56.226 C231.015,75.846 232.524,95.658 227.591,114.909 C227.231,116.314 229.403,116.914 229.764,115.508 C237.8,84.146 228.793,51.994 232.547,20.29 C233.063,15.934 233.665,11.243 235.033,7.059 C236.276,3.257 240.493,1.504 243.676,4.379 C244.947,5.527 245.975,6.955 246.865,8.412 C251.788,16.483 250.758,26.672 240.299,28.956 C232.298,30.703 223.268,30.252 215.159,29.683 C205.762,29.024 196.518,27.285 187.465,24.709 C186.067,24.311 185.471,26.485 186.865,26.881 L186.865,26.881 Z" id="Shape"></path>
            <path d="M221.812,58.113 C227.362,58.8 233.069,59.471 238.586,58.185 C243.655,57.003 247.545,53.957 251.422,50.647 L249.499,49.85 L250.645,78.357 C250.703,79.802 252.957,79.809 252.898,78.357 L251.752,49.85 C251.711,48.831 250.57,48.421 249.829,49.053 C245.524,52.729 241.323,55.656 235.597,56.397 C230.999,56.993 226.386,56.425 221.812,55.859 C220.376,55.682 220.389,57.937 221.812,58.113 L221.812,58.113 Z M255.696,35.402 C255.798,35.494 255.856,35.626 255.851,35.764 C255.82,35.909 255.821,35.917 255.854,35.787 C255.802,35.906 255.807,35.908 255.871,35.793 C255.807,35.873 255.802,35.884 255.856,35.826 C255.914,35.772 255.903,35.777 255.822,35.841 C255.937,35.778 255.935,35.772 255.816,35.824 C255.946,35.791 255.938,35.79 255.793,35.82 C255.655225,35.8239691 255.522733,35.7668732 255.431,35.664 C255.91,36.038 256.557,36.131 257.024,35.664 C257.413,35.275 257.506,34.447 257.024,34.071 C256.143,33.384 255.069,33.443 254.262,34.233 C253.458,35.02 253.426,36.133 254.103,36.995 C254.479,37.474 255.302,37.389 255.696,36.995 C256.169,36.522 256.073,35.882 255.696,35.402 L255.696,35.402 Z M261.882,64.608 C269.043,63.111 276.62,57.975 273.911,49.664 C273.701,49.018 272.886,48.56 272.256,48.991 C267.371,52.328 263.94,58.411 265.63,64.451 C267.087,69.661 272.838,70.88 277.123,68.061 C282.949,64.227 285.392,54.652 287.454,48.438 C290.666,38.762 292.761,28.764 294.854,18.801 L292.681,18.202 C288.526,38.143 287.864,58.459 290.671,78.634 C290.87,80.064 293.041,79.455 292.844,78.035 C290.095,58.28 290.786,38.326 294.854,18.801 C295.149,17.386 292.98,16.781 292.681,18.202 C290.405,29.04 288.12,39.925 284.406,50.381 C282.687,55.222 280.476,63.809 275.403,66.226 C270.723,68.456 267.295,66.052 267.508,60.777 C267.672,56.717 270.133,53.164 273.393,50.937 L271.738,50.264 C274.107,57.534 267.137,61.212 261.282,62.437 C259.864,62.732 260.465,64.904 261.882,64.608 L261.882,64.608 Z M318.126,50.136 C318.57,48.024 317.653,46.063 315.378,45.541 C312.129,44.795 308.781,48.339 307.079,50.574 C304.452,54.023 299.302,67.237 306.691,68.722 C313.677,70.126 317.042,53.948 318.248,49.815 C321.672,38.083 323.089,25.909 322.684,13.705 C322.65,12.682 321.069,12.051 320.585,13.136 C317.934,19.076 318.823,26.329 318.685,32.69 L318.149,57.425 L317.076,106.896 C317.045,108.346 319.298,108.346 319.329,106.896 L320.316,61.383 L320.788,39.616 L321.046,27.743 C321.142,23.319 320.69,18.398 322.531,14.273 L320.432,13.704 C320.831,25.712 319.455,37.671 316.077,49.215 C315.313058,51.8234933 314.45314,54.4029142 313.499,56.948 C312.645,59.23 311.644,64.29 309.215,65.522 C303.567,68.388 305.7,58.513 306.303,56.721 C306.733,55.444 307.378,54.169 308.099,53.028 C308.69,52.066 309.399,51.182 310.211,50.397 C311.531,48.815 313.446,48.528 315.955,49.536 C315.655,50.951 317.827,51.556 318.126,50.136 L318.126,50.136 Z M57.539,35.061 L87.587,24.565 C88.947,24.09 88.362,21.912 86.988,22.392 L56.94,32.889 C55.579,33.364 56.165,35.541 57.539,35.061 L57.539,35.061 Z" id="Shape"></path>
        </g>
    </g>
</svg>
