<svg width="322" height="153" viewBox="0 0 322 153" xmlns="http://www.w3.org/2000/svg"><g fill="none" fill-rule="evenodd"><path d="M88.153 144.374l3.64 7.93h-.662l-.812-1.79h-4.982l-.803 1.79h-.672l3.64-7.93h.65zm-2.553 5.57h4.453l-2.226-4.92-2.227 4.92zm13.549-5.57h3.1c2.41 0 3.691 1.748 3.691 3.965 0 2.227-1.28 3.965-3.69 3.965h-3.101v-7.93zm.6.589v6.75h2.47c2.003 0 3.121-1.453 3.121-3.375 0-1.921-1.118-3.376-3.121-3.376h-2.47v.001zm9.472-.59h5.45v.59h-4.85v3.162h4.127v.57h-4.127v3.019h4.85v.59h-5.45v-7.93zm8.589 5.948v.041c0 .884.955 1.535 2.49 1.535 1.475 0 2.268-.619 2.268-1.473 0-1.038-1.119-1.404-2.461-1.81-1.29-.397-2.826-.885-2.826-2.318 0-1.24 1.098-2.075 2.816-2.075 1.75 0 2.969.864 2.969 2.054v.092h-.59v-.051c0-.884-.904-1.535-2.379-1.535-1.413 0-2.185.62-2.185 1.474 0 1.016 1.077 1.372 2.368 1.779 1.27.386 2.928.874 2.928 2.358 0 1.25-1.149 2.064-2.908 2.064-1.81 0-3.08-.855-3.08-2.055v-.08h.59zm9.228-5.947v7.93h-.6v-7.93h.6zm7.451 3.852h3.467v4.077h-.539v-1.363c-.651.936-1.779 1.515-3.02 1.515a4.124 4.124 0 0 1-4.137-4.117c0-2.267 1.85-4.118 4.138-4.118a4.125 4.125 0 0 1 3.314 1.677l-.498.346a3.534 3.534 0 0 0-2.816-1.423c-1.942 0-3.528 1.586-3.528 3.517a3.527 3.527 0 0 0 3.527 3.518c1.226-.001 2.361-.646 2.99-1.698v-1.403h-2.898v-.528zm6.85 4.077v-7.93h.538l5.49 6.904v-6.904h.6v7.93h-.539l-5.49-6.893v6.893h-.6zm10.417-7.93h5.45v.59h-4.85v3.162h4.127v.57h-4.127v3.019h4.85v.59h-5.45v-7.93zm12.238 0c1.718 0 2.704 1.18 2.704 2.552 0 1.119-.65 2.104-1.81 2.45l2.084 2.928h-.732l-2.002-2.816c-.081.01-.163.01-.245.01h-2.897v2.805h-.6v-7.93h3.498v.001zm-2.897.57v3.985h2.877c1.382 0 2.134-.935 2.134-1.992 0-1.048-.752-1.993-2.134-1.993h-2.877zm17.604-.722a4.128 4.128 0 0 1 4.128 4.118 4.122 4.122 0 0 1-4.128 4.117 4.124 4.124 0 0 1-4.137-4.117c0-2.267 1.85-4.118 4.137-4.118zm0 7.635a3.525 3.525 0 0 0 3.518-3.517 3.532 3.532 0 0 0-3.517-3.518c-1.942 0-3.528 1.586-3.528 3.518a3.528 3.528 0 0 0 3.528 3.517zm7.358-7.483h5.245v.59h-4.646v3.427h4.026v.568h-4.026v3.345h-.6v-7.93h.001zm13.335 5.948v.041c0 .884.956 1.535 2.491 1.535 1.474 0 2.268-.619 2.268-1.473 0-1.038-1.119-1.404-2.46-1.81-1.292-.397-2.826-.885-2.826-2.318 0-1.24 1.098-2.075 2.816-2.075 1.748 0 2.968.864 2.968 2.054v.092h-.589v-.051c0-.884-.905-1.535-2.379-1.535-1.413 0-2.185.62-2.185 1.473 0 1.017 1.077 1.373 2.369 1.78 1.27.386 2.928.874 2.928 2.357 0 1.251-1.15 2.064-2.908 2.064-1.81 0-3.081-.854-3.081-2.054v-.08h.588zm12.147-6.1a4.128 4.128 0 0 1 4.127 4.118 4.122 4.122 0 0 1-4.127 4.117 4.124 4.124 0 0 1-4.138-4.117c0-2.268 1.85-4.118 4.138-4.118zm0 7.635a3.525 3.525 0 0 0 3.517-3.517 3.532 3.532 0 0 0-3.517-3.518c-1.942 0-3.528 1.586-3.528 3.518a3.528 3.528 0 0 0 3.528 3.517zm10.855-7.483c1.718 0 2.704 1.18 2.704 2.552 0 1.119-.65 2.104-1.81 2.45l2.084 2.928h-.732l-2.003-2.816c-.081.01-.163.01-.244.01h-2.897v2.805h-.6v-7.93h3.498v.001zm-2.898.57v3.985h2.877c1.383 0 2.135-.935 2.135-1.992 0-1.048-.752-1.993-2.135-1.993h-2.877zm7.827-.57h6.323v.59h-2.867v7.34h-.6v-7.34h-2.856v-.59zm9.31 5.948v.041c0 .884.956 1.535 2.49 1.535 1.474 0 2.267-.619 2.267-1.473 0-1.038-1.118-1.404-2.46-1.81-1.291-.397-2.826-.885-2.826-2.318 0-1.24 1.098-2.075 2.817-2.075 1.748 0 2.968.864 2.968 2.054v.092h-.59v-.051c0-.884-.905-1.535-2.378-1.535-1.413 0-2.186.62-2.186 1.473 0 1.017 1.078 1.373 2.37 1.78 1.27.386 2.927.874 2.927 2.357 0 1.251-1.149 2.064-2.907 2.064-1.81 0-3.081-.854-3.081-2.054v-.08h.588z" stroke="gray" stroke-width=".564" fill="gray" fill-rule="nonzero"/><path d="M88.153 144.374l3.64 7.93h-.662l-.812-1.79h-4.982l-.803 1.79h-.672l3.64-7.93h.65zm-2.553 5.57h4.453l-2.226-4.92-2.227 4.92zm13.549-5.57h3.1c2.41 0 3.691 1.748 3.691 3.965 0 2.227-1.28 3.965-3.69 3.965h-3.101v-7.93zm.6.589v6.75h2.47c2.003 0 3.121-1.453 3.121-3.375 0-1.921-1.118-3.376-3.121-3.376h-2.47v.001zm9.472-.59h5.45v.59h-4.85v3.162h4.127v.57h-4.127v3.019h4.85v.59h-5.45v-7.93zm8.589 5.948v.041c0 .884.955 1.535 2.49 1.535 1.475 0 2.268-.619 2.268-1.473 0-1.038-1.119-1.404-2.461-1.81-1.29-.397-2.826-.885-2.826-2.318 0-1.24 1.098-2.075 2.816-2.075 1.75 0 2.969.864 2.969 2.054v.092h-.59v-.051c0-.884-.904-1.535-2.379-1.535-1.413 0-2.185.62-2.185 1.474 0 1.016 1.077 1.372 2.368 1.779 1.27.386 2.928.874 2.928 2.358 0 1.25-1.149 2.064-2.908 2.064-1.81 0-3.08-.855-3.08-2.055v-.08h.59zm9.228-5.947v7.93h-.6v-7.93h.6zm7.451 3.852h3.467v4.077h-.539v-1.363c-.651.936-1.779 1.515-3.02 1.515a4.124 4.124 0 0 1-4.137-4.117c0-2.267 1.85-4.118 4.138-4.118a4.125 4.125 0 0 1 3.314 1.677l-.498.346a3.534 3.534 0 0 0-2.816-1.423c-1.942 0-3.528 1.586-3.528 3.517a3.527 3.527 0 0 0 3.527 3.518c1.226-.001 2.361-.646 2.99-1.698v-1.403h-2.898v-.528zm6.85 4.077v-7.93h.538l5.49 6.904v-6.904h.6v7.93h-.539l-5.49-6.893v6.893h-.6zm10.417-7.93h5.45v.59h-4.85v3.162h4.127v.57h-4.127v3.019h4.85v.59h-5.45v-7.93zm12.238 0c1.718 0 2.704 1.18 2.704 2.552 0 1.119-.65 2.104-1.81 2.45l2.084 2.928h-.732l-2.002-2.816c-.081.01-.163.01-.245.01h-2.897v2.805h-.6v-7.93h3.498v.001zm-2.897.57v3.985h2.877c1.382 0 2.134-.935 2.134-1.992 0-1.048-.752-1.993-2.134-1.993h-2.877zm17.604-.722a4.128 4.128 0 0 1 4.128 4.118 4.122 4.122 0 0 1-4.128 4.117 4.124 4.124 0 0 1-4.137-4.117c0-2.267 1.85-4.118 4.137-4.118zm0 7.635a3.525 3.525 0 0 0 3.518-3.517 3.532 3.532 0 0 0-3.517-3.518c-1.942 0-3.528 1.586-3.528 3.518a3.528 3.528 0 0 0 3.528 3.517zm7.358-7.483h5.245v.59h-4.646v3.427h4.026v.568h-4.026v3.345h-.6v-7.93h.001zm13.335 5.948v.041c0 .884.956 1.535 2.491 1.535 1.474 0 2.268-.619 2.268-1.473 0-1.038-1.119-1.404-2.46-1.81-1.292-.397-2.826-.885-2.826-2.318 0-1.24 1.098-2.075 2.816-2.075 1.748 0 2.968.864 2.968 2.054v.092h-.589v-.051c0-.884-.905-1.535-2.379-1.535-1.413 0-2.185.62-2.185 1.473 0 1.017 1.077 1.373 2.369 1.78 1.27.386 2.928.874 2.928 2.357 0 1.251-1.15 2.064-2.908 2.064-1.81 0-3.081-.854-3.081-2.054v-.08h.588zm12.147-6.1a4.128 4.128 0 0 1 4.127 4.118 4.122 4.122 0 0 1-4.127 4.117 4.124 4.124 0 0 1-4.138-4.117c0-2.268 1.85-4.118 4.138-4.118zm0 7.635a3.525 3.525 0 0 0 3.517-3.517 3.532 3.532 0 0 0-3.517-3.518c-1.942 0-3.528 1.586-3.528 3.518a3.528 3.528 0 0 0 3.528 3.517zm10.855-7.483c1.718 0 2.704 1.18 2.704 2.552 0 1.119-.65 2.104-1.81 2.45l2.084 2.928h-.732l-2.003-2.816c-.081.01-.163.01-.244.01h-2.897v2.805h-.6v-7.93h3.498v.001zm-2.898.57v3.985h2.877c1.383 0 2.135-.935 2.135-1.992 0-1.048-.752-1.993-2.135-1.993h-2.877zm7.827-.57h6.323v.59h-2.867v7.34h-.6v-7.34h-2.856v-.59zm9.31 5.948v.041c0 .884.956 1.535 2.49 1.535 1.474 0 2.267-.619 2.267-1.473 0-1.038-1.118-1.404-2.46-1.81-1.291-.397-2.826-.885-2.826-2.318 0-1.24 1.098-2.075 2.817-2.075 1.748 0 2.968.864 2.968 2.054v.092h-.59v-.051c0-.884-.905-1.535-2.378-1.535-1.413 0-2.186.62-2.186 1.473 0 1.017 1.078 1.373 2.37 1.78 1.27.386 2.927.874 2.927 2.357 0 1.251-1.149 2.064-2.907 2.064-1.81 0-3.081-.854-3.081-2.054v-.08h.588zM59.42 148.625h14.803m179.402 0h14.804" stroke="#006FA2" stroke-width=".81"/><path d="M47.892 33.674C44.716 22.384 37.789 7.872 23.92 8.095c-4.797.077-9.794 2.407-12.439 6.509-3.366 5.222-1.988 12.007-.54 17.633C14.56 46.297 22.848 58.558 27.1 72.388c1.17 3.806 2.221 7.894 2.349 11.883a14.796 14.796 0 0 1-.178 3.884l-4.992 3.757c-1.989.44-5.896-1.348-7.622-2.183-6.982-3.38-12.079-9.48-14.427-16.831-.439-1.376-2.616-.788-2.173.599 3.155 9.878 12.953 20.746 24.221 20.668 13.18-.09 5.677-21.037 3.201-27.532-5.24-13.743-14.275-26.935-15.687-41.876-1.076-11.409 9.969-17.713 19.778-12.423 8.22 4.433 11.756 13.432 14.149 21.939.392 1.394 2.567.801 2.173-.599zm5.411 17.271a142.84 142.84 0 0 0-2.563 22.158c-.054 1.45 2.2 1.448 2.253 0a138.98 138.98 0 0 1 2.482-21.559c.278-1.417-1.894-2.023-2.172-.599zm8.804.311c.346 7.779.252 15.535-.282 23.303-.1 1.452 2.137 1.434 2.253 0 .651-8.043 1.447-15.994 4.221-23.622h-2.173a199.591 199.591 0 0 0 6.177 22.336c.328.966 1.951 1.173 2.173 0 1.417-7.486 2.923-14.909 5.554-22.079l-2.213-.299c.77 6.93 2.56 13.71 5.31 20.118.315.738 1.631.739 1.946 0a426.864 426.864 0 0 0 9.876-25.382l-2.213-.299c-.567 6.215-1.033 12.608-.606 18.849.193 2.82.656 5.276 3.235 6.779.551.321 1.2.102 1.541-.404 5.684-8.434 6.338-18.856 1.928-27.993l-1.769 1.365c4.364 5.346 10.918 3.156 16.27.682l-1.655-.673a74.524 74.524 0 0 1 .425 22.74c-.156 1.159 1.389 2.096 2.059.868l5.023-9.206c.243-.446 1.763-4.147 2.283-4.184 2.642-.189 2.423 4.647 2.561 6.076.651 6.776.629 13.598.195 20.386-.093 1.448 2.161 1.442 2.253 0 .474-7.415.406-14.838-.376-22.232-.32-3.03-.74-7.032-4.393-7.559-.49-.071-1.014.044-1.272.518l-8.219 15.064 2.059.868c1.082-8.042.949-15.941-.425-23.938-.134-.78-1.062-.947-1.655-.673-4.337 2.005-9.887 4.146-13.54-.329-.857-1.05-2.29.287-1.769 1.365 4.075 8.443 3.299 17.963-1.928 25.719l1.541-.404c-3.423-1.995-2.233-9.13-2.173-12.382.07-3.777.316-7.54.66-11.301.122-1.334-1.815-1.428-2.213-.299a418.143 418.143 0 0 1-9.649 24.844h1.946a67.008 67.008 0 0 1-5.002-18.981c-.141-1.257-1.759-1.537-2.213-.299-2.631 7.17-4.137 14.593-5.554 22.079h2.173A199.65 199.65 0 0 1 68.3 50.341c-.252-1.172-1.822-.963-2.173 0-2.845 7.824-3.635 15.98-4.302 24.221h2.253c.534-7.768.628-15.524.282-23.303-.064-1.447-2.317-1.455-2.253-.003zm97.316-40.901c-3.797 18.776-5.953 38.845-3.78 57.964 1.394 12.262 9.84 27.933 24.673 23.498 1.386-.414.796-2.59-.599-2.173-7.55 2.258-14.748-2.41-18.336-8.947-3.785-6.898-3.915-15.317-4.075-22.984-.328-15.706 1.176-31.368 4.288-46.759.288-1.415-1.884-2.021-2.171-.599z" fill="#006FA2" fill-rule="nonzero"/><path d="M186.398 42.779c-1.587-6.649-8.275-1.375-10.442 1.778-4.371 6.361-6.451 15.617-3.848 23.083 2.365 6.785 8.316 2.356 11.179-1.5 4.985-6.713 7.125-14.939 6.479-23.23-.097-1.251-1.81-1.549-2.213-.299-2.521 7.822-6.7 29.403 5.14 32.17.641.15 1.155-.2 1.386-.787 3.684-9.382 5.926-19.1 6.782-29.138h-2.253c-.174 4.293-1.992 26.707 6.57 25.689 3.678-.437 5.028-6.119 5.98-8.911 2.197-6.445 3.138-13.137 3.106-19.93h-2.253c.289 17.592.586 35.205-.327 52.784-.393 7.571-.112 16.3-2.508 23.557-1.881 5.698-7.297 8.354-12.698 4.703-4.119-2.785-5.817-7.954-7.354-12.41-.47-1.363-2.647-.777-2.173.599 2.332 6.762 5.865 15.311 14.224 15.827 7.555.466 10.361-6.974 11.228-13.185 3.3-23.643 2.253-48.082 1.862-71.875-.024-1.448-2.26-1.453-2.253 0 .02 4.155-.281 8.247-1.117 12.329-.598 2.918-1.815 10.545-4.079 12.326-5.216 4.103-5.811-7.197-6.004-9.902-.275-3.862-.107-7.739.05-11.602.06-1.464-2.131-1.426-2.253 0-.842 9.862-3.087 19.333-6.702 28.539l1.386-.787c-10.044-2.347-5.646-22.946-3.566-29.398l-2.213-.299c.324 4.153.028 8.238-1.184 12.245-1.163 3.846-3.813 10.526-7.557 12.624-6.51 3.647-5.551-9.238-4.947-12.35a25.878 25.878 0 0 1 2.104-6.376c.456-.936.966-1.841 1.53-2.717 1.192-2.781 3.447-3.767 6.766-2.959.335 1.41 2.509.814 2.172-.598z" fill="#006FA2" fill-rule="nonzero"/><path d="M185.865 26.881c16.303 4.638 33.785 6.707 50.689 4.749 5.138-.595 10.53-2.144 13.135-7.036 2.41-4.526 1.518-10.146-.485-14.632-1.775-3.974-5.401-9.575-10.245-9.943-4.49-.341-6.436 4.009-7.43 7.656-4.262 15.632-3.387 32.556-2.546 48.551 1.032 19.62 2.541 39.432-2.392 58.683-.36 1.405 1.812 2.005 2.173.599 8.036-31.362-.971-63.514 2.783-95.218.516-4.356 1.118-9.047 2.486-13.231 1.243-3.802 5.46-5.555 8.643-2.68 1.271 1.148 2.299 2.576 3.189 4.033 4.923 8.071 3.893 18.26-6.566 20.544-8.001 1.747-17.031 1.296-25.14.727-9.397-.659-18.641-2.398-27.694-4.974-1.398-.398-1.994 1.776-.6 2.172z" fill="#006FA2" fill-rule="nonzero"/><path d="M220.812 58.113c5.55.687 11.257 1.358 16.774.072 5.069-1.182 8.959-4.228 12.836-7.538l-1.923-.797 1.146 28.507c.058 1.445 2.312 1.452 2.253 0l-1.146-28.507c-.041-1.019-1.182-1.429-1.923-.797-4.305 3.676-8.506 6.603-14.232 7.344-4.598.596-9.211.028-13.785-.538-1.436-.177-1.423 2.078 0 2.254zm33.884-22.711c.102.092.16.224.155.362-.031.145-.03.153.003.023-.052.119-.047.121.017.006-.064.08-.069.091-.015.033.058-.054.047-.049-.034.015.115-.063.113-.069-.006-.017.13-.033.122-.034-.023-.004a.467.467 0 0 1-.362-.156c.479.374 1.126.467 1.593 0 .389-.389.482-1.217 0-1.593-.881-.687-1.955-.628-2.762.162-.804.787-.836 1.9-.159 2.762.376.479 1.199.394 1.593 0 .473-.473.377-1.113 0-1.593zm6.186 29.206c7.161-1.497 14.738-6.633 12.029-14.944-.21-.646-1.025-1.104-1.655-.673-4.885 3.337-8.316 9.42-6.626 15.46 1.457 5.21 7.208 6.429 11.493 3.61 5.826-3.834 8.269-13.409 10.331-19.623 3.212-9.676 5.307-19.674 7.4-29.637l-2.173-.599c-4.155 19.941-4.817 40.257-2.01 60.432.199 1.43 2.37.821 2.173-.599-2.749-19.755-2.058-39.709 2.01-59.234.295-1.415-1.874-2.02-2.173-.599-2.276 10.838-4.561 21.723-8.275 32.179-1.719 4.841-3.93 13.428-9.003 15.845-4.68 2.23-8.108-.174-7.895-5.449.164-4.06 2.625-7.613 5.885-9.84l-1.655-.673c2.369 7.27-4.601 10.948-10.456 12.173-1.418.295-.817 2.467.6 2.171zm56.244-14.472c.444-2.112-.473-4.073-2.748-4.595-3.249-.746-6.597 2.798-8.299 5.033-2.627 3.449-7.777 16.663-.388 18.148 6.986 1.404 10.351-14.774 11.557-18.907 3.424-11.732 4.841-23.906 4.436-36.11-.034-1.023-1.615-1.654-2.099-.569-2.651 5.94-1.762 13.193-1.9 19.554l-.536 24.735-1.073 49.471c-.031 1.45 2.222 1.45 2.253 0l.987-45.513.472-21.767.258-11.873c.096-4.424-.356-9.345 1.485-13.47l-2.099-.569c.399 12.008-.977 23.967-4.355 35.511a110.51 110.51 0 0 1-2.578 7.733c-.854 2.282-1.855 7.342-4.284 8.574-5.648 2.866-3.515-7.009-2.912-8.801.43-1.277 1.075-2.552 1.796-3.693.591-.962 1.3-1.846 2.112-2.631 1.32-1.582 3.235-1.869 5.744-.861-.3 1.415 1.872 2.02 2.171.6zM56.539 35.061l30.048-10.496c1.36-.475.775-2.653-.599-2.173L55.94 32.889c-1.361.475-.775 2.652.599 2.172z" fill="#006FA2" fill-rule="nonzero"/></g></svg>