<?xml version="1.0" encoding="utf-8"?>
<!-- Generator: Adobe Illustrator 19.0.0, SVG Export Plug-In . SVG Version: 6.00 Build 0)  -->
<svg version="1.1" id="Layer_1" xmlns="http://www.w3.org/2000/svg" xmlns:xlink="http://www.w3.org/1999/xlink" x="0px" y="0px"
	 viewBox="0 0 357 129.2" style="enable-background:new 0 0 357 129.2;" xml:space="preserve">
<style type="text/css">
	.Drop_x0020_Shadow{fill:none;}
	.Outer_x0020_Glow_x0020_5_x0020_pt{fill:none;}
	.Blue_x0020_Neon{fill:none;stroke:#8AACDA;stroke-width:7;stroke-linecap:round;stroke-linejoin:round;}
	.Chrome_x0020_Highlight{fill:url(#SVGID_1_);stroke:#FFFFFF;stroke-width:0.3629;stroke-miterlimit:1;}
	.Jive_GS{fill:#FFDD00;}
	.Alyssa_GS{fill:#A6D0E4;}
	.st0{fill:#FFFFFF;}
</style>
<linearGradient id="SVGID_1_" gradientUnits="userSpaceOnUse" x1="-249.3983" y1="-197.0444" x2="-249.3983" y2="-198.0444">
	<stop  offset="0" style="stop-color:#656565"/>
	<stop  offset="0.618" style="stop-color:#1B1B1B"/>
	<stop  offset="0.6292" style="stop-color:#545454"/>
	<stop  offset="0.9831" style="stop-color:#3E3E3E"/>
</linearGradient>
<path id="XMLID_1_" class="st0" d="M209.7,49.1c-4.5,2.8-7.4,2.9-10.9,5.4c-12.1,21.4-27.6,43.1-45.8,59.6
	c-6.4,5.8-14.3,10.1-21.9,14.5c-1.9,1.1-6.4,0.8-7.7-0.7c-1.4-1.6-1.5-5.8-0.4-7.9c3.6-6.4,7.7-12.6,12.4-18.3
	c16.4-20,36.8-35.5,58.1-49.9c2.6-1.7,4.9-4.4,6.3-7.2c4.1-8.4,18.7-33.2,22.6-41.7c0.5-1.1,1.5-2,2.3-3c0.7,0.3,1.4,0.7,2.2,1
	c-3.8,9.2-20.5,36.6-24.8,47.2c5.8-1.2,12.9-6.5,14.5-7.4c2.1-1.1,5.4-3,7.7-3.4c1.8-0.3,7.5,0.4,8.5,1.7c0.8,1-0.7,6.1-1.8,7.3
	c-3,3.4-6.2,7-10.1,9.3C215.5,59,209.3,57.2,209.7,49.1z M124.6,124.3c19.7,1.2,60.8-48.7,67.5-66.8c-20.2,13-40.9,30.8-55.6,48.9
	C132,111.9,128.6,118.3,124.6,124.3z M228.2,44.2c0.3-0.9,0.2-1.8-0.7-2.7c-1.3-1.3-6.2-0.4-7.5,0.4c-1.7,1-9.2,8.7-6.6,11.1
	c0.3,0.2,5.5,1.7,9.3-2.3C223.9,49.6,227.5,46,228.2,44.2z M74.8,27.6c1.8-0.6,4.1-0.7,5.2-1.9C85.3,20.1,90.5,14.3,95.1,8
	c1.4-1.9,0.9-5.2,1.3-7.9c-2.9,0.1-6.3-0.9-8.5,0.4C78.6,5.7,71.1,13,66.3,22.6c-3.5,6.9-1.7,12.8,4.8,17c2.6,1.7,5.4,3,8.1,4.5
	c5.9,3.4,7.7,7.3,3.6,12.5c-4.7,6-10.3,11.8-16.6,16.1C46.4,86.6,25.2,97.1,0,96.7c6.1,1.2,12.3,1.7,18.3,1.1
	c14.8-1.6,27.8-8.5,40.3-15.9c10.3-6,20.1-12.9,26.7-23.2c4.4-6.9,2.9-12.2-4-16.7c-3.3-2.1-6.9-3.8-9.7-6.4
	c-1.8-1.7-3.6-4.9-3.4-7.2C68.8,21,82.5,3.8,94.3,3.7c-5,6.4-10,12.9-15,19.3c-0.3-0.3-0.6-0.5-1-0.8c0.5-1.6,1.1-3.1,1.6-4.7
	c-0.4-0.2-0.9-0.4-1.3-0.6c-1.7,3.1-3.4,6.2-5.1,9.3C74,26.7,74.4,27.1,74.8,27.6z M273.8,56.9c4.3-12.2,12.8-8.8,21.2-6.9
	c-5.6,3.2-11.2,6.4-16.8,9.6c7.6-0.3,14.1-2.8,19.1-8.3c2.5-2.8,2.2-5.6-1.9-6.2c-3.3-0.5-6.7-0.1-11.3-0.1
	c6.6-5.8,11.5-6.3,17.4-11.4c-0.5-0.6-2-2.9-2.6-3.5c-5.7,4.5-11.5,9.1-17.1,13.5c-0.7-2.4-1.2-4.3-1.7-6.1c-2,0.7-4.1,1.2-6,2.1
	c-1.8,0.8-3.3,2.1-5.5,3.5c0.7-2.4,1.3-4.2,1.8-6.1c-0.3-0.1-0.7-0.2-1-0.3c-5,7-7.9,10.9-12.9,17.9c0.6,0.5,1.2,1,1.7,1.6
	c6.9-6.2,11.7-9.4,18.6-15.6c0.4,0.4,0.9,0.9,1.3,1.3c-2.5,5.3-2.9,7.5-5.4,12.8C273.1,55.3,273.5,56.1,273.8,56.9z M263.2,4.9
	c-0.6-0.4-1.3-0.8-1.9-1.2c-10.6,17.4-19.7,34-29.7,51.9c0.7,0.6,0.6,0.5,1.3,1.1c3.5-2.9,7.1-5.7,10.7-8.5
	c4.4-3.4,8.1-6.4,13.8-7.2c-2.7,5.6-5.4,11.3-8.1,16.9c1,0.4,1.9,0.9,2.9,1.3c0.3-1.3,0.9-2.4,1.5-3.6c2-4,4.1-8,6.1-12
	c0.7-1.3,3.4-7-0.1-6.8c-2.3,0.1-4.7,0.1-6.8,0.9c-4,1.4-10,4.2-12.5,7.7C249.9,31.8,254.3,18.3,263.2,4.9z M129,57.1
	c4.7-4.6,9.4-9.3,14.7-14.6c-0.6,4.1-1.1,6.8-1.8,11c6.8-4.2,11-6.8,17.2-10.6c0,3.9,0,11.4,0,13.5c0.7,0,2.3,0.1,3,0.1
	c0-3.2,0-15.7,0-18.8c-2.9,0.5-12.9,7.6-15.3,9.1c0.5-3.3,0.9-6.1,1.3-8.9c-0.5-0.3-1.1-0.6-1.6-0.9c-3.5,2.7-7.1,5.4-10.9,8.3
	c0.6-2.9,1.1-5.4,1.5-7.9c-0.5-0.2-0.9-0.3-1.4-0.5c-2.9,6.2-5.9,12.4-8.8,18.6C127.6,56,128.3,56.5,129,57.1z M330.4,53.7
	c3.5-2.1,6.5-6.1,9.9-8.4c7.3-5,17.3-15,8.8,11.7c6.5-4.6,9.8-17.8,6.7-19.4c-11.3-4.5-16.9,5.7-21.8,9.8c1.4-4.5,2.6-8.5,3.9-12.6
	c-0.9-0.4-1.7-0.8-2.6-1.2c-4.6,5.6-7.3,11.2-11.9,16.8c0.5,0.5-1,0.9-0.4,1.4c3-3.5,6-7.1,9.8-11.6c-1.7,4.9-2.9,8.5-4.2,12.1
	C329.2,52.8,329.8,53.3,330.4,53.7z M105.5,50.2c3.3-3.2,9.8-8.5,19.4-11.2c-0.4-0.6-0.7-1.1-1.1-1.7c-8.8,0.7-14.7,4.5-20.8,10.4
	c-1.3,1.3-3.2,4-2.4,7.8c3.3,1.4,4.4,1.1,6.3,0.7c3.7-0.8,7.2-2.4,11.4-3.9c-0.2,2.9-0.4,5.1-0.6,8.3c4.6-3.1,5.6-6.7,3.8-10.1
	c-0.6-1.2-4.9-0.9-7.3-0.5C111.8,50.3,105.6,53.5,105.5,50.2z M312,36.4c-10.4,5.9-11.8,15.3-7,19c4.8,3.7,17-6.3,19.4-14.1
	S317.2,33.4,312,36.4z M318.4,44.1c-0.5,1.4-9.4,14.1-12,8.8s3.3-11.7,7.2-13.5C323,35,318.9,42.7,318.4,44.1z"/>
</svg>
