<?xml version="1.0" encoding="utf-8"?>
<!-- Generator: Adobe Illustrator 19.0.0, SVG Export Plug-In . SVG Version: 6.00 Build 0)  -->
<svg version="1.1" xmlns="http://www.w3.org/2000/svg" xmlns:xlink="http://www.w3.org/1999/xlink" x="0px" y="0px"
	 viewBox="0 0 765.2 700" style="enable-background:new 0 0 765.2 700;" xml:space="preserve">
<style type="text/css">
	.Drop_x0020_Shadow{fill:none;}
	.Outer_x0020_Glow_x0020_5_x0020_pt{fill:none;}
	.Blue_x0020_Neon{fill:none;stroke:#8AACDA;stroke-width:7;stroke-linecap:round;stroke-linejoin:round;}
	.Chrome_x0020_Highlight{fill:url(#SVGID_1_);stroke:#FFFFFF;stroke-width:0.3629;stroke-miterlimit:1;}
	.Jive_GS{fill:#FFDD00;}
	.Alyssa_GS{fill:#A6D0E4;}
	.st0{fill:#FFFFFF;}
</style>
<linearGradient id="SVGID_1_" gradientUnits="userSpaceOnUse" x1="-221.7933" y1="107" x2="-221.7933" y2="106">
	<stop  offset="0" style="stop-color:#656565"/>
	<stop  offset="0.618" style="stop-color:#1B1B1B"/>
	<stop  offset="0.6292" style="stop-color:#545454"/>
	<stop  offset="0.9831" style="stop-color:#3E3E3E"/>
</linearGradient>
<g id="Layer_1">
	<path class="st0" d="M339.9,292L339.9,292C339.9,292,339.9,291.9,339.9,292c0-0.3-0.1-0.6-0.1-0.8c-0.1-0.5-0.3-1.4-0.6-2.5
		c0,0,0-0.1,0-0.1l0,0c-0.5-1.9-0.8-3.2-1.1-4c-0.1-0.3-0.2-0.6-0.3-0.9c0,0,0-0.1,0-0.1l0,0c-0.2-0.7-0.6-1.2-1.2-1.2
		c-3.5-6-9.3-10.2-15.5-10.8c-6.9-0.6-12.9,3.2-16.4,10.6l0,0.1c-2.1,5.5-4.2,12.1-3.9,19.3l0.2,0c-0.7,8.8-1.6,24,4.7,31.3
		c2.2,2.6,5.2,4,8.8,4.2c0.3,0,0.6,0,0.9,0c5.2,0,10.1-2.5,14.1-7.4c7.5-9.1,11.2-25.5,10.3-36.5C340,292.8,340,292,339.9,292z
		 M318.7,313.2c-1.2,0.6-2.5,0.5-3.7-0.4c-2.8-2.1-2.3-13.2-0.7-17.4c1.2-3.2,3-5.3,4.4-5.4c0,0,0.1,0,0.1,0c1.1,0,2.2,1.1,3.3,3.2
		c1.4,2.5,0.5,7.2-0.3,11.3c-0.2,1.2-0.5,2.1-0.6,3.2c-0.1,0.2-0.1,0.4-0.1,0.4h0c0,1,0,0.8,0,1.2c0,0.2,0.1,0.5,0.1,0.7
		c0,0.1,0.1,0.3,0.1,0.3v0C321.2,310.8,320.2,312.4,318.7,313.2z"/>
	<path class="st0" d="M390.2,308L390.2,308C390.3,308,390.2,308.1,390.2,308c0-0.2-0.1-0.4-0.1-0.6c-0.1-0.5-0.3-1.3-0.6-2.5
		c0,0,0-0.1,0-0.1l0,0c-0.5-1.9-0.8-3.2-1.1-4c-0.1-0.3-0.2-0.6-0.3-0.9c0,0,0-0.1,0-0.1l0,0c-0.2-0.7-0.6-1.2-1.2-1.2
		c-3.5-6-9.3-10.2-15.5-10.8c-6.9-0.7-12.9,3.2-16.4,10.6l0,0.1c-2.1,5.5-4.2,12.1-3.9,19.3l0.2,0c-0.7,8.8-1.6,24,4.7,31.3
		c2.2,2.6,5.2,4,8.8,4.2c0.3,0,0.6,0,0.9,0c5.2,0,10.1-2.5,14.1-7.4c7.5-9.1,11.2-25.6,10.3-36.6C390.3,308.9,390.3,309,390.2,308z
		 M368.9,329.5c-1.2,0.6-2.4,0.5-3.6-0.4c-2.8-2.1-2.3-13.2-0.7-17.4c1.2-3.2,3-5.3,4.4-5.4c0,0,0.1,0,0.1,0c1.1,0,2.2,1.1,3.3,3.2
		c1.4,2.5,0.5,7.2-0.3,11.3c-0.2,1.2-0.5,2.5-0.6,3.6c-0.1,0.2-0.1,0.7-0.1,0.7h0c0,0,0,0.4,0,0.8c0,0.2-0.1,0.3-0.1,0.6
		c0,0.1-0.1,0.1-0.1,0.1v0C371.2,327.1,370.4,328.7,368.9,329.5z"/>
	<path class="st0" d="M455.9,251.9L455.9,251.9c-0.8-3.4-1.4-6.1-1.8-8.5c-1.4-7.1-2.1-10.5-9-19.3c-1.3-1.6-4-3.2-6.8-3.2
		c0,0,0,0,0,0c-1.7,0-3.2,0.4-4.2,1.7l-0.1,0c-0.8,1.2-1.1,2.7-0.7,4.5c0.7,5.2,1.3,9.1,1.8,12.6c1.2,7.7,2.1,12.8,1.9,24.7
		c0,2-0.2,4.6-1.5,6.8c-1.7,3.1-5.1,4.1-9.1,5.3c-2.2,0.6-4.5,1.3-6.7,2.4c-1.6,0.8-2.9,2.7-4.2,4.5c-0.7,1-1.4,2-2,2.6
		c-3.7,0.4-6.3,4.5-7.3,8.3c-2,7.5-4.2,16-2.9,24c1.6,9.1,7.9,15.5,16.4,16.8c1,0.2,2.1,0.2,3.2,0.2c6.6,0,14.2-2.8,20.1-7.7
		c1.1-0.9,2.2-1.7,3.2-2.4c5.1-3.8,9.5-7.1,10.5-13.4C460.2,290,459.9,268.7,455.9,251.9z M441.9,297.4c0,6.6-3.9,14.1-9.6,18.3
		c-3.1,2.4-6.8,3.4-9.8,2.8c-2-0.4-3.6-1.6-4.5-3.3c-2.4-4.4-0.1-9.1,4.3-15.3l0.1-0.2l0.1-0.2c1.1-2.9,3.1-5.9,6.1-9.1
		c1.6-1.8,3.6-2.8,5.6-2.8c1.4,0,2.7,0.4,3.9,1.3l0,0C441.3,291.2,441.9,294.8,441.9,297.4z"/>
	<path class="st0" d="M517.3,296.2c-0.4-0.3-0.7-0.6-1.2-0.8c0-0.2-0.1-0.3-0.2-0.5c-0.5-1-1.3-0.9-2.1-0.6l0,0c0,0-0.1,0.1-0.3,0.1
		c-0.2,0.1-0.4,0.2-0.6,0.3l-3.2,1.6c0,0,0,0,0,0l0,0c0,0,0,0,0,0c-0.6,0.3-1,0.5-1.4,0.7c-0.3,0.1-0.4,0.2-0.5,0.2l0,0
		c-0.7,0.4-1,0.7-1,1.2c-2.9,3.1-4.2,7.7-5.4,12.3c-1.5,5.6-3,11-7.2,12.7c-2.9,1.2-3.8,0.8-4,0.6c-1.4-1.2,0.2-7.2,1.1-10.8
		c0.2-0.6,0.3-1.2,0.5-1.8c1.1-4.1,2.4-8.1,3.7-12c2.7-8.2,5.5-16.6,6.2-26.1c0.2-3.3,0.1-9.3-1.1-15.1c-1.4-6.7-3.6-10.7-6.5-11.8
		c-2.9-1.1-6.1,0.6-9.5,5.1l-0.3,0.3l0,0.4c-0.1,0.9-0.4,2-0.8,3.1c-0.1,0.3-0.2,0.6-0.3,0.9l0.5,0.2c-2.1,7.8-5.6,22.8-7.7,37.9
		c-3,21.6-2.2,36.3,2.3,43.6c1.8,3,4.3,4.8,7.4,5.4c0.8,0.2,1.7,0.2,2.5,0.2c12,0,23.4-15.3,27.7-26.5
		C516.2,316.8,522.3,300.7,517.3,296.2z"/>
	<path class="st0" d="M580.8,279.7c1.2-3.6,0.9-7.3-0.9-10.5c-4.8-8.6-18.7-8.6-26.1-4.9c-6.6,3.3-12.7,11.9-16.3,23
		c-3.8,11.7-3.7,23.4,0.1,30.6c2.8,5.2,7.3,7.9,12.9,7.9c0.2,0,0.3,0,0.5,0c10.1-0.3,21-9,24.9-17.1c2.4-5.2,2.2-10.1-0.5-12.5
		c-1.4-1.2-4.6-2.7-10.3,1c-2.9,1.9-5,4.6-7,7.2c-2.9,3.8-5.5,7.1-10,7.6c0.6-10.5,7.7-13.4,16.6-17.1c0.1-0.1,0.3-0.1,0.4-0.2
		l0,0.1c0.5-0.2,1-0.5,1.5-0.7c0.2-0.1,0.4-0.2,0.6-0.3l1.4-0.6c0.1,0,0.1-0.1,0.2-0.1c0.2-0.1,0.3-0.1,0.3-0.1l0,0
		c0.2-0.1,0.5-0.3,0.6-0.5C574.3,289.7,579.1,285,580.8,279.7z M557.7,275.6l0.7-0.4l0.2-0.3c0,0,0.1-0.1,0.1-0.1
		c0.8-1.2,1.5-1.1,1.8-1c1.3,0.2,2.8,1.8,3.2,3.5c0.2,1.1,0.2,2.6-1.6,3.8c-1.2,0.8-2.4,1-3.4,0.5c-1.2-0.6-2.1-2-2.2-3.4
		C556.4,277.4,556.6,276.4,557.7,275.6z"/>
	<path class="st0" d="M414.7,448.5c-6.8-8-14.3-12.8-21.9-13.9c-8.7-1.2-19.3,3.7-21.3,13c-0.2,0.8-0.4,2-0.1,3.1l0.1,0.3
		c1.3,2.8,4.9,2.9,6.3,2.9h0.1l0.1-0.1c1.9-0.2,3.8-0.5,5.7-0.9c3-0.6,5.9-1.1,8.8-0.8c3.1,0.1,6,1.1,8.4,2.8
		c2.1,1.6,3.7,3.7,4.2,5.5l0.1,0.4l0.3,0.3c1.1,1.1,1.3,3.1,0.5,4.7c-0.5,0.9-1.4,1.7-2.3,2c-0.1,0-0.3,0.1-0.4,0.1c0,0,0,0,0,0
		l-0.5-0.1l-0.5,0.3c-0.2,0.1-0.4,0.2-0.8,0.3c-2.7,0.6-4.9,0.5-7.3-0.5c-0.2-0.1-0.4-0.3-0.8-0.4l-0.2,0c-2-0.2-4-0.6-6.1-1
		c-3.5-0.8-7.1-1.5-11.1-1c-6.6,1-12.7,6.7-18,16.8c-4.6,8.6-3.7,20.6,2,29.2c1.5,2.3,3.7,4.3,6.7,6.2c9,5.2,21,4.1,29.1-2
		c-0.1,0.2-0.1,0.4-0.2,0.6c-0.6,2.1-1.2,4.2-1.7,6.3c-0.5,1-0.7,2.5-0.1,3.8l0.1,0.1c0.5,0.9,1.4,1.5,2.5,1.7c0.2,0,0.4,0,0.6,0
		c1.8,0,3.8-1.2,5-2.3c9.5-8.9,13.7-21.2,17.7-33.1l1-2.9c1.5-4.7,3.3-10,3.2-15.4C423.7,464.3,420.8,455.8,414.7,448.5z
		 M388.6,480.8l0.3,0.1l0.3,0c2.2,0.1,4.4,1.1,5.8,2.5l0.2,0.2l0.3,0.1c2.9,1.1,4,3.4,2.9,6.3c-2.1,6-9.4,11.1-11.5,12.5
		c-3,2-6.2,2.7-9,2c-2.4-0.6-4.5-2.1-6-4.6c0-0.1-0.1-0.1-0.1-0.2c-0.1-0.2-0.2-0.4-0.3-0.7c-0.9-1.4-1.4-3.3-1.3-5.4
		c0-3.3,1.2-6.2,3.6-9c2.5-2.7,6.4-5,9.9-5c0.9,0,1.9,0.2,2.8,0.5l0.3,0.1l0.3,0C387.7,480.4,388.2,480.5,388.6,480.8z"/>
	<path class="st0" d="M529.4,453.1c-0.2-3.6-0.4-7.4-2-10.7c-2.1-4-5.9-6.4-9.7-6.2c-4.1,0.4-7,3.5-9.5,6.3l-0.1,0.1
		c-4.2,4.7-8.5,9.6-13,14.4l-0.2,0.2c-0.3,0.5-0.8,1.1-1.5,1.4l-0.1,0.1c-0.8,0.4-1.6,0.2-2.1,0c-1.2-0.5-2.3-1.6-2.7-2.8l0-0.1
		c-0.9-2-0.5-4.6-0.2-7.1l0.1-0.7c0.3-2.7,0.5-6.6-1.6-9.6c-3.1-4.2-9-4.4-13-2.4c-2.4,1.1-4.4,2.8-6.1,4.7c0.1-0.3,0.1-0.7,0.2-1
		c0.4-2.2,0.8-4.9-0.1-7.8c-0.9-2.7-3.7-5.3-7.1-4.7c-2.1,0.4-4,2.2-5.5,5.3l-0.1,0.2c-0.2,0.5-18.2,51.2-20.4,78.6
		c-0.3,3.3,0.9,6.9,4,7.2l0.1,0c0.9,0,1.9-0.3,2.6-0.7c7.6-3.7,10.5-12.4,12.6-20.3c2-7.2,4-14.7,5.9-22.2c2-2.3,3.3-5.7,4.3-8.2
		c1.3-3.4,4.5-8.1,8.2-6.9c2.6,0.9,3.7,4.3,3.8,7.2c0,0.5,0,1,0.1,1.4c0.1,3.2,0.3,6.9,2.5,9.5c4,4.9,11.9,3.6,17-0.3
		c1.8-1.4,3.5-3.1,5.1-4.8c2.3-2.3,4.4-4.5,7.1-6.1c0.5-0.3,0.9-0.5,1.3-0.5c0.1,0,0.3,0.1,0.4,0.3c0.4,0.7,0.5,2.1,0.2,3.4
		c-3.3,13.3-11.6,24.3-19.2,33.3c-2.3,2.5-3.7,4.9-4.4,7.1l0,0.1c-0.7,3.2,0.3,7.1,3.5,8.6c0.9,0.4,1.8,0.5,2.8,0.5
		c0.9,0,1.7-0.1,2.5-0.2l0.1,0c10.3-2.3,17.5-11.6,21.6-19C525,486.2,529.4,469.8,529.4,453.1L529.4,453.1z"/>
	<path class="st0" d="M284,216.2c-4.9-2.5-11.3,0.5-15,3.8c-9,7.9-8.9,21.8-8.8,32.7c0.2,20.1,0.3,40.8-4.2,60.5
		c-1.4,6.2-4,18.5-11.7,19.9c-7.5,1.3-10-7.9-13.2-12.7c-5.6-8.3-11.2-16.6-17-24.7c-6.2-8.9-11.9-18.2-17.6-27.5
		c-5.4-8.7-10.5-18.5-17.5-26c-4.7-5.1-11.6-8.2-18.4-5.4c-6.9,2.9-10.7,10.2-13.3,16.8c-6.6,16.8-5.5,35.9-2.7,53.4
		c3.3,20.6,13.3,39.2,17.7,59.5c1.4,6.7,1.8,14,5.9,19.8c2.4,3.4,7.1,6.9,11.6,6.4c8.1-0.8,6.4-13.3,5.6-18.6
		c-1.2-8.5-3.8-16.7-5.4-25.2c-2.6-13-5.3-25.9-8-38.8c-1.4-7-2.8-14-4.1-21c-0.5-2.5-0.9-5-1.3-7.4c-0.2-1.5-0.5-3-0.5-4.5
		c0-6.1,6.1-3.8,9-1.4c10.8,8.9,17.1,23.7,23.3,35.9c6.3,12.6,12.1,26.3,21.2,37.3c9.6,11.5,26.4,19.6,39.9,9.6
		c10.8-8,13.5-22.4,15.1-35c2.6-20.1,6.3-40,9.6-59.9c1.7-10.3,3.2-20.6,4-31C288.5,227.4,290,219.3,284,216.2z"/>
	<path class="st0" d="M419.1,388.5c-12.7-8.9-28.7-6.6-43-4c-54.3,10.1-108.4,21.2-162.3,33.4c0.1-0.1,0.2-0.2,0.3-0.3
		c0.8-0.7,0.4-2.3-0.7-2.5c-7.3-1.3-14.8,4.8-14,12.5c0.9,9.1,12.9,10,19.9,8.8c28-4.8,55.9-11,83.7-16.9
		c1.5,23.6,1.3,47.2,0.1,70.7c-0.6,11.8-1.5,23.5-2.5,35.3c-0.5,5.9-1,11.8-1.6,17.6c-0.6,6.4-1.1,12.6-6.5,16.7
		c-9.9,7.5-22.2,3.8-28.9-6.1c-6-8.9-8.2-20.7-10.3-31.1c-2.4-11.9-3.6-24.1-3.8-36.2c-0.1-7.8,0.8-17.5-6.2-22.9
		c-6.1-4.7-13.2-1.2-17.3,4.4c-5.5,7.4-7.2,17-7.3,26c-0.1,18.1,5.2,36.9,13.8,52.8c8.4,15.6,21.5,30.9,38.1,38
		c16.9,7.3,33.4,0.1,41-16.4c4.6-10,5.3-21.2,6-32.1c0.8-13.5,1.6-27,2.5-40.5c1.6-27,3.3-53.9,4.9-80.9
		c18.6-4.1,37.2-8.3,55.8-12.8c9.2-2.2,18.5-5,27.8-6.8c4.2-0.8,10.4,0.6,11.3-5C419.9,389.5,419.7,388.9,419.1,388.5z"/>
	<path class="st0" d="M272.6,172.9c-5.6-5-11-10.2-16.9-14.8c3.8-5,9.4-11.3,6.9-17.6c0-0.3-0.1-0.5-0.4-0.8
		c-0.2-0.3-0.4-0.4-0.7-0.5c-2.5-1.7-5-0.9-7.8,0.3c-3.4,1.5-6.7,3.4-10,5.2c-3.3,1.7-4.6,2.4-7.4-0.2c-3-2.8-9.7-13.1-14.9-8.5
		c-4.8,4.2-2.9,14.6-3.3,20.2c-0.2,3.5-3.3,4.2-6.1,5.8c-2.7,1.5-5.4,3.1-8.1,4.6c-2.8,1.6-8.1,3.9-6.5,8.1c1.5,3.8,7.6,4.2,11,4.7
		c2.7,0.4,7.8-0.3,8.8,2.8c0.6,1.9,0.3,5.7,0.6,7.7c0.8,5.9,1.2,11.8,1.9,17.7c0.4,3.3,1.4,7,4.7,8.3c9.6,4,12.7-15,13.3-20.6
		c0.5-4.8-1.1-16.4,4.7-18.7c6.5-2.5,15,4.4,20.3,7.1c3.7,1.9,15.1,6,17-0.4C281.2,178.8,275.3,175.3,272.6,172.9z"/>
	<path class="st0" d="M517.1,385.8c-0.1-0.3-0.4-0.6-0.8-0.8c-3.5-2.1-6.9-4.1-10.1-6.1c0.4-3.6,0.5-7.3,0.4-10.9
		c-0.1-2.2-1-5.2-3.2-5c-0.5,0.1-1,0.3-1.5,0.5c-3.7,1.9-7.4,4-11,6.1c-0.6,0.4-7.2-3.9-8.2-4.4c-1.9-1-5.5-3.7-7.5-1.6
		c0.9,2.4,1.9,4.7,3.1,6.9c0.6,1,3.2,4,3,5.1c-0.2,1.1-3.4,2.7-4.2,3.2c-3.7,2.5-9.2,4.7-12.1,8.2c-0.4,0.5-0.6,1.1-0.5,1.7
		c0.1,0.4,0.4,0.7,0.6,1c4,4.1,9.7,0.9,14-0.8c7-2.8,8.6,0.4,9.8,7.1c0.6,3.1,2.3,5.8,3.4,8.8c0.4,1,0.9,2,1.8,2.6
		c4.5,2.6,7.4-7.2,8.3-9.9c0.6-1.9,0.7-5.6,1.8-7.1c1-1.3,3.8-0.4,5.2-0.5C510.7,389.8,518.6,388.6,517.1,385.8z"/>
	<path class="st0" d="M414.4,576.8c-0.1-0.4-0.4-0.7-0.6-0.8c0,0,0,0-0.1-0.1c-1.9-1.4-4.2-1.2-6.5-1.3c-3.3-0.2-6.6-0.4-9.9-0.6
		c-0.9-6.3-1.5-16.7-9.3-17.6c-8.7-1-13.5,9.2-19,14c-6.2,5.3-18.1-3.1-24.6,3.1c-1.6,1.5-1.4,2.9-0.2,4.6c2.8,3.6,7.3,6.6,10.9,9.6
		c-3.8,5.1-7.4,10.3-10.9,15.6c-2.6,3.9-5.9,7.9-6.4,12.8c-0.4,3.1,0.7,6.4,4.1,7c3.9,0.6,7.6-3.1,10.2-5.3c2.7-2.3,5.3-4.6,8-6.8
		c2.6-2.3,5.4-5.4,8.4-7.1c5.4-3.1,8.1,1,11.5,4.4c2.5,2.5,4.9,5.1,7.4,7.6c1.8,1.9,4.8,6.5,8,4.5c2.5-1.5,2.3-4.5,1.9-7.3
		c0.7-0.1,1.4-0.7,1.4-1.5c0.4-5.7,0.6-11.3,0.5-17C406.6,592.5,417,585.9,414.4,576.8z"/>
	<path class="st0" d="M118.2,385.4c5.7-5.6,11.9-13.8,6.5-21.2c-0.1-0.6-0.6-1-1.2-1c-0.3-0.1-0.7,0.1-1,0.3
		c-5.8,2.3-11.6,4.7-17.3,7.1c-4-5-12.4-22.8-17.7-10.3c-1.2,2.8-1.6,5.8-1.9,8.8c-0.3,2.9,0.3,6.8-0.5,9.5c-0.3,1,0.1,0.6-0.5,1.2
		c-0.6,0.6-3,1.2-4,1.7c-2.6,1.2-5.3,2.5-7.9,3.7c-3.9,1.9-7.6,3.8-10.4,7.2c-0.7,0.9-0.4,2.7,1.1,2.6c7.5-0.6,15.1-0.4,22.6-0.2
		c0.6,10.5,1.1,21,1.7,31.5c0.1,1.5,1.9,2,2.8,0.8c0.2-0.3,0.4-0.6,0.7-1c0.6,0.2,1.2,0.3,2,0c2.9-1,4.1-6.6,5-9.2
		c1.6-4.6,2.6-9.3,3-14.1c0.1-0.8-0.2-3.3,0.1-4.1c0.2-0.6,0.2-0.8,0.2-0.8c0.1,0,0.3,0,0.9-0.4c0.8-0.6,2.2-0.7,3.1-1.1
		c0,0,0,0,0.1,0c7.3,0.5,12.3,17,19.9,11.5C132.8,402.3,122.9,390.8,118.2,385.4z"/>
	<path class="st0" d="M642,451.3c0-0.5-0.2-0.9-0.8-1c-3.2-0.5-6.4-0.9-9.6-1.4c-3.3-0.5-7.8-0.1-9.5-3.2c-2.3-4.3-2.1-10.2-5.4-14
		c-1.8-2.2-4-2.4-6.3-0.9c-4.3,2.9-8.1,8.6-11.3,12.7c-0.2,0.2-0.3,0.5-0.3,0.8c-5.8,0.8-22.1-6.7-22.4,0.3
		c-0.1,1.6,1.4,2.6,2.4,3.5c2.3,2.1,4.7,4.2,6.9,6.4c3.4,3.3,2.5,3.7-0.1,7.5c-1.9,2.7-3.7,5.5-5.4,8.4c-1.5,2.5-6.2,8.2-4.9,11.4
		c1.2,3,5.2,1.4,7.3,0.5c3.6-1.6,6.6-4.3,9.6-6.8c2.5-2,8-6.7,11.9-6.2c0.2,0.5,0.7,0.8,1.3,0.5c3.7-1.4,6.5,7.1,7.2,9.3
		c0.7,2.1,1.2,4.3,2.2,6.3c1.4,2.7,3.8,4.8,7,3.6c3.6-1.3,4.4-5.3,4.6-8.7c0.3-6.2-0.2-12.4-1-18.6c3.8-1.6,7.7-3.1,11.4-4.9
		c2.5-1.3,4.4-2.5,5.1-5.3C642,451.5,642,451.4,642,451.3z"/>
	<path class="st0" d="M608.5,97.5C608.5,97.5,608.5,97.5,608.5,97.5c-0.1-0.3-0.2-0.5-0.4-0.7c-3.6-3.7-10.8-3.9-16-4.7
		c-0.1-5.1-0.2-10.3-1-15.3c-0.5-3.2-2-5.1-5.4-5.4c-9.4-1-14.4,9.2-20.3,14.5c-3.3,2.9-12-0.1-16.3-0.6c-2.4-0.3-6.6-1.1-8.3,1.5
		c-3.5,5.6,8.6,12.2,13.5,14.8c-3.9,6.4-7.4,12.9-10.8,19.6c-1.4,2.7-2.3,3.5-1.2,6.3c0.7,1.7,1.7,3.4,3.5,4.2
		c4.5,2.2,9.4-2.7,12.4-5.4c2.4-2.1,4.7-4.5,6.7-7c2-2.5,3.4-5,5.6-7.8c0.2-0.1,0.3-0.2,0.4-0.3c2.9-3.6,5.3,8,5.5,8.8
		c0.8,3.3,1.3,6.7,2.4,9.9c1,3.1,3.1,6.2,6.7,6c4-0.2,4.4-3.9,4.9-7.1c1-7.3,1.5-14.6,1.8-21.9C597.9,106.2,611.4,105.5,608.5,97.5z
		"/>
	<path class="st0" d="M434.5,146.7c-3.8-2.4-7.9-4.1-12.3-5.2c0.4-4.2,0.7-8.7,1.4-12.7c0.7-0.2,1.3-0.8,1.1-1.8
		c-0.2-0.8-0.5-1.6-0.7-2.4c-0.2-0.8-1-1.2-1.8-1c-3.6,0.8-5.4,3.6-6.7,6.8c-0.6,1.6-1.1,3.3-1.7,4.9c-0.7,2.1-0.4,3.6-2.8,3.7
		c-3.2,0.1-3.3-4-5.3-5.8c-1.6-1.4-4.3-2.3-5.5,0.3c-0.6,1.3,0.2,3,0.5,4.2c0.9,3.4,1.9,6.8,2.9,10.1c-3.9,2.7-10.4,6.6-7.7,11.6
		c0.1,0.2,0.2,0.3,0.3,0.5c0,0,0,0,0,0c0,0,0.1,0,0.1,0.1c0.1,0.1,0.3,0.2,0.5,0.3c3.2,1.7,7-0.1,10.4-1.4c1.3,3.8,3.7,9.2,8.1,5.5
		c2.6-2.2,3-5.7,4.6-8.5c2.1-3.8,10.5-5,14.5-6.4C435.4,149,435.7,147.4,434.5,146.7z"/>
</g>
<g id="Layer_2">
	<path class="st0" d="M663.4,212.9c-7.8-18.3-20.6-32.8-38-43.2c-33.7-20.1-76.4-25.9-117.2-15.9C465.5,164.1,406,184.8,365.6,224
		c-7.5,7.3-14.4,14.4-20.9,21.5l-4.3,4.8l6-2.4c12.3-4.9,25-12.3,37.2-19.5c9.2-5.4,18.7-11,27.6-15.2c30.9-14.6,61-23.2,96.5-31.7
		c42.8-10.1,82.4-5,106.1,13.8c16.8,13.3,25.3,32.9,25.2,58.3c0,10.8-0.4,23.5-3,36c-6.9,33.7-28,60.9-45.7,80.8
		c-4.2,4.7-42.3,46.7-43.8,48.1l1,1.1l-1,1.1c0,0-0.1-0.1-0.1-0.1c0.1,0.7-0.9,2.8-6.8,8.7c-1.9,1.9-2.4,2.4-1.9,3.5
		c0.3,0.6,0.9,1,1.6,1.1c0.1,0,0.2,0,0.3,0c1.2,0,4-0.9,18-12.4c8.5-6.9,19.6-16.6,32.2-27.8c21.1-18.9,46-42.3,49.5-47.1
		C671.1,301.9,680.2,252,663.4,212.9z"/>
	<path class="st0" d="M208.8,563.7c-0.6,1.4-18.2-3.4-20.6-4.5c-8.9-4-27.4-12.7-32.9-20.9c-11.3-16.7-12.8-34.2-9-63.8
		c0.7-5,31-66.3,31.9-65.9c-0.9-0.4-1.7-1-2.3-1.8c-1.1,2.4-2.3,4.8-3.4,7.3c-2.1,4.2-6.9,4-9.6,1.6c-1.5,2.9-3,5.9-4.4,8.8
		c-3.5,6.9-10.3,11.4-9.8,10.6c-0.8,0-1.6-0.2-2.3-0.5c-0.7-0.3-19,26.3-20.6,30.6c-6.5,17.3-11.8,36.8-9.2,55.4
		c5.8,40.8,46.1,63.5,84.9,62.1c3.4-0.1,35.1-8.2,36.4-6.6c-2.2-2.6-19.7-2.5-16.7-4.4c-1.6-0.1,4.7-1,3.1-1.1
		C219.6,570,207.5,567,208.8,563.7z"/>
</g>
</svg>
