<?xml version="1.0" encoding="iso-8859-1"?>
<!-- Generator: Adobe Illustrator 19.2.1, SVG Export Plug-In . SVG Version: 6.00 Build 0)  -->
<svg version="1.1" id="logo-signature" xmlns="http://www.w3.org/2000/svg" xmlns:xlink="http://www.w3.org/1999/xlink" x="0px"
	 y="0px" viewBox="0 0 321.751 153.68" style="enable-background:new 0 0 321.751 153.68;" xml:space="preserve">
<g>
	<g>
		<g>
			<path style="fill:#808080;stroke:#808080;stroke-width:0.5639;stroke-miterlimit:10;" d="M62.87,142.498l4.853,10.573h-0.881
				l-1.084-2.386h-6.642l-1.071,2.386h-0.895l4.853-10.573H62.87z M59.467,149.926h5.937l-2.968-6.561L59.467,149.926z"/>
			<path style="fill:#808080;stroke:#808080;stroke-width:0.5639;stroke-miterlimit:10;" d="M77.532,142.498h4.134
				c3.213,0,4.921,2.331,4.921,5.287c0,2.969-1.708,5.287-4.921,5.287h-4.134V142.498z M78.331,143.284v9.001h3.294
				c2.671,0,4.162-1.939,4.162-4.501c0-2.562-1.491-4.501-4.162-4.501H78.331z"/>
			<path style="fill:#808080;stroke:#808080;stroke-width:0.5639;stroke-miterlimit:10;" d="M90.961,142.498h7.266v0.786h-6.466
				v4.216h5.503v0.759h-5.503v4.026h6.466v0.786h-7.266V142.498z"/>
			<path style="fill:#808080;stroke:#808080;stroke-width:0.5639;stroke-miterlimit:10;" d="M102.413,150.428v0.055
				c0,1.179,1.274,2.047,3.321,2.047c1.966,0,3.023-0.826,3.023-1.965c0-1.383-1.491-1.871-3.281-2.413
				c-1.721-0.529-3.768-1.18-3.768-3.091c0-1.654,1.464-2.766,3.755-2.766c2.332,0,3.958,1.152,3.958,2.738v0.123h-0.786v-0.068
				c0-1.179-1.206-2.047-3.172-2.047c-1.884,0-2.914,0.826-2.914,1.965c0,1.355,1.437,1.83,3.158,2.372
				c1.694,0.515,3.904,1.166,3.904,3.144c0,1.668-1.532,2.752-3.877,2.752c-2.413,0-4.107-1.139-4.107-2.739v-0.108H102.413z"/>
			<path style="fill:#808080;stroke:#808080;stroke-width:0.5639;stroke-miterlimit:10;" d="M114.718,142.498v10.573h-0.8v-10.573
				H114.718z"/>
			<path style="fill:#808080;stroke:#808080;stroke-width:0.5639;stroke-miterlimit:10;" d="M124.652,147.635h4.622v5.436h-0.718
				v-1.817c-0.868,1.247-2.372,2.02-4.026,2.02c-3.05,0-5.517-2.454-5.517-5.49c0-3.023,2.467-5.49,5.517-5.49
				c1.803,0,3.416,0.881,4.419,2.236l-0.664,0.461c-0.868-1.152-2.236-1.898-3.755-1.898c-2.589,0-4.703,2.115-4.703,4.69
				c0,2.589,2.114,4.69,4.703,4.69c1.681,0,3.159-0.895,3.985-2.264v-1.87h-3.863V147.635z"/>
			<path style="fill:#808080;stroke:#808080;stroke-width:0.5639;stroke-miterlimit:10;" d="M133.785,153.071v-10.573h0.718
				l7.32,9.205v-9.205h0.8v10.573h-0.719l-7.32-9.191v9.191H133.785z"/>
			<path style="fill:#808080;stroke:#808080;stroke-width:0.5639;stroke-miterlimit:10;" d="M147.675,142.498h7.266v0.786h-6.466
				v4.216h5.503v0.759h-5.503v4.026h6.466v0.786h-7.266V142.498z"/>
			<path style="fill:#808080;stroke:#808080;stroke-width:0.5639;stroke-miterlimit:10;" d="M163.992,142.498
				c2.291,0,3.606,1.572,3.606,3.402c0,1.492-0.868,2.806-2.413,3.267l2.778,3.904h-0.976l-2.67-3.755
				c-0.108,0.013-0.217,0.013-0.326,0.013h-3.863v3.741h-0.8v-10.573H163.992z M160.129,143.257v5.314h3.836
				c1.843,0,2.846-1.247,2.846-2.656c0-1.397-1.003-2.657-2.846-2.657H160.129z"/>
			<path style="fill:#808080;stroke:#808080;stroke-width:0.5639;stroke-miterlimit:10;" d="M183.602,142.295
				c3.037,0,5.503,2.467,5.503,5.49c0,3.036-2.467,5.49-5.503,5.49c-3.05,0-5.517-2.454-5.517-5.49
				C178.085,144.762,180.552,142.295,183.602,142.295z M183.602,152.475c2.576,0,4.69-2.101,4.69-4.69c0-2.576-2.115-4.69-4.69-4.69
				c-2.589,0-4.704,2.115-4.704,4.69C178.898,150.374,181.013,152.475,183.602,152.475z"/>
			<path style="fill:#808080;stroke:#808080;stroke-width:0.5639;stroke-miterlimit:10;" d="M193.412,142.498h6.994v0.786h-6.195
				v4.569h5.368v0.758h-5.368v4.46h-0.8V142.498z"/>
			<path style="fill:#808080;stroke:#808080;stroke-width:0.5639;stroke-miterlimit:10;" d="M211.192,150.428v0.055
				c0,1.179,1.275,2.047,3.322,2.047c1.965,0,3.023-0.826,3.023-1.965c0-1.383-1.491-1.871-3.28-2.413
				c-1.722-0.529-3.768-1.18-3.768-3.091c0-1.654,1.464-2.766,3.755-2.766c2.331,0,3.958,1.152,3.958,2.738v0.123h-0.786v-0.068
				c0-1.179-1.207-2.047-3.172-2.047c-1.884,0-2.914,0.826-2.914,1.965c0,1.355,1.437,1.83,3.159,2.372
				c1.694,0.515,3.904,1.166,3.904,3.144c0,1.668-1.532,2.752-3.877,2.752c-2.413,0-4.108-1.139-4.108-2.739v-0.108H211.192z"/>
			<path style="fill:#808080;stroke:#808080;stroke-width:0.5639;stroke-miterlimit:10;" d="M227.388,142.295
				c3.037,0,5.503,2.467,5.503,5.49c0,3.036-2.467,5.49-5.503,5.49c-3.05,0-5.517-2.454-5.517-5.49
				C221.871,144.762,224.338,142.295,227.388,142.295z M227.388,152.475c2.576,0,4.69-2.101,4.69-4.69c0-2.576-2.115-4.69-4.69-4.69
				c-2.589,0-4.704,2.115-4.704,4.69C222.684,150.374,224.799,152.475,227.388,152.475z"/>
			<path style="fill:#808080;stroke:#808080;stroke-width:0.5639;stroke-miterlimit:10;" d="M241.861,142.498
				c2.291,0,3.606,1.572,3.606,3.402c0,1.492-0.868,2.806-2.413,3.267l2.778,3.904h-0.976l-2.671-3.755
				c-0.108,0.013-0.217,0.013-0.325,0.013h-3.863v3.741h-0.8v-10.573H241.861z M237.998,143.257v5.314h3.836
				c1.843,0,2.846-1.247,2.846-2.656c0-1.397-1.003-2.657-2.846-2.657H237.998z"/>
			<path style="fill:#808080;stroke:#808080;stroke-width:0.5639;stroke-miterlimit:10;" d="M248.433,142.498h8.431v0.786h-3.822
				v9.787h-0.8v-9.787h-3.809V142.498z"/>
			<path style="fill:#808080;stroke:#808080;stroke-width:0.5639;stroke-miterlimit:10;" d="M260.846,150.428v0.055
				c0,1.179,1.275,2.047,3.321,2.047c1.965,0,3.023-0.826,3.023-1.965c0-1.383-1.491-1.871-3.28-2.413
				c-1.722-0.529-3.768-1.18-3.768-3.091c0-1.654,1.464-2.766,3.755-2.766c2.331,0,3.958,1.152,3.958,2.738v0.123h-0.786v-0.068
				c0-1.179-1.207-2.047-3.172-2.047c-1.884,0-2.914,0.826-2.914,1.965c0,1.355,1.437,1.83,3.159,2.372
				c1.694,0.515,3.904,1.166,3.904,3.144c0,1.668-1.532,2.752-3.877,2.752c-2.413,0-4.108-1.139-4.108-2.739v-0.108H260.846z"/>
		</g>
		<g>
			<path style="fill:none;stroke:#FFFFFF;stroke-width:0.8098;stroke-miterlimit:10;" d="M62.87,142.498l4.853,10.573h-0.881
				l-1.084-2.386h-6.642l-1.071,2.386h-0.895l4.853-10.573H62.87z M59.467,149.926h5.937l-2.968-6.561L59.467,149.926z"/>
			<path style="fill:none;stroke:#FFFFFF;stroke-width:0.8098;stroke-miterlimit:10;" d="M77.532,142.498h4.134
				c3.213,0,4.921,2.331,4.921,5.287c0,2.969-1.708,5.287-4.921,5.287h-4.134V142.498z M78.331,143.284v9.001h3.294
				c2.671,0,4.162-1.939,4.162-4.501c0-2.562-1.491-4.501-4.162-4.501H78.331z"/>
			<path style="fill:none;stroke:#FFFFFF;stroke-width:0.8098;stroke-miterlimit:10;" d="M90.961,142.498h7.266v0.786h-6.466v4.216
				h5.503v0.759h-5.503v4.026h6.466v0.786h-7.266V142.498z"/>
			<path style="fill:none;stroke:#FFFFFF;stroke-width:0.8098;stroke-miterlimit:10;" d="M102.413,150.428v0.055
				c0,1.179,1.274,2.047,3.321,2.047c1.966,0,3.023-0.826,3.023-1.965c0-1.383-1.491-1.871-3.281-2.413
				c-1.721-0.529-3.768-1.18-3.768-3.091c0-1.654,1.464-2.766,3.755-2.766c2.332,0,3.958,1.152,3.958,2.738v0.123h-0.786v-0.068
				c0-1.179-1.206-2.047-3.172-2.047c-1.884,0-2.914,0.826-2.914,1.965c0,1.355,1.437,1.83,3.158,2.372
				c1.694,0.515,3.904,1.166,3.904,3.144c0,1.668-1.532,2.752-3.877,2.752c-2.413,0-4.107-1.139-4.107-2.739v-0.108H102.413z"/>
			<path style="fill:none;stroke:#FFFFFF;stroke-width:0.8098;stroke-miterlimit:10;" d="M114.718,142.498v10.573h-0.8v-10.573
				H114.718z"/>
			<path style="fill:none;stroke:#FFFFFF;stroke-width:0.8098;stroke-miterlimit:10;" d="M124.652,147.635h4.622v5.436h-0.718
				v-1.817c-0.868,1.247-2.372,2.02-4.026,2.02c-3.05,0-5.517-2.454-5.517-5.49c0-3.023,2.467-5.49,5.517-5.49
				c1.803,0,3.416,0.881,4.419,2.236l-0.664,0.461c-0.868-1.152-2.236-1.898-3.755-1.898c-2.589,0-4.703,2.115-4.703,4.69
				c0,2.589,2.114,4.69,4.703,4.69c1.681,0,3.159-0.895,3.985-2.264v-1.87h-3.863V147.635z"/>
			<path style="fill:none;stroke:#FFFFFF;stroke-width:0.8098;stroke-miterlimit:10;" d="M133.785,153.071v-10.573h0.718l7.32,9.205
				v-9.205h0.8v10.573h-0.719l-7.32-9.191v9.191H133.785z"/>
			<path style="fill:none;stroke:#FFFFFF;stroke-width:0.8098;stroke-miterlimit:10;" d="M147.675,142.498h7.266v0.786h-6.466v4.216
				h5.503v0.759h-5.503v4.026h6.466v0.786h-7.266V142.498z"/>
			<path style="fill:none;stroke:#FFFFFF;stroke-width:0.8098;stroke-miterlimit:10;" d="M163.992,142.498
				c2.291,0,3.606,1.572,3.606,3.402c0,1.492-0.868,2.806-2.413,3.267l2.778,3.904h-0.976l-2.67-3.755
				c-0.108,0.013-0.217,0.013-0.326,0.013h-3.863v3.741h-0.8v-10.573H163.992z M160.129,143.257v5.314h3.836
				c1.843,0,2.846-1.247,2.846-2.656c0-1.397-1.003-2.657-2.846-2.657H160.129z"/>
			<path style="fill:none;stroke:#FFFFFF;stroke-width:0.8098;stroke-miterlimit:10;" d="M183.602,142.295
				c3.037,0,5.503,2.467,5.503,5.49c0,3.036-2.467,5.49-5.503,5.49c-3.05,0-5.517-2.454-5.517-5.49
				C178.085,144.762,180.552,142.295,183.602,142.295z M183.602,152.475c2.576,0,4.69-2.101,4.69-4.69c0-2.576-2.115-4.69-4.69-4.69
				c-2.589,0-4.704,2.115-4.704,4.69C178.898,150.374,181.013,152.475,183.602,152.475z"/>
			<path style="fill:none;stroke:#FFFFFF;stroke-width:0.8098;stroke-miterlimit:10;" d="M193.412,142.498h6.994v0.786h-6.195v4.569
				h5.368v0.758h-5.368v4.46h-0.8V142.498z"/>
			<path style="fill:none;stroke:#FFFFFF;stroke-width:0.8098;stroke-miterlimit:10;" d="M211.192,150.428v0.055
				c0,1.179,1.275,2.047,3.322,2.047c1.965,0,3.023-0.826,3.023-1.965c0-1.383-1.491-1.871-3.28-2.413
				c-1.722-0.529-3.768-1.18-3.768-3.091c0-1.654,1.464-2.766,3.755-2.766c2.331,0,3.958,1.152,3.958,2.738v0.123h-0.786v-0.068
				c0-1.179-1.207-2.047-3.172-2.047c-1.884,0-2.914,0.826-2.914,1.965c0,1.355,1.437,1.83,3.159,2.372
				c1.694,0.515,3.904,1.166,3.904,3.144c0,1.668-1.532,2.752-3.877,2.752c-2.413,0-4.108-1.139-4.108-2.739v-0.108H211.192z"/>
			<path style="fill:none;stroke:#FFFFFF;stroke-width:0.8098;stroke-miterlimit:10;" d="M227.388,142.295
				c3.037,0,5.503,2.467,5.503,5.49c0,3.036-2.467,5.49-5.503,5.49c-3.05,0-5.517-2.454-5.517-5.49
				C221.871,144.762,224.338,142.295,227.388,142.295z M227.388,152.475c2.576,0,4.69-2.101,4.69-4.69c0-2.576-2.115-4.69-4.69-4.69
				c-2.589,0-4.704,2.115-4.704,4.69C222.684,150.374,224.799,152.475,227.388,152.475z"/>
			<path style="fill:none;stroke:#FFFFFF;stroke-width:0.8098;stroke-miterlimit:10;" d="M241.861,142.498
				c2.291,0,3.606,1.572,3.606,3.402c0,1.492-0.868,2.806-2.413,3.267l2.778,3.904h-0.976l-2.671-3.755
				c-0.108,0.013-0.217,0.013-0.325,0.013h-3.863v3.741h-0.8v-10.573H241.861z M237.998,143.257v5.314h3.836
				c1.843,0,2.846-1.247,2.846-2.656c0-1.397-1.003-2.657-2.846-2.657H237.998z"/>
			<path style="fill:none;stroke:#FFFFFF;stroke-width:0.8098;stroke-miterlimit:10;" d="M248.433,142.498h8.431v0.786h-3.822v9.787
				h-0.8v-9.787h-3.809V142.498z"/>
			<path style="fill:none;stroke:#FFFFFF;stroke-width:0.8098;stroke-miterlimit:10;" d="M260.846,150.428v0.055
				c0,1.179,1.275,2.047,3.321,2.047c1.965,0,3.023-0.826,3.023-1.965c0-1.383-1.491-1.871-3.28-2.413
				c-1.722-0.529-3.768-1.18-3.768-3.091c0-1.654,1.464-2.766,3.755-2.766c2.331,0,3.958,1.152,3.958,2.738v0.123h-0.786v-0.068
				c0-1.179-1.207-2.047-3.172-2.047c-1.884,0-2.914,0.826-2.914,1.965c0,1.355,1.437,1.83,3.159,2.372
				c1.694,0.515,3.904,1.166,3.904,3.144c0,1.668-1.532,2.752-3.877,2.752c-2.413,0-4.108-1.139-4.108-2.739v-0.108H260.846z"/>
		</g>
	</g>
	
		<line style="fill:none;stroke:#FFFFFF;stroke-width:0.8098;stroke-miterlimit:10;" x1="24.559" y1="148.166" x2="44.297" y2="148.166"/>
	
		<line style="fill:none;stroke:#FFFFFF;stroke-width:0.8098;stroke-miterlimit:10;" x1="283.5" y1="148.166" x2="303.238" y2="148.166"/>
</g>
<g>
	<g>
		<g>
			<path style="fill:#FFFFFF;" d="M47.892,33.674C44.716,22.384,37.789,7.872,23.92,8.095c-4.797,0.077-9.794,2.407-12.439,6.509
				c-3.366,5.222-1.988,12.007-0.54,17.633c3.619,14.06,11.907,26.321,16.159,40.151c1.17,3.806,2.221,7.894,2.349,11.883
				c0.112,1.299,0.052,2.594-0.178,3.884c-1.664,1.252-3.328,2.505-4.992,3.757c-1.989,0.44-5.896-1.348-7.622-2.183
				c-6.982-3.38-12.079-9.48-14.427-16.831c-0.439-1.376-2.616-0.788-2.173,0.599c3.155,9.878,12.953,20.746,24.221,20.668
				c13.18-0.09,5.677-21.037,3.201-27.532c-5.24-13.743-14.275-26.935-15.687-41.876C10.716,13.348,21.761,7.044,31.57,12.334
				c8.22,4.433,11.756,13.432,14.149,21.939C46.111,35.667,48.286,35.074,47.892,33.674L47.892,33.674z"/>
		</g>
	</g>
	<g>
		<g>
			<path style="fill:#FFFFFF;" d="M53.303,50.945c-1.431,7.328-2.287,14.695-2.563,22.158c-0.054,1.45,2.2,1.448,2.253,0
				c0.268-7.258,1.09-14.429,2.482-21.559C55.753,50.127,53.581,49.521,53.303,50.945L53.303,50.945z"/>
		</g>
	</g>
	<g>
		<g>
			<path style="fill:#FFFFFF;" d="M62.107,51.256c0.346,7.779,0.252,15.535-0.282,23.303c-0.1,1.452,2.137,1.434,2.253,0
				c0.651-8.043,1.447-15.994,4.221-23.622c-0.724,0-1.448,0-2.173,0c1.628,7.571,3.684,15.005,6.177,22.336
				c0.328,0.966,1.951,1.173,2.173,0c1.417-7.486,2.923-14.909,5.554-22.079c-0.738-0.1-1.475-0.2-2.213-0.299
				c0.788,7.005,2.542,13.638,5.31,20.118c0.315,0.738,1.631,0.739,1.946,0c3.56-8.359,6.856-16.813,9.876-25.382
				c-0.738-0.1-1.475-0.2-2.213-0.299c-0.567,6.215-1.033,12.608-0.606,18.849c0.193,2.82,0.656,5.276,3.235,6.779
				c0.551,0.321,1.2,0.102,1.541-0.404c5.684-8.434,6.338-18.856,1.928-27.993c-0.59,0.455-1.18,0.91-1.769,1.365
				c4.364,5.346,10.918,3.156,16.27,0.682c-0.552-0.224-1.103-0.449-1.655-0.673c1.302,7.575,1.45,15.123,0.425,22.74
				c-0.156,1.159,1.389,2.096,2.059,0.868c1.674-3.069,3.348-6.137,5.023-9.206c0.243-0.446,1.763-4.147,2.283-4.184
				c2.642-0.189,2.423,4.647,2.561,6.076c0.651,6.776,0.629,13.598,0.195,20.386c-0.093,1.448,2.161,1.442,2.253,0
				c0.474-7.415,0.406-14.838-0.376-22.232c-0.32-3.03-0.74-7.032-4.393-7.559c-0.49-0.071-1.014,0.044-1.272,0.518
				c-2.74,5.021-5.479,10.043-8.219,15.064c0.686,0.289,1.373,0.579,2.059,0.868c1.082-8.042,0.949-15.941-0.425-23.938
				c-0.134-0.78-1.062-0.947-1.655-0.673c-4.337,2.005-9.887,4.146-13.54-0.329c-0.857-1.05-2.29,0.287-1.769,1.365
				c4.075,8.443,3.299,17.963-1.928,25.719c0.514-0.135,1.028-0.269,1.541-0.404c-3.423-1.995-2.233-9.13-2.173-12.382
				c0.07-3.777,0.316-7.54,0.66-11.301c0.122-1.334-1.815-1.428-2.213-0.299c-2.955,8.384-6.166,16.665-9.649,24.844
				c0.649,0,1.297,0,1.946,0c-2.605-6.099-4.261-12.393-5.002-18.981c-0.141-1.257-1.759-1.537-2.213-0.299
				c-2.631,7.17-4.137,14.593-5.554,22.079c0.724,0,1.448,0,2.173,0c-2.493-7.332-4.549-14.765-6.177-22.336
				c-0.252-1.172-1.822-0.963-2.173,0c-2.845,7.824-3.635,15.98-4.302,24.221c0.751,0,1.502,0,2.253,0
				c0.534-7.768,0.628-15.524,0.282-23.303C64.296,49.812,62.043,49.804,62.107,51.256L62.107,51.256z"/>
		</g>
	</g>
	<g>
		<g>
			<path style="fill:#FFFFFF;" d="M159.423,10.355c-3.797,18.776-5.953,38.845-3.78,57.964c1.394,12.262,9.84,27.933,24.673,23.498
				c1.386-0.414,0.796-2.59-0.599-2.173c-7.55,2.258-14.748-2.41-18.336-8.947c-3.785-6.898-3.915-15.317-4.075-22.984
				c-0.328-15.706,1.176-31.368,4.288-46.759C161.882,9.539,159.71,8.933,159.423,10.355L159.423,10.355z"/>
		</g>
	</g>
	<g>
		<g>
			<path style="fill:#FFFFFF;" d="M186.398,42.779c-1.587-6.649-8.275-1.375-10.442,1.778c-4.371,6.361-6.451,15.617-3.848,23.083
				c2.365,6.785,8.316,2.356,11.179-1.5c4.985-6.713,7.125-14.939,6.479-23.23c-0.097-1.251-1.81-1.549-2.213-0.299
				c-2.521,7.822-6.7,29.403,5.14,32.17c0.641,0.15,1.155-0.2,1.386-0.787c3.684-9.382,5.926-19.1,6.782-29.138
				c-0.751,0-1.502,0-2.253,0c-0.174,4.293-1.992,26.707,6.57,25.689c3.678-0.437,5.028-6.119,5.98-8.911
				c2.197-6.445,3.138-13.137,3.106-19.93c-0.751,0-1.502,0-2.253,0c0.289,17.592,0.586,35.205-0.327,52.784
				c-0.393,7.571-0.112,16.3-2.508,23.557c-1.881,5.698-7.297,8.354-12.698,4.703c-4.119-2.785-5.817-7.954-7.354-12.41
				c-0.47-1.363-2.647-0.777-2.173,0.599c2.332,6.762,5.865,15.311,14.224,15.827c7.555,0.466,10.361-6.974,11.228-13.185
				c3.3-23.643,2.253-48.082,1.862-71.875c-0.024-1.448-2.26-1.453-2.253,0c0.02,4.155-0.281,8.247-1.117,12.329
				c-0.598,2.918-1.815,10.545-4.079,12.326c-5.216,4.103-5.811-7.197-6.004-9.902c-0.275-3.862-0.107-7.739,0.05-11.602
				c0.06-1.464-2.131-1.426-2.253,0c-0.842,9.862-3.087,19.333-6.702,28.539c0.462-0.262,0.924-0.525,1.386-0.787
				c-10.044-2.347-5.646-22.946-3.566-29.398c-0.738-0.1-1.475-0.2-2.213-0.299c0.324,4.153,0.028,8.238-1.184,12.245
				c-1.163,3.846-3.813,10.526-7.557,12.624c-6.51,3.647-5.551-9.238-4.947-12.35c0.428-2.208,1.121-4.347,2.104-6.376
				c0.456-0.936,0.966-1.841,1.53-2.717c1.192-2.781,3.447-3.767,6.766-2.959C184.561,44.787,186.735,44.191,186.398,42.779
				L186.398,42.779z"/>
		</g>
	</g>
	<g>
		<g>
			<path style="fill:#FFFFFF;" d="M185.865,26.881c16.303,4.638,33.785,6.707,50.689,4.749c5.138-0.595,10.53-2.144,13.135-7.036
				c2.41-4.526,1.518-10.146-0.485-14.632c-1.775-3.974-5.401-9.575-10.245-9.943c-4.49-0.341-6.436,4.009-7.43,7.656
				c-4.262,15.632-3.387,32.556-2.546,48.551c1.032,19.62,2.541,39.432-2.392,58.683c-0.36,1.405,1.812,2.005,2.173,0.599
				c8.036-31.362-0.971-63.514,2.783-95.218c0.516-4.356,1.118-9.047,2.486-13.231c1.243-3.802,5.46-5.555,8.643-2.68
				c1.271,1.148,2.299,2.576,3.189,4.033c4.923,8.071,3.893,18.26-6.566,20.544c-8.001,1.747-17.031,1.296-25.14,0.727
				c-9.397-0.659-18.641-2.398-27.694-4.974C185.067,24.311,184.471,26.485,185.865,26.881L185.865,26.881z"/>
		</g>
	</g>
	<g>
		<g>
			<path style="fill:#FFFFFF;" d="M220.812,58.113c5.55,0.687,11.257,1.358,16.774,0.072c5.069-1.182,8.959-4.228,12.836-7.538
				c-0.641-0.266-1.282-0.531-1.923-0.797c0.382,9.502,0.764,19.005,1.146,28.507c0.058,1.445,2.312,1.452,2.253,0
				c-0.382-9.502-0.764-19.005-1.146-28.507c-0.041-1.019-1.182-1.429-1.923-0.797c-4.305,3.676-8.506,6.603-14.232,7.344
				c-4.598,0.596-9.211,0.028-13.785-0.538C219.376,55.682,219.389,57.937,220.812,58.113L220.812,58.113z"/>
		</g>
	</g>
	<g>
		<g>
			<path style="fill:#FFFFFF;" d="M254.696,35.402c0.107,0.103,0.159,0.224,0.155,0.362c-0.031,0.145-0.03,0.153,0.003,0.023
				c-0.052,0.119-0.047,0.121,0.017,0.006c-0.064,0.08-0.069,0.091-0.015,0.033c0.058-0.054,0.047-0.049-0.034,0.015
				c0.115-0.063,0.113-0.069-0.006-0.017c0.13-0.033,0.122-0.034-0.023-0.004c-0.139,0.003-0.259-0.048-0.362-0.156
				c0.479,0.374,1.126,0.467,1.593,0c0.389-0.389,0.482-1.217,0-1.593c-0.881-0.687-1.955-0.628-2.762,0.162
				c-0.804,0.787-0.836,1.9-0.159,2.762c0.376,0.479,1.199,0.394,1.593,0C255.169,36.522,255.073,35.882,254.696,35.402
				L254.696,35.402z"/>
		</g>
	</g>
	<g>
		<g>
			<path style="fill:#FFFFFF;" d="M260.882,64.608c7.161-1.497,14.738-6.633,12.029-14.944c-0.21-0.646-1.025-1.104-1.655-0.673
				c-4.885,3.337-8.316,9.42-6.626,15.46c1.457,5.21,7.208,6.429,11.493,3.61c5.826-3.834,8.269-13.409,10.331-19.623
				c3.212-9.676,5.307-19.674,7.4-29.637c-0.724-0.2-1.448-0.399-2.173-0.599c-4.155,19.941-4.817,40.257-2.01,60.432
				c0.199,1.43,2.37,0.821,2.173-0.599c-2.749-19.755-2.058-39.709,2.01-59.234c0.295-1.415-1.874-2.02-2.173-0.599
				c-2.276,10.838-4.561,21.723-8.275,32.179c-1.719,4.841-3.93,13.428-9.003,15.845c-4.68,2.23-8.108-0.174-7.895-5.449
				c0.164-4.06,2.625-7.613,5.885-9.84c-0.552-0.224-1.103-0.449-1.655-0.673c2.369,7.27-4.601,10.948-10.456,12.173
				C258.864,62.732,259.465,64.904,260.882,64.608L260.882,64.608z"/>
		</g>
	</g>
	<g>
		<g>
			<path style="fill:#FFFFFF;" d="M317.126,50.136c0.444-2.112-0.473-4.073-2.748-4.595c-3.249-0.746-6.597,2.798-8.299,5.033
				c-2.627,3.449-7.777,16.663-0.388,18.148c6.986,1.404,10.351-14.774,11.557-18.907c3.424-11.732,4.841-23.906,4.436-36.11
				c-0.034-1.023-1.615-1.654-2.099-0.569c-2.651,5.94-1.762,13.193-1.9,19.554c-0.179,8.245-0.358,16.49-0.536,24.735
				c-0.358,16.49-0.715,32.981-1.073,49.471c-0.031,1.45,2.222,1.45,2.253,0c0.329-15.171,0.658-30.342,0.987-45.513
				c0.157-7.256,0.315-14.511,0.472-21.767c0.086-3.958,0.172-7.915,0.258-11.873c0.096-4.424-0.356-9.345,1.485-13.47
				c-0.7-0.19-1.4-0.379-2.099-0.569c0.399,12.008-0.977,23.967-4.355,35.511c-0.763,2.609-1.625,5.188-2.578,7.733
				c-0.854,2.282-1.855,7.342-4.284,8.574c-5.648,2.866-3.515-7.009-2.912-8.801c0.43-1.277,1.075-2.552,1.796-3.693
				c0.597-0.969,1.301-1.846,2.112-2.631c1.32-1.582,3.235-1.869,5.744-0.861C314.655,50.951,316.827,51.556,317.126,50.136
				L317.126,50.136z"/>
		</g>
	</g>
	<g>
		<g>
			<path style="fill:#FFFFFF;" d="M56.539,35.061c10.016-3.499,20.032-6.998,30.048-10.496c1.36-0.475,0.775-2.653-0.599-2.173
				C75.972,25.891,65.956,29.39,55.94,32.889C54.579,33.364,55.165,35.541,56.539,35.061L56.539,35.061z"/>
		</g>
	</g>
</g>
</svg>
