<?xml version="1.0" standalone="no"?>
<!DOCTYPE svg PUBLIC "-//W3C//DTD SVG 1.1//EN" "http://www.w3.org/Graphics/SVG/1.1/DTD/svg11.dtd" >
<svg xmlns="http://www.w3.org/2000/svg">
<metadata></metadata>
<defs>
<font id="lulo_cleanone" horiz-adv-x="2162" >
<font-face units-per-em="2048" ascent="1638" descent="-410" />
<missing-glyph horiz-adv-x="1118" />
<glyph unicode=" "  horiz-adv-x="1118" />
<glyph unicode="&#x09;" horiz-adv-x="1118" />
<glyph unicode="&#xa0;" horiz-adv-x="1118" />
<glyph unicode="!" horiz-adv-x="937" d="M158 80q0 43 31.5 73.5t74.5 30.5t75 -31t32 -73q0 -44 -32 -74.5t-75 -30.5t-74.5 30.5t-31.5 74.5zM199 1597h131l-19 -1185h-94z" />
<glyph unicode="&#x22;" horiz-adv-x="1327" d="M176 1597h119l-12 -649h-95zM618 1597h119l-12 -649h-94z" />
<glyph unicode="#" horiz-adv-x="1939" d="M104 453v114h285l80 461h-264v117h284l80 452h127l-80 -452h418l80 452h125l-80 -452h266v-117h-286l-80 -461h266v-114h-287l-77 -453h-125l77 453h-417l-78 -453h-127l78 453h-265zM516 567h418l80 461h-418z" />
<glyph unicode="$" horiz-adv-x="1644" d="M127 469v16h119v-12q0 -103 106.5 -172.5t280.5 -69.5q166 0 259 65t93 167q0 27 -7.5 51.5t-17 43.5t-31.5 38t-37 31.5t-49.5 28.5t-52.5 24t-61.5 22.5t-61.5 20t-67 20.5q-68 22 -112 38.5t-104.5 43t-98.5 54.5t-74.5 65.5t-54 85t-17.5 103.5q0 144 115 237.5 t307 102.5v176h117v-179q183 -17 297.5 -111t114.5 -229v-14h-119v12q0 101 -101 169.5t-266 68.5q-161 0 -249.5 -63.5t-88.5 -165.5q0 -46 19.5 -83.5t48.5 -64t80.5 -51.5t98.5 -41.5t120 -38.5q186 -55 265 -95q209 -112 214 -294q0 -147 -118 -241.5t-316 -104.5v-174 h-117v176q-193 17 -313.5 112t-120.5 232z" />
<glyph unicode="%" horiz-adv-x="2449" d="M90 1251q0 157 108.5 266t266.5 109t266.5 -109t108.5 -266q0 -156 -109 -266.5t-266 -110.5t-266 110.5t-109 266.5zM199 1251q0 -108 79 -187t187 -79q109 0 186.5 78.5t77.5 187.5q0 108 -78 187.5t-186 79.5q-107 0 -186.5 -80t-79.5 -187zM371 0l1151 1597h141 l-1151 -1597h-141zM1200 354q0 158 108.5 266.5t266.5 108.5t267.5 -108.5t109.5 -266.5t-109.5 -267.5t-267.5 -109.5t-266.5 109.5t-108.5 267.5zM1309 354q0 -108 79 -186t187 -78q109 0 187.5 77.5t78.5 186.5q0 108 -79 187.5t-187 79.5q-107 0 -186.5 -80t-79.5 -187z " />
<glyph unicode="&#x26;" horiz-adv-x="1986" d="M100 326q0 69 26.5 132t58.5 105t99 93.5t105.5 75.5t121.5 72q31 18 46 27q-117 118 -174 212.5t-57 211.5q0 159 113.5 266t279.5 107q161 0 273 -106t112 -256q0 -45 -11.5 -86.5t-27.5 -74.5t-47 -68t-57 -59t-71 -56t-74 -50.5t-81 -50.5l383 -409q136 141 262 325 l93 -75q-135 -194 -273 -338l301 -324h-166l-223 240q-299 -271 -582 -271q-102 0 -185 30t-135.5 80.5t-81 114t-28.5 132.5zM223 334q0 -101 83 -174.5t224 -73.5q228 0 500 242l-401 430q-59 -34 -90 -52.5t-81.5 -51t-78 -55t-62 -56.5t-52 -64t-30 -67.5t-12.5 -77.5z M442 1255q0 -47 14 -89.5t48 -89t66 -82.5t92 -97q53 34 80.5 52t69 47.5t62 49t47 47.5t38.5 53t21 56t9 64q0 105 -79 179.5t-191 74.5q-118 0 -197.5 -75.5t-79.5 -189.5z" />
<glyph unicode="'" horiz-adv-x="886" d="M178 1597h119l-12 -649h-95z" />
<glyph unicode="(" horiz-adv-x="1169" d="M119 799q0 201 42.5 389.5t116.5 338.5t164 268t193 202l76 -94q-96 -77 -178.5 -184.5t-149.5 -245.5t-105 -312t-38 -362t38 -361.5t105 -311t149.5 -245t178.5 -184.5l-76 -94q-103 84 -193 202t-164 267.5t-116.5 337.5t-42.5 389z" />
<glyph unicode=")" horiz-adv-x="1171" d="M49 -303q96 77 178.5 184.5t149.5 245.5t105 312t38 362t-38 361.5t-105 311t-149.5 245t-178.5 184.5l76 94q103 -84 193 -202t164 -267.5t116.5 -337.5t42.5 -389t-42.5 -389.5t-116.5 -338.5t-164 -268t-193 -202z" />
<glyph unicode="*" horiz-adv-x="1488" d="M131 1257l39 113l328 -123l-15 350h119l-16 -354l329 123l37 -113l-342 -94l219 -274l-96 -70l-194 297l-193 -293l-96 70l219 276z" />
<glyph unicode="+" horiz-adv-x="1572" d="M135 690v115h389v389h115v-389h389v-115h-389v-387h-115v387h-389z" />
<glyph unicode="," horiz-adv-x="909" d="M55 -276q90 86 129 144q40 60 54 116q-36 -6 -67.5 23.5t-31.5 72.5q0 42 32 73t75 31q45 0 77.5 -33t32.5 -88q0 -183 -250 -397z" />
<glyph unicode="-" horiz-adv-x="1316" d="M176 608v115h557v-115h-557z" />
<glyph unicode="." horiz-adv-x="905" d="M141 80q0 42 32 73t75 31t73.5 -30.5t30.5 -73.5q0 -44 -30.5 -74.5t-73.5 -30.5t-75 30.5t-32 74.5z" />
<glyph unicode="/" horiz-adv-x="1789" d="M63 -303l1123 2204h133l-1122 -2204h-134z" />
<glyph unicode="0" horiz-adv-x="1900" d="M137 799q0 135 25 258.5t75.5 227.5t122 180.5t170 119.5t213.5 43q116 0 215 -43t171 -119.5t123 -180.5t76.5 -227.5t25.5 -258.5q0 -170 -40.5 -319.5t-116 -263.5t-193 -180.5t-261.5 -66.5q-143 0 -259.5 66.5t-191.5 180.5t-115 263.5t-40 319.5zM258 799 q0 -200 57 -360t168.5 -255.5t259.5 -95.5q149 0 261.5 95.5t170.5 255.5t58 360q0 199 -58 359.5t-170.5 255.5t-261.5 95q-148 0 -259.5 -95t-168.5 -255t-57 -360z" />
<glyph unicode="1" horiz-adv-x="1114" d="M84 1350v127l350 120h84v-1597h-121v1456z" />
<glyph unicode="2" horiz-adv-x="1724" d="M123 0v92l633 615q134 131 178 185q110 134 110 265q0 160 -107 256t-267 96q-81 0 -152.5 -23t-129.5 -69t-92 -123t-34 -176v-26h-119v26q0 103 30.5 189t81.5 144.5t119.5 99t143 59t152.5 18.5q133 0 245 -55.5t181 -164.5t69 -251q0 -64 -18.5 -125.5t-46.5 -111 t-72 -103t-83.5 -94t-91.5 -91.5q-4 -3 -6 -5l-5 -5l-6 -6l-512 -495h856v-121h-1057z" />
<glyph unicode="3" horiz-adv-x="1699" d="M123 121l63 100q217 -133 428 -133q183 0 301.5 96.5t118.5 239.5q0 160 -154 257t-417 97v107q132 0 235.5 31t163.5 82t90.5 109.5t30.5 119.5q0 128 -101 207t-251 79q-146 0 -246 -75t-100 -187v-4h-117v17q0 148 135 256t328 108q126 0 232 -46t172.5 -136.5 t66.5 -208.5q0 -122 -85 -232t-247 -169q182 -52 284.5 -160.5t102.5 -257.5q0 -127 -72 -230t-196 -161t-273 -58q-246 0 -493 152z" />
<glyph unicode="4" horiz-adv-x="1798" d="M78 338v90l653 1169h137l-641 -1142h727v440h119v-440h232v-117h-232v-338h-119v338h-876z" />
<glyph unicode="5" horiz-adv-x="1765" d="M98 305l105 60q75 -127 197 -202t274 -75q194 0 322 116.5t128 289.5q0 77 -28.5 146t-80.5 122.5t-132 85t-176 31.5q-226 0 -412 -189l-105 47l148 860h797v-120h-703l-102 -629q58 51 158.5 96t230.5 45q117 0 216.5 -39.5t166.5 -107.5t105 -158.5t38 -191.5 q0 -146 -74 -265.5t-205 -188.5t-290 -69q-186 0 -338.5 93t-239.5 243z" />
<glyph unicode="6" horiz-adv-x="1746" d="M123 520q0 77 21.5 158t60.5 139l508 780h147l-377 -573q96 41 207 41q149 0 274 -71t198 -196t73 -276q0 -112 -44 -214.5t-119 -176.5t-178.5 -118t-217.5 -44q-150 0 -277.5 74t-201.5 201t-74 276zM242 524q0 -183 126 -309.5t308 -126.5q184 0 312 126t128 308 q0 185 -128 313t-312 128q-107 0 -198 -47.5t-152 -131.5q-84 -116 -84 -260z" />
<glyph unicode="7" horiz-adv-x="1632" d="M96 1477v120h1078v-96l-742 -1501h-137l737 1477h-936z" />
<glyph unicode="8" horiz-adv-x="1802" d="M131 432q0 147 90.5 257t239.5 163q-121 49 -193.5 142.5t-72.5 217.5q0 117 68.5 213t183 149.5t247.5 53.5q134 0 249.5 -53.5t185 -149.5t69.5 -213q0 -124 -73.5 -217.5t-196.5 -142.5q150 -53 241 -163.5t91 -256.5q0 -98 -45.5 -185t-122.5 -147.5t-181 -95.5 t-217 -35q-152 0 -280.5 59t-205.5 166t-77 238zM254 438q0 -152 127 -255t313 -103q187 0 315 103t128 255q0 153 -128 257t-315 104q-186 0 -313 -104t-127 -257zM315 1210q0 -132 109.5 -221.5t269.5 -89.5q162 0 272.5 89.5t110.5 221.5q0 129 -111 219.5t-272 90.5 q-159 0 -269 -90.5t-110 -219.5z" />
<glyph unicode="9" horiz-adv-x="1746" d="M102 1075q0 150 75 277.5t204 201.5t281 74q150 0 277 -74t201 -201t74 -276q0 -78 -21 -158.5t-60 -138.5l-508 -780h-148l377 573q-96 -41 -207 -41q-149 0 -274 71t-198 196t-73 276zM221 1075q0 -184 128 -312t313 -128q107 0 198 47.5t152 130.5q84 116 84 260 q0 183 -126 309.5t-308 126.5q-184 0 -312.5 -126t-128.5 -308z" />
<glyph unicode=":" horiz-adv-x="983" d="M180 80q0 42 32 73t75 31t73.5 -30.5t30.5 -73.5q0 -44 -30.5 -74.5t-73.5 -30.5t-75 30.5t-32 74.5zM180 811q0 42 32 73t75 31t73.5 -30.5t30.5 -73.5q0 -44 -30.5 -74t-73.5 -30t-75 30t-32 74z" />
<glyph unicode=";" horiz-adv-x="1107" d="M174 -276q32 30 47.5 46.5t48.5 54.5t54.5 78t31.5 81q-36 -6 -67 23.5t-31 72.5q0 42 32 73t75 31q45 0 77.5 -33t32.5 -88q0 -183 -250 -397zM264 811q0 42 32 73t75 31t73.5 -30.5t30.5 -73.5q0 -44 -30.5 -74t-73.5 -30t-75 30t-32 74z" />
<glyph unicode="&#x3c;" horiz-adv-x="1640" d="M111 698v103l923 452v-131l-774 -372l774 -373v-131z" />
<glyph unicode="=" horiz-adv-x="1675" d="M186 430v115h891v-115h-891zM186 954v115h891v-115h-891z" />
<glyph unicode="&#x3e;" horiz-adv-x="1640" d="M197 246v131l774 373l-774 372v131l923 -452v-103z" />
<glyph unicode="?" horiz-adv-x="1499" d="M109 1192v51q0 91 39.5 165.5t104.5 121t143 71.5t159 25q180 0 303 -107t123 -284q0 -70 -20 -128t-60 -104.5t-75.5 -76.5t-90.5 -68q-101 -72 -130 -101q-73 -71 -73 -157v-61h-108v73q0 47 14.5 90t33.5 72.5t55.5 63t60.5 51.5t69 49q40 28 64.5 47t54 48t45.5 56 t27.5 64.5t11.5 79.5q0 124 -85.5 201t-221.5 77q-84 0 -156.5 -30.5t-121 -95t-48.5 -150.5v-43h-118zM373 80q0 43 31.5 73.5t74.5 30.5t74 -30.5t31 -73.5q0 -44 -31 -74.5t-74 -30.5t-74.5 30.5t-31.5 74.5z" />
<glyph unicode="@" horiz-adv-x="2445" d="M127 729q0 131 36 256.5t100.5 232t156 196.5t199 153t233.5 98t256 35q174 0 328.5 -66t264 -178.5t173 -267.5t63.5 -328q0 -109 -24.5 -199t-63.5 -148.5t-90.5 -98.5t-103.5 -57t-105 -17q-87 0 -155.5 40t-104.5 109q-133 -110 -295 -110t-271.5 112t-109.5 273 q0 119 63 222.5t168 163.5t224 60q162 0 271.5 -112t109.5 -273q0 -140 -88 -258q21 -58 70 -93.5t116 -35.5q47 0 94.5 22t92 68t72.5 130t28 194q0 206 -95.5 376.5t-264.5 269.5t-375 99q-116 0 -227.5 -31t-207.5 -86.5t-177.5 -135.5t-138.5 -174.5t-89.5 -206 t-32.5 -228.5q0 -203 95 -372.5t264 -269t375 -99.5q201 0 387 94l49 -82q-208 -108 -445 -108q-174 0 -328 65t-262.5 176.5t-171.5 265t-63 324.5zM715 772q0 -124 82.5 -208.5t206.5 -84.5q139 0 242.5 100.5t103.5 237.5q0 124 -83.5 208.5t-207.5 84.5 q-139 0 -241.5 -100.5t-102.5 -237.5z" />
<glyph unicode="A" horiz-adv-x="2064" d="M29 0l733 1597h131l733 -1597h-133l-164 360h-1003l-162 -360h-135zM379 475h897l-449 991z" />
<glyph unicode="B" horiz-adv-x="2023" d="M229 0v1597h721q112 0 203 -33t148 -90.5t87.5 -131t30.5 -156.5q0 -124 -65 -222.5t-176 -146.5q141 -43 224 -148.5t83 -242.5q0 -115 -56.5 -211.5t-164 -155.5t-244.5 -59h-791zM350 113h660q158 0 255 96t97 229q0 132 -97 226t-255 94h-660v-645zM350 860h627 q141 0 230 93t89 221q0 129 -92.5 219t-259.5 90h-594v-623z" />
<glyph unicode="C" horiz-adv-x="2172" d="M115 799q0 168 66 321.5t177.5 264.5t265.5 177t324 66q225 0 416.5 -113.5t302.5 -302.5l-111 -53q-96 159 -257 253.5t-351 94.5q-144 0 -275.5 -56.5t-226.5 -151.5t-151.5 -226t-56.5 -274q0 -144 56.5 -275.5t151.5 -226.5t226.5 -151t275.5 -56q191 0 353 95 t258 255l110 -53q-109 -190 -301.5 -304t-419.5 -114q-170 0 -324 65.5t-265.5 176.5t-177.5 265t-66 323z" />
<glyph unicode="D" horiz-adv-x="2131" d="M229 0v1597h625q177 0 319.5 -62t234.5 -170t140.5 -252.5t48.5 -313.5q0 -170 -48.5 -314.5t-140.5 -253t-234 -170t-320 -61.5h-625zM350 119h498q196 0 340.5 90t216.5 242.5t72 347.5t-72 347.5t-216.5 242.5t-340.5 90h-498v-1360z" />
<glyph unicode="E" horiz-adv-x="1863" d="M229 0v1597h1098v-118h-977v-637h832v-115h-832v-608h977v-119h-1098z" />
<glyph unicode="F" horiz-adv-x="1812" d="M229 0v1597h1057v-118h-936v-691h811v-114h-811v-674h-121z" />
<glyph unicode="G" horiz-adv-x="2220" d="M115 799q0 168 66 321.5t177.5 264.5t265.5 177t324 66q201 0 376.5 -90.5t291.5 -247.5l-100 -69q-100 133 -249.5 209.5t-318.5 76.5q-144 0 -275.5 -56.5t-226.5 -151.5t-151.5 -226t-56.5 -274q0 -144 56.5 -275.5t151.5 -226.5t226.5 -151t275.5 -56q188 0 347.5 92 t254.5 250v283h-583v106h698v-821h-109v274q-99 -142 -260.5 -223.5t-347.5 -81.5q-170 0 -324 65.5t-265.5 176.5t-177.5 265t-66 323z" />
<glyph unicode="H" horiz-adv-x="2207" d="M229 0v1597h121v-755h1098v755h121v-1597h-121v727h-1098v-727h-121z" />
<glyph unicode="I" horiz-adv-x="987" d="M229 0v1597h121v-1597h-121z" />
<glyph unicode="J" horiz-adv-x="1804" d="M90 532v136h123v-136q0 -109 34.5 -195.5t94 -140t135 -81t162.5 -27.5q85 0 160.5 27.5t135 81t94 140t34.5 195.5v1065h121v-1065q0 -108 -28.5 -200t-79 -158t-119 -112.5t-149.5 -69.5t-169 -23q-111 0 -209.5 37t-174.5 105.5t-120.5 177.5t-44.5 243z" />
<glyph unicode="K" horiz-adv-x="2002" d="M229 0v1597h121v-974l1030 974h164l-694 -659l723 -938h-154l-659 852l-410 -389v-463h-121z" />
<glyph unicode="L" horiz-adv-x="1751" d="M229 0v1597h121v-1478h924v-119h-1045z" />
<glyph unicode="M" horiz-adv-x="2488" d="M229 0v1597h115l696 -1384l697 1384h114v-1597h-120v1343l-650 -1292h-84l-647 1288v-1339h-121z" />
<glyph unicode="N" horiz-adv-x="2201" d="M229 0v1597h109l1106 -1390v1390h121v-1597h-109l-1106 1389v-1389h-121z" />
<glyph unicode="O" horiz-adv-x="2304" d="M115 799q0 168 66 321.5t177.5 264.5t265.5 177t324 66q169 0 323 -66t265.5 -177t177.5 -264.5t66 -321.5q0 -169 -66 -323t-177.5 -265t-265.5 -176.5t-323 -65.5q-170 0 -324 65.5t-265.5 176.5t-177.5 265t-66 323zM238 799q0 -144 56.5 -275.5t151.5 -226.5 t226.5 -151t275.5 -56q191 0 354.5 95t259 258.5t95.5 355.5q0 143 -56.5 274t-151.5 226t-226.5 151.5t-274.5 56.5q-144 0 -275.5 -56.5t-226.5 -151.5t-151.5 -226t-56.5 -274z" />
<glyph unicode="P" horiz-adv-x="1929" d="M229 0v1597h617q136 0 248 -44t185.5 -119.5t113 -175t39.5 -211.5q0 -110 -40 -208.5t-112.5 -175t-185 -121t-248.5 -44.5h-496v-498h-121zM350 612h492q108 0 197.5 36t147.5 97t90 139t32 163q0 89 -31.5 168t-90 138.5t-148 94.5t-197.5 35h-492v-871z" />
<glyph unicode="Q" horiz-adv-x="2297" d="M115 799q0 168 65.5 321.5t176.5 264.5t264.5 177t322.5 66q168 0 322 -66t265 -177t177 -264.5t66 -321.5q0 -189 -80.5 -356t-220 -282.5t-314.5 -162.5q53 -27 153.5 -82t162 -87t142 -59.5t142.5 -27.5q141 0 223 111l95 -78q-115 -152 -316 -152q-87 0 -188.5 34.5 t-194 85t-182.5 101.5t-183 89t-167 42q-152 17 -287.5 89t-233 180.5t-154 253t-56.5 301.5zM238 799q0 -115 35.5 -223.5t101 -195.5t152.5 -152.5t194.5 -101.5t222.5 -36q190 0 352.5 95t257.5 258.5t95 355.5q0 143 -56 274t-151 226t-225 151.5t-273 56.5t-274 -56.5 t-225.5 -151.5t-150.5 -226t-56 -274z" />
<glyph unicode="R" horiz-adv-x="2035" d="M229 0v1597h705q167 0 293 -71.5t189 -187t63 -255.5q0 -172 -97 -306.5t-268 -186.5l420 -590h-148l-403 567q-16 -2 -49 -2h-584v-565h-121zM350 680h580q102 0 184.5 32.5t135.5 88t81.5 127.5t28.5 153q0 167 -115 284.5t-315 117.5h-580v-803z" />
<glyph unicode="S" horiz-adv-x="1851" d="M121 383v16h119v-8q0 -136 136.5 -222.5t364.5 -86.5q217 0 337 82t120 215q0 34 -9 65t-22 55.5t-38 48.5t-48 41.5t-61.5 37t-68 32t-78.5 29.5t-82.5 27.5t-88.5 27.5q-56 17 -88.5 27.5t-87 30t-88 35t-80 40t-75 47.5t-60 55t-49.5 66t-29.5 76.5t-11.5 89.5 q0 188 154.5 303t412.5 115q263 0 430.5 -116.5t167.5 -297.5v-18h-118v10q0 136 -130.5 223t-349.5 87q-208 0 -324 -82t-116 -215q0 -43 14 -80.5t34 -65.5t59 -55.5t72 -46t91 -41t97.5 -35.5t109.5 -35q220 -67 317 -114q238 -116 268 -302q5 -29 5 -59 q0 -189 -160 -302.5t-426 -113.5q-273 0 -446.5 116t-173.5 298z" />
<glyph unicode="T" horiz-adv-x="1794" d="M55 1479v118h1274v-118h-577v-1479h-121v1479h-576z" />
<glyph unicode="U" d="M207 604v993h121v-989q0 -232 144.5 -376t404.5 -144q261 0 404.5 143.5t143.5 376.5v989h121v-993q0 -135 -44 -250.5t-126.5 -201.5t-210.5 -134.5t-288 -48.5t-288 48.5t-211 134.5t-127 201.5t-44 250.5z" />
<glyph unicode="V" horiz-adv-x="2064" d="M29 1597h135l663 -1468l666 1468h133l-733 -1597h-129z" />
<glyph unicode="W" horiz-adv-x="2729" d="M49 1597h131l451 -1417l469 1417h119l469 -1417l452 1417h131l-514 -1597h-133l-465 1403l-463 -1403h-133z" />
<glyph unicode="X" horiz-adv-x="1824" d="M35 0l600 805l-588 792h143l517 -694l518 694h143l-588 -792l600 -805h-145l-526 709l-527 -709h-147z" />
<glyph unicode="Y" horiz-adv-x="1910" d="M29 1597h141l580 -886l581 886h142l-662 -1011v-586h-121v584z" />
<glyph unicode="Z" horiz-adv-x="1679" d="M68 0v92l954 1387h-920v118h1086v-92l-957 -1386h953v-119h-1116z" />
<glyph unicode="[" horiz-adv-x="1159" d="M184 -381v2361h494v-116h-373v-2128h373v-117h-494z" />
<glyph unicode="\" horiz-adv-x="1789" d="M63 1898h134l1122 -2203h-133z" />
<glyph unicode="]" horiz-adv-x="1159" d="M72 -264h372v2128h-372v116h493v-2361h-493v117z" />
<glyph unicode="^" horiz-adv-x="1658" d="M121 713l450 884h105l452 -884h-131l-372 733l-373 -733h-131z" />
<glyph unicode="_" horiz-adv-x="1693" d="M80 -164h1124v-110h-1124v110z" />
<glyph unicode="`" horiz-adv-x="972" d="M0 2011l59 105l504 -306l-47 -81z" />
<glyph unicode="a" horiz-adv-x="2064" d="M29 0l733 1597h131l733 -1597h-133l-164 360h-1003l-162 -360h-135zM379 475h897l-449 991z" />
<glyph unicode="b" horiz-adv-x="2023" d="M229 0v1597h721q112 0 203 -33t148 -90.5t87.5 -131t30.5 -156.5q0 -124 -65 -222.5t-176 -146.5q141 -43 224 -148.5t83 -242.5q0 -115 -56.5 -211.5t-164 -155.5t-244.5 -59h-791zM350 113h660q158 0 255 96t97 229q0 132 -97 226t-255 94h-660v-645zM350 860h627 q141 0 230 93t89 221q0 129 -92.5 219t-259.5 90h-594v-623z" />
<glyph unicode="c" horiz-adv-x="2172" d="M115 799q0 168 66 321.5t177.5 264.5t265.5 177t324 66q225 0 416.5 -113.5t302.5 -302.5l-111 -53q-96 159 -257 253.5t-351 94.5q-144 0 -275.5 -56.5t-226.5 -151.5t-151.5 -226t-56.5 -274q0 -144 56.5 -275.5t151.5 -226.5t226.5 -151t275.5 -56q191 0 353 95 t258 255l110 -53q-109 -190 -301.5 -304t-419.5 -114q-170 0 -324 65.5t-265.5 176.5t-177.5 265t-66 323z" />
<glyph unicode="d" horiz-adv-x="2131" d="M229 0v1597h625q177 0 319.5 -62t234.5 -170t140.5 -252.5t48.5 -313.5q0 -170 -48.5 -314.5t-140.5 -253t-234 -170t-320 -61.5h-625zM350 119h498q196 0 340.5 90t216.5 242.5t72 347.5t-72 347.5t-216.5 242.5t-340.5 90h-498v-1360z" />
<glyph unicode="e" horiz-adv-x="1863" d="M229 0v1597h1098v-118h-977v-637h832v-115h-832v-608h977v-119h-1098z" />
<glyph unicode="f" horiz-adv-x="1812" d="M229 0v1597h1057v-118h-936v-691h811v-114h-811v-674h-121z" />
<glyph unicode="g" horiz-adv-x="2220" d="M115 799q0 168 66 321.5t177.5 264.5t265.5 177t324 66q201 0 376.5 -90.5t291.5 -247.5l-100 -69q-100 133 -249.5 209.5t-318.5 76.5q-144 0 -275.5 -56.5t-226.5 -151.5t-151.5 -226t-56.5 -274q0 -144 56.5 -275.5t151.5 -226.5t226.5 -151t275.5 -56q188 0 347.5 92 t254.5 250v283h-583v106h698v-821h-109v274q-99 -142 -260.5 -223.5t-347.5 -81.5q-170 0 -324 65.5t-265.5 176.5t-177.5 265t-66 323z" />
<glyph unicode="h" horiz-adv-x="2207" d="M229 0v1597h121v-755h1098v755h121v-1597h-121v727h-1098v-727h-121z" />
<glyph unicode="i" horiz-adv-x="987" d="M229 0v1597h121v-1597h-121z" />
<glyph unicode="j" horiz-adv-x="1804" d="M90 532v136h123v-136q0 -109 34.5 -195.5t94 -140t135 -81t162.5 -27.5q85 0 160.5 27.5t135 81t94 140t34.5 195.5v1065h121v-1065q0 -108 -28.5 -200t-79 -158t-119 -112.5t-149.5 -69.5t-169 -23q-111 0 -209.5 37t-174.5 105.5t-120.5 177.5t-44.5 243z" />
<glyph unicode="k" horiz-adv-x="2002" d="M229 0v1597h121v-974l1030 974h164l-694 -659l723 -938h-154l-659 852l-410 -389v-463h-121z" />
<glyph unicode="l" horiz-adv-x="1751" d="M229 0v1597h121v-1478h924v-119h-1045z" />
<glyph unicode="m" horiz-adv-x="2488" d="M229 0v1597h115l696 -1384l697 1384h114v-1597h-120v1343l-650 -1292h-84l-647 1288v-1339h-121z" />
<glyph unicode="n" horiz-adv-x="2201" d="M229 0v1597h109l1106 -1390v1390h121v-1597h-109l-1106 1389v-1389h-121z" />
<glyph unicode="o" horiz-adv-x="2304" d="M115 799q0 168 66 321.5t177.5 264.5t265.5 177t324 66q169 0 323 -66t265.5 -177t177.5 -264.5t66 -321.5q0 -169 -66 -323t-177.5 -265t-265.5 -176.5t-323 -65.5q-170 0 -324 65.5t-265.5 176.5t-177.5 265t-66 323zM238 799q0 -144 56.5 -275.5t151.5 -226.5 t226.5 -151t275.5 -56q191 0 354.5 95t259 258.5t95.5 355.5q0 143 -56.5 274t-151.5 226t-226.5 151.5t-274.5 56.5q-144 0 -275.5 -56.5t-226.5 -151.5t-151.5 -226t-56.5 -274z" />
<glyph unicode="p" horiz-adv-x="1929" d="M229 0v1597h617q136 0 248 -44t185.5 -119.5t113 -175t39.5 -211.5q0 -110 -40 -208.5t-112.5 -175t-185 -121t-248.5 -44.5h-496v-498h-121zM350 612h492q108 0 197.5 36t147.5 97t90 139t32 163q0 89 -31.5 168t-90 138.5t-148 94.5t-197.5 35h-492v-871z" />
<glyph unicode="q" horiz-adv-x="2297" d="M115 799q0 168 65.5 321.5t176.5 264.5t264.5 177t322.5 66q168 0 322 -66t265 -177t177 -264.5t66 -321.5q0 -189 -80.5 -356t-220 -282.5t-314.5 -162.5q53 -27 153.5 -82t162 -87t142 -59.5t142.5 -27.5q141 0 223 111l95 -78q-115 -152 -316 -152q-87 0 -188.5 34.5 t-194 85t-182.5 101.5t-183 89t-167 42q-152 17 -287.5 89t-233 180.5t-154 253t-56.5 301.5zM238 799q0 -115 35.5 -223.5t101 -195.5t152.5 -152.5t194.5 -101.5t222.5 -36q190 0 352.5 95t257.5 258.5t95 355.5q0 143 -56 274t-151 226t-225 151.5t-273 56.5t-274 -56.5 t-225.5 -151.5t-150.5 -226t-56 -274z" />
<glyph unicode="r" horiz-adv-x="2035" d="M229 0v1597h705q167 0 293 -71.5t189 -187t63 -255.5q0 -172 -97 -306.5t-268 -186.5l420 -590h-148l-403 567q-16 -2 -49 -2h-584v-565h-121zM350 680h580q102 0 184.5 32.5t135.5 88t81.5 127.5t28.5 153q0 167 -115 284.5t-315 117.5h-580v-803z" />
<glyph unicode="s" horiz-adv-x="1851" d="M121 383v16h119v-8q0 -136 136.5 -222.5t364.5 -86.5q217 0 337 82t120 215q0 34 -9 65t-22 55.5t-38 48.5t-48 41.5t-61.5 37t-68 32t-78.5 29.5t-82.5 27.5t-88.5 27.5q-56 17 -88.5 27.5t-87 30t-88 35t-80 40t-75 47.5t-60 55t-49.5 66t-29.5 76.5t-11.5 89.5 q0 188 154.5 303t412.5 115q263 0 430.5 -116.5t167.5 -297.5v-18h-118v10q0 136 -130.5 223t-349.5 87q-208 0 -324 -82t-116 -215q0 -43 14 -80.5t34 -65.5t59 -55.5t72 -46t91 -41t97.5 -35.5t109.5 -35q220 -67 317 -114q238 -116 268 -302q5 -29 5 -59 q0 -189 -160 -302.5t-426 -113.5q-273 0 -446.5 116t-173.5 298z" />
<glyph unicode="t" horiz-adv-x="1794" d="M55 1479v118h1274v-118h-577v-1479h-121v1479h-576z" />
<glyph unicode="u" d="M207 604v993h121v-989q0 -232 144.5 -376t404.5 -144q261 0 404.5 143.5t143.5 376.5v989h121v-993q0 -135 -44 -250.5t-126.5 -201.5t-210.5 -134.5t-288 -48.5t-288 48.5t-211 134.5t-127 201.5t-44 250.5z" />
<glyph unicode="v" horiz-adv-x="2064" d="M29 1597h135l663 -1468l666 1468h133l-733 -1597h-129z" />
<glyph unicode="w" horiz-adv-x="2729" d="M49 1597h131l451 -1417l469 1417h119l469 -1417l452 1417h131l-514 -1597h-133l-465 1403l-463 -1403h-133z" />
<glyph unicode="x" horiz-adv-x="1824" d="M35 0l600 805l-588 792h143l517 -694l518 694h143l-588 -792l600 -805h-145l-526 709l-527 -709h-147z" />
<glyph unicode="y" horiz-adv-x="1910" d="M29 1597h141l580 -886l581 886h142l-662 -1011v-586h-121v584z" />
<glyph unicode="z" horiz-adv-x="1679" d="M68 0v92l954 1387h-920v118h1086v-92l-957 -1386h953v-119h-1116z" />
<glyph unicode="{" horiz-adv-x="1099" d="M102 745v107h15q103 0 163 63.5t60 147.5q0 55 -24 130t-53 139.5t-53 150t-24 159.5q0 53 12.5 101.5t40 92t68.5 75.5t102 50.5t136 18.5h43v-112h-43q-70 0 -120.5 -21t-76 -56.5t-36.5 -73.5t-11 -81q0 -63 24.5 -143.5t54.5 -145t54.5 -144t24.5 -140.5 q0 -82 -41 -153t-117 -111q76 -40 117 -111.5t41 -152.5q0 -61 -24.5 -140t-54.5 -144t-54.5 -145t-24.5 -143q0 -44 11 -81.5t36.5 -73t76 -56t120.5 -20.5h43v-113h-43q-93 0 -164 28t-112.5 76t-62 107t-20.5 127q0 74 24 159.5t53 149.5t53 139t24 130q0 84 -60 147 t-163 63h-15z" />
<glyph unicode="|" horiz-adv-x="894" d="M184 -379v2357h119v-2357h-119z" />
<glyph unicode="}" horiz-adv-x="1099" d="M102 -270h43q70 0 120.5 21t76 56.5t36.5 73t11 80.5q0 63 -24.5 144t-54.5 145.5t-54.5 144t-24.5 140.5q0 82 41 153t117 111q-76 40 -117 111.5t-41 152.5q0 61 24.5 140t54.5 143.5t54.5 144.5t24.5 143q0 34 -6 65t-23 62.5t-43.5 54t-70.5 36.5t-101 14h-43v112h43 q93 0 164 -28t112.5 -76t62 -107t20.5 -127q0 -74 -24 -159t-53 -149.5t-53 -139t-24 -129.5q0 -84 60 -147.5t163 -63.5h15v-107h-15q-103 0 -163 -63t-60 -147q0 -55 24 -130t53 -140t53 -150.5t24 -159.5q0 -53 -12.5 -101.5t-40 -92t-68.5 -75.5t-102 -50.5t-136 -18.5 h-43v113z" />
<glyph unicode="~" horiz-adv-x="1218" d="M188 530q0 50 11.5 98t35.5 92t68.5 71.5t102.5 27.5q52 0 96 -23.5t112 -88.5q31 -31 49.5 -47t45 -30t51.5 -14q55 0 85.5 52.5t28.5 132.5h95q0 -50 -10.5 -97t-33 -92t-65 -72.5t-100.5 -27.5q-51 0 -90.5 23.5t-112.5 89.5q-39 35 -55 48t-43.5 27.5t-52.5 14.5 q-58 0 -91.5 -52.5t-33.5 -132.5h-93z" />
<glyph unicode="&#xa1;" horiz-adv-x="937" d="M158 1518q0 44 31.5 74t74.5 30t75 -30t32 -74q0 -43 -32 -74t-75 -31t-74.5 31t-31.5 74zM199 0l18 1186h94l19 -1186h-131z" />
<glyph unicode="&#xa2;" horiz-adv-x="1734" d="M129 684q0 141 67.5 264t185 201t259.5 92v178h117v-178q131 -13 243 -85t181 -181l-105 -51q-61 94 -160.5 148t-216.5 54q-186 0 -316 -129.5t-130 -312.5q0 -184 130 -313t316 -129q118 0 218 54t161 148l105 -51q-68 -110 -180.5 -181.5t-245.5 -86.5v-176h-117v176 q-216 22 -364 182.5t-148 376.5z" />
<glyph unicode="&#xa3;" horiz-adv-x="1638" d="M137 0v92q118 72 160.5 162t42.5 213q0 77 -18 176h-179v113h154q-7 23 -30.5 100.5t-32.5 112.5t-19 95t-10 112q0 142 61.5 246t161.5 155t223 51q189 0 314 -117t125 -297v-18h-119v8q0 137 -90 221t-226 84q-140 0 -235.5 -88.5t-95.5 -244.5q0 -60 14 -124 t42 -155.5t40 -140.5h452v-113h-428q15 -99 15 -172q0 -215 -115 -350h729v-121h-936z" />
<glyph unicode="&#xa5;" horiz-adv-x="2004" d="M76 1597h141l580 -886l581 886h142l-492 -749h291v-107h-361l-100 -155v-113h461v-106h-461v-367h-121v367h-458v106h458v111l-102 157h-356v107h286z" />
<glyph unicode="&#xa6;" horiz-adv-x="919" d="M197 -379v1036h118v-1036h-118zM197 942v1036h118v-1036h-118z" />
<glyph unicode="&#xa7;" horiz-adv-x="1531" d="M141 821q0 92 61 162.5t173 103.5q-93 47 -144 108.5t-51 150.5q0 127 102 204.5t275 77.5q176 0 285.5 -86.5t109.5 -243.5v-18h-116v14q0 117 -77 175.5t-200 58.5q-125 0 -193.5 -53t-68.5 -134q0 -27 9 -50.5t22 -41.5t39.5 -36.5t47 -30.5t60.5 -29t65 -26t74 -27 q45 -16 68 -25t68 -28.5t71 -36t60.5 -43t53.5 -53t32.5 -63.5t13.5 -77q0 -91 -60.5 -161t-172.5 -103q192 -95 192 -258q0 -127 -102 -205t-275 -78q-176 0 -284.5 86t-108.5 244v16h115v-12q0 -117 76.5 -175t201.5 -58q124 0 193 53t69 135q0 23 -5 42.5t-19.5 37.5 t-26.5 31.5t-40 29.5t-45 25.5t-56 25t-58.5 23t-66.5 25.5q-44 16 -68.5 25t-69 28.5t-71 35.5t-60.5 42t-52.5 53t-32 63t-13.5 76zM260 819q0 -27 9 -50t21 -41t37.5 -36t46 -30t60.5 -28t65.5 -25.5t75.5 -26.5l11 -4q123 6 199.5 60.5t76.5 139.5q0 27 -9 50.5t-21 41 t-38 36t-46.5 30t-60.5 28t-65 26t-75 26.5l-10 4q-124 -6 -200.5 -60.5t-76.5 -140.5z" />
<glyph unicode="&#xa8;" horiz-adv-x="1044" d="M0 1890q0 38 28 66.5t66 28.5t65 -28t27 -67q0 -38 -27 -65t-65 -27t-66 27t-28 65zM446 1890q0 38 28.5 66.5t66.5 28.5t66 -28.5t28 -66.5t-28 -65t-66 -27q-39 0 -67 27t-28 65z" />
<glyph unicode="&#xa9;" horiz-adv-x="2324" d="M129 799q0 227 110 417.5t300 301t417 110.5q171 0 324.5 -65t264.5 -176t176 -264.5t65 -323.5q0 -171 -65 -324.5t-176 -264.5t-264.5 -176t-324.5 -65q-170 0 -323 65t-263.5 176t-175.5 264.5t-65 324.5zM227 799q0 -198 98 -366t266 -265.5t365 -97.5 q148 0 283.5 58t234 155.5t156.5 232.5t58 283t-58 283t-156 233t-234 156.5t-284 58.5q-197 0 -365 -98.5t-266 -267t-98 -365.5zM559 801q0 111 56 206t151.5 151t206.5 56t207 -56t149 -148l-90 -45q-43 68 -112 107.5t-154 39.5q-129 0 -221.5 -91t-92.5 -220 q0 -130 92.5 -222t221.5 -92q85 0 154.5 40t113.5 108l88 -45q-53 -92 -148.5 -147.5t-207.5 -55.5q-169 0 -291.5 122t-122.5 292z" />
<glyph unicode="&#xaa;" horiz-adv-x="1429" d="M129 1278q0 145 101 247.5t245 102.5q162 0 260 -129v109h96v-660h-96v107q-96 -127 -260 -127q-145 0 -245.5 102t-100.5 248zM227 1278q0 -106 73 -179t179 -73t180 73t74 179q0 105 -74.5 179.5t-179.5 74.5t-178.5 -74.5t-73.5 -179.5z" />
<glyph unicode="&#xab;" horiz-adv-x="1789" d="M123 700v97l516 463v-152l-399 -358l399 -359v-151zM666 700v97l516 463v-152l-400 -358l400 -359v-151z" />
<glyph unicode="&#xad;" horiz-adv-x="1316" d="M176 608v115h557v-115h-557z" />
<glyph unicode="&#xae;" horiz-adv-x="1654" d="M125 1130q0 135 67 249.5t181.5 181.5t249.5 67t249.5 -67t181 -181.5t66.5 -249.5q0 -101 -39.5 -193t-106 -158.5t-158.5 -106t-193 -39.5q-135 0 -249.5 66.5t-181.5 181t-67 249.5zM190 1130q0 -180 126.5 -306t306.5 -126t306 126t126 306t-126 306.5t-306 126.5 t-306.5 -126.5t-126.5 -306.5zM444 901v481h222q75 0 119 -44.5t44 -110.5q0 -48 -25.5 -87.5t-70.5 -56.5l107 -182h-70l-98 170h-166v-170h-62zM506 1133h158q47 0 75.5 28t28.5 66t-28.5 66t-75.5 28h-158v-188z" />
<glyph unicode="&#xaf;" horiz-adv-x="1079" d="M0 1798v100h670v-100h-670z" />
<glyph unicode="&#xb0;" horiz-adv-x="1392" d="M127 1264q0 151 105.5 257.5t256.5 106.5q152 0 259.5 -106.5t107.5 -257.5t-107.5 -257t-259.5 -106q-151 0 -256.5 106t-105.5 257zM221 1264q0 -113 78 -192t190 -79q114 0 193.5 79t79.5 192t-79.5 191.5t-193.5 78.5q-112 0 -190 -78.5t-78 -191.5z" />
<glyph unicode="&#xb1;" horiz-adv-x="1671" d="M184 98v115h893v-115h-893zM184 709v114h389v389h115v-389h389v-114h-389v-387h-115v387h-389z" />
<glyph unicode="&#xb2;" horiz-adv-x="1341" d="M98 559v74l428 393q53 48 77 71.5t56 62t45 74t13 75.5q0 97 -70 156t-174 59q-112 0 -188 -61t-76 -181v-18h-96v18q0 85 31.5 151.5t84 105.5t114.5 59t130 20q142 0 241 -84.5t99 -224.5q0 -32 -8 -64t-16.5 -55.5t-31 -55t-34 -47.5t-44 -48t-43 -41.5t-46.5 -43.5 l-326 -299h557v-96h-723z" />
<glyph unicode="&#xb3;" horiz-adv-x="1327" d="M94 639l51 78q146 -84 285 -84q122 0 199.5 59t77.5 148q0 97 -101.5 157t-277.5 60v82q88 0 157 19t108 50.5t59 67.5t20 74q0 78 -65.5 128t-162.5 50q-96 0 -161.5 -46t-65.5 -116v-4h-92v12q0 100 93 172t226 72q85 0 158 -30.5t119.5 -90.5t46.5 -137 q0 -78 -54.5 -149.5t-158.5 -110.5q117 -34 183.5 -103t66.5 -163q0 -126 -108 -210.5t-263 -84.5q-175 0 -340 100z" />
<glyph unicode="&#xb4;" horiz-adv-x="972" d="M0 1810l504 306l59 -105l-516 -282z" />
<glyph unicode="&#xb6;" horiz-adv-x="1865" d="M94 1087q0 212 148 361t360 149h668v-1597h-121v1483h-307v-1483h-119v580h-121q-212 0 -360 147.5t-148 359.5zM213 1087q0 -161 114.5 -277t274.5 -116h121v789h-121q-160 0 -274.5 -116.5t-114.5 -279.5z" />
<glyph unicode="&#xb7;" horiz-adv-x="976" d="M178 750q0 42 32 73t75 31t73.5 -30.5t30.5 -73.5q0 -44 -30.5 -74.5t-73.5 -30.5t-75 30.5t-32 74.5z" />
<glyph unicode="&#xb8;" horiz-adv-x="966" d="M20 -479l41 84q119 -58 211 -58q80 0 123 37.5t43 89.5q0 59 -56 99t-173 30l-39 43l61 166h78l-47 -137q127 -6 193.5 -68.5t66.5 -142.5q0 -84 -67 -146.5t-179 -62.5q-56 0 -120 16.5t-100 32.5z" />
<glyph unicode="&#xb9;" horiz-adv-x="931" d="M74 1417v103l237 77h66v-1038h-96v926z" />
<glyph unicode="&#xba;" horiz-adv-x="1370" d="M129 1278q0 145 102 247.5t248 102.5t249 -102.5t103 -247.5q0 -146 -103 -248t-249 -102t-248 102t-102 248zM227 1278q0 -106 73 -179t179 -73t180 73t74 179q0 105 -74.5 179.5t-179.5 74.5t-178.5 -74.5t-73.5 -179.5z" />
<glyph unicode="&#xbb;" horiz-adv-x="1792" d="M199 240v151l399 359l-399 358v152l516 -461v-97zM743 240v151l400 359l-400 358v152l517 -461v-97z" />
<glyph unicode="&#xbc;" horiz-adv-x="2347" d="M88 1417v103l238 77h65v-1038h-96v926zM356 0l947 1597h108l-946 -1597h-109zM1016 217v72l442 749h107l-430 -731h471v279h94v-279h153v-90h-153v-217h-94v217h-590z" />
<glyph unicode="&#xbd;" horiz-adv-x="2488" d="M86 1417v103l238 77h65v-1038h-96v926zM354 0l946 1597h109l-946 -1597h-109zM1235 0v74l428 393q52 47 76.5 71.5t56 62.5t44.5 73.5t13 75.5q0 97 -69.5 156t-173.5 59q-112 0 -188 -61t-76 -181v-18h-97v18q0 85 31.5 151.5t84 105.5t115 59t130.5 20q142 0 241 -84.5 t99 -224.5q0 -44 -15 -88.5t-31 -73t-55.5 -72t-56.5 -60t-66 -61.5l-325 -299h557v-96h-723z" />
<glyph unicode="&#xbe;" horiz-adv-x="2596" d="M127 639l51 78q146 -84 285 -84q122 0 199 59t77 148q0 97 -101.5 157t-277.5 60v82q88 0 157 19t108.5 50.5t59.5 67.5t20 74q0 78 -65.5 128t-162.5 50q-96 0 -161.5 -46t-65.5 -116v-4h-92v12q0 100 93 172t226 72q85 0 158 -30.5t119.5 -90.5t46.5 -137 q0 -78 -54.5 -149.5t-158.5 -110.5q117 -34 183.5 -103t66.5 -163q0 -126 -108 -210.5t-263 -84.5q-175 0 -340 100zM606 0l946 1597h109l-946 -1597h-109zM1266 217v72l442 749h107l-431 -731h471v279h95v-279h153v-90h-153v-217h-95v217h-589z" />
<glyph unicode="&#xbf;" horiz-adv-x="1499" d="M109 360q0 70 20 128t59.5 104.5t75.5 76.5t90 68q101 72 130 101q73 71 73 157v62h109v-74q0 -47 -15 -90t-33.5 -72.5t-55.5 -63t-61 -51.5t-69 -49q-40 -28 -64.5 -47t-54 -48t-45.5 -56t-27.5 -64.5t-11.5 -79.5q0 -124 86 -201t222 -77q84 0 156.5 30.5t120.5 95 t48 150.5v43h119v-51q0 -91 -39.5 -165.5t-104.5 -121t-143 -71.5t-159 -25q-180 0 -303 107t-123 284zM506 1516q0 43 31.5 73.5t74.5 30.5t74 -30.5t31 -73.5q0 -44 -31 -74.5t-74 -30.5t-74.5 30.5t-31.5 74.5z" />
<glyph unicode="&#xc0;" horiz-adv-x="2064" d="M29 0l733 1597h131l733 -1597h-133l-164 360h-1003l-162 -360h-135zM379 475h897l-449 991zM547 2011l59 105l504 -306l-47 -81z" />
<glyph unicode="&#xc1;" horiz-adv-x="2064" d="M29 0l733 1597h131l733 -1597h-133l-164 360h-1003l-162 -360h-135zM379 475h897l-449 991zM547 1810l504 306l59 -105l-516 -282z" />
<glyph unicode="&#xc2;" horiz-adv-x="2064" d="M29 0l733 1597h131l733 -1597h-133l-164 360h-1003l-162 -360h-135zM379 475h897l-449 991zM471 1839l354 264l359 -264l-62 -76l-297 213l-293 -213z" />
<glyph unicode="&#xc3;" horiz-adv-x="2064" d="M29 0l733 1597h131l733 -1597h-133l-164 360h-1003l-162 -360h-135zM379 475h897l-449 991zM436 1767q0 50 11.5 98t35 92t68 71.5t102.5 27.5q53 0 97.5 -24t111.5 -88q31 -31 49.5 -47t45 -30t51.5 -14q55 0 85.5 52.5t28.5 132.5h95q0 -50 -10.5 -97t-33 -92 t-65 -72.5t-100.5 -27.5q-51 0 -90.5 23.5t-112.5 89.5q-38 34 -55 48t-44.5 28t-52.5 14q-58 0 -91.5 -52.5t-33.5 -132.5h-92z" />
<glyph unicode="&#xc4;" horiz-adv-x="2064" d="M29 0l733 1597h131l733 -1597h-133l-164 360h-1003l-162 -360h-135zM379 475h897l-449 991zM510 1890q0 38 28 66.5t66 28.5t65 -28t27 -67q0 -38 -27 -65t-65 -27t-66 27t-28 65zM956 1890q0 38 28.5 66.5t66.5 28.5t66 -28.5t28 -66.5t-28 -65t-66 -27q-39 0 -67 27 t-28 65z" />
<glyph unicode="&#xc5;" horiz-adv-x="2064" d="M29 0l733 1597h131l733 -1597h-133l-164 360h-1003l-162 -360h-135zM379 475h897l-449 991zM594 1958q0 97 68 165t167 68q97 0 165.5 -67.5t68.5 -165.5q0 -99 -68.5 -167.5t-165.5 -68.5q-100 0 -167.5 68t-67.5 168zM682 1958q0 -62 43 -105t104 -43q59 0 102.5 43.5 t43.5 104.5q0 58 -43.5 101.5t-102.5 43.5q-61 0 -104 -43t-43 -102z" />
<glyph unicode="&#xc6;" horiz-adv-x="2967" d="M16 0l1295 1597h1118v-118h-977v-637h832v-115h-832v-608h977v-119h-1098v360h-866l-291 -360h-158zM557 475h774v957z" />
<glyph unicode="&#xc7;" horiz-adv-x="2172" d="M115 799q0 168 66 321.5t177.5 264.5t265.5 177t324 66q225 0 416.5 -113.5t302.5 -302.5l-111 -53q-96 159 -257 253.5t-351 94.5q-144 0 -275.5 -56.5t-226.5 -151.5t-151.5 -226t-56.5 -274q0 -144 56.5 -275.5t151.5 -226.5t226.5 -151t275.5 -56q191 0 353 95 t258 255l110 -53q-109 -190 -301.5 -304t-419.5 -114h-2l-41 -121q127 -6 193.5 -68t66.5 -142q0 -84 -66.5 -146.5t-178.5 -62.5q-56 0 -120 16.5t-100 32.5l-36 16l41 84q117 -57 210 -57q80 0 123 37.5t43 89.5q0 59 -56 99t-173 30l-39 43l57 153q-210 19 -382.5 133 t-272.5 297t-100 396z" />
<glyph unicode="&#xc8;" horiz-adv-x="1863" d="M229 0v1597h1098v-118h-977v-637h832v-115h-832v-608h977v-119h-1098zM496 2011l59 105l504 -306l-47 -81z" />
<glyph unicode="&#xc9;" horiz-adv-x="1863" d="M229 0v1597h1098v-118h-977v-637h832v-115h-832v-608h977v-119h-1098zM496 1810l503 306l60 -105l-516 -282z" />
<glyph unicode="&#xca;" horiz-adv-x="1863" d="M229 0v1597h1098v-118h-977v-637h832v-115h-832v-608h977v-119h-1098zM422 1839l354 264l359 -264l-62 -76l-297 213l-293 -213z" />
<glyph unicode="&#xcb;" horiz-adv-x="1863" d="M229 0v1597h1098v-118h-977v-637h832v-115h-832v-608h977v-119h-1098zM461 1890q0 38 28 66.5t66 28.5t65 -28t27 -67q0 -38 -27 -65t-65 -27t-66 27t-28 65zM907 1890q0 38 28 66.5t66 28.5t66.5 -28.5t28.5 -66.5t-28 -65t-67 -27q-38 0 -66 27t-28 65z" />
<glyph unicode="&#xcc;" horiz-adv-x="987" d="M8 2011l60 105l503 -306l-47 -81zM229 0v1597h121v-1597h-121z" />
<glyph unicode="&#xcd;" horiz-adv-x="987" d="M8 1810l504 306l59 -105l-516 -282zM229 0v1597h121v-1597h-121z" />
<glyph unicode="&#xce;" horiz-adv-x="987" d="M-66 1839l355 264l358 -264l-61 -76l-297 213l-293 -213zM229 0v1597h121v-1597h-121z" />
<glyph unicode="&#xcf;" horiz-adv-x="987" d="M-29 1890q0 38 28.5 66.5t66.5 28.5t65 -28t27 -67q0 -38 -27 -65t-65 -27q-39 0 -67 27t-28 65zM229 0v1597h121v-1597h-121zM418 1890q0 38 28 66.5t66 28.5t66 -28.5t28 -66.5t-28 -65t-66 -27t-66 27t-28 65z" />
<glyph unicode="&#xd0;" horiz-adv-x="2134" d="M51 741v109h180v747h625q177 0 319.5 -62t234.5 -170t140.5 -252.5t48.5 -313.5q0 -170 -48.5 -314.5t-140.5 -253t-234 -170t-320 -61.5h-625v741h-180zM352 119h498q196 0 340.5 90t216.5 242.5t72 347.5t-72 347.5t-216.5 242.5t-340.5 90h-498v-629h574v-109h-574 v-622z" />
<glyph unicode="&#xd1;" horiz-adv-x="2201" d="M229 0v1597h109l1106 -1390v1390h121v-1597h-109l-1106 1389v-1389h-121zM506 1767q0 50 11.5 98t35 92t68 71.5t102.5 27.5q53 0 97.5 -24t111.5 -88q31 -31 49 -47t44.5 -30t51.5 -14q55 0 86 52.5t29 132.5h94q0 -50 -10.5 -97t-33 -92t-65 -72.5t-100.5 -27.5 q-51 0 -90.5 23.5t-112.5 89.5q-39 35 -55 48t-43.5 27.5t-52.5 14.5q-58 0 -91.5 -52.5t-33.5 -132.5h-92z" />
<glyph unicode="&#xd2;" horiz-adv-x="2304" d="M115 799q0 168 66 321.5t177.5 264.5t265.5 177t324 66q169 0 323 -66t265.5 -177t177.5 -264.5t66 -321.5q0 -169 -66 -323t-177.5 -265t-265.5 -176.5t-323 -65.5q-170 0 -324 65.5t-265.5 176.5t-177.5 265t-66 323zM238 799q0 -144 56.5 -275.5t151.5 -226.5 t226.5 -151t275.5 -56q191 0 354.5 95t259 258.5t95.5 355.5q0 143 -56.5 274t-151.5 226t-226.5 151.5t-274.5 56.5q-144 0 -275.5 -56.5t-226.5 -151.5t-151.5 -226t-56.5 -274zM666 2011l59 105l504 -306l-47 -81z" />
<glyph unicode="&#xd3;" horiz-adv-x="2304" d="M115 799q0 168 66 321.5t177.5 264.5t265.5 177t324 66q169 0 323 -66t265.5 -177t177.5 -264.5t66 -321.5q0 -169 -66 -323t-177.5 -265t-265.5 -176.5t-323 -65.5q-170 0 -324 65.5t-265.5 176.5t-177.5 265t-66 323zM238 799q0 -144 56.5 -275.5t151.5 -226.5 t226.5 -151t275.5 -56q191 0 354.5 95t259 258.5t95.5 355.5q0 143 -56.5 274t-151.5 226t-226.5 151.5t-274.5 56.5q-144 0 -275.5 -56.5t-226.5 -151.5t-151.5 -226t-56.5 -274zM666 1810l503 306l60 -105l-516 -282z" />
<glyph unicode="&#xd4;" horiz-adv-x="2304" d="M115 799q0 168 66 321.5t177.5 264.5t265.5 177t324 66q169 0 323 -66t265.5 -177t177.5 -264.5t66 -321.5q0 -169 -66 -323t-177.5 -265t-265.5 -176.5t-323 -65.5q-170 0 -324 65.5t-265.5 176.5t-177.5 265t-66 323zM238 799q0 -144 56.5 -275.5t151.5 -226.5 t226.5 -151t275.5 -56q191 0 354.5 95t259 258.5t95.5 355.5q0 143 -56.5 274t-151.5 226t-226.5 151.5t-274.5 56.5q-144 0 -275.5 -56.5t-226.5 -151.5t-151.5 -226t-56.5 -274zM592 1839l354 264l359 -264l-62 -76l-297 213l-293 -213z" />
<glyph unicode="&#xd5;" horiz-adv-x="2304" d="M115 799q0 168 66 321.5t177.5 264.5t265.5 177t324 66q169 0 323 -66t265.5 -177t177.5 -264.5t66 -321.5q0 -169 -66 -323t-177.5 -265t-265.5 -176.5t-323 -65.5q-170 0 -324 65.5t-265.5 176.5t-177.5 265t-66 323zM238 799q0 -144 56.5 -275.5t151.5 -226.5 t226.5 -151t275.5 -56q191 0 354.5 95t259 258.5t95.5 355.5q0 143 -56.5 274t-151.5 226t-226.5 151.5t-274.5 56.5q-144 0 -275.5 -56.5t-226.5 -151.5t-151.5 -226t-56.5 -274zM557 1767q0 50 11.5 98t35 92t68 71.5t102.5 27.5q53 0 97.5 -24t111.5 -88q31 -31 49 -47 t44.5 -30t51.5 -14q55 0 86 52.5t29 132.5h94q0 -50 -10.5 -97t-33 -92t-65 -72.5t-100.5 -27.5q-51 0 -90 23t-112 90q-38 34 -55 48t-44.5 28t-52.5 14q-58 0 -91.5 -52.5t-33.5 -132.5h-92z" />
<glyph unicode="&#xd6;" horiz-adv-x="2304" d="M115 799q0 168 66 321.5t177.5 264.5t265.5 177t324 66q169 0 323 -66t265.5 -177t177.5 -264.5t66 -321.5q0 -169 -66 -323t-177.5 -265t-265.5 -176.5t-323 -65.5q-170 0 -324 65.5t-265.5 176.5t-177.5 265t-66 323zM238 799q0 -144 56.5 -275.5t151.5 -226.5 t226.5 -151t275.5 -56q191 0 354.5 95t259 258.5t95.5 355.5q0 143 -56.5 274t-151.5 226t-226.5 151.5t-274.5 56.5q-144 0 -275.5 -56.5t-226.5 -151.5t-151.5 -226t-56.5 -274zM631 1890q0 38 28 66.5t66 28.5t65 -28t27 -67q0 -38 -27 -65t-65 -27t-66 27t-28 65z M1077 1890q0 38 28 66.5t66 28.5t66.5 -28.5t28.5 -66.5t-28 -65t-67 -27q-38 0 -66 27t-28 65z" />
<glyph unicode="&#xd7;" horiz-adv-x="1628" d="M178 397l350 351l-350 352l80 80l350 -353l353 353l79 -80l-352 -352l352 -351l-79 -80l-353 351l-350 -351z" />
<glyph unicode="&#xd8;" horiz-adv-x="2304" d="M115 799q0 168 66 321.5t177.5 264.5t265.5 177t324 66q147 0 282.5 -49.5t244.5 -140.5l147 159h125l-205 -221q112 -115 175 -264t63 -313q0 -135 -42 -262t-119.5 -229t-180 -178.5t-229 -118.5t-261.5 -42q-300 0 -530 189l-146 -158h-125l203 219 q-111 115 -173 264.5t-62 315.5zM238 799q0 -141 51.5 -267.5t144.5 -222.5l959 1041q-197 157 -445 157q-144 0 -275.5 -56.5t-226.5 -151.5t-151.5 -226t-56.5 -274zM502 248q195 -158 446 -158q191 0 354.5 95t259 258.5t95.5 355.5q0 138 -52 264t-145 223z" />
<glyph unicode="&#xd9;" d="M207 604v993h121v-989q0 -232 144.5 -376t404.5 -144q261 0 404.5 143.5t143.5 376.5v989h121v-993q0 -135 -44 -250.5t-126.5 -201.5t-210.5 -134.5t-288 -48.5t-288 48.5t-211 134.5t-127 201.5t-44 250.5zM594 2011l59 105l504 -306l-47 -81z" />
<glyph unicode="&#xda;" d="M207 604v993h121v-989q0 -232 144.5 -376t404.5 -144q261 0 404.5 143.5t143.5 376.5v989h121v-993q0 -135 -44 -250.5t-126.5 -201.5t-210.5 -134.5t-288 -48.5t-288 48.5t-211 134.5t-127 201.5t-44 250.5zM594 1810l504 306l59 -105l-516 -282z" />
<glyph unicode="&#xdb;" d="M207 604v993h121v-989q0 -232 144.5 -376t404.5 -144q261 0 404.5 143.5t143.5 376.5v989h121v-993q0 -135 -44 -250.5t-126.5 -201.5t-210.5 -134.5t-288 -48.5t-288 48.5t-211 134.5t-127 201.5t-44 250.5zM520 1839l354 264l359 -264l-62 -76l-297 213l-292 -213z" />
<glyph unicode="&#xdc;" d="M207 604v993h121v-989q0 -232 144.5 -376t404.5 -144q261 0 404.5 143.5t143.5 376.5v989h121v-993q0 -135 -44 -250.5t-126.5 -201.5t-210.5 -134.5t-288 -48.5t-288 48.5t-211 134.5t-127 201.5t-44 250.5zM559 1890q0 38 28 66.5t66 28.5t65 -28t27 -67q0 -38 -27 -65 t-65 -27t-66 27t-28 65zM1006 1890q0 38 28 66.5t66 28.5t66 -28.5t28 -66.5t-28 -65t-66 -27t-66 27t-28 65z" />
<glyph unicode="&#xdd;" horiz-adv-x="1910" d="M29 1597h141l580 -886l581 886h142l-662 -1011v-586h-121v584zM471 1810l504 306l59 -105l-516 -282z" />
<glyph unicode="&#xde;" horiz-adv-x="1931" d="M229 0v1597h121v-247h496q181 0 316 -76.5t202.5 -200t67.5 -274.5q0 -110 -40 -208.5t-112.5 -175t-185 -121t-248.5 -44.5h-496v-250h-121zM350 365h492q108 0 197.5 36t147.5 96t90 138t32 164q0 89 -31.5 168t-90 138.5t-148 94.5t-197.5 35h-492v-870z" />
<glyph unicode="&#xdf;" horiz-adv-x="2273" d="M207 0v969q0 104 24 196t77.5 174t133.5 141t199.5 93.5t267.5 34.5q193 0 393.5 -51.5t342.5 -118.5v-101l-480 -442q125 16 235.5 -12t188.5 -89t123 -151t45 -194q0 -208 -148 -345t-386 -137q-327 0 -551 273l98 65q187 -225 447 -225q188 0 304.5 105t116.5 264 q0 116 -74.5 207t-208 129.5t-317.5 -3.5l-59 86l532 490q-329 135 -606 135q-124 0 -223 -28t-165 -76.5t-110 -116t-63.5 -144.5t-19.5 -165v-963h-117z" />
<glyph unicode="&#xe0;" horiz-adv-x="2064" d="M29 0l733 1597h131l733 -1597h-133l-164 360h-1003l-162 -360h-135zM379 475h897l-449 991zM547 2011l59 105l504 -306l-47 -81z" />
<glyph unicode="&#xe1;" horiz-adv-x="2064" d="M29 0l733 1597h131l733 -1597h-133l-164 360h-1003l-162 -360h-135zM379 475h897l-449 991zM547 1810l504 306l59 -105l-516 -282z" />
<glyph unicode="&#xe2;" horiz-adv-x="2064" d="M29 0l733 1597h131l733 -1597h-133l-164 360h-1003l-162 -360h-135zM379 475h897l-449 991zM471 1839l354 264l359 -264l-62 -76l-297 213l-293 -213z" />
<glyph unicode="&#xe3;" horiz-adv-x="2064" d="M29 0l733 1597h131l733 -1597h-133l-164 360h-1003l-162 -360h-135zM379 475h897l-449 991zM436 1767q0 50 11.5 98t35 92t68 71.5t102.5 27.5q53 0 97.5 -24t111.5 -88q31 -31 49.5 -47t45 -30t51.5 -14q55 0 85.5 52.5t28.5 132.5h95q0 -50 -10.5 -97t-33 -92 t-65 -72.5t-100.5 -27.5q-51 0 -90.5 23.5t-112.5 89.5q-38 34 -55 48t-44.5 28t-52.5 14q-58 0 -91.5 -52.5t-33.5 -132.5h-92z" />
<glyph unicode="&#xe4;" horiz-adv-x="2064" d="M29 0l733 1597h131l733 -1597h-133l-164 360h-1003l-162 -360h-135zM379 475h897l-449 991zM510 1890q0 38 28 66.5t66 28.5t65 -28t27 -67q0 -38 -27 -65t-65 -27t-66 27t-28 65zM956 1890q0 38 28.5 66.5t66.5 28.5t66 -28.5t28 -66.5t-28 -65t-66 -27q-39 0 -67 27 t-28 65z" />
<glyph unicode="&#xe5;" horiz-adv-x="2064" d="M29 0l733 1597h131l733 -1597h-133l-164 360h-1003l-162 -360h-135zM379 475h897l-449 991zM594 1958q0 97 68 165t167 68q97 0 165.5 -67.5t68.5 -165.5q0 -99 -68.5 -167.5t-165.5 -68.5q-100 0 -167.5 68t-67.5 168zM682 1958q0 -62 43 -105t104 -43q59 0 102.5 43.5 t43.5 104.5q0 58 -43.5 101.5t-102.5 43.5q-61 0 -104 -43t-43 -102z" />
<glyph unicode="&#xe6;" horiz-adv-x="2967" d="M16 0l1295 1597h1118v-118h-977v-637h832v-115h-832v-608h977v-119h-1098v360h-866l-291 -360h-158zM557 475h774v957z" />
<glyph unicode="&#xe7;" horiz-adv-x="2172" d="M115 799q0 168 66 321.5t177.5 264.5t265.5 177t324 66q225 0 416.5 -113.5t302.5 -302.5l-111 -53q-96 159 -257 253.5t-351 94.5q-144 0 -275.5 -56.5t-226.5 -151.5t-151.5 -226t-56.5 -274q0 -144 56.5 -275.5t151.5 -226.5t226.5 -151t275.5 -56q191 0 353 95 t258 255l110 -53q-109 -190 -301.5 -304t-419.5 -114h-2l-41 -121q127 -6 193.5 -68t66.5 -142q0 -84 -66.5 -146.5t-178.5 -62.5q-56 0 -120 16.5t-100 32.5l-36 16l41 84q117 -57 210 -57q80 0 123 37.5t43 89.5q0 59 -56 99t-173 30l-39 43l57 153q-210 19 -382.5 133 t-272.5 297t-100 396z" />
<glyph unicode="&#xe8;" horiz-adv-x="1863" d="M229 0v1597h1098v-118h-977v-637h832v-115h-832v-608h977v-119h-1098zM496 2011l59 105l504 -306l-47 -81z" />
<glyph unicode="&#xe9;" horiz-adv-x="1863" d="M229 0v1597h1098v-118h-977v-637h832v-115h-832v-608h977v-119h-1098zM496 1810l503 306l60 -105l-516 -282z" />
<glyph unicode="&#xea;" horiz-adv-x="1863" d="M229 0v1597h1098v-118h-977v-637h832v-115h-832v-608h977v-119h-1098zM422 1839l354 264l359 -264l-62 -76l-297 213l-293 -213z" />
<glyph unicode="&#xeb;" horiz-adv-x="1863" d="M229 0v1597h1098v-118h-977v-637h832v-115h-832v-608h977v-119h-1098zM461 1890q0 38 28 66.5t66 28.5t65 -28t27 -67q0 -38 -27 -65t-65 -27t-66 27t-28 65zM907 1890q0 38 28 66.5t66 28.5t66.5 -28.5t28.5 -66.5t-28 -65t-67 -27q-38 0 -66 27t-28 65z" />
<glyph unicode="&#xec;" horiz-adv-x="987" d="M8 2011l60 105l503 -306l-47 -81zM229 0v1597h121v-1597h-121z" />
<glyph unicode="&#xed;" horiz-adv-x="987" d="M8 1810l504 306l59 -105l-516 -282zM229 0v1597h121v-1597h-121z" />
<glyph unicode="&#xee;" horiz-adv-x="987" d="M-66 1839l355 264l358 -264l-61 -76l-297 213l-293 -213zM229 0v1597h121v-1597h-121z" />
<glyph unicode="&#xef;" horiz-adv-x="987" d="M-29 1890q0 38 28.5 66.5t66.5 28.5t65 -28t27 -67q0 -38 -27 -65t-65 -27q-39 0 -67 27t-28 65zM229 0v1597h121v-1597h-121zM418 1890q0 38 28 66.5t66 28.5t66 -28.5t28 -66.5t-28 -65t-66 -27t-66 27t-28 65z" />
<glyph unicode="&#xf0;" horiz-adv-x="2134" d="M51 741v109h180v747h625q177 0 319.5 -62t234.5 -170t140.5 -252.5t48.5 -313.5q0 -170 -48.5 -314.5t-140.5 -253t-234 -170t-320 -61.5h-625v741h-180zM352 119h498q196 0 340.5 90t216.5 242.5t72 347.5t-72 347.5t-216.5 242.5t-340.5 90h-498v-629h574v-109h-574 v-622z" />
<glyph unicode="&#xf1;" horiz-adv-x="2201" d="M229 0v1597h109l1106 -1390v1390h121v-1597h-109l-1106 1389v-1389h-121zM506 1767q0 50 11.5 98t35 92t68 71.5t102.5 27.5q53 0 97.5 -24t111.5 -88q31 -31 49 -47t44.5 -30t51.5 -14q55 0 86 52.5t29 132.5h94q0 -50 -10.5 -97t-33 -92t-65 -72.5t-100.5 -27.5 q-51 0 -90.5 23.5t-112.5 89.5q-39 35 -55 48t-43.5 27.5t-52.5 14.5q-58 0 -91.5 -52.5t-33.5 -132.5h-92z" />
<glyph unicode="&#xf2;" horiz-adv-x="2304" d="M115 799q0 168 66 321.5t177.5 264.5t265.5 177t324 66q169 0 323 -66t265.5 -177t177.5 -264.5t66 -321.5q0 -169 -66 -323t-177.5 -265t-265.5 -176.5t-323 -65.5q-170 0 -324 65.5t-265.5 176.5t-177.5 265t-66 323zM238 799q0 -144 56.5 -275.5t151.5 -226.5 t226.5 -151t275.5 -56q191 0 354.5 95t259 258.5t95.5 355.5q0 143 -56.5 274t-151.5 226t-226.5 151.5t-274.5 56.5q-144 0 -275.5 -56.5t-226.5 -151.5t-151.5 -226t-56.5 -274zM666 2011l59 105l504 -306l-47 -81z" />
<glyph unicode="&#xf3;" horiz-adv-x="2304" d="M115 799q0 168 66 321.5t177.5 264.5t265.5 177t324 66q169 0 323 -66t265.5 -177t177.5 -264.5t66 -321.5q0 -169 -66 -323t-177.5 -265t-265.5 -176.5t-323 -65.5q-170 0 -324 65.5t-265.5 176.5t-177.5 265t-66 323zM238 799q0 -144 56.5 -275.5t151.5 -226.5 t226.5 -151t275.5 -56q191 0 354.5 95t259 258.5t95.5 355.5q0 143 -56.5 274t-151.5 226t-226.5 151.5t-274.5 56.5q-144 0 -275.5 -56.5t-226.5 -151.5t-151.5 -226t-56.5 -274zM666 1810l503 306l60 -105l-516 -282z" />
<glyph unicode="&#xf4;" horiz-adv-x="2304" d="M115 799q0 168 66 321.5t177.5 264.5t265.5 177t324 66q169 0 323 -66t265.5 -177t177.5 -264.5t66 -321.5q0 -169 -66 -323t-177.5 -265t-265.5 -176.5t-323 -65.5q-170 0 -324 65.5t-265.5 176.5t-177.5 265t-66 323zM238 799q0 -144 56.5 -275.5t151.5 -226.5 t226.5 -151t275.5 -56q191 0 354.5 95t259 258.5t95.5 355.5q0 143 -56.5 274t-151.5 226t-226.5 151.5t-274.5 56.5q-144 0 -275.5 -56.5t-226.5 -151.5t-151.5 -226t-56.5 -274zM592 1839l354 264l359 -264l-62 -76l-297 213l-293 -213z" />
<glyph unicode="&#xf5;" horiz-adv-x="2304" d="M115 799q0 168 66 321.5t177.5 264.5t265.5 177t324 66q169 0 323 -66t265.5 -177t177.5 -264.5t66 -321.5q0 -169 -66 -323t-177.5 -265t-265.5 -176.5t-323 -65.5q-170 0 -324 65.5t-265.5 176.5t-177.5 265t-66 323zM238 799q0 -144 56.5 -275.5t151.5 -226.5 t226.5 -151t275.5 -56q191 0 354.5 95t259 258.5t95.5 355.5q0 143 -56.5 274t-151.5 226t-226.5 151.5t-274.5 56.5q-144 0 -275.5 -56.5t-226.5 -151.5t-151.5 -226t-56.5 -274zM557 1767q0 50 11.5 98t35 92t68 71.5t102.5 27.5q53 0 97.5 -24t111.5 -88q31 -31 49 -47 t44.5 -30t51.5 -14q55 0 86 52.5t29 132.5h94q0 -50 -10.5 -97t-33 -92t-65 -72.5t-100.5 -27.5q-51 0 -90 23t-112 90q-38 34 -55 48t-44.5 28t-52.5 14q-58 0 -91.5 -52.5t-33.5 -132.5h-92z" />
<glyph unicode="&#xf6;" horiz-adv-x="2304" d="M115 799q0 168 66 321.5t177.5 264.5t265.5 177t324 66q169 0 323 -66t265.5 -177t177.5 -264.5t66 -321.5q0 -169 -66 -323t-177.5 -265t-265.5 -176.5t-323 -65.5q-170 0 -324 65.5t-265.5 176.5t-177.5 265t-66 323zM238 799q0 -144 56.5 -275.5t151.5 -226.5 t226.5 -151t275.5 -56q191 0 354.5 95t259 258.5t95.5 355.5q0 143 -56.5 274t-151.5 226t-226.5 151.5t-274.5 56.5q-144 0 -275.5 -56.5t-226.5 -151.5t-151.5 -226t-56.5 -274zM631 1890q0 38 28 66.5t66 28.5t65 -28t27 -67q0 -38 -27 -65t-65 -27t-66 27t-28 65z M1077 1890q0 38 28 66.5t66 28.5t66.5 -28.5t28.5 -66.5t-28 -65t-67 -27q-38 0 -66 27t-28 65z" />
<glyph unicode="&#xf7;" horiz-adv-x="1654" d="M176 690v115h893v-115h-893zM516 348q0 43 32 74t75 31t73.5 -31t30.5 -74q0 -44 -30.5 -74t-73.5 -30t-75 30t-32 74zM516 1145q0 42 32 73t75 31t73.5 -30.5t30.5 -73.5q0 -44 -30.5 -74.5t-73.5 -30.5t-75 30.5t-32 74.5z" />
<glyph unicode="&#xf8;" horiz-adv-x="2304" d="M115 799q0 168 66 321.5t177.5 264.5t265.5 177t324 66q147 0 282.5 -49.5t244.5 -140.5l147 159h125l-205 -221q112 -115 175 -264t63 -313q0 -135 -42 -262t-119.5 -229t-180 -178.5t-229 -118.5t-261.5 -42q-300 0 -530 189l-146 -158h-125l203 219 q-111 115 -173 264.5t-62 315.5zM238 799q0 -141 51.5 -267.5t144.5 -222.5l959 1041q-197 157 -445 157q-144 0 -275.5 -56.5t-226.5 -151.5t-151.5 -226t-56.5 -274zM502 248q195 -158 446 -158q191 0 354.5 95t259 258.5t95.5 355.5q0 138 -52 264t-145 223z" />
<glyph unicode="&#xf9;" d="M207 604v993h121v-989q0 -232 144.5 -376t404.5 -144q261 0 404.5 143.5t143.5 376.5v989h121v-993q0 -135 -44 -250.5t-126.5 -201.5t-210.5 -134.5t-288 -48.5t-288 48.5t-211 134.5t-127 201.5t-44 250.5zM594 2011l59 105l504 -306l-47 -81z" />
<glyph unicode="&#xfa;" d="M207 604v993h121v-989q0 -232 144.5 -376t404.5 -144q261 0 404.5 143.5t143.5 376.5v989h121v-993q0 -135 -44 -250.5t-126.5 -201.5t-210.5 -134.5t-288 -48.5t-288 48.5t-211 134.5t-127 201.5t-44 250.5zM594 1810l504 306l59 -105l-516 -282z" />
<glyph unicode="&#xfb;" d="M207 604v993h121v-989q0 -232 144.5 -376t404.5 -144q261 0 404.5 143.5t143.5 376.5v989h121v-993q0 -135 -44 -250.5t-126.5 -201.5t-210.5 -134.5t-288 -48.5t-288 48.5t-211 134.5t-127 201.5t-44 250.5zM520 1839l354 264l359 -264l-62 -76l-297 213l-292 -213z" />
<glyph unicode="&#xfc;" d="M207 604v993h121v-989q0 -232 144.5 -376t404.5 -144q261 0 404.5 143.5t143.5 376.5v989h121v-993q0 -135 -44 -250.5t-126.5 -201.5t-210.5 -134.5t-288 -48.5t-288 48.5t-211 134.5t-127 201.5t-44 250.5zM559 1890q0 38 28 66.5t66 28.5t65 -28t27 -67q0 -38 -27 -65 t-65 -27t-66 27t-28 65zM1006 1890q0 38 28 66.5t66 28.5t66 -28.5t28 -66.5t-28 -65t-66 -27t-66 27t-28 65z" />
<glyph unicode="&#xfd;" horiz-adv-x="1910" d="M29 1597h141l580 -886l581 886h142l-662 -1011v-586h-121v584zM471 1810l504 306l59 -105l-516 -282z" />
<glyph unicode="&#xfe;" horiz-adv-x="1931" d="M229 0v1597h121v-247h496q181 0 316 -76.5t202.5 -200t67.5 -274.5q0 -110 -40 -208.5t-112.5 -175t-185 -121t-248.5 -44.5h-496v-250h-121zM350 365h492q108 0 197.5 36t147.5 96t90 138t32 164q0 89 -31.5 168t-90 138.5t-148 94.5t-197.5 35h-492v-870z" />
<glyph unicode="&#xff;" horiz-adv-x="1910" d="M29 1597h141l580 -886l581 886h142l-662 -1011v-586h-121v584zM434 1890q0 38 28 66.5t66 28.5t65.5 -28.5t27.5 -66.5t-27.5 -65t-65.5 -27t-66 27t-28 65zM881 1890q0 38 28 66.5t66 28.5t66 -28.5t28 -66.5t-28 -65t-66 -27t-66 27t-28 65z" />
<glyph unicode="&#x100;" horiz-adv-x="2064" d="M29 0l733 1597h131l733 -1597h-133l-164 360h-1003l-162 -360h-135zM379 475h897l-449 991zM494 1798v100h669v-100h-669z" />
<glyph unicode="&#x101;" horiz-adv-x="2064" d="M29 0l733 1597h131l733 -1597h-133l-164 360h-1003l-162 -360h-135zM379 475h897l-449 991zM494 1798v100h669v-100h-669z" />
<glyph unicode="&#x102;" horiz-adv-x="2064" d="M29 0l733 1597h131l733 -1597h-133l-164 360h-1003l-162 -360h-135zM379 475h897l-449 991zM465 2007l84 47q44 -89 116 -137.5t160 -48.5q89 0 162 48.5t117 137.5l84 -47q-52 -108 -147 -176t-216 -68q-120 0 -214 67.5t-146 176.5z" />
<glyph unicode="&#x103;" horiz-adv-x="2064" d="M29 0l733 1597h131l733 -1597h-133l-164 360h-1003l-162 -360h-135zM379 475h897l-449 991zM465 2007l84 47q44 -89 116 -137.5t160 -48.5q89 0 162 48.5t117 137.5l84 -47q-52 -108 -147 -176t-216 -68q-120 0 -214 67.5t-146 176.5z" />
<glyph unicode="&#x104;" horiz-adv-x="2062" d="M27 0l733 1597h131l733 -1597q-213 -178 -213 -303q0 -67 59.5 -94.5t159.5 -5.5l17 -97q-141 -29 -234.5 20.5t-93.5 157.5q0 151 209 322h-37l-164 360h-1003l-162 -360h-135zM377 475h897l-449 991z" />
<glyph unicode="&#x105;" horiz-adv-x="2062" d="M27 0l733 1597h131l733 -1597q-213 -178 -213 -303q0 -67 59.5 -94.5t159.5 -5.5l17 -97q-141 -29 -234.5 20.5t-93.5 157.5q0 151 209 322h-37l-164 360h-1003l-162 -360h-135zM377 475h897l-449 991z" />
<glyph unicode="&#x106;" horiz-adv-x="2172" d="M115 799q0 168 66 321.5t177.5 264.5t265.5 177t324 66q225 0 416.5 -113.5t302.5 -302.5l-111 -53q-96 159 -257 253.5t-351 94.5q-144 0 -275.5 -56.5t-226.5 -151.5t-151.5 -226t-56.5 -274q0 -144 56.5 -275.5t151.5 -226.5t226.5 -151t275.5 -56q191 0 353 95 t258 255l110 -53q-109 -190 -301.5 -304t-419.5 -114q-170 0 -324 65.5t-265.5 176.5t-177.5 265t-66 323zM666 1810l503 306l60 -105l-516 -282z" />
<glyph unicode="&#x107;" horiz-adv-x="2172" d="M115 799q0 168 66 321.5t177.5 264.5t265.5 177t324 66q225 0 416.5 -113.5t302.5 -302.5l-111 -53q-96 159 -257 253.5t-351 94.5q-144 0 -275.5 -56.5t-226.5 -151.5t-151.5 -226t-56.5 -274q0 -144 56.5 -275.5t151.5 -226.5t226.5 -151t275.5 -56q191 0 353 95 t258 255l110 -53q-109 -190 -301.5 -304t-419.5 -114q-170 0 -324 65.5t-265.5 176.5t-177.5 265t-66 323zM666 1810l503 306l60 -105l-516 -282z" />
<glyph unicode="&#x10a;" horiz-adv-x="2172" d="M115 799q0 168 66 321.5t177.5 264.5t265.5 177t324 66q225 0 416.5 -113.5t302.5 -302.5l-111 -53q-96 159 -257 253.5t-351 94.5q-144 0 -275.5 -56.5t-226.5 -151.5t-151.5 -226t-56.5 -274q0 -144 56.5 -275.5t151.5 -226.5t226.5 -151t275.5 -56q191 0 353 95 t258 255l110 -53q-109 -190 -301.5 -304t-419.5 -114q-170 0 -324 65.5t-265.5 176.5t-177.5 265t-66 323zM854 1870q0 38 28 66t66 28t65 -28t27 -66t-27 -65t-65 -27t-66 27t-28 65z" />
<glyph unicode="&#x10b;" horiz-adv-x="2172" d="M115 799q0 168 66 321.5t177.5 264.5t265.5 177t324 66q225 0 416.5 -113.5t302.5 -302.5l-111 -53q-96 159 -257 253.5t-351 94.5q-144 0 -275.5 -56.5t-226.5 -151.5t-151.5 -226t-56.5 -274q0 -144 56.5 -275.5t151.5 -226.5t226.5 -151t275.5 -56q191 0 353 95 t258 255l110 -53q-109 -190 -301.5 -304t-419.5 -114q-170 0 -324 65.5t-265.5 176.5t-177.5 265t-66 323zM854 1870q0 38 28 66t66 28t65 -28t27 -66t-27 -65t-65 -27t-66 27t-28 65z" />
<glyph unicode="&#x10c;" horiz-adv-x="2172" d="M115 799q0 168 66 321.5t177.5 264.5t265.5 177t324 66q225 0 416.5 -113.5t302.5 -302.5l-111 -53q-96 159 -257 253.5t-351 94.5q-144 0 -275.5 -56.5t-226.5 -151.5t-151.5 -226t-56.5 -274q0 -144 56.5 -275.5t151.5 -226.5t226.5 -151t275.5 -56q191 0 353 95 t258 255l110 -53q-109 -190 -301.5 -304t-419.5 -114q-170 0 -324 65.5t-265.5 176.5t-177.5 265t-66 323zM594 2028l61 75l293 -213l297 213l62 -75l-359 -265z" />
<glyph unicode="&#x10d;" horiz-adv-x="2172" d="M115 799q0 168 66 321.5t177.5 264.5t265.5 177t324 66q225 0 416.5 -113.5t302.5 -302.5l-111 -53q-96 159 -257 253.5t-351 94.5q-144 0 -275.5 -56.5t-226.5 -151.5t-151.5 -226t-56.5 -274q0 -144 56.5 -275.5t151.5 -226.5t226.5 -151t275.5 -56q191 0 353 95 t258 255l110 -53q-109 -190 -301.5 -304t-419.5 -114q-170 0 -324 65.5t-265.5 176.5t-177.5 265t-66 323zM594 2028l61 75l293 -213l297 213l62 -75l-359 -265z" />
<glyph unicode="&#x10e;" horiz-adv-x="2131" d="M229 0v1597h625q177 0 319.5 -62t234.5 -170t140.5 -252.5t48.5 -313.5q0 -170 -48.5 -314.5t-140.5 -253t-234 -170t-320 -61.5h-625zM350 119h498q196 0 340.5 90t216.5 242.5t72 347.5t-72 347.5t-216.5 242.5t-340.5 90h-498v-1360zM557 2028l61 75l293 -213l297 213 l62 -75l-359 -265z" />
<glyph unicode="&#x10f;" horiz-adv-x="2131" d="M229 0v1597h625q177 0 319.5 -62t234.5 -170t140.5 -252.5t48.5 -313.5q0 -170 -48.5 -314.5t-140.5 -253t-234 -170t-320 -61.5h-625zM350 119h498q196 0 340.5 90t216.5 242.5t72 347.5t-72 347.5t-216.5 242.5t-340.5 90h-498v-1360zM557 2028l61 75l293 -213l297 213 l62 -75l-359 -265z" />
<glyph unicode="&#x110;" horiz-adv-x="2134" d="M51 741v109h180v747h625q177 0 319.5 -62t234.5 -170t140.5 -252.5t48.5 -313.5q0 -170 -48.5 -314.5t-140.5 -253t-234 -170t-320 -61.5h-625v741h-180zM352 119h498q196 0 340.5 90t216.5 242.5t72 347.5t-72 347.5t-216.5 242.5t-340.5 90h-498v-629h574v-109h-574 v-622z" />
<glyph unicode="&#x111;" horiz-adv-x="2134" d="M51 741v109h180v747h625q177 0 319.5 -62t234.5 -170t140.5 -252.5t48.5 -313.5q0 -170 -48.5 -314.5t-140.5 -253t-234 -170t-320 -61.5h-625v741h-180zM352 119h498q196 0 340.5 90t216.5 242.5t72 347.5t-72 347.5t-216.5 242.5t-340.5 90h-498v-629h574v-109h-574 v-622z" />
<glyph unicode="&#x112;" horiz-adv-x="1863" d="M229 0v1597h1098v-118h-977v-637h832v-115h-832v-608h977v-119h-1098zM444 1798v100h670v-100h-670z" />
<glyph unicode="&#x113;" horiz-adv-x="1863" d="M229 0v1597h1098v-118h-977v-637h832v-115h-832v-608h977v-119h-1098zM444 1798v100h670v-100h-670z" />
<glyph unicode="&#x116;" horiz-adv-x="1863" d="M229 0v1597h1098v-118h-977v-637h832v-115h-832v-608h977v-119h-1098zM684 1870q0 38 28 66t66 28t65 -28t27 -66t-27 -65t-65 -27t-66 27t-28 65z" />
<glyph unicode="&#x117;" horiz-adv-x="1863" d="M229 0v1597h1098v-118h-977v-637h832v-115h-832v-608h977v-119h-1098zM684 1870q0 38 28 66t66 28t65 -28t27 -66t-27 -65t-65 -27t-66 27t-28 65z" />
<glyph unicode="&#x118;" horiz-adv-x="1861" d="M227 0v1597h1098v-118h-977v-637h832v-115h-832v-608h977v-117q-211 -177 -211 -305q0 -67 59.5 -94.5t159.5 -5.5l17 -97q-141 -29 -234.5 20.5t-93.5 157.5q0 151 209 322h-1004z" />
<glyph unicode="&#x119;" horiz-adv-x="1861" d="M227 0v1597h1098v-118h-977v-637h832v-115h-832v-608h977v-117q-211 -177 -211 -305q0 -67 59.5 -94.5t159.5 -5.5l17 -97q-141 -29 -234.5 20.5t-93.5 157.5q0 151 209 322h-1004z" />
<glyph unicode="&#x11a;" horiz-adv-x="1863" d="M229 0v1597h1098v-118h-977v-637h832v-115h-832v-608h977v-119h-1098zM422 2028l61 75l293 -213l297 213l62 -75l-359 -265z" />
<glyph unicode="&#x11b;" horiz-adv-x="1863" d="M229 0v1597h1098v-118h-977v-637h832v-115h-832v-608h977v-119h-1098zM422 2028l61 75l293 -213l297 213l62 -75l-359 -265z" />
<glyph unicode="&#x11e;" horiz-adv-x="2220" d="M115 799q0 168 66 321.5t177.5 264.5t265.5 177t324 66q201 0 376.5 -90.5t291.5 -247.5l-100 -69q-100 133 -249.5 209.5t-318.5 76.5q-144 0 -275.5 -56.5t-226.5 -151.5t-151.5 -226t-56.5 -274q0 -144 56.5 -275.5t151.5 -226.5t226.5 -151t275.5 -56q188 0 347.5 92 t254.5 250v283h-583v106h698v-821h-109v274q-99 -142 -260.5 -223.5t-347.5 -81.5q-170 0 -324 65.5t-265.5 176.5t-177.5 265t-66 323zM588 2007l84 47q44 -89 116 -137.5t160 -48.5q89 0 162 48.5t117 137.5l84 -47q-52 -108 -147 -176t-216 -68q-120 0 -214 67.5 t-146 176.5z" />
<glyph unicode="&#x11f;" horiz-adv-x="2220" d="M115 799q0 168 66 321.5t177.5 264.5t265.5 177t324 66q201 0 376.5 -90.5t291.5 -247.5l-100 -69q-100 133 -249.5 209.5t-318.5 76.5q-144 0 -275.5 -56.5t-226.5 -151.5t-151.5 -226t-56.5 -274q0 -144 56.5 -275.5t151.5 -226.5t226.5 -151t275.5 -56q188 0 347.5 92 t254.5 250v283h-583v106h698v-821h-109v274q-99 -142 -260.5 -223.5t-347.5 -81.5q-170 0 -324 65.5t-265.5 176.5t-177.5 265t-66 323zM588 2007l84 47q44 -89 116 -137.5t160 -48.5q89 0 162 48.5t117 137.5l84 -47q-52 -108 -147 -176t-216 -68q-120 0 -214 67.5 t-146 176.5z" />
<glyph unicode="&#x120;" horiz-adv-x="2220" d="M115 799q0 168 66 321.5t177.5 264.5t265.5 177t324 66q201 0 376.5 -90.5t291.5 -247.5l-100 -69q-100 133 -249.5 209.5t-318.5 76.5q-144 0 -275.5 -56.5t-226.5 -151.5t-151.5 -226t-56.5 -274q0 -144 56.5 -275.5t151.5 -226.5t226.5 -151t275.5 -56q188 0 347.5 92 t254.5 250v283h-583v106h698v-821h-109v274q-99 -142 -260.5 -223.5t-347.5 -81.5q-170 0 -324 65.5t-265.5 176.5t-177.5 265t-66 323zM854 1870q0 38 28 66t66 28t65 -28t27 -66t-27 -65t-65 -27t-66 27t-28 65z" />
<glyph unicode="&#x121;" horiz-adv-x="2220" d="M115 799q0 168 66 321.5t177.5 264.5t265.5 177t324 66q201 0 376.5 -90.5t291.5 -247.5l-100 -69q-100 133 -249.5 209.5t-318.5 76.5q-144 0 -275.5 -56.5t-226.5 -151.5t-151.5 -226t-56.5 -274q0 -144 56.5 -275.5t151.5 -226.5t226.5 -151t275.5 -56q188 0 347.5 92 t254.5 250v283h-583v106h698v-821h-109v274q-99 -142 -260.5 -223.5t-347.5 -81.5q-170 0 -324 65.5t-265.5 176.5t-177.5 265t-66 323zM854 1870q0 38 28 66t66 28t65 -28t27 -66t-27 -65t-65 -27t-66 27t-28 65z" />
<glyph unicode="&#x122;" horiz-adv-x="2220" d="M115 799q0 168 66 321.5t177.5 264.5t265.5 177t324 66q201 0 376.5 -90.5t291.5 -247.5l-100 -69q-100 133 -249.5 209.5t-318.5 76.5q-144 0 -275.5 -56.5t-226.5 -151.5t-151.5 -226t-56.5 -274q0 -144 56.5 -275.5t151.5 -226.5t226.5 -151t275.5 -56q188 0 347.5 92 t254.5 250v283h-583v106h698v-821h-109v274q-99 -142 -260.5 -223.5t-347.5 -81.5q-170 0 -324 65.5t-265.5 176.5t-177.5 265t-66 323zM780 -549q142 135 170 242q-34 -6 -62 20t-28 64q0 37 26.5 63.5t63.5 26.5q39 0 68 -29t29 -76q0 -163 -224 -360z" />
<glyph unicode="&#x123;" horiz-adv-x="2220" d="M115 799q0 168 66 321.5t177.5 264.5t265.5 177t324 66q201 0 376.5 -90.5t291.5 -247.5l-100 -69q-100 133 -249.5 209.5t-318.5 76.5q-144 0 -275.5 -56.5t-226.5 -151.5t-151.5 -226t-56.5 -274q0 -144 56.5 -275.5t151.5 -226.5t226.5 -151t275.5 -56q188 0 347.5 92 t254.5 250v283h-583v106h698v-821h-109v274q-99 -142 -260.5 -223.5t-347.5 -81.5q-170 0 -324 65.5t-265.5 176.5t-177.5 265t-66 323zM780 -549q142 135 170 242q-34 -6 -62 20t-28 64q0 37 26.5 63.5t63.5 26.5q39 0 68 -29t29 -76q0 -163 -224 -360z" />
<glyph unicode="&#x126;" horiz-adv-x="2207" d="M78 1169v101h151v327h121v-327h1098v327h121v-327h151v-101h-151v-1169h-121v727h-1098v-727h-121v1169h-151zM350 842h1098v327h-1098v-327z" />
<glyph unicode="&#x127;" horiz-adv-x="2207" d="M78 1169v101h151v327h121v-327h1098v327h121v-327h151v-101h-151v-1169h-121v727h-1098v-727h-121v1169h-151zM350 842h1098v327h-1098v-327z" />
<glyph unicode="&#x128;" horiz-adv-x="987" d="M-100 1767q0 50 11.5 98t35 92t68 71.5t102.5 27.5q53 0 97.5 -24t111.5 -88q31 -31 49 -47t44.5 -30t51.5 -14q55 0 86 52.5t29 132.5h94q0 -50 -10.5 -97t-33 -92t-65 -72.5t-100.5 -27.5q-51 0 -90.5 23.5t-112.5 89.5q-39 35 -55 48t-43.5 27.5t-52.5 14.5 q-58 0 -91.5 -52.5t-33.5 -132.5h-92zM229 0v1597h121v-1597h-121z" />
<glyph unicode="&#x129;" horiz-adv-x="987" d="M-100 1767q0 50 11.5 98t35 92t68 71.5t102.5 27.5q53 0 97.5 -24t111.5 -88q31 -31 49 -47t44.5 -30t51.5 -14q55 0 86 52.5t29 132.5h94q0 -50 -10.5 -97t-33 -92t-65 -72.5t-100.5 -27.5q-51 0 -90.5 23.5t-112.5 89.5q-39 35 -55 48t-43.5 27.5t-52.5 14.5 q-58 0 -91.5 -52.5t-33.5 -132.5h-92zM229 0v1597h121v-1597h-121z" />
<glyph unicode="&#x12a;" horiz-adv-x="987" d="M-45 1798v100h670v-100h-670zM229 0v1597h121v-1597h-121z" />
<glyph unicode="&#x12b;" horiz-adv-x="987" d="M-45 1798v100h670v-100h-670zM229 0v1597h121v-1597h-121z" />
<glyph unicode="&#x12c;" horiz-adv-x="987" d="M-72 2007l84 47q44 -89 116.5 -137.5t160.5 -48.5q89 0 161.5 48.5t116.5 137.5l84 -47q-52 -109 -146.5 -176.5t-215.5 -67.5t-215 67.5t-146 176.5zM229 0v1597h121v-1597h-121z" />
<glyph unicode="&#x12d;" horiz-adv-x="987" d="M-72 2007l84 47q44 -89 116.5 -137.5t160.5 -48.5q89 0 161.5 48.5t116.5 137.5l84 -47q-52 -109 -146.5 -176.5t-215.5 -67.5t-215 67.5t-146 176.5zM229 0v1597h121v-1597h-121z" />
<glyph unicode="&#x12e;" horiz-adv-x="989" d="M47 -322q0 151 209 322h-25v1597h121v-1597q-213 -178 -213 -303q0 -67 59.5 -94.5t159.5 -5.5l17 -97q-141 -29 -234.5 20.5t-93.5 157.5z" />
<glyph unicode="&#x12f;" horiz-adv-x="989" d="M47 -322q0 151 209 322h-25v1597h121v-1597q-213 -178 -213 -303q0 -67 59.5 -94.5t159.5 -5.5l17 -97q-141 -29 -234.5 20.5t-93.5 157.5z" />
<glyph unicode="&#x130;" horiz-adv-x="987" d="M195 1870q0 38 28 66t66 28t65 -28t27 -66t-27 -65t-65 -27t-66 27t-28 65zM229 0v1597h121v-1597h-121z" />
<glyph unicode="&#x131;" horiz-adv-x="987" d="M229 0v1597h121v-1597h-121z" />
<glyph unicode="&#x132;" horiz-adv-x="2306" d="M229 0v1597h121v-1597h-121zM592 532v136h123v-136q0 -109 34.5 -195.5t94 -140t135 -81t162.5 -27.5q85 0 160.5 27.5t135 81t94 140t34.5 195.5v1065h121v-1065q0 -108 -28.5 -200t-79 -158t-119 -112.5t-149.5 -69.5t-169 -23q-111 0 -209.5 37t-174.5 105.5 t-120.5 177.5t-44.5 243z" />
<glyph unicode="&#x133;" horiz-adv-x="2306" d="M229 0v1597h121v-1597h-121zM592 532v136h123v-136q0 -109 34.5 -195.5t94 -140t135 -81t162.5 -27.5q85 0 160.5 27.5t135 81t94 140t34.5 195.5v1065h121v-1065q0 -108 -28.5 -200t-79 -158t-119 -112.5t-149.5 -69.5t-169 -23q-111 0 -209.5 37t-174.5 105.5 t-120.5 177.5t-44.5 243z" />
<glyph unicode="&#x134;" horiz-adv-x="1804" d="M90 532v136h123v-136q0 -109 34.5 -195.5t94 -140t135 -81t162.5 -27.5q85 0 160.5 27.5t135 81t94 140t34.5 195.5v1065h121v-1065q0 -108 -28.5 -200t-79 -158t-119 -112.5t-149.5 -69.5t-169 -23q-111 0 -209.5 37t-174.5 105.5t-120.5 177.5t-44.5 243zM768 1839 l354 264l359 -264l-62 -76l-297 213l-293 -213z" />
<glyph unicode="&#x135;" horiz-adv-x="1804" d="M90 532v136h123v-136q0 -109 34.5 -195.5t94 -140t135 -81t162.5 -27.5q85 0 160.5 27.5t135 81t94 140t34.5 195.5v1065h121v-1065q0 -108 -28.5 -200t-79 -158t-119 -112.5t-149.5 -69.5t-169 -23q-111 0 -209.5 37t-174.5 105.5t-120.5 177.5t-44.5 243zM768 1839 l354 264l359 -264l-62 -76l-297 213l-293 -213z" />
<glyph unicode="&#x136;" horiz-adv-x="2002" d="M229 0v1597h121v-974l1030 974h164l-694 -659l723 -938h-154l-659 852l-410 -389v-463h-121zM729 -549q142 135 170 242q-34 -6 -62 20t-28 64q0 37 26.5 63.5t63.5 26.5q39 0 67.5 -29t28.5 -76q0 -164 -223 -360z" />
<glyph unicode="&#x137;" horiz-adv-x="2002" d="M229 0v1597h121v-974l1030 974h164l-694 -659l723 -938h-154l-659 852l-410 -389v-463h-121zM729 -549q142 135 170 242q-34 -6 -62 20t-28 64q0 37 26.5 63.5t63.5 26.5q39 0 67.5 -29t28.5 -76q0 -164 -223 -360z" />
<glyph unicode="&#x139;" horiz-adv-x="1751" d="M8 1810l504 306l59 -105l-516 -282zM229 0v1597h121v-1478h924v-119h-1045z" />
<glyph unicode="&#x13a;" horiz-adv-x="1751" d="M8 1810l504 306l59 -105l-516 -282zM229 0v1597h121v-1478h924v-119h-1045z" />
<glyph unicode="&#x13b;" horiz-adv-x="1751" d="M229 0v1597h121v-1478h924v-119h-1045zM582 -549q142 135 170 242q-34 -6 -62 20t-28 64q0 37 26.5 63.5t63.5 26.5q39 0 67.5 -29t28.5 -76q0 -164 -223 -360z" />
<glyph unicode="&#x13c;" horiz-adv-x="1751" d="M229 0v1597h121v-1478h924v-119h-1045zM582 -549q142 135 170 242q-34 -6 -62 20t-28 64q0 37 26.5 63.5t63.5 26.5q39 0 67.5 -29t28.5 -76q0 -164 -223 -360z" />
<glyph unicode="&#x13d;" horiz-adv-x="1751" d="M229 0v1597h121v-1478h924v-119h-1045zM530 1202q142 135 170 242q-34 -6 -62 20t-28 64q0 37 26.5 63.5t63.5 26.5q39 0 68 -29t29 -76q0 -163 -224 -360z" />
<glyph unicode="&#x13e;" horiz-adv-x="1751" d="M229 0v1597h121v-1478h924v-119h-1045zM530 1202q142 135 170 242q-34 -6 -62 20t-28 64q0 37 26.5 63.5t63.5 26.5q39 0 68 -29t29 -76q0 -163 -224 -360z" />
<glyph unicode="&#x13f;" horiz-adv-x="1751" d="M229 0v1597h121v-1478h924v-119h-1045zM717 856q0 38 28 66t66 28t65 -28t27 -66t-27 -65t-65 -27t-66 27t-28 65z" />
<glyph unicode="&#x140;" horiz-adv-x="1751" d="M229 0v1597h121v-1478h924v-119h-1045zM717 856q0 38 28 66t66 28t65 -28t27 -66t-27 -65t-65 -27t-66 27t-28 65z" />
<glyph unicode="&#x141;" horiz-adv-x="1751" d="M70 614v127l159 72v784h121v-729l500 228v-127l-500 -228v-622h926v-119h-1047v686z" />
<glyph unicode="&#x142;" horiz-adv-x="1751" d="M70 614v127l159 72v784h121v-729l500 228v-127l-500 -228v-622h926v-119h-1047v686z" />
<glyph unicode="&#x143;" horiz-adv-x="2201" d="M229 0v1597h109l1106 -1390v1390h121v-1597h-109l-1106 1389v-1389h-121zM616 1810l504 306l60 -105l-516 -282z" />
<glyph unicode="&#x144;" horiz-adv-x="2201" d="M229 0v1597h109l1106 -1390v1390h121v-1597h-109l-1106 1389v-1389h-121zM616 1810l504 306l60 -105l-516 -282z" />
<glyph unicode="&#x145;" horiz-adv-x="2201" d="M229 0v1597h109l1106 -1390v1390h121v-1597h-109l-1106 1389v-1389h-121zM727 -549q142 135 170 242q-34 -6 -62 20t-28 64q0 37 26.5 63.5t63.5 26.5q39 0 67.5 -29t28.5 -76q0 -164 -223 -360z" />
<glyph unicode="&#x146;" horiz-adv-x="2201" d="M229 0v1597h109l1106 -1390v1390h121v-1597h-109l-1106 1389v-1389h-121zM727 -549q142 135 170 242q-34 -6 -62 20t-28 64q0 37 26.5 63.5t63.5 26.5q39 0 67.5 -29t28.5 -76q0 -164 -223 -360z" />
<glyph unicode="&#x147;" horiz-adv-x="2201" d="M229 0v1597h109l1106 -1390v1390h121v-1597h-109l-1106 1389v-1389h-121zM541 2028l61 75l293 -213l297 213l61 -75l-358 -265z" />
<glyph unicode="&#x148;" horiz-adv-x="2201" d="M229 0v1597h109l1106 -1390v1390h121v-1597h-109l-1106 1389v-1389h-121zM541 2028l61 75l293 -213l297 213l61 -75l-358 -265z" />
<glyph unicode="&#x14a;" horiz-adv-x="2199" d="M227 0v1597h109l1106 -1390v1390h121v-1677q0 -134 -45 -243t-120.5 -177.5t-172 -105.5t-203.5 -37q-97 0 -180.5 30.5t-142 81.5t-97.5 112t-59 128l114 39q34 -113 129.5 -192.5t239.5 -79.5q81 0 154.5 27.5t132.5 80.5t94 139.5t35 196.5v94l-1094 1375v-1389h-121z " />
<glyph unicode="&#x14b;" horiz-adv-x="2199" d="M227 0v1597h109l1106 -1390v1390h121v-1677q0 -134 -45 -243t-120.5 -177.5t-172 -105.5t-203.5 -37q-97 0 -180.5 30.5t-142 81.5t-97.5 112t-59 128l114 39q34 -113 129.5 -192.5t239.5 -79.5q81 0 154.5 27.5t132.5 80.5t94 139.5t35 196.5v94l-1094 1375v-1389h-121z " />
<glyph unicode="&#x14c;" horiz-adv-x="2304" d="M115 799q0 168 66 321.5t177.5 264.5t265.5 177t324 66q169 0 323 -66t265.5 -177t177.5 -264.5t66 -321.5q0 -169 -66 -323t-177.5 -265t-265.5 -176.5t-323 -65.5q-170 0 -324 65.5t-265.5 176.5t-177.5 265t-66 323zM238 799q0 -144 56.5 -275.5t151.5 -226.5 t226.5 -151t275.5 -56q191 0 354.5 95t259 258.5t95.5 355.5q0 143 -56.5 274t-151.5 226t-226.5 151.5t-274.5 56.5q-144 0 -275.5 -56.5t-226.5 -151.5t-151.5 -226t-56.5 -274zM614 1798v100h670v-100h-670z" />
<glyph unicode="&#x14d;" horiz-adv-x="2304" d="M115 799q0 168 66 321.5t177.5 264.5t265.5 177t324 66q169 0 323 -66t265.5 -177t177.5 -264.5t66 -321.5q0 -169 -66 -323t-177.5 -265t-265.5 -176.5t-323 -65.5q-170 0 -324 65.5t-265.5 176.5t-177.5 265t-66 323zM238 799q0 -144 56.5 -275.5t151.5 -226.5 t226.5 -151t275.5 -56q191 0 354.5 95t259 258.5t95.5 355.5q0 143 -56.5 274t-151.5 226t-226.5 151.5t-274.5 56.5q-144 0 -275.5 -56.5t-226.5 -151.5t-151.5 -226t-56.5 -274zM614 1798v100h670v-100h-670z" />
<glyph unicode="&#x14e;" horiz-adv-x="2304" d="M115 799q0 168 66 321.5t177.5 264.5t265.5 177t324 66q169 0 323 -66t265.5 -177t177.5 -264.5t66 -321.5q0 -169 -66 -323t-177.5 -265t-265.5 -176.5t-323 -65.5q-170 0 -324 65.5t-265.5 176.5t-177.5 265t-66 323zM238 799q0 -144 56.5 -275.5t151.5 -226.5 t226.5 -151t275.5 -56q191 0 354.5 95t259 258.5t95.5 355.5q0 143 -56.5 274t-151.5 226t-226.5 151.5t-274.5 56.5q-144 0 -275.5 -56.5t-226.5 -151.5t-151.5 -226t-56.5 -274zM586 2007l84 47q44 -89 116 -137.5t160 -48.5q89 0 162 48.5t117 137.5l84 -47 q-52 -108 -147 -176t-216 -68q-120 0 -214 67.5t-146 176.5z" />
<glyph unicode="&#x14f;" horiz-adv-x="2304" d="M115 799q0 168 66 321.5t177.5 264.5t265.5 177t324 66q169 0 323 -66t265.5 -177t177.5 -264.5t66 -321.5q0 -169 -66 -323t-177.5 -265t-265.5 -176.5t-323 -65.5q-170 0 -324 65.5t-265.5 176.5t-177.5 265t-66 323zM238 799q0 -144 56.5 -275.5t151.5 -226.5 t226.5 -151t275.5 -56q191 0 354.5 95t259 258.5t95.5 355.5q0 143 -56.5 274t-151.5 226t-226.5 151.5t-274.5 56.5q-144 0 -275.5 -56.5t-226.5 -151.5t-151.5 -226t-56.5 -274zM586 2007l84 47q44 -89 116 -137.5t160 -48.5q89 0 162 48.5t117 137.5l84 -47 q-52 -108 -147 -176t-216 -68q-120 0 -214 67.5t-146 176.5z" />
<glyph unicode="&#x150;" horiz-adv-x="2304" d="M115 799q0 168 66 321.5t177.5 264.5t265.5 177t324 66q169 0 323 -66t265.5 -177t177.5 -264.5t66 -321.5q0 -169 -66 -323t-177.5 -265t-265.5 -176.5t-323 -65.5q-170 0 -324 65.5t-265.5 176.5t-177.5 265t-66 323zM238 799q0 -144 56.5 -275.5t151.5 -226.5 t226.5 -151t275.5 -56q191 0 354.5 95t259 258.5t95.5 355.5q0 143 -56.5 274t-151.5 226t-226.5 151.5t-274.5 56.5q-144 0 -275.5 -56.5t-226.5 -151.5t-151.5 -226t-56.5 -274zM608 1849l344 361l84 -84l-360 -344zM1067 1849l342 361l84 -84l-360 -344z" />
<glyph unicode="&#x151;" horiz-adv-x="2304" d="M115 799q0 168 66 321.5t177.5 264.5t265.5 177t324 66q169 0 323 -66t265.5 -177t177.5 -264.5t66 -321.5q0 -169 -66 -323t-177.5 -265t-265.5 -176.5t-323 -65.5q-170 0 -324 65.5t-265.5 176.5t-177.5 265t-66 323zM238 799q0 -144 56.5 -275.5t151.5 -226.5 t226.5 -151t275.5 -56q191 0 354.5 95t259 258.5t95.5 355.5q0 143 -56.5 274t-151.5 226t-226.5 151.5t-274.5 56.5q-144 0 -275.5 -56.5t-226.5 -151.5t-151.5 -226t-56.5 -274zM608 1849l344 361l84 -84l-360 -344zM1067 1849l342 361l84 -84l-360 -344z" />
<glyph unicode="&#x152;" horiz-adv-x="2809" d="M119 799q0 165 60.5 310t171 254t278.5 171.5t372 62.5h1270v-118h-977v-637h832v-115h-832v-608h977v-119h-1270q-204 0 -372 62.5t-278.5 171t-171 254t-60.5 311.5zM242 799q0 -113 32.5 -215.5t96.5 -187t154.5 -146.5t212.5 -96.5t263 -34.5h173v1360h-173 q-141 0 -263 -34.5t-212.5 -96.5t-154.5 -146.5t-96.5 -187t-32.5 -215.5z" />
<glyph unicode="&#x153;" horiz-adv-x="2809" d="M119 799q0 165 60.5 310t171 254t278.5 171.5t372 62.5h1270v-118h-977v-637h832v-115h-832v-608h977v-119h-1270q-204 0 -372 62.5t-278.5 171t-171 254t-60.5 311.5zM242 799q0 -113 32.5 -215.5t96.5 -187t154.5 -146.5t212.5 -96.5t263 -34.5h173v1360h-173 q-141 0 -263 -34.5t-212.5 -96.5t-154.5 -146.5t-96.5 -187t-32.5 -215.5z" />
<glyph unicode="&#x154;" horiz-adv-x="2035" d="M229 0v1597h705q167 0 293 -71.5t189 -187t63 -255.5q0 -172 -97 -306.5t-268 -186.5l420 -590h-148l-403 567q-16 -2 -49 -2h-584v-565h-121zM350 680h580q102 0 184.5 32.5t135.5 88t81.5 127.5t28.5 153q0 167 -115 284.5t-315 117.5h-580v-803zM600 1810l504 306 l59 -105l-516 -282z" />
<glyph unicode="&#x155;" horiz-adv-x="2035" d="M229 0v1597h705q167 0 293 -71.5t189 -187t63 -255.5q0 -172 -97 -306.5t-268 -186.5l420 -590h-148l-403 567q-16 -2 -49 -2h-584v-565h-121zM350 680h580q102 0 184.5 32.5t135.5 88t81.5 127.5t28.5 153q0 167 -115 284.5t-315 117.5h-580v-803zM600 1810l504 306 l59 -105l-516 -282z" />
<glyph unicode="&#x156;" horiz-adv-x="2035" d="M229 0v1597h705q167 0 293 -71.5t189 -187t63 -255.5q0 -172 -97 -306.5t-268 -186.5l420 -590h-148l-403 567q-16 -2 -49 -2h-584v-565h-121zM350 680h580q102 0 184.5 32.5t135.5 88t81.5 127.5t28.5 153q0 167 -115 284.5t-315 117.5h-580v-803zM709 -549 q142 135 170 242q-34 -6 -62.5 20t-28.5 64q0 37 27 63.5t64 26.5q39 0 67.5 -29t28.5 -76q0 -164 -223 -360z" />
<glyph unicode="&#x157;" horiz-adv-x="2035" d="M229 0v1597h705q167 0 293 -71.5t189 -187t63 -255.5q0 -172 -97 -306.5t-268 -186.5l420 -590h-148l-403 567q-16 -2 -49 -2h-584v-565h-121zM350 680h580q102 0 184.5 32.5t135.5 88t81.5 127.5t28.5 153q0 167 -115 284.5t-315 117.5h-580v-803zM709 -549 q142 135 170 242q-34 -6 -62.5 20t-28.5 64q0 37 27 63.5t64 26.5q39 0 67.5 -29t28.5 -76q0 -164 -223 -360z" />
<glyph unicode="&#x158;" horiz-adv-x="2035" d="M229 0v1597h705q167 0 293 -71.5t189 -187t63 -255.5q0 -172 -97 -306.5t-268 -186.5l420 -590h-148l-403 567q-16 -2 -49 -2h-584v-565h-121zM350 680h580q102 0 184.5 32.5t135.5 88t81.5 127.5t28.5 153q0 167 -115 284.5t-315 117.5h-580v-803zM524 2028l62 75 l293 -213l297 213l61 -75l-358 -265z" />
<glyph unicode="&#x159;" horiz-adv-x="2035" d="M229 0v1597h705q167 0 293 -71.5t189 -187t63 -255.5q0 -172 -97 -306.5t-268 -186.5l420 -590h-148l-403 567q-16 -2 -49 -2h-584v-565h-121zM350 680h580q102 0 184.5 32.5t135.5 88t81.5 127.5t28.5 153q0 167 -115 284.5t-315 117.5h-580v-803zM524 2028l62 75 l293 -213l297 213l61 -75l-358 -265z" />
<glyph unicode="&#x15a;" horiz-adv-x="1851" d="M121 383v16h119v-8q0 -136 136.5 -222.5t364.5 -86.5q217 0 337 82t120 215q0 34 -9 65t-22 55.5t-38 48.5t-48 41.5t-61.5 37t-68 32t-78.5 29.5t-82.5 27.5t-88.5 27.5q-56 17 -88.5 27.5t-87 30t-88 35t-80 40t-75 47.5t-60 55t-49.5 66t-29.5 76.5t-11.5 89.5 q0 188 154.5 303t412.5 115q263 0 430.5 -116.5t167.5 -297.5v-18h-118v10q0 136 -130.5 223t-349.5 87q-208 0 -324 -82t-116 -215q0 -43 14 -80.5t34 -65.5t59 -55.5t72 -46t91 -41t97.5 -35.5t109.5 -35q220 -67 317 -114q238 -116 268 -302q5 -29 5 -59 q0 -189 -160 -302.5t-426 -113.5q-273 0 -446.5 116t-173.5 298zM418 1810l504 306l59 -105l-516 -282z" />
<glyph unicode="&#x15b;" horiz-adv-x="1851" d="M121 383v16h119v-8q0 -136 136.5 -222.5t364.5 -86.5q217 0 337 82t120 215q0 34 -9 65t-22 55.5t-38 48.5t-48 41.5t-61.5 37t-68 32t-78.5 29.5t-82.5 27.5t-88.5 27.5q-56 17 -88.5 27.5t-87 30t-88 35t-80 40t-75 47.5t-60 55t-49.5 66t-29.5 76.5t-11.5 89.5 q0 188 154.5 303t412.5 115q263 0 430.5 -116.5t167.5 -297.5v-18h-118v10q0 136 -130.5 223t-349.5 87q-208 0 -324 -82t-116 -215q0 -43 14 -80.5t34 -65.5t59 -55.5t72 -46t91 -41t97.5 -35.5t109.5 -35q220 -67 317 -114q238 -116 268 -302q5 -29 5 -59 q0 -189 -160 -302.5t-426 -113.5q-273 0 -446.5 116t-173.5 298zM418 1810l504 306l59 -105l-516 -282z" />
<glyph unicode="&#x15c;" horiz-adv-x="1851" d="M121 383v16h119v-8q0 -136 136.5 -222.5t364.5 -86.5q217 0 337 82t120 215q0 34 -9 65t-22 55.5t-38 48.5t-48 41.5t-61.5 37t-68 32t-78.5 29.5t-82.5 27.5t-88.5 27.5q-56 17 -88.5 27.5t-87 30t-88 35t-80 40t-75 47.5t-60 55t-49.5 66t-29.5 76.5t-11.5 89.5 q0 188 154.5 303t412.5 115q263 0 430.5 -116.5t167.5 -297.5v-18h-118v10q0 136 -130.5 223t-349.5 87q-208 0 -324 -82t-116 -215q0 -43 14 -80.5t34 -65.5t59 -55.5t72 -46t91 -41t97.5 -35.5t109.5 -35q220 -67 317 -114q238 -116 268 -302q5 -29 5 -59 q0 -189 -160 -302.5t-426 -113.5q-273 0 -446.5 116t-173.5 298zM344 1839l354 264l359 -264l-62 -76l-297 213l-292 -213z" />
<glyph unicode="&#x15d;" horiz-adv-x="1851" d="M121 383v16h119v-8q0 -136 136.5 -222.5t364.5 -86.5q217 0 337 82t120 215q0 34 -9 65t-22 55.5t-38 48.5t-48 41.5t-61.5 37t-68 32t-78.5 29.5t-82.5 27.5t-88.5 27.5q-56 17 -88.5 27.5t-87 30t-88 35t-80 40t-75 47.5t-60 55t-49.5 66t-29.5 76.5t-11.5 89.5 q0 188 154.5 303t412.5 115q263 0 430.5 -116.5t167.5 -297.5v-18h-118v10q0 136 -130.5 223t-349.5 87q-208 0 -324 -82t-116 -215q0 -43 14 -80.5t34 -65.5t59 -55.5t72 -46t91 -41t97.5 -35.5t109.5 -35q220 -67 317 -114q238 -116 268 -302q5 -29 5 -59 q0 -189 -160 -302.5t-426 -113.5q-273 0 -446.5 116t-173.5 298zM344 1839l354 264l359 -264l-62 -76l-297 213l-292 -213z" />
<glyph unicode="&#x15e;" horiz-adv-x="1853" d="M121 383v16h119v-8q0 -136 136.5 -222.5t364.5 -86.5q217 0 337 82t120 215q0 34 -9 65t-22 55.5t-38 48.5t-48 41.5t-61.5 37t-68 32t-78.5 29.5t-82.5 27.5t-88.5 27.5q-56 17 -88.5 27.5t-87 30t-88 35t-80 40t-75 47.5t-60 55t-49.5 66t-29.5 76.5t-11.5 89.5 q0 188 154.5 303t412.5 115q263 0 430.5 -116.5t167.5 -297.5v-18h-118v10q0 136 -130.5 223t-349.5 87q-208 0 -324 -82t-116 -215q0 -43 14 -80.5t34 -65.5t59 -55.5t72 -46t91 -41t97.5 -35.5t109.5 -35q220 -67 317 -114q238 -116 268 -302q5 -29 5 -59 q0 -182 -148.5 -293.5t-398.5 -120.5l-39 -118q127 -6 193.5 -68.5t66.5 -142.5q0 -84 -66.5 -146.5t-178.5 -62.5q-56 0 -120 16.5t-100 32.5l-36 16l41 84q117 -57 211 -57q80 0 123 37.5t43 89.5q0 59 -56.5 99t-173.5 30l-39 43l53 145q-258 9 -419.5 124t-161.5 290z " />
<glyph unicode="&#x15f;" horiz-adv-x="1853" d="M121 383v16h119v-8q0 -136 136.5 -222.5t364.5 -86.5q217 0 337 82t120 215q0 34 -9 65t-22 55.5t-38 48.5t-48 41.5t-61.5 37t-68 32t-78.5 29.5t-82.5 27.5t-88.5 27.5q-56 17 -88.5 27.5t-87 30t-88 35t-80 40t-75 47.5t-60 55t-49.5 66t-29.5 76.5t-11.5 89.5 q0 188 154.5 303t412.5 115q263 0 430.5 -116.5t167.5 -297.5v-18h-118v10q0 136 -130.5 223t-349.5 87q-208 0 -324 -82t-116 -215q0 -43 14 -80.5t34 -65.5t59 -55.5t72 -46t91 -41t97.5 -35.5t109.5 -35q220 -67 317 -114q238 -116 268 -302q5 -29 5 -59 q0 -182 -148.5 -293.5t-398.5 -120.5l-39 -118q127 -6 193.5 -68.5t66.5 -142.5q0 -84 -66.5 -146.5t-178.5 -62.5q-56 0 -120 16.5t-100 32.5l-36 16l41 84q117 -57 211 -57q80 0 123 37.5t43 89.5q0 59 -56.5 99t-173.5 30l-39 43l53 145q-258 9 -419.5 124t-161.5 290z " />
<glyph unicode="&#x160;" horiz-adv-x="1851" d="M121 383v16h119v-8q0 -136 136.5 -222.5t364.5 -86.5q217 0 337 82t120 215q0 34 -9 65t-22 55.5t-38 48.5t-48 41.5t-61.5 37t-68 32t-78.5 29.5t-82.5 27.5t-88.5 27.5q-56 17 -88.5 27.5t-87 30t-88 35t-80 40t-75 47.5t-60 55t-49.5 66t-29.5 76.5t-11.5 89.5 q0 188 154.5 303t412.5 115q263 0 430.5 -116.5t167.5 -297.5v-18h-118v10q0 136 -130.5 223t-349.5 87q-208 0 -324 -82t-116 -215q0 -43 14 -80.5t34 -65.5t59 -55.5t72 -46t91 -41t97.5 -35.5t109.5 -35q220 -67 317 -114q238 -116 268 -302q5 -29 5 -59 q0 -189 -160 -302.5t-426 -113.5q-273 0 -446.5 116t-173.5 298zM344 2028l62 75l292 -213l297 213l62 -75l-359 -265z" />
<glyph unicode="&#x161;" horiz-adv-x="1851" d="M121 383v16h119v-8q0 -136 136.5 -222.5t364.5 -86.5q217 0 337 82t120 215q0 34 -9 65t-22 55.5t-38 48.5t-48 41.5t-61.5 37t-68 32t-78.5 29.5t-82.5 27.5t-88.5 27.5q-56 17 -88.5 27.5t-87 30t-88 35t-80 40t-75 47.5t-60 55t-49.5 66t-29.5 76.5t-11.5 89.5 q0 188 154.5 303t412.5 115q263 0 430.5 -116.5t167.5 -297.5v-18h-118v10q0 136 -130.5 223t-349.5 87q-208 0 -324 -82t-116 -215q0 -43 14 -80.5t34 -65.5t59 -55.5t72 -46t91 -41t97.5 -35.5t109.5 -35q220 -67 317 -114q238 -116 268 -302q5 -29 5 -59 q0 -189 -160 -302.5t-426 -113.5q-273 0 -446.5 116t-173.5 298zM344 2028l62 75l292 -213l297 213l62 -75l-359 -265z" />
<glyph unicode="&#x162;" horiz-adv-x="1794" d="M55 1479v118h1274v-118h-577v-1479h-121v1479h-576zM520 -549q142 135 170 242q-34 -6 -62 20t-28 64q0 37 26.5 63.5t63.5 26.5q39 0 67.5 -29t28.5 -76q0 -164 -223 -360z" />
<glyph unicode="&#x163;" horiz-adv-x="1794" d="M55 1479v118h1274v-118h-577v-1479h-121v1479h-576zM520 -549q142 135 170 242q-34 -6 -62 20t-28 64q0 37 26.5 63.5t63.5 26.5q39 0 67.5 -29t28.5 -76q0 -164 -223 -360z" />
<glyph unicode="&#x164;" horiz-adv-x="1794" d="M55 1479v118h1274v-118h-577v-1479h-121v1479h-576zM336 2028l61 75l293 -213l297 213l62 -75l-359 -265z" />
<glyph unicode="&#x165;" horiz-adv-x="1794" d="M55 1479v118h1274v-118h-577v-1479h-121v1479h-576zM336 2028l61 75l293 -213l297 213l62 -75l-359 -265z" />
<glyph unicode="&#x166;" horiz-adv-x="1810" d="M63 1479v118h1274v-118h-575v-629h287v-98h-287v-752h-123v752h-289v98h289v629h-576z" />
<glyph unicode="&#x167;" horiz-adv-x="1810" d="M63 1479v118h1274v-118h-575v-629h287v-98h-287v-752h-123v752h-289v98h289v629h-576z" />
<glyph unicode="&#x168;" d="M207 604v993h121v-989q0 -232 144.5 -376t404.5 -144q261 0 404.5 143.5t143.5 376.5v989h121v-993q0 -135 -44 -250.5t-126.5 -201.5t-210.5 -134.5t-288 -48.5t-288 48.5t-211 134.5t-127 201.5t-44 250.5zM485 1767q0 50 11.5 98t35 92t68 71.5t102.5 27.5 q53 0 97.5 -24t111.5 -88q31 -31 49.5 -47t45 -30t51.5 -14q55 0 85.5 52.5t28.5 132.5h95q0 -50 -10.5 -97t-33 -92t-65 -72.5t-100.5 -27.5q-51 0 -90.5 23.5t-112.5 89.5q-38 34 -55 48t-44.5 28t-52.5 14q-58 0 -91 -52.5t-33 -132.5h-93z" />
<glyph unicode="&#x169;" d="M207 604v993h121v-989q0 -232 144.5 -376t404.5 -144q261 0 404.5 143.5t143.5 376.5v989h121v-993q0 -135 -44 -250.5t-126.5 -201.5t-210.5 -134.5t-288 -48.5t-288 48.5t-211 134.5t-127 201.5t-44 250.5zM485 1767q0 50 11.5 98t35 92t68 71.5t102.5 27.5 q53 0 97.5 -24t111.5 -88q31 -31 49.5 -47t45 -30t51.5 -14q55 0 85.5 52.5t28.5 132.5h95q0 -50 -10.5 -97t-33 -92t-65 -72.5t-100.5 -27.5q-51 0 -90.5 23.5t-112.5 89.5q-38 34 -55 48t-44.5 28t-52.5 14q-58 0 -91 -52.5t-33 -132.5h-93z" />
<glyph unicode="&#x16a;" d="M207 604v993h121v-989q0 -232 144.5 -376t404.5 -144q261 0 404.5 143.5t143.5 376.5v989h121v-993q0 -135 -44 -250.5t-126.5 -201.5t-210.5 -134.5t-288 -48.5t-288 48.5t-211 134.5t-127 201.5t-44 250.5zM543 1798v100h669v-100h-669z" />
<glyph unicode="&#x16b;" d="M207 604v993h121v-989q0 -232 144.5 -376t404.5 -144q261 0 404.5 143.5t143.5 376.5v989h121v-993q0 -135 -44 -250.5t-126.5 -201.5t-210.5 -134.5t-288 -48.5t-288 48.5t-211 134.5t-127 201.5t-44 250.5zM543 1798v100h669v-100h-669z" />
<glyph unicode="&#x16c;" d="M207 604v993h121v-989q0 -232 144.5 -376t404.5 -144q261 0 404.5 143.5t143.5 376.5v989h121v-993q0 -135 -44 -250.5t-126.5 -201.5t-210.5 -134.5t-288 -48.5t-288 48.5t-211 134.5t-127 201.5t-44 250.5zM514 2007l84 47q44 -89 116 -137.5t160 -48.5q89 0 162 48.5 t117 137.5l84 -47q-52 -108 -147 -176t-216 -68q-120 0 -214 67.5t-146 176.5z" />
<glyph unicode="&#x16d;" d="M207 604v993h121v-989q0 -232 144.5 -376t404.5 -144q261 0 404.5 143.5t143.5 376.5v989h121v-993q0 -135 -44 -250.5t-126.5 -201.5t-210.5 -134.5t-288 -48.5t-288 48.5t-211 134.5t-127 201.5t-44 250.5zM514 2007l84 47q44 -89 116 -137.5t160 -48.5q89 0 162 48.5 t117 137.5l84 -47q-52 -108 -147 -176t-216 -68q-120 0 -214 67.5t-146 176.5z" />
<glyph unicode="&#x16e;" d="M207 604v993h121v-989q0 -232 144.5 -376t404.5 -144q261 0 404.5 143.5t143.5 376.5v989h121v-993q0 -135 -44 -250.5t-126.5 -201.5t-210.5 -134.5t-288 -48.5t-288 48.5t-211 134.5t-127 201.5t-44 250.5zM641 1958q0 97 68.5 165t167.5 68q97 0 165 -67.5t68 -165.5 q0 -99 -68 -167.5t-165 -68.5q-100 0 -168 68t-68 168zM729 1958q0 -62 43.5 -105t104.5 -43q59 0 102 43.5t43 104.5q0 58 -43 101.5t-102 43.5q-61 0 -104.5 -43t-43.5 -102z" />
<glyph unicode="&#x16f;" d="M207 604v993h121v-989q0 -232 144.5 -376t404.5 -144q261 0 404.5 143.5t143.5 376.5v989h121v-993q0 -135 -44 -250.5t-126.5 -201.5t-210.5 -134.5t-288 -48.5t-288 48.5t-211 134.5t-127 201.5t-44 250.5zM641 1958q0 97 68.5 165t167.5 68q97 0 165 -67.5t68 -165.5 q0 -99 -68 -167.5t-165 -68.5q-100 0 -168 68t-68 168zM729 1958q0 -62 43.5 -105t104.5 -43q59 0 102 43.5t43 104.5q0 58 -43 101.5t-102 43.5q-61 0 -104.5 -43t-43.5 -102z" />
<glyph unicode="&#x170;" d="M207 604v993h121v-989q0 -232 144.5 -376t404.5 -144q261 0 404.5 143.5t143.5 376.5v989h121v-993q0 -135 -44 -250.5t-126.5 -201.5t-210.5 -134.5t-288 -48.5t-288 48.5t-211 134.5t-127 201.5t-44 250.5zM535 1849l344 361l84 -84l-361 -344zM993 1849l342 361 l84 -84l-360 -344z" />
<glyph unicode="&#x171;" d="M207 604v993h121v-989q0 -232 144.5 -376t404.5 -144q261 0 404.5 143.5t143.5 376.5v989h121v-993q0 -135 -44 -250.5t-126.5 -201.5t-210.5 -134.5t-288 -48.5t-288 48.5t-211 134.5t-127 201.5t-44 250.5zM535 1849l344 361l84 -84l-361 -344zM993 1849l342 361 l84 -84l-360 -344z" />
<glyph unicode="&#x172;" d="M203 604v993h121v-989q0 -233 144 -376.5t404 -143.5q261 0 405 143.5t144 376.5v989h121v-993q0 -226 -118.5 -389t-336.5 -219q-206 -172 -206 -299q0 -67 59.5 -94.5t159.5 -5.5l16 -97q-141 -29 -234.5 20.5t-93.5 157.5q0 138 177 295q-58 -4 -93 -4 q-160 0 -288 48.5t-210.5 134.5t-126.5 201.5t-44 250.5z" />
<glyph unicode="&#x173;" d="M203 604v993h121v-989q0 -233 144 -376.5t404 -143.5q261 0 405 143.5t144 376.5v989h121v-993q0 -226 -118.5 -389t-336.5 -219q-206 -172 -206 -299q0 -67 59.5 -94.5t159.5 -5.5l16 -97q-141 -29 -234.5 20.5t-93.5 157.5q0 138 177 295q-58 -4 -93 -4 q-160 0 -288 48.5t-210.5 134.5t-126.5 201.5t-44 250.5z" />
<glyph unicode="&#x174;" horiz-adv-x="2729" d="M49 1597h131l451 -1417l469 1417h119l469 -1417l452 1417h131l-514 -1597h-133l-465 1403l-463 -1403h-133zM805 1839l354 264l359 -264l-62 -76l-297 213l-293 -213z" />
<glyph unicode="&#x175;" horiz-adv-x="2729" d="M49 1597h131l451 -1417l469 1417h119l469 -1417l452 1417h131l-514 -1597h-133l-465 1403l-463 -1403h-133zM805 1839l354 264l359 -264l-62 -76l-297 213l-293 -213z" />
<glyph unicode="&#x177;" horiz-adv-x="1910" d="M29 1597h141l580 -886l581 886h142l-662 -1011v-586h-121v584zM397 1839l355 264l358 -264l-61 -76l-297 213l-293 -213z" />
<glyph unicode="&#x178;" horiz-adv-x="1910" d="M29 1597h141l580 -886l581 886h142l-662 -1011v-586h-121v584zM434 1890q0 38 28 66.5t66 28.5t65.5 -28.5t27.5 -66.5t-27.5 -65t-65.5 -27t-66 27t-28 65zM881 1890q0 38 28 66.5t66 28.5t66 -28.5t28 -66.5t-28 -65t-66 -27t-66 27t-28 65z" />
<glyph unicode="&#x179;" horiz-adv-x="1679" d="M68 0v92l954 1387h-920v118h1086v-92l-957 -1386h953v-119h-1116zM346 1810l504 306l59 -105l-516 -282z" />
<glyph unicode="&#x17a;" horiz-adv-x="1679" d="M68 0v92l954 1387h-920v118h1086v-92l-957 -1386h953v-119h-1116zM346 1810l504 306l59 -105l-516 -282z" />
<glyph unicode="&#x17b;" horiz-adv-x="1679" d="M68 0v92l954 1387h-920v118h1086v-92l-957 -1386h953v-119h-1116zM535 1870q0 38 28 66t66 28t65 -28t27 -66t-27 -65t-65 -27t-66 27t-28 65z" />
<glyph unicode="&#x17c;" horiz-adv-x="1679" d="M68 0v92l954 1387h-920v118h1086v-92l-957 -1386h953v-119h-1116zM535 1870q0 38 28 66t66 28t65 -28t27 -66t-27 -65t-65 -27t-66 27t-28 65z" />
<glyph unicode="&#x17d;" horiz-adv-x="1679" d="M68 0v92l954 1387h-920v118h1086v-92l-957 -1386h953v-119h-1116zM272 2028l62 75l293 -213l297 213l61 -75l-358 -265z" />
<glyph unicode="&#x17e;" horiz-adv-x="1679" d="M68 0v92l954 1387h-920v118h1086v-92l-957 -1386h953v-119h-1116zM272 2028l62 75l293 -213l297 213l61 -75l-358 -265z" />
<glyph unicode="&#x1fc;" horiz-adv-x="2967" d="M16 0l1295 1597h1118v-118h-977v-637h832v-115h-832v-608h977v-119h-1098v360h-866l-291 -360h-158zM557 475h774v957zM1331 1810l504 306l59 -105l-516 -282z" />
<glyph unicode="&#x1fd;" horiz-adv-x="2967" d="M16 0l1295 1597h1118v-118h-977v-637h832v-115h-832v-608h977v-119h-1098v360h-866l-291 -360h-158zM557 475h774v957zM1331 1810l504 306l59 -105l-516 -282z" />
<glyph unicode="&#x1fe;" horiz-adv-x="2304" d="M115 799q0 168 66 321.5t177.5 264.5t265.5 177t324 66q147 0 282.5 -49.5t244.5 -140.5l147 159h125l-205 -221q112 -115 175 -264t63 -313q0 -135 -42 -262t-119.5 -229t-180 -178.5t-229 -118.5t-261.5 -42q-300 0 -530 189l-146 -158h-125l203 219 q-111 115 -173 264.5t-62 315.5zM238 799q0 -141 51.5 -267.5t144.5 -222.5l959 1041q-197 157 -445 157q-144 0 -275.5 -56.5t-226.5 -151.5t-151.5 -226t-56.5 -274zM502 248q195 -158 446 -158q191 0 354.5 95t259 258.5t95.5 355.5q0 138 -52 264t-145 223zM666 1810 l503 306l60 -105l-516 -282z" />
<glyph unicode="&#x1ff;" horiz-adv-x="2304" d="M115 799q0 168 66 321.5t177.5 264.5t265.5 177t324 66q147 0 282.5 -49.5t244.5 -140.5l147 159h125l-205 -221q112 -115 175 -264t63 -313q0 -135 -42 -262t-119.5 -229t-180 -178.5t-229 -118.5t-261.5 -42q-300 0 -530 189l-146 -158h-125l203 219 q-111 115 -173 264.5t-62 315.5zM238 799q0 -141 51.5 -267.5t144.5 -222.5l959 1041q-197 157 -445 157q-144 0 -275.5 -56.5t-226.5 -151.5t-151.5 -226t-56.5 -274zM502 248q195 -158 446 -158q191 0 354.5 95t259 258.5t95.5 355.5q0 138 -52 264t-145 223zM666 1810 l503 306l60 -105l-516 -282z" />
<glyph unicode="&#x218;" horiz-adv-x="1851" d="M121 383v16h119v-8q0 -136 136.5 -222.5t364.5 -86.5q217 0 337 82t120 215q0 34 -9 65t-22 55.5t-38 48.5t-48 41.5t-61.5 37t-68 32t-78.5 29.5t-82.5 27.5t-88.5 27.5q-56 17 -88.5 27.5t-87 30t-88 35t-80 40t-75 47.5t-60 55t-49.5 66t-29.5 76.5t-11.5 89.5 q0 188 154.5 303t412.5 115q263 0 430.5 -116.5t167.5 -297.5v-18h-118v10q0 136 -130.5 223t-349.5 87q-208 0 -324 -82t-116 -215q0 -43 14 -80.5t34 -65.5t59 -55.5t72 -46t91 -41t97.5 -35.5t109.5 -35q220 -67 317 -114q238 -116 268 -302q5 -29 5 -59 q0 -189 -160 -302.5t-426 -113.5q-273 0 -446.5 116t-173.5 298zM571 -549q142 135 170 242q-34 -6 -62 20t-28 64q0 37 26.5 63.5t63.5 26.5q39 0 68 -29t29 -76q0 -163 -224 -360z" />
<glyph unicode="&#x219;" horiz-adv-x="1851" d="M121 383v16h119v-8q0 -136 136.5 -222.5t364.5 -86.5q217 0 337 82t120 215q0 34 -9 65t-22 55.5t-38 48.5t-48 41.5t-61.5 37t-68 32t-78.5 29.5t-82.5 27.5t-88.5 27.5q-56 17 -88.5 27.5t-87 30t-88 35t-80 40t-75 47.5t-60 55t-49.5 66t-29.5 76.5t-11.5 89.5 q0 188 154.5 303t412.5 115q263 0 430.5 -116.5t167.5 -297.5v-18h-118v10q0 136 -130.5 223t-349.5 87q-208 0 -324 -82t-116 -215q0 -43 14 -80.5t34 -65.5t59 -55.5t72 -46t91 -41t97.5 -35.5t109.5 -35q220 -67 317 -114q238 -116 268 -302q5 -29 5 -59 q0 -189 -160 -302.5t-426 -113.5q-273 0 -446.5 116t-173.5 298zM571 -549q142 135 170 242q-34 -6 -62 20t-28 64q0 37 26.5 63.5t63.5 26.5q39 0 68 -29t29 -76q0 -163 -224 -360z" />
<glyph unicode="&#x2c6;" horiz-adv-x="1136" d="M8 1839l354 264l359 -264l-62 -76l-297 213l-292 -213z" />
<glyph unicode="&#x2c7;" horiz-adv-x="1136" d="M8 2028l62 75l292 -213l297 213l62 -75l-359 -265z" />
<glyph unicode="&#x2d8;" horiz-adv-x="1132" d="M0 2007l84 47q44 -89 116 -137.5t160 -48.5q89 0 162 48.5t117 137.5l84 -47q-52 -108 -147 -176t-216 -68q-120 0 -214 67.5t-146 176.5z" />
<glyph unicode="&#x2d9;" horiz-adv-x="595" d="M0 1870q0 38 28 66t66 28t65 -28t27 -66t-27 -65t-65 -27t-66 27t-28 65z" />
<glyph unicode="&#x2da;" horiz-adv-x="878" d="M0 1958q0 97 68.5 165t167.5 68q97 0 165 -67.5t68 -165.5q0 -99 -68 -167.5t-165 -68.5q-100 0 -168 68t-68 168zM88 1958q0 -62 43 -105t105 -43q59 0 102 43.5t43 104.5q0 58 -43.5 101.5t-101.5 43.5q-61 0 -104.5 -43t-43.5 -102z" />
<glyph unicode="&#x2db;" horiz-adv-x="737" d="M0 -322q0 45 19.5 92t44 82t67.5 77t68.5 63t68.5 55l37 -47q-213 -178 -213 -303q0 -67 59.5 -94.5t159.5 -5.5l17 -97q-141 -29 -234.5 20.5t-93.5 157.5z" />
<glyph unicode="&#x2dc;" horiz-adv-x="1218" d="M14 1767q0 50 11.5 98t35 92t68 71.5t102.5 27.5q53 0 97.5 -24t111.5 -88q31 -31 49.5 -47t45 -30t51.5 -14q55 0 85.5 52.5t28.5 132.5h95q0 -50 -10.5 -97t-33 -92t-65 -72.5t-100.5 -27.5q-51 0 -90.5 23.5t-112.5 89.5q-38 34 -55 48t-44.5 28t-52.5 14 q-58 0 -91.5 -52.5t-33.5 -132.5h-92z" />
<glyph unicode="&#x2dd;" horiz-adv-x="1294" d="M0 1849l344 361l84 -84l-360 -344zM459 1849l342 361l84 -84l-359 -344z" />
<glyph unicode="&#x1e80;" horiz-adv-x="2729" d="M49 1597h131l451 -1417l469 1417h119l469 -1417l452 1417h131l-514 -1597h-133l-465 1403l-463 -1403h-133zM879 2011l59 105l504 -306l-47 -81z" />
<glyph unicode="&#x1e81;" horiz-adv-x="2729" d="M49 1597h131l451 -1417l469 1417h119l469 -1417l452 1417h131l-514 -1597h-133l-465 1403l-463 -1403h-133zM879 2011l59 105l504 -306l-47 -81z" />
<glyph unicode="&#x1e82;" horiz-adv-x="2729" d="M49 1597h131l451 -1417l469 1417h119l469 -1417l452 1417h131l-514 -1597h-133l-465 1403l-463 -1403h-133zM879 1810l503 306l60 -105l-516 -282z" />
<glyph unicode="&#x1e83;" horiz-adv-x="2729" d="M49 1597h131l451 -1417l469 1417h119l469 -1417l452 1417h131l-514 -1597h-133l-465 1403l-463 -1403h-133zM879 1810l503 306l60 -105l-516 -282z" />
<glyph unicode="&#x1e84;" horiz-adv-x="2729" d="M49 1597h131l451 -1417l469 1417h119l469 -1417l452 1417h131l-514 -1597h-133l-465 1403l-463 -1403h-133zM844 1890q0 38 28 66.5t66 28.5t65 -28t27 -67q0 -38 -27 -65t-65 -27t-66 27t-28 65zM1290 1890q0 38 28 66.5t66 28.5t66.5 -28.5t28.5 -66.5t-28 -65t-67 -27 q-38 0 -66 27t-28 65z" />
<glyph unicode="&#x1e85;" horiz-adv-x="2729" d="M49 1597h131l451 -1417l469 1417h119l469 -1417l452 1417h131l-514 -1597h-133l-465 1403l-463 -1403h-133zM844 1890q0 38 28 66.5t66 28.5t65 -28t27 -67q0 -38 -27 -65t-65 -27t-66 27t-28 65zM1290 1890q0 38 28 66.5t66 28.5t66.5 -28.5t28.5 -66.5t-28 -65t-67 -27 q-38 0 -66 27t-28 65z" />
<glyph unicode="&#x1e9e;" horiz-adv-x="2273" d="M207 0v969q0 104 24 196t77.5 174t133.5 141t199.5 93.5t267.5 34.5q193 0 393.5 -51.5t342.5 -118.5v-101l-480 -442q125 16 235.5 -12t188.5 -89t123 -151t45 -194q0 -208 -148 -345t-386 -137q-327 0 -551 273l98 65q187 -225 447 -225q188 0 304.5 105t116.5 264 q0 116 -74.5 207t-208 129.5t-317.5 -3.5l-59 86l532 490q-329 135 -606 135q-124 0 -223 -28t-165 -76.5t-110 -116t-63.5 -144.5t-19.5 -165v-963h-117z" />
<glyph unicode="&#x1ef2;" horiz-adv-x="1910" d="M29 1597h141l580 -886l581 886h142l-662 -1011v-586h-121v584zM473 2011l59 105l504 -306l-47 -81z" />
<glyph unicode="&#x1ef3;" horiz-adv-x="1910" d="M29 1597h141l580 -886l581 886h142l-662 -1011v-586h-121v584zM473 2011l59 105l504 -306l-47 -81z" />
<glyph unicode="&#x2000;" horiz-adv-x="1105" />
<glyph unicode="&#x2001;" horiz-adv-x="2210" />
<glyph unicode="&#x2002;" horiz-adv-x="1105" />
<glyph unicode="&#x2003;" horiz-adv-x="2210" />
<glyph unicode="&#x2004;" horiz-adv-x="736" />
<glyph unicode="&#x2005;" horiz-adv-x="552" />
<glyph unicode="&#x2006;" horiz-adv-x="368" />
<glyph unicode="&#x2007;" horiz-adv-x="368" />
<glyph unicode="&#x2008;" horiz-adv-x="276" />
<glyph unicode="&#x2009;" horiz-adv-x="442" />
<glyph unicode="&#x200a;" horiz-adv-x="122" />
<glyph unicode="&#x2010;" horiz-adv-x="1316" d="M176 608v115h557v-115h-557z" />
<glyph unicode="&#x2011;" horiz-adv-x="1316" d="M176 608v115h557v-115h-557z" />
<glyph unicode="&#x2012;" horiz-adv-x="1316" d="M176 608v115h557v-115h-557z" />
<glyph unicode="&#x2013;" horiz-adv-x="1697" d="M176 608v115h936v-115h-936z" />
<glyph unicode="&#x2014;" horiz-adv-x="2027" d="M178 608v115h1262v-115h-1262z" />
<glyph unicode="&#x2018;" horiz-adv-x="972" d="M143 1253q0 184 250 398l51 -58q-32 -30 -47.5 -46.5t-48.5 -54.5t-54.5 -78t-31.5 -81q36 6 67 -23.5t31 -72.5t-31.5 -73.5t-74.5 -30.5q-45 0 -78 32.5t-33 87.5z" />
<glyph unicode="&#x2019;" horiz-adv-x="978" d="M145 1167q90 86 129 144q40 60 54 116q-36 -6 -67.5 24t-31.5 73q0 42 32 73t75 31q45 0 77.5 -33t32.5 -88q0 -184 -249 -397z" />
<glyph unicode="&#x201a;" horiz-adv-x="909" d="M55 -276q90 86 129 144q40 60 54 116q-36 -6 -67.5 23.5t-31.5 72.5q0 42 32 73t75 31q45 0 77.5 -33t32.5 -88q0 -183 -250 -397z" />
<glyph unicode="&#x201c;" horiz-adv-x="1343" d="M143 1253q0 184 250 398l51 -58q-32 -30 -47.5 -46.5t-48.5 -54.5t-54.5 -78t-31.5 -81q36 6 67 -23.5t31 -72.5t-31.5 -73.5t-74.5 -30.5q-45 0 -78 32.5t-33 87.5zM514 1253q0 184 250 398l51 -58q-32 -30 -47.5 -46.5t-48.5 -54.5t-54.5 -78t-31.5 -81q36 6 67 -23.5 t31 -72.5t-31.5 -73.5t-74.5 -30.5q-45 0 -78 32.5t-33 87.5z" />
<glyph unicode="&#x201d;" horiz-adv-x="1349" d="M145 1167q90 86 129 144q40 60 54 116q-36 -6 -67.5 24t-31.5 73q0 42 32 73t75 31q45 0 77.5 -33t32.5 -88q0 -184 -249 -397zM516 1167q32 30 47.5 46.5t48.5 54.5t54.5 78t31.5 81q-36 -6 -67 23.5t-31 73.5q0 42 32 73t75 31q45 0 77.5 -33t32.5 -88 q0 -183 -250 -397z" />
<glyph unicode="&#x201e;" horiz-adv-x="1286" d="M55 -276q90 86 129 144q40 60 54 116q-36 -6 -67.5 23.5t-31.5 72.5q0 42 32 73t75 31q45 0 77.5 -33t32.5 -88q0 -183 -250 -397zM426 -276q32 30 47.5 46.5t48.5 54.5t54.5 78t31.5 81q-36 -6 -67 23.5t-31 72.5t31.5 73.5t74.5 30.5q45 0 78 -33t33 -88 q0 -183 -250 -397z" />
<glyph unicode="&#x2020;" horiz-adv-x="1351" d="M111 954v107h301v373q-50 29 -50 88q0 43 32 74.5t75 31.5t73.5 -31.5t30.5 -74.5q0 -59 -47 -88v-373h305v-107h-305v-1255h-114v1255h-301z" />
<glyph unicode="&#x2021;" horiz-adv-x="1370" d="M119 524v107h303v323h-303v107h303v371q-49 28 -49 90q0 43 30.5 74.5t73.5 31.5t75 -31.5t32 -74.5q0 -58 -49 -88v-373h307v-107h-307v-323h307v-107h-307v-825h-113v825h-303z" />
<glyph unicode="&#x2022;" horiz-adv-x="1337" d="M201 666q0 110 77 186t187 76t186 -76t76 -186t-76 -186.5t-186 -76.5t-187 76.5t-77 186.5z" />
<glyph unicode="&#x2026;" horiz-adv-x="1617" d="M141 80q0 42 32 73t75 31t73.5 -30.5t30.5 -73.5q0 -44 -30.5 -74.5t-73.5 -30.5t-75 30.5t-32 74.5zM500 80q0 43 31.5 73.5t74.5 30.5t74 -30.5t31 -73.5q0 -44 -31 -74.5t-74 -30.5t-74.5 30.5t-31.5 74.5zM856 80q0 42 32 73t75 31t73.5 -30.5t30.5 -73.5 q0 -44 -30.5 -74.5t-73.5 -30.5t-75 30.5t-32 74.5z" />
<glyph unicode="&#x202f;" horiz-adv-x="442" />
<glyph unicode="&#x2030;" horiz-adv-x="3391" d="M90 1251q0 157 109 266t266 109q158 0 266.5 -109t108.5 -266q0 -156 -109 -266.5t-266 -110.5q-156 0 -265.5 110.5t-109.5 266.5zM201 1251q0 -109 78.5 -187.5t185.5 -78.5q109 0 187.5 78.5t78.5 187.5q0 108 -79 187.5t-187 79.5q-107 0 -185.5 -79.5t-78.5 -187.5z M373 0l1151 1597h139l-1151 -1597h-139zM1200 354q0 158 109 266.5t266 108.5q158 0 267.5 -108.5t109.5 -266.5t-109.5 -267.5t-267.5 -109.5q-157 0 -266 109.5t-109 267.5zM1311 354q0 -108 78 -186t186 -78q109 0 187.5 77.5t78.5 186.5q0 108 -79 187.5t-187 79.5 q-107 0 -185.5 -79.5t-78.5 -187.5zM2146 354q0 158 109 266.5t266 108.5q158 0 267.5 -108.5t109.5 -266.5t-109.5 -267.5t-267.5 -109.5q-157 0 -266 109.5t-109 267.5zM2255 354q0 -108 79 -186t187 -78q109 0 187.5 77.5t78.5 186.5q0 108 -79 187.5t-187 79.5 q-107 0 -186.5 -80t-79.5 -187z" />
<glyph unicode="&#x2039;" horiz-adv-x="1247" d="M123 700v97l516 463v-152l-399 -358l399 -359v-151z" />
<glyph unicode="&#x203a;" horiz-adv-x="1247" d="M199 240v151l399 359l-399 358v152l516 -461v-97z" />
<glyph unicode="&#x2044;" horiz-adv-x="1525" d="M18 0l947 1597h133l-946 -1597h-134z" />
<glyph unicode="&#x205f;" horiz-adv-x="552" />
<glyph unicode="&#x2070;" horiz-adv-x="1474" d="M115 1079q0 109 27.5 206t78.5 171.5t131 118t178 43.5t179 -43.5t133 -118t80 -171.5t28 -206q0 -148 -47.5 -269t-144.5 -196t-228 -75q-130 0 -226 75t-142.5 196t-46.5 269zM211 1079q0 -194 86.5 -320t232.5 -126q148 0 236 126.5t88 319.5q0 192 -88.5 318.5 t-235.5 126.5q-97 0 -170.5 -59.5t-111 -159.5t-37.5 -226z" />
<glyph unicode="&#x2074;" horiz-adv-x="1386" d="M68 776v72l442 749h106l-430 -731h471v279h95v-279h153v-90h-153v-217h-95v217h-589z" />
<glyph unicode="&#x2075;" horiz-adv-x="1372" d="M82 758l84 49q49 -81 129.5 -127.5t181.5 -46.5q126 0 209.5 72t83.5 178q0 98 -73 166.5t-197 68.5q-150 0 -275 -117l-80 39l101 557h547v-96h-476l-63 -381q38 31 105.5 58.5t150.5 27.5q158 0 258 -94t100 -229q0 -146 -112.5 -245t-278.5 -99q-127 0 -231 60.5 t-164 158.5z" />
<glyph unicode="&#x2076;" horiz-adv-x="1349" d="M94 901q0 123 78 227l363 469h116l-276 -360q56 16 110 16q155 0 263 -100.5t108 -249.5q0 -152 -111.5 -258t-271.5 -106q-157 0 -268 106.5t-111 255.5zM188 903q0 -114 82.5 -192t202.5 -78q121 0 204 78t83 192t-83 192.5t-206 78.5q-70 0 -129 -29t-98 -80 q-56 -74 -56 -162z" />
<glyph unicode="&#x2077;" horiz-adv-x="1271" d="M74 1501v96h733v-75l-500 -963h-108l495 942h-620z" />
<glyph unicode="&#x2078;" horiz-adv-x="1402" d="M111 842q0 94 57.5 164.5t155.5 105.5q-78 32 -124 92t-46 139q0 117 101 196t241 79q142 0 244 -79t102 -196q0 -79 -47.5 -139t-126.5 -92q98 -35 156.5 -105.5t58.5 -164.5q0 -129 -114 -216t-273 -87q-160 0 -272.5 87t-112.5 216zM207 848q0 -94 83 -157.5 t206 -63.5t206.5 63.5t83.5 157.5t-83.5 158.5t-206.5 64.5t-206 -64t-83 -159zM248 1341q0 -82 71 -137t177 -55t177.5 55t71.5 137q0 79 -72 135t-177 56t-176.5 -56t-71.5 -135z" />
<glyph unicode="&#x2079;" horiz-adv-x="1349" d="M84 1253q0 152 111.5 258.5t271.5 106.5q157 0 268 -107t111 -256q0 -123 -78 -227l-362 -469h-117l276 361q-59 -17 -110 -17q-155 0 -263 100.5t-108 249.5zM180 1253q0 -114 83 -192t206 -78q70 0 129 29t98 80q56 74 56 161q0 114 -82.5 192.5t-202.5 78.5 q-121 0 -204 -78.5t-83 -192.5z" />
<glyph unicode="&#x20ac;" horiz-adv-x="2379" d="M115 559v92h176q-12 71 -12 148q0 71 12 139h-176v92h196q76 261 298 429.5t503 168.5q226 0 418 -113.5t301 -302.5l-111 -53q-94 158 -256 253t-352 95q-230 0 -413.5 -133.5t-258.5 -343.5h668v-92h-694q-13 -73 -13 -139q0 -77 15 -148h606v-92h-580 q74 -208 258 -338.5t412 -130.5q191 0 352.5 95t257.5 255l111 -53q-107 -190 -300.5 -304t-420.5 -114q-280 0 -500 165t-299 425h-198z" />
<glyph unicode="&#x2122;" horiz-adv-x="2101" d="M113 1501v96h551v-96h-228v-520h-96v520h-227zM776 981v616h103l258 -428l260 428h102v-616h-96v463l-234 -385h-63l-234 385v-463h-96z" />
<glyph unicode="&#x2212;" horiz-adv-x="1675" d="M186 690v115h893v-115h-893z" />
<glyph unicode="&#xe000;" horiz-adv-x="1597" d="M0 0v1597h1597v-1597h-1597z" />
<glyph unicode="&#xe001;" horiz-adv-x="2363" d="M100 592q0 164 79 267.5t206 148.5q-80 130 -80 249q0 161 109.5 264t265.5 103q140 0 239 -81.5t99 -207.5q0 -80 -41.5 -125t-102.5 -45q-53 0 -81.5 31.5t-28.5 71.5q0 56 45 83.5t106 -8.5q5 25 5 29q0 60 -57 109t-156 49q-126 0 -209.5 -82.5t-83.5 -212.5 q0 -120 80 -219h45q69 0 125.5 -31.5t56.5 -85.5q0 -36 -26.5 -56t-69.5 -20q-92 0 -187 105q-96 -19 -158.5 -110.5t-62.5 -215.5q0 -63 17.5 -125.5t51 -122t86.5 -110.5t119.5 -89.5t154.5 -60.5t188 -22q279 0 451.5 159.5t172.5 405.5q0 197 -135 336q-51 -4 -89 -9 t-85 -14t-80.5 -23t-63 -34t-44.5 -50t-15 -67q0 -58 34.5 -91.5t78.5 -33.5q19 0 41 11q-64 28 -60 94q3 44 33 71t72 27q48 0 82.5 -35t34.5 -92q0 -69 -53.5 -115.5t-133.5 -46.5q-90 0 -154.5 60t-64.5 168q0 47 15.5 86.5t40 67t63 49.5t76 36t88 24.5t91 16t91.5 10.5 q276 31 394 89.5t118 183.5q0 85 -51 130.5t-119 45.5q-82 0 -123 -62q42 0 67 -27.5t25 -66.5q0 -43 -29 -73.5t-77 -30.5q-54 0 -88.5 39.5t-34.5 89.5q0 32 14.5 66t42 65.5t75.5 51.5t107 20q116 0 197.5 -70.5t81.5 -196.5q0 -73 -27 -130.5t-72 -95.5t-112.5 -65 t-137 -41.5t-157.5 -23.5q53 -59 96 -160t43 -239q0 -122 -41.5 -226.5t-112 -178.5t-164 -126.5t-197.5 -78t-212 -25.5q-200 0 -367 84.5t-263.5 233t-96.5 327.5z" />
<glyph unicode="&#xe011;" horiz-adv-x="1576" d="M47 1597h125l412 -555l411 555h125l-352 -477h172v-88h-238l-67 -94v-61h305v-89h-305v-229h-105v229h-303v89h303v65l-67 90h-236v88h172z" />
<glyph unicode="&#xe909;" horiz-adv-x="1488" d="M88 844v92h193l51 283h-176v92h192l53 286h99l-54 -286h271l53 286h100l-53 -286h174v-92h-190l-51 -283h174v-92h-193l-51 -285h-98l51 285h-273l-51 -285h-98l51 285h-174zM379 936h270l51 283h-270z" />
<glyph unicode="&#xe910;" horiz-adv-x="1808" d="M80 1366q0 104 72.5 177t175.5 73q104 0 177 -73t73 -177t-73 -176t-177 -72q-103 0 -175.5 72t-72.5 176zM166 1366q0 -68 47 -115t115 -47t116 47.5t48 114.5q0 68 -48 116t-116 48q-67 0 -114.5 -48t-47.5 -116zM252 559l782 1038h111l-785 -1038h-108zM819 793 q0 103 72.5 176t175.5 73q104 0 178 -73t74 -176q0 -104 -74 -177t-178 -73q-103 0 -175.5 73t-72.5 177zM905 793q0 -68 47.5 -116t114.5 -48q69 0 117.5 48t48.5 116t-48.5 115.5t-117.5 47.5q-67 0 -114.5 -47.5t-47.5 -115.5z" />
<glyph unicode="&#xe911;" horiz-adv-x="1286" d="M115 559v72q80 46 108.5 102.5t28.5 134.5q0 50 -10 105h-123v86h100q-4 14 -16 50.5t-17 54.5t-12.5 48t-10.5 56t-3 53q0 137 89 217t218 80t215 -77t86 -198v-12h-92v4q0 87 -58.5 139t-148.5 52q-91 0 -153 -54.5t-62 -152.5q0 -28 6.5 -62t14.5 -59.5t22.5 -69.5 t21.5 -69h302v-86h-283q8 -66 8 -101q0 -135 -67 -217h479v-96h-643z" />
<glyph unicode="&#xe912;" horiz-adv-x="1720" d="M94 918v69h111q-8 39 -8 92q0 41 6 82h-109v72h125q50 168 194 276.5t326 108.5q147 0 272 -74t197 -196l-88 -43q-59 100 -160.5 158.5t-220.5 58.5q-143 0 -257.5 -80.5t-162.5 -208.5h424v-72h-442q-8 -36 -8 -82q0 -53 8 -92h387v-69h-364q50 -126 163 -204.5 t252 -78.5q119 0 221 58t162 159l86 -41q-70 -123 -196 -197.5t-273 -74.5q-181 0 -323 105.5t-195 273.5h-127z" />
<glyph unicode="&#xe999;" horiz-adv-x="1501" d="M18 0l947 1597h108l-946 -1597h-109z" />
<glyph unicode="&#xf6c3;" horiz-adv-x="755" d="M70 -549q142 135 170 242q-34 -6 -62 20t-28 64q0 37 26.5 63.5t63.5 26.5q39 0 67.5 -29t28.5 -76q0 -164 -223 -360z" />
<glyph unicode="&#xf6e0;" horiz-adv-x="1308" d="M109 1004q0 136 89.5 238t223.5 122v117h94v-115q86 -9 160 -55.5t119 -118.5l-84 -43q-37 57 -98.5 90t-131.5 33q-114 0 -193 -78.5t-79 -189.5q0 -113 79 -191t193 -78q71 0 132 33t98 90l86 -43q-47 -72 -120.5 -118.5t-160.5 -55.5v-115h-94v117q-134 20 -223.5 123 t-89.5 238z" />
<glyph unicode="&#xf6e4;" horiz-adv-x="1292" d="M106 868v13h95v-9q0 -65 68.5 -108t183.5 -43q105 0 165 39t60 100q0 46 -37.5 80t-73 48t-121.5 40l-18 6q-54 16 -91 29.5t-83.5 36.5t-74 48t-47 62.5t-19.5 81.5q0 93 76.5 154t205.5 70v114h92v-117q124 -12 201.5 -74t77.5 -151v-10h-94v10q0 61 -66.5 104.5 t-173.5 43.5q-103 0 -160 -39.5t-57 -102.5q0 -64 58.5 -100t181.5 -70q136 -41 185 -65q138 -69 138 -191q0 -97 -79.5 -159t-211.5 -70v-113h-92v115q-128 12 -208.5 74.5t-80.5 152.5z" />
<glyph unicode="&#xf8ff;" horiz-adv-x="1933" d="M15.5 642.5q-2.5 11.5 15.5 21.5l57 41l12 12q19 16 37 -12l33 -64q6 -12 13 -15.5t13.5 2t10.5 17.5l18 70q6 19 19.5 21t25.5 -13l47 -53q13 -15 23.5 -11.5t11.5 23.5l4 70q3 20 15.5 25t27.5 -7l58 -43q17 -12 25.5 -7t4.5 25l-8 70q-3 20 8.5 28t28.5 -1l64 -29 q19 -9 26.5 -1.5t1.5 26.5l-22 67q-8 19 0.5 29t27.5 4l15 -2q40 -77 70 -202.5t30 -217.5q-15 -18 -34.5 -27.5t-59.5 -9.5h-8q0 46 -33 72q18 -21 18 -55v-15q-32 3 -32 39q0 43 -28 72t-77 29q-41 0 -68.5 -32t-27.5 -79q0 -60 49.5 -96.5t138.5 -36.5q85 0 172 42 t156.5 112t125 154.5t86 175.5t30.5 169q0 59 -36.5 98t-94.5 39q-48 0 -85.5 -33.5t-37.5 -84.5q0 -52 30.5 -82.5t87.5 -36.5q-30 -122 -59 -174q-12 96 -43.5 178t-75.5 129q91 -120 107 -330l-29 -41q0 156 -51 287t-131 172q-5 9 2 18.5t22 12.5l70 12q19 3 21 13.5 t-15 21.5l-59 39q-15 13 -13.5 26.5t19.5 20.5l63 28q14 4 19.5 11t0 14t-19.5 12l-63 27q-24 11 -21 29q13 6 15 16l35 61q9 19 20 18t16 -20l21 -67q6 -21 18.5 -24t26.5 14l47 53q12 15 23 12.5t12 -22.5l4 -72q1 -21 14.5 -26.5t28.5 7.5l57 44q15 12 24 5.5t7 -26.5 l-10 -70q-1 -20 10.5 -27.5t28.5 1.5l63 33q19 8 26.5 0t0.5 -29l-23 -64q-6 -20 3 -30t28 -4l70 14q20 6 26.5 -2t-4.5 -27l-37 -59q-12 -17 -5.5 -29.5t26.5 -11.5l72 4q21 0 25 -11t-9 -24l-49 -53q-14 -13 -10.5 -26.5t24.5 -16.5l70 -12q43 -10 6 -39l-57 -39 q-16 -10 -15 -24t21 -21l63 -27q12 -5 16.5 -12t0 -13.5t-16.5 -11.5l-63 -26q-20 -7 -21 -22t15 -25l57 -41q11 -7 14.5 -14.5t-2 -13.5t-18.5 -9l-70 -13q-21 -3 -24.5 -16.5t10.5 -28.5l49 -49q13 -14 9 -24.5t-25 -10.5l-72 4q-20 0 -26.5 -11.5t5.5 -28.5l37 -62 q10 -17 4 -25.5t-26 -5.5l-70 19q-18 6 -27.5 -5t-3.5 -30l23 -68q8 -19 0 -26t-27 2l-63 31q-17 9 -28.5 1t-10.5 -30l10 -68q1 -21 -7.5 -25.5t-23.5 7.5l-57 43q-15 12 -28.5 5.5t-14.5 -26.5l-4 -69q-1 -20 -12 -23.5t-23 10.5l-47 56q-13 14 -26 12t-19 -22l-21 -68 q-3 -13 -9.5 -18t-13.5 -1t-13 15l-35 61q-9 19 -22 19t-25 -19l-31 -61q-6 -11 -13.5 -15t-14 1t-9.5 18l-20 68q-6 20 -19 22t-26 -12l-48 -56q-12 -14 -21.5 -10.5t-12.5 23.5l-4 69q-2 20 -15 26.5t-30 -5.5l-54 -43q-17 -13 -27 -8t-6 26l11 68q1 22 -10.5 30t-30.5 -1 l-62 -31q-19 -9 -26.5 -2t0.5 26l22 68q8 19 -1.5 30t-28.5 5l-70 -19q-20 -3 -26.5 5.5t3.5 25.5l39 62q11 17 4.5 28.5t-26.5 11.5l-72 -4q-21 0 -25 10.5t9 24.5l51 49q13 15 8.5 28.5t-25.5 16.5l-67 13q-21 4 -23.5 15.5zM492 362q42 -26 122 -26q106 0 212.5 65 t183.5 162t125.5 212t48.5 214q0 63 -41 101q24 -38 24 -84q0 -100 -47.5 -215.5t-126.5 -215.5q-85 -105 -188.5 -168t-212.5 -63q-60 0 -100 18z" />
</font>
</defs>
</svg>
