<?xml version="1.0" encoding="utf-8"?>
<!-- Generator: Adobe Illustrator 18.0.0, SVG Export Plug-In . SVG Version: 6.00 Build 0)  -->
<!DOCTYPE svg PUBLIC "-//W3C//DTD SVG 1.1//EN" "http://www.w3.org/Graphics/SVG/1.1/DTD/svg11.dtd">
<svg version="1.1" id="Layer_1" xmlns:sketch="http://www.bohemiancoding.com/sketch/ns"
	 xmlns="http://www.w3.org/2000/svg" xmlns:xlink="http://www.w3.org/1999/xlink" x="0px" y="0px" width="64px" height="64px"
	 viewBox="0 0 64 64" enable-background="new 0 0 64 64" xml:space="preserve">
<g id="Page-1" sketch:type="MSPage">
	<g id="right-arrow" sketch:type="MSLayerGroup">
		<path id="Shape" sketch:type="MSShapeGroup" fill="#444444" d="M49.6,31L19.5,0.6c-0.6-0.6-1.6-0.6-2.2,0l-2.9,2.9
			C14.1,3.8,14,4.2,14,4.6s0.2,0.8,0.4,1.1l26.1,26.4L14.4,58.3C14.1,58.6,14,59,14,59.4s0.2,0.8,0.4,1.1l2.9,2.9
			c0.3,0.3,0.7,0.4,1.1,0.4s0.8-0.2,1.1-0.4L49.6,33C50.1,32.6,50.1,31.6,49.6,31L49.6,31L49.6,31z"/>
	</g>
</g>
</svg>
