<?xml version="1.0" encoding="iso-8859-1"?>
<!-- Generator: Adobe Illustrator 19.2.1, SVG Export Plug-In . SVG Version: 6.00 Build 0)  -->
<svg version="1.1" id="category-branding" xmlns="http://www.w3.org/2000/svg" xmlns:xlink="http://www.w3.org/1999/xlink" x="0px"
	 y="0px" viewBox="0 0 158.051 124.617" style="enable-background:new 0 0 158.051 124.617;" xml:space="preserve">
<g>
	<path style="fill:#FFFFFF;" d="M103.698,31.572c-1.966,0.14-3.669-1.287-3.921-3.216c-3.538-1.903-8.006-2.877-13.369-2.877H41.153
		v77.863H82.78c0.208,0,21.033-0.473,27.419-10.998c1.802-2.971,2.716-6.524,2.716-10.561c0-4.787-1.276-8.799-3.794-11.924
		c-2.524-3.132-6.574-5.388-12.037-6.704l-4.54-1.094l4.413-1.528c3.568-1.235,6.293-2.915,8.102-4.992
		c2.77-3.181,4.117-6.897,4.117-11.363c0-5.028-1.71-9.172-5.176-12.659C103.898,31.535,103.802,31.565,103.698,31.572z
		 M63.543,39.071h12.364c4.153,0,7.045,0.757,8.841,2.314c1.827,1.586,2.752,3.784,2.752,6.533c0,2.924-0.923,5.221-2.744,6.826
		c-1.799,1.58-4.747,2.348-9.015,2.348H63.543V39.071z M87.577,86.144c-2.035,1.76-5.295,2.617-9.965,2.617H63.543V69.694h14.014
		c4.732,0,8.012,0.814,10.028,2.49c2.06,1.712,3.104,3.999,3.104,6.797C90.688,81.95,89.641,84.36,87.577,86.144z"/>
	<path style="fill:#FFFFFF;" d="M82.95,52.691c1.221-1.077,1.815-2.639,1.815-4.773c0-1.948-0.592-3.409-1.81-4.467
		c-1.241-1.076-3.678-1.645-7.048-1.645h-9.628v12.55h9.463C79.217,54.357,81.709,53.781,82.95,52.691z"/>
	<path style="fill:#FFFFFF;" d="M85.836,74.288c-1.483-1.233-4.269-1.858-8.28-1.858H66.278v13.595h11.333
		c3.93,0,6.681-0.656,8.177-1.95c1.457-1.259,2.165-2.925,2.165-5.094C87.953,77.007,87.261,75.472,85.836,74.288z"/>
	<path style="fill:#FFFFFF;" d="M154.051,0H4C1.8,0,0,1.8,0,4v116.617c0,2.2,1.8,4,4,4h150.051c2.2,0,4-1.8,4-4V4
		C158.051,1.8,156.251,0,154.051,0z M128.823,50.582c-2.041,0.145-3.813-1.391-3.959-3.432c-0.032-0.445,0.029-0.872,0.145-1.277
		l-15.561-11.636c1.627,2.965,2.462,6.285,2.462,9.942c0,5.083-1.611,9.51-4.79,13.159c-1.441,1.656-3.34,3.083-5.667,4.266
		c4.231,1.519,7.517,3.71,9.797,6.541c2.919,3.624,4.4,8.213,4.4,13.64c0,4.545-1.047,8.575-3.113,11.98
		c-7.269,11.979-29.535,12.314-29.757,12.314H38.418V22.744h47.99c3.349,0,6.379,0.374,9.113,1.078l-12.12-9.063
		c-0.49,0.301-1.048,0.505-1.662,0.549c-2.041,0.145-3.813-1.391-3.959-3.432c-0.145-2.041,1.391-3.813,3.432-3.959
		c2.041-0.145,3.813,1.391,3.959,3.432c0.03,0.424-0.027,0.831-0.132,1.22l16.358,12.232c0.515-0.342,1.113-0.573,1.774-0.62
		c2.041-0.145,3.813,1.391,3.959,3.432c0.034,0.472-0.031,0.926-0.163,1.353l19.716,14.743c0.479-0.284,1.021-0.476,1.614-0.518
		c2.041-0.145,3.813,1.391,3.959,3.432C132.401,48.664,130.864,50.437,128.823,50.582z"/>
</g>
</svg>
