<?xml version="1.0" encoding="utf-8"?>
<!-- Generator: Adobe Illustrator 19.0.0, SVG Export Plug-In . SVG Version: 6.00 Build 0)  -->
<svg version="1.1" id="tebbutt" xmlns="http://www.w3.org/2000/svg" xmlns:xlink="http://www.w3.org/1999/xlink" x="0px" y="0px"
	 viewBox="0 0 1288.1 469.9" style="enable-background:new 0 0 1288.1 469.9;" xml:space="preserve">
<style type="text/css">
	.Drop_x0020_Shadow{fill:none;}
	.Outer_x0020_Glow_x0020_5_x0020_pt{fill:none;}
	.Blue_x0020_Neon{fill:none;stroke:#8AACDA;stroke-width:7;stroke-linecap:round;stroke-linejoin:round;}
	.Chrome_x0020_Highlight{fill:url(#SVGID_1_);stroke:#FFFFFF;stroke-width:0.3629;stroke-miterlimit:1;}
	.Jive_GS{fill:#FFDD00;}
	.Alyssa_GS{fill:#A6D0E4;}
	.st0{fill:#FFFFFF;}
</style>
<linearGradient id="SVGID_1_" gradientUnits="userSpaceOnUse" x1="-37.9996" y1="-126.6567" x2="-37.9996" y2="-127.6567">
	<stop  offset="0" style="stop-color:#656565"/>
	<stop  offset="0.618" style="stop-color:#1B1B1B"/>
	<stop  offset="0.6292" style="stop-color:#545454"/>
	<stop  offset="0.9831" style="stop-color:#3E3E3E"/>
</linearGradient>
<path class="st0" d="M179.7,251.2c0.2-4.6-4.1-8.4-9.5-8.5c-2.6,0-5.1,0-7.7,0c-2.5,0-5,0.1-7.5,0c-2.5-0.1-5.1,0-7.9,0
	c-0.1,0-0.2,0-0.3,0c-0.1-15.7-0.1-32.4-0.1-49c0-26,0.1-50.7,0.7-76.6c0.5-20.4,1.1-42.2,1.8-62.2L151,0l-18.7,51.5
	c-1.9,5.3-3.7,10.2-5.4,14.8c-8.2,22.8-15.8,42.4-24.4,63.9c-8.3,20.7-18,44.2-26.8,66.1c-8.3,20.4-16.6,40.7-25.2,62.3
	c-2.4,0.7-4.7,1.4-7,2.2c-2.4,0.9-4.6,2.4-6.6,4.2c-1.8,1-3.2,2.2-4.4,3.5c-1.2,1.3-2.1,2.6-2.9,4.2c-0.7,1.6-1.3,3.4-1.2,5.7
	c0.1,1.2,0.4,2.3,1,3.2c0.5,0.9,1.4,1.6,2,1.9c0.6,0.2,1.1,0.3,1.6,0.2c0.5,0,0.9-0.2,1.2-0.4c0.7-0.4,1.2-1,1.6-1.7
	c0.3-0.5,0.6-1.1,0.8-1.6c0.2,0,0.6,0,1.1,0.1c0.2,0,0.3,0.1,0.4,0.1l0.2,0.1l0.3,0.1c0.4,0.1,0.7,0.3,1.1,0.5
	c0.4,0.2,0.8,0.4,1.1,0.6c0.1,0.1,0.3,0.2,0.5,0.3c-6.8,17.5-13.5,35-19.9,52.2c-4,10.9-7.4,22-10.6,33.2
	C6.5,382.9-0.4,403.1,0,411.2c0.4,6.8,2.5,10.4,8.3,2.8c5.6-7.4,12.7-23.5,18.8-36c5.8-11.6,11.2-23.5,15.9-35.5
	c8.5-21.8,16.6-43.2,24.7-64.6c0.2-0.1,0.5-0.1,0.7-0.2c1.2-0.4,2.5-0.7,3.7-1.1c2.5-0.8,5-1.6,7.5-2.4c5.1-1.7,9.8-3.2,15.1-4.9
	c2.6-0.8,5.3-1.8,7.9-2.7c2.7-0.9,5.3-1.9,7.7-2.8c2.4-0.9,4.6-1.6,6.9-2.3c2.3-0.6,4.6-1.1,7-1.5c1.9-0.3,3.8-0.5,5.8-0.7
	c0,0.7,0,1.5,0,2.2c0.1,26.2,1,52.3,2.5,77.6c1.4,23.6,6.3,42.7,10.8,43c4.7,0.4,7.1-19.3,5.9-43.9c-1.2-23.7-2-46.7-2.3-69.4
	c0-3.1-0.1-6.3-0.1-9.5c2.3,0.1,4.8,0.2,7.4,0.3c2.7,0.1,5.5,0.1,8.2,0.1c2.7,0,5.4-0.1,8-0.2C175.5,259.3,179.5,255.7,179.7,251.2z
	 M122,245.7c-5.5,0.8-11.5,2.1-16.7,3.5c-2.6,0.7-5,1.2-7.4,1.6c-2.4,0.5-4.8,0.8-7.3,1.1c-4.2,0.6-9.1,1-13.6,1.6
	c5.9-15.7,11.8-31.8,17.7-48c8.7-24,16.7-46.3,25.6-71.5c4.3-12.1,8.7-24.7,13-37.2c-0.1,7.4-0.3,14.8-0.5,22.5
	c-0.6,23.1-1.2,47.5-1.7,70.4c-0.4,17.9-0.8,35.3-0.9,54.7C127.5,244.8,124.8,245.2,122,245.7z M252.5,357.4c-5-2.3-8.5-8-9.8-13.5
	c-2.7-11-3.5-22.2-3.9-33c-0.4-11-0.5-19.9-2-28.8c-0.8-4.4-1.9-8.9-3.5-13.1c-1.7-4.2-3.9-8.1-6.6-11.5c-0.7-0.8-1.4-1.7-2.1-2.4
	c-0.3-0.3-0.7-0.7-1-1c-0.3-0.2-0.5-0.4-0.8-0.6c-1-0.7-2.3-1.2-3.5-1.1l-0.4,0l-0.4,0.1c-0.3,0-0.6,0.2-0.8,0.3
	c-0.5,0.3-1,0.6-1.4,1.1c-0.4,0.4-0.7,0.9-1,1.4c-0.1,0.1-0.1,0.2-0.2,0.4c-0.1,0.2-0.2,0.4-0.3,0.6c-0.2,0.4-0.4,0.8-0.6,1.2
	c-0.8,1.8-1.5,3.8-2,6c-0.3,1.2-0.6,2.5-0.9,3.8c-0.3,1.3-0.6,2.6-0.9,3.9c-1.2,5.2-2.4,10.6-3.4,15.7c-2.2,10.6-3.7,20-5,30.2
	c-1.2,10.1-2.3,20.2-2.8,29.7c-0.1,1.5-0.2,3-0.3,4.5l-23.4-0.6c-0.1-8.7,0.2-17.4,1-26.2c0.6-5.5,2-11.1,3.9-16.3
	c1.7-4.8,3.5-10.7,5.9-14.4c1-3.5,2-7,3-10.2c1.5-4.7,2.9-9.2,4.3-13.8c0.7-2.3,1.4-4.6,2.2-6.9c0.4-1.2,0.7-2.3,1.1-3.5
	c0.2-0.6,0.4-1.3,0.6-2c0.2-0.7,0.5-1.4,0.8-2.1c1.1-2.9,2.5-5.8,4.7-8.9c1.4-1.9,3.1-3.6,5-5.1c1.9-1.5,4-2.5,6.3-3.2
	c4.6-1.4,9.7-0.7,13.9,1.6c2.1,1.1,4.1,2.7,5.8,4.3c0.7,0.6,1.3,1.3,1.9,1.9c0.6,0.6,1,1.2,1.6,1.8c4.1,4.9,7.2,10.3,9.7,15.8
	c2.4,5.6,4.1,11.2,5.4,17c2.5,11.6,2.7,22.9,3.3,32.1c0.5,9.4,1.3,18.6,3.3,27.4c0.8,4.2,1.3,6.7,1.2,8.6c0,0.2,0,0.5,0,0.7
	c0,0.2,0,0.5,0,0.7c0,0.2,0,0.5,0.1,0.8c0,0.2,0.1,0.5,0.2,0.8c0.3,1.1,0.8,2.2,0.8,3.3c0,0.6-0.2,1.1-0.5,1.6
	c-0.3,0.5-0.9,1-1.6,1.3C257.5,358.6,255,358.6,252.5,357.4z M374.9,423.5c0.1,5.2-0.2,10.5-1.3,16c-0.6,2.8-1.3,5.5-2.4,8.4
	c-1.1,2.8-2.5,5.6-4.5,8.3c-1.9,2.6-4.2,5.2-7,7.2c-2.7,2-5.7,3.6-9,4.8c-3.3,1.1-6.6,1.6-9.9,1.7c-3.2,0.1-6.3-0.2-9.2-0.7
	c-5.8-1.1-10.9-3-15.6-5.1c-4.7-2.1-8.9-4.3-12.9-6.5c-4-2.2-7.5-4.1-11.2-6c-7.4-3.8-15.6-7.8-23.3-14c-3.8-3.1-7.5-6.7-10.6-11.1
	c-3.4-4.9-5.2-10.4-6-15.9c-0.8-5.8,0-11.4,1.9-16.1c1.9-4.8,5.1-8.6,8.5-10.8c3.4-2.2,6.7-2.7,8.8-2.4c1.1,0.1,1.9,0.5,2.4,0.9
	c0.5,0.4,0.8,0.9,0.9,1.5c0.1,1.1-0.6,2.3-1.5,3.7c-0.9,1.4-1.9,3-2.7,4.9c-0.8,1.9-1.4,4.2-1.8,6.9c-0.3,2.7-0.3,5.8,0.1,9
	c0.3,1.7,0.7,3.4,1.3,4.9c0.3,0.8,0.7,1.5,1,2.2c0.2,0.3,0.4,0.7,0.6,1l0.3,0.5l0.4,0.6c2.2,3,5,5.7,8.4,8.2
	c6.7,5,15.1,8.9,23.8,13.6c4.5,2.4,8.4,4.7,12.3,6.7c3.9,2,7.6,3.8,11.2,5.2c7.3,2.8,14.3,3.9,20,1.3c2.9-1.3,5.4-3.4,7.3-6.2
	c1.9-2.9,3.3-6.4,4.1-10.2c0.8-3.8,1.1-7.9,1.1-11.9c0-1,0-2-0.1-3.1c-0.1-1-0.1-2.1-0.2-3.1c-0.1-2.1-0.3-4.1-0.4-6.2
	c-1-8.4-2.2-16.3-4.2-24.1c-1.8-7.8-4.2-15.6-6.8-23.9c-2.8-8.4-5.8-17.5-8.8-26.8c-1.6-5.1-3.2-10.4-4.7-15.6
	c-1.5,2.5-3.3,5-5.5,7.4c-2.3,2.4-5,4.8-8.7,6.5c-3.9,1.9-8.4,2.7-12.7,2.2c-2.2-0.2-4.3-0.8-6.3-1.7c-2-0.8-3.5-1.7-4.9-2.7
	c-1.4-0.9-2.5-1.8-3.6-2.7c-1-0.8-1.9-1.6-2.7-2.3c-3.4-2.9-6.9-6-10.4-9.4c-1.7-1.7-3.5-3.5-5.1-5.5c-1.7-1.9-3.3-4-4.8-6.3
	c-1.5-2.2-3-4.6-4.2-7.1c-0.6-1.2-1.2-2.7-1.8-4c-0.5-1.4-1-2.8-1.4-4.3c-1.7-6.1-1.9-12.6-0.6-19c0.7-3.2,1.9-6.4,3.5-9.4
	c1.6-3,3.9-5.8,6.5-8c2.8-2.5,6.1-4.4,9.5-5.8c3.4-1.3,6.9-2,10-2.3c6.3-0.5,11.5,0.4,14.9,1.7c6.9,2.8,4.7,6.1,0.2,8.7
	c-2.6,1.7-7.7,2.6-12.4,4.4c-2.3,0.9-4.5,2-6.1,3.3l-0.6,0.5l-0.5,0.5c-0.4,0.3-0.6,0.7-0.9,1.1c-0.3,0.4-0.5,0.8-0.7,1.1
	c-0.2,0.4-0.4,0.8-0.6,1.1c-0.4,1.1-0.8,2.3-1,3.5c-0.2,1.3-0.3,2.5-0.2,3.9c0.1,2.7,0.6,5.6,1.4,8.3c0.2,0.7,0.5,1.4,0.7,2.1
	c0.3,0.7,0.6,1.4,1,2.1c0.8,1.5,1.7,3,2.7,4.4c2.1,2.9,4.7,5.8,7.6,8.8c3,2.9,6.3,5.8,9.7,8.9c1.6,1.4,2.9,2.4,3.4,2.7l0.2,0.1
	c0,0,0,0,0,0c0,0,0,0,0,0c0,0,0,0,0,0c0,0,0,0,0,0c0,0,0,0,0.1,0c0,0,0.1,0,0.1,0c0,0,0,0,0.1,0c0,0,0.1,0,0.2-0.1
	c0.1-0.1,0.3-0.1,0.4-0.3c0.7-0.4,1.6-1.3,2.6-2.4c0.9-1.1,1.8-2.5,2.6-3.9c0.2-0.4,0.4-0.7,0.6-1.1l0.3-0.6l0.1-0.3l0.1-0.2
	c0.3-0.6,0.5-1.3,0.8-2.1c1-3.3,1.9-7.4,2.5-11.4c0.7-4.1,1.3-8.4,1.9-12.7c0.3-2.4,0.7-4.9,1.1-7.6c0.2-1.3,0.4-2.7,0.8-4.3
	c0.1-0.4,0.2-0.8,0.3-1.3c0.1-0.5,0.3-1,0.5-1.7l0.2-0.6l0.3-0.7c0-0.1,0.1-0.3,0.2-0.5l0.3-0.5l0.2-0.3l0.3-0.4
	c0.2-0.3,0.4-0.5,0.6-0.8l0.2-0.3l0.3-0.3c0.2-0.2,0.4-0.4,0.6-0.6s0.4-0.4,0.6-0.5c0.3-0.2,0.7-0.5,1.1-0.7
	c0.4-0.2,0.8-0.4,1.2-0.6c0.2-0.1,0.4-0.2,0.7-0.2c0.3-0.1,0.6-0.2,0.9-0.2c0.6-0.1,1.2-0.2,1.8-0.2c0.3,0,0.6,0,0.9,0
	c0.3,0,0.5,0,0.8,0.1c0.5,0.1,1.1,0.2,1.6,0.4c0.3,0.1,0.5,0.2,0.8,0.3l0.4,0.2l0.3,0.1c0.6,0.3,1.2,0.6,1.7,1l0.4,0.3l0.2,0.2
	l0.4,0.4c0.3,0.3,0.5,0.5,0.7,0.8l2.2,2.6l0,3.2c-0.1,12.2,1.2,24.6,3.3,35.9c0.3,2,0.8,4.1,1.2,6.1c0.4,2,0.8,4,1.3,6
	c0.9,4,1.8,7.9,2.9,11.8c2,7.9,4.4,15.8,6.9,24.4c2.6,8.8,5.3,18.2,7.6,28c0.6,2.4,1.1,4.9,1.6,7.4l0.8,3.7c0.2,1.2,0.4,2.5,0.7,3.7
	c0.4,2.5,0.9,4.9,1.2,7.4c0.3,2.5,0.6,5,0.9,7.4l0.2,1.9l0.1,1.9c0.1,1.2,0.2,2.5,0.3,3.7C374.7,418.4,374.9,420.9,374.9,423.5z
	 M452.2,280.8c2.4,7.4,3.8,15.4,3.8,23.4c0,8.1-1.3,14.8-2.9,21.5c-0.8,3.4-1.8,6.8-2.9,10.1c-1.1,3.5-2.5,6.9-4.4,10.2
	c-0.9,1.7-2,3.3-3.2,4.9c-1.2,1.6-2.6,3.1-4.3,4.4c-1.7,1.3-3.6,2.4-5.8,3.3c-2.2,0.8-4.5,1.3-6.9,1.4c-4.9,0.2-9.7-1.2-13.9-3.1
	c-2.1-1-4-2.1-5.9-3.2c-0.9-0.6-1.8-1.2-2.6-1.8c-0.8-0.6-1.7-1.2-2.5-1.8c-6.6-5-12-10.3-17-16.5c-5-6.1-9.1-13.1-12.2-19.9
	c-0.7-1.7-1.5-3.4-2.2-5.2c-0.6-1.8-1.3-3.5-1.9-5.3c-0.5-1.8-1-3.6-1.6-5.5c-0.5-1.8-0.8-3.7-1.3-5.6c-0.7-4-0.6-8.2,0.3-12.3
	c0.1-0.5,0.2-1.1,0.3-1.7c0.1-0.6,0.2-1.2,0.4-1.7c0.2-1.2,0.5-2.3,0.8-3.4c0.3-1.1,0.7-2.2,1.2-3.1c0.5-0.9,1-1.8,1.7-2.4
	c2.7-2.6,6-1.6,8.7,0.1c3.3,2.1,4,7.5,6,11.4c0.4,0.7,0.7,1.4,1,2.1c0.3,0.7,0.7,1.4,0.9,2.1c0.3,0.7,0.6,1.4,0.8,2.1
	c0.1,0.3,0.2,0.7,0.3,1c0.1,0.3,0.2,0.7,0.3,1c1.4,6,3.3,12,5.6,17.8c2.3,5.9,4.9,11.3,8,16.5c3.1,5.1,7,10.4,11,14.5
	c1.1,1,2.1,2,3.2,3c1.1,0.9,2.1,1.7,3.2,2.5c2.1,1.4,4.4,2.5,6.4,2.8c1,0.2,1.9,0.1,2.7,0c0.7-0.1,1.3-0.4,1.9-0.8
	c0.6-0.4,1.2-0.9,1.8-1.6c0.6-0.7,1.3-1.7,1.9-2.7c1.2-2.2,2.2-4.9,2.9-7.8c0.8-3.1,1.4-6.2,1.9-9.4c0.9-6.5,1.5-13.1,1.3-18.8
	c-0.2-5.8-1.2-11.6-2.9-17.4c-0.5-1.5-0.7-3-0.7-4.4c-0.1-1.4,0.1-2.8,0.4-4.1c0.6-2.5,1.9-4.6,4.1-5.5c2-0.9,4.4-0.4,6.7,1.2
	c1.1,0.8,2.2,1.9,3.2,3.2C450.8,277.5,451.6,279,452.2,280.8z M548,318.7c2.5,5.5,3.5,11.6,3.3,17.2c-0.1,5.7-1.2,11.1-3.1,16.2
	c-1.8,5.1-4.4,9.9-7.8,14.3c-0.9,1.1-1.7,2.2-2.7,3.2c-1,1-1.9,2-3,3c-1.1,0.9-2.1,1.9-3.2,2.7c-1.1,0.8-2.2,1.6-3.2,2.3
	c-4.4,2.9-8.9,5-13.2,6.6c-8.6,3.2-17.4,5-26.4,5.6c-4.7,0.3-8.9-0.6-11.8-2.2c-2.9-1.6-4.4-3.8-4.2-6.1c0.2-2.2,2-4.1,4.7-5.6
	c2.6-1.4,6.1-2.4,9.9-2.8c8.1-0.8,16.2-2.4,23.7-5.3c3.8-1.5,7.1-3.2,10.1-5.2c2.9-1.9,5.5-4.2,7.7-6.9c4.6-5.3,7.7-12.7,8-19.7
	c0.2-3.5-0.4-6.9-1.6-9.8c-0.1-0.2-0.1-0.4-0.2-0.6l-0.3-0.5l-0.6-1.1c-0.2-0.3-0.3-0.7-0.6-1l-0.7-1c-0.8-1.3-2-2.5-3.2-3.7
	c-2.5-2.3-5.8-4.5-9.4-6.5c-3.6-2-7.7-3.9-11.8-6c-8.4-4.2-15.8-8-23.7-12.2c-3.9-2-7.8-4.2-11.6-6.3c-1.8-1-4-2.2-6.4-3.8
	c-1.2-0.8-2.4-1.7-3.7-2.8c-0.6-0.6-1.2-1.1-2-1.9c-0.7-0.8-1.4-1.6-2-2.4c-1.5-2-2.6-4.2-3.4-6.6c-1-3.4-1.3-7-0.6-10.4
	c0.6-3.5,2.1-6.8,4.1-9.7c1.8-2.5,3.8-4.5,5.9-6.2c2.1-1.7,4.4-3.1,6.8-4.2c0.7-0.4,1.5-0.7,2.3-0.9c0.8-0.3,1.6-0.5,2.4-0.7
	c0.4-0.1,0.9-0.2,1.2-0.3l1.1-0.2c0.7-0.1,1.4-0.2,2.1-0.2c2.7-0.2,5.2-0.1,7.5,0.1c2.5,0.3,5,0.4,7.2,0.5c2.2,0.2,4.2,0.3,5.9,0.9
	c1.7,0.6,3,1.5,3.7,2.9c0.7,1.3,0.8,3.1,0.3,4.9c-0.6,2.2-3.2,4.4-6.3,6c-3.1,1.6-6.5,2.7-9.1,3.9c-1.7,0.8-3.3,1.6-5,2.4
	c-0.7,0.4-1.5,0.7-1.8,1c-0.2,0.1-0.5,0.3-0.7,0.4c-0.2,0.1-0.5,0.3-0.7,0.4c-1.7,0.8-3.2,2.2-3.8,3c-0.1,0.1,0,0-0.1,0
	c0,0-0.1,0,0,0c0,0-0.1,0-0.1,0c0,0-0.1,0.1-0.1,0.1c0,0,0,0,0,0c0,0,0.1,0.1,0.2,0.2c0.1,0.2,0.3,0.4,0.5,0.6
	c0.4,0.4,1,0.9,1.7,1.4c0.7,0.5,1.4,1,2.2,1.6c0.9,0.6,1.8,1.2,2.6,1.8c3.5,2.4,7,4.7,10.4,7.1c6.9,4.6,14.2,9.7,20.8,14
	c3.5,2.3,6.9,4.4,10.3,6.6c3.5,2.3,7.2,4.9,11,8.3c1.9,1.7,3.8,3.7,5.6,6c0.9,1.2,1.7,2.3,2.4,3.7l1.1,2
	C547.4,317.2,547.6,318,548,318.7z M696.3,193.9c0.1,7.8,0,15.8-0.5,23.8c-0.2,4-0.5,7.9-0.9,11.7c-0.4,3.8-0.7,7.5-1.2,11.3
	c-0.8,7.4-1.7,15.4-2.5,22.4c-0.4,3.6-0.7,7.1-0.9,10.6c-0.2,3.5-0.3,7.1-0.4,10.9c-0.1,7.8-0.4,16.6-1,24.7
	c-0.3,4.1-0.6,8.1-0.9,12.1c-0.3,4-0.7,8-1,12.1c-0.8,8.2-2.2,16.5-3.4,23.5c-1.1,7.1-2.2,14.3-3.4,21.7
	c-1.3,7.7-5.9,13.2-10.4,12.3c-4.4-0.9-7-7.4-6.1-14.6c0.9-7.8,2.2-15.8,3.6-23.8c0.8-4.1,1.5-7.8,2.2-11.4c0.7-3.6,1.4-7.1,2-10.6
	c0.6-3.5,1.2-7.2,1.7-10.8c0.5-3.7,0.9-7.3,1.1-10.9c0.3-3.7,0.4-7.1,0.4-10.6c0-3.5-0.1-7-0.4-10.7c-0.5-7.6-0.9-16.3-1.1-24.4
	c-0.1-4.2-0.2-8.1-0.2-12c-0.1-3.9-0.2-7.7-0.2-11.7c-0.2-7.8-0.1-15.8-0.1-23.1c0.1-7.4,0.1-14.8,0.3-22.4c0.1-4,0.9-8.1,2.2-12.1
	c1.3-4.3,2.1-9.8,4.6-12.6c2.6-2.9,6-2.2,8.7-0.3c3.3,2.3,4.2,9,5.7,14.1C695.4,186.6,696.1,190.2,696.3,193.9z M666.5,123.5
	c-2.4,1.1-4.7,2.3-7,3.4c-2.3,1.2-4.5,2.3-6.8,3.5c-2.3,1.2-4.6,2.3-6.9,3.5c-9.1,4.8-18,9.7-25.8,14.8l-3,1.9c-1,0.6-1.9,1.3-2.9,2
	c-1.9,1.3-3.8,2.7-5.7,4.1c-0.9,0.7-1.9,1.4-2.7,2.1c-0.9,0.7-1.8,1.4-2.7,2.2c-0.9,0.7-1.7,1.5-2.6,2.3c-0.9,0.8-1.8,1.5-2.6,2.3
	c-0.9,0.8-1.8,1.6-2.8,2.4c-1,0.8-1.9,1.6-2.8,2.4c-2,1.5-3.9,3.1-5.9,4.6c-4.3,3.4-8.7,8.5-12.4,10.6c-4.1,2-6.7-0.2-7.8-3.9
	c-0.4-1.1-0.4-2.5-0.2-4.1c0.2-1.6,0.8-3.3,1.4-5.1c0.6-1.8,1.5-3.6,2.4-5.4c0.5-0.9,0.9-1.8,1.3-2.7c0.5-0.9,0.9-1.7,1.4-2.5
	c0.6-1.2,1.3-2.4,2-3.6c0.7-1.1,1.5-2.2,2.3-3.3c1.5-2.2,3.3-4.2,5.2-6.2c8.1-7.9,17.4-14.6,27-20.3c9.7-5.7,19.1-9.9,28.6-13.8
	c4.7-1.9,9.6-3.8,14.4-5.6c2.4-0.9,4.8-1.8,7.2-2.6c2.4-0.9,4.7-1.7,6.9-2.5c4.7-1.6,9.1-3.3,13.5-4.9c2.2-0.8,4.5-1.7,6.7-2.6
	c2.3-0.9,4.6-1.8,7-2.7c9.7-3.9,20.9-7.9,31.3-11.2c5.3-1.6,10.4-3.3,15.5-4.8c5.1-1.6,10.3-3,15.6-4.5c5.3-1.5,10.7-2.8,15.9-4
	c5.2-1.2,10.3-2.3,14.9-3.2c9.4-2,18.8-4.2,28.6-6.4c10.2-2.3,19-0.4,19.7,4.2c0.7,4.4-6.3,9.7-15.9,12.1c-10.3,2.5-20.9,5-31.6,7.1
	c-10.8,2.2-20,3.8-29.3,5.8c-2.3,0.5-4.7,1-7.1,1.6c-2.4,0.6-4.8,1.2-7.2,1.8c-4.8,1.2-9.5,2.6-14.1,4c-4.7,1.4-9,3-13.4,4.7
	c-4.3,1.7-8.6,3.6-13.1,5.6c-2.3,1.1-4.7,2.2-7.1,3.3c-1.2,0.6-2.4,1.1-3.7,1.7c-1.2,0.6-2.5,1.2-3.7,1.8c-2.5,1.2-5,2.3-7.5,3.5
	c-2.5,1.2-4.9,2.3-7.4,3.5c-1.3,0.6-2.5,1.1-3.7,1.7C668.9,122.3,667.7,122.9,666.5,123.5z M887,313.2c-1.2-11-5.5-21.8-12.6-30.6
	c-0.9-1.1-1.8-2.2-2.7-3.2c-1-1-2-2-3-3c-1.1-0.9-2.1-1.9-3.2-2.8c-1.1-0.9-2.3-1.8-3.5-2.6c-2.4-1.6-5-3.1-7.9-4.2
	c-2.9-1.1-6-2-9.4-2.3c-3.4-0.4-7,0-10.5,1c-3.4,1-6.6,2.7-9.1,4.6c-0.9,0.7-1.8,1.4-2.6,2.2c1-8.8,1.9-17.8,2.8-26.5
	c1.8-17.2,3.5-34.3,5-52.6c1.5-18.2,2.7-36.5,3.7-54.4c0.4-8.4,0.1-16.8-0.5-25.3c-0.8-11.7-0.6-27.2-3.6-32.7
	c-2.5-4.6-5.7-6.7-8.7-0.2c-2.9,6.3-4.5,18.9-6.5,28.9c-1.8,9.2-3.2,18.6-3.9,27.9c-1.2,17.6-2.3,34.8-3.4,52
	c-1,17.1-2.1,35.5-3,53.7c-0.9,18.4-1.7,35.5-2.7,54.8c-0.3,5-0.6,10.2-0.9,15.4c-1.3,4.2-2.5,8.4-3.4,12.7c-0.5,2.5-1,5-1.4,7.6
	c-0.1,0.7-0.2,1.5-0.2,2.3c-6.8,7-14.6,12.6-23,15.9c-0.6,0.3-1.3,0.5-1.9,0.7c-0.7,0.2-1.3,0.4-2,0.7c-0.7,0.2-1.3,0.4-2,0.6
	c-0.7,0.2-1.4,0.3-2.1,0.5c-0.7,0.2-1.4,0.3-2.1,0.4c-0.7,0.1-1.4,0.2-2.2,0.4c-1.4,0.2-2.8,0.3-4.2,0.4c-5.7,0.2-11.8-0.8-17.5-2.8
	c-5.7-2-10.9-5-15.2-8.8c-4.3-3.8-7.8-8.3-9.7-13.5c-1-2.6-1.6-5.2-1.8-8.1c-0.3-2.9-0.1-5.9,0.3-8.9c0.9-6.1,3.2-12.2,6-17.9
	c2.7-5.5,6-10.5,9.6-15.1c3.6-4.6,7.6-8.8,12.1-12.8c4.4-3.8,9.3-7.6,14.7-10.8c2.6-1.7,5.4-3.1,8.2-4.6c2-1,4.4-1.7,6.7-2
	c1.2-0.2,2.4-0.2,3.4-0.2c0.1,0,0.3,0,0.4,0c0.1,0,0,0,0,0c0.1,0,0.1,0,0.2,0.1c0.1,0,0.2,0.1,0.3,0.2c0.3,0.2,0.5,0.6,0.4,1
	c0,0.1-0.1,0.2-0.2,0.3c0,0-0.1,0.1-0.1,0.1c0,0,0,0,0,0l-0.1,0.2l-0.2,0.4l-0.4,0.9c-1.2,2.6-2.3,5.2-3.7,7.8
	c-2.9,5.5-6.3,10.9-10.1,15.8c-3.9,4.9-8.1,9.5-12.7,13.6c-4.2,4-8.4,8-12.9,12c-0.8,0.7-1.6,1.4-2.5,2.1c-0.9,0.7-1.8,1.3-2.7,2
	c-1.8,1.4-3.8,2.6-5.5,3.8c-3.6,2.4-6.8,4.6-8.2,6.8c-2.3,3.6-3.1,7.4,2.8,8.3c2.9,0.5,6.9-0.1,11.2-1.1c1.1-0.3,2.1-0.6,3.2-0.9
	c1.1-0.3,2.2-0.6,3.2-1c1.1-0.4,2.1-0.8,3.2-1.2c1-0.4,2.1-0.7,3.1-1.2c7.4-2.8,14.5-6.9,20.5-12.1c5.7-5,10.9-10.3,15.4-16.2
	c4.5-5.9,8.5-12.1,11.9-18.7c0.8-1.7,1.6-3.3,2.4-5c0.7-1.7,1.4-3.5,2.2-5.3c0.4-0.9,0.7-1.8,1.1-2.8l0.3-0.8l0.4-1.2
	c0.2-0.8,0.5-1.7,0.6-2.5c0.7-3.4,0.8-7,0-10.4c-0.4-1.5-0.9-3-1.6-4.5c-0.7-1.4-1.6-2.8-2.6-4c-1.1-1.2-2.2-2.3-3.6-3.3
	c-1.3-0.9-2.8-1.8-4.3-2.4c-3.1-1.3-6.4-1.9-9.9-2c-0.5,0-0.8,0-1.1,0l-1,0c-0.6,0-1.3,0.1-1.9,0.1c-1.2,0.1-2.4,0.3-3.6,0.5
	c-2.4,0.4-4.6,1.1-6.8,1.9c-2.2,0.8-4.3,1.8-6.4,2.9c-0.6,0.3-0.9,0.5-1.3,0.8l-1.2,0.7c-0.8,0.5-1.6,1-2.4,1.5
	c-1.6,1-3.1,2.1-4.7,3.2c-6.1,4.4-11.9,9.4-17.5,15.2c-2.7,2.8-5.3,5.8-7.8,8.9c-2.4,3.2-4.8,6.4-6.9,9.7
	c-4.2,6.7-7.8,13.6-10.3,20.6c-2.4,6.8-4,13.6-4.3,20.6c-0.2,3.5,0,7,0.5,10.5c0.5,3.5,1.5,7.1,2.9,10.5c2.8,6.7,7.2,12.9,12.5,17.9
	c5.3,5,11.5,9,17.9,11.8c6.5,2.8,13.3,4.7,20.7,5.3c3.7,0.3,7.5,0.2,11.4-0.3c1-0.1,1.9-0.3,2.9-0.4c1-0.2,1.9-0.3,2.9-0.6
	c1-0.2,1.9-0.5,2.9-0.7c0.5-0.1,1-0.2,1.5-0.4c0.5-0.2,1-0.3,1.5-0.5c7.8-2.5,15-6.3,21.4-11c2.5-1.8,4.9-3.8,7.2-5.9l0.7,0
	c-0.3,0.7-0.3,1.5-0.2,2.6c0.2,1,0.5,2.1,1.1,3.3c0.6,1.2,1.4,2.6,2.5,3.9c2.2,2.7,5.4,5.4,9.5,7.6c4.1,2.2,9.2,3.6,14.6,4
	c5.2,0.4,10.6-0.2,15.5-1.6c5-1.4,9.7-3.5,13.9-6.1c8.5-5.3,15.4-12.8,19.9-21.6c2.3-4.3,4.1-9.2,5.1-14.5
	C887.4,324.1,887.6,318.6,887,313.2z M868.2,332.1c-2.8,7.3-8,13.7-14.3,18.1c-6.4,4.4-13.8,6.7-21,6.3c-3.4-0.2-6.6-0.7-9.6-1.4
	c-2.9-0.7-5.6-1.6-7.9-2.4c-2.3-0.8-4.2-1.6-5.9-2.1l0.3-0.2l0.4-0.2c0.3-0.2,0.5-0.4,0.7-0.6c0.2-0.2,0.5-0.4,0.7-0.6l0.3-0.3
	l0.1-0.2c0.2-0.2,0.3-0.4,0.5-0.7l0.2-0.3l0.1-0.2l0.1-0.1l0.2-0.4c0.1-0.3,0.3-0.6,0.3-0.7c0.2-0.3,0.3-0.7,0.4-1
	c0.1-0.3,0.2-0.5,0.2-0.7c0.3-0.9,0.4-1.5,0.5-2.2c0.3-1.3,0.4-2.4,0.6-3.5c0,0,0-0.1,0-0.1c0.4-0.5,0.7-1,1-1.5
	c0.9-1.4,1.7-2.8,2.4-4.2c1.3-2.8,2.3-5.4,2.8-7.8c0.6-2.4,0.6-4.4,0.4-6c-0.3-1.6-0.9-2.7-1.8-3.3c-0.6-0.4-1.3-0.5-2.1-0.4
	c0.3-3.1,0.7-6.1,1-9.2c0.8-2.2,1.7-4.3,2.6-6.5c1.6-3.6,3.3-7.1,5.5-10.3c2.1-3.2,4.5-6.1,7.2-8c2.7-1.9,5.6-2.7,8.7-2.4
	c3.1,0.3,6.5,1.7,9.5,3.7c1.5,1,2.9,2.1,4.3,3.4c1.4,1.2,2.6,2.6,3.8,4c4.7,5.6,7.9,12.4,9.4,19.6
	C871.3,317,871.1,324.8,868.2,332.1z M1059.6,300.2l-0.2-1.7c-0.1-0.6-0.2-1.2-0.3-1.7c-0.2-1.1-0.4-2.3-0.7-3.4
	c-0.3-1.1-0.6-2.3-1-3.4c-0.3-1-0.7-2-1.2-2.9c-0.5-0.9-1-1.8-1.5-2.6c-1.2-1.5-2.5-2.8-3.8-3.7c-2.8-1.7-5.3-1.9-7.1-0.7
	c-1.9,1.2-2.9,3.7-3.1,6.2c-0.1,1.3-0.2,2.7,0,4.1c0.1,0.7,0.1,1.5,0.3,2.2c0.1,0.7,0.4,1.5,0.5,2.2c0.2,0.7,0.4,1.5,0.6,2.2
	c0.2,0.7,0.3,1.5,0.4,2.3c0.3,1.5,0.4,3.1,0.5,4.6c0.1,0.8,0,1.6,0,2.3c0,0.8,0.1,1.5,0,2.3c-0.1,1.6-0.2,3.1-0.4,4.7
	c-0.1,0.8-0.2,1.6-0.3,2.4c-0.2,0.8-0.3,1.6-0.5,2.5c-0.1,0.4-0.2,0.8-0.2,1.3c-0.1,0.4-0.2,0.8-0.3,1.3c-0.2,0.9-0.4,1.7-0.6,2.6
	c-1,3.5-2.1,7.1-3.3,10.6c-1.2,3.6-2.5,7-4,10.5c-1.5,3.4-3,6.8-4.8,9.9c-1.8,3.1-3.7,6.2-5.9,8.9c-2.2,2.7-4.6,5.1-7,7
	c-2.4,1.8-5,3.1-7.6,3.9c-2.6,0.8-5.3,1.1-7.8,0.8c-1.2-0.2-2.5-0.4-3.6-0.8c-1.2-0.4-2.3-0.9-3.4-1.6c-2.2-1.3-4.3-3.3-6.3-5.5
	c-2-2.3-3.9-4.9-5.9-7.8c-1.9-2.9-3.7-5.7-5.1-8.6c-1.4-2.8-2.5-5.6-3.1-8.1c-0.3-1.3-0.5-2.5-0.6-3.7c0-0.3-0.1-0.6,0-0.8
	c0-0.2,0-0.5,0-0.7c0-0.2,0.1-0.5,0.1-0.7c0-0.2,0-0.5,0.1-0.7c0.1-0.9,0.2-1.9,0.3-3c0.1-1,0.2-2.2,0.4-3.4c0.3-1.6,1.1-3.2,2-4.6
	c0.8-1.4,1.8-2.7,2.4-4.5c0.5-1.4,1.1-3,1.1-4.5c0-1.5-0.5-3-2.6-4.1c-2-0.9-5.2-1-8.4,0c-3.2,1-6.2,3-8.7,5c-1.5,1.2-2.8,2.5-4,3.9
	c-1.9-7.1-5.5-13.9-10.8-19.5c-0.8-0.8-1.6-1.5-2.3-2.3c-0.8-0.8-1.8-1.5-2.7-2.2c-1.9-1.4-4-2.6-6.3-3.6c-0.6-0.3-1.2-0.5-2-0.7
	c-0.7-0.2-1.5-0.4-2.2-0.6c-1.5-0.3-3-0.5-4.4-0.6c-3-0.1-6,0.5-8.6,1.7c-1.8,0.8-3.5,1.9-5,3.2c-0.7,0.7-1.5,1.4-2.1,2.1
	c-0.3,0.3-0.5,0.6-0.8,0.9c0.2-1.2,0.3-2.4,0.5-3.6c1.9-13.4,4.3-28.6,6.1-42.8c1.8-14.4,3.5-28.7,4.1-44.5
	c0.1-3.9,0.2-7.9,0.2-11.9c-0.1-3.8-0.1-7.6-0.2-11.4c-0.2-7.6-0.4-15.1-0.6-22.5c-0.3-7-1.3-13.9-2.5-20.9
	c-1.7-9.7-2.8-22.5-6.3-26.9c-2.9-3.6-6.2-5.2-8.7,0.5c-2.4,5.5-3,16-4.1,24.4c-1.1,7.8-1.7,15.7-1.6,23.4
	c0.2,7.3,0.3,14.6,0.5,21.8c0.1,3.6,0.2,7.2,0.3,10.8l0.1,2.6l0,2.6l0,5.2c-0.1,13.8-1,28.9-1.8,43.9c-1,15.2-2,29.3-3.3,45.4
	c-1.2,15.5-2.4,32.2-3.1,47c-0.1,1.5-0.1,3.1-0.2,4.6c0,0.8,0,1.6,0,2.4c0,0.4,0,0.8,0,1.4c0,0.3,0,0.6,0.1,1.1l0.1,0.5
	c0,0.2,0.1,0.6,0.2,0.8c0.1,0.3,0.2,0.7,0.4,1l0.1,0.2c0.1,0.1,0,0.1,0.2,0.4c0.3,0.5,0.7,1,1.1,1.4c0.2,0.2,0.5,0.4,0.7,0.6
	l0.2,0.1l0.3,0.2c0.2,0.1,0.5,0.3,0.8,0.4c1.1,0.5,2.6,0.6,3.7,0.3c0.3-0.1,0.4-0.1,0.5-0.1c0.1,0,0.3-0.1,0.4-0.1
	c0.1,0,0.1-0.1,0.2-0.1c0,0,0.1,0,0.1,0c-0.8,0.8-1.6,1.8-2.3,2.9c-1.5,2.3-2.6,5.4-2.9,9l-0.3,4.6l5.7,2.6
	c3.7,1.7,8.1,2.8,12.8,2.9c8.9,0.2,17.4-2.2,24.8-6.4c3.7-2.1,7.1-4.8,10.2-7.9c3-3.1,5.7-6.7,7.6-10.6c0.1-0.2,0.2-0.3,0.2-0.5
	c1,2.6,2.2,5.1,3.5,7.4c2.2,3.9,4.8,7.6,7.5,11c1.4,1.7,2.8,3.3,4.3,5c1.5,1.7,3.2,3.3,5,4.9c3.6,3.2,7.8,6.2,12.7,8.3
	c2.5,1,5.1,1.9,7.9,2.3c1.4,0.3,2.7,0.4,4.1,0.5c1.4,0,2.8,0.1,4.2,0c5.4-0.3,10.6-1.9,15.2-4.2c2.3-1.1,4.4-2.5,6.4-3.9
	c1.9-1.5,3.7-3,5.3-4.6c3-3.1,5.4-6.3,7.6-9.4c2.2-3.2,4.1-6.4,6.1-9.8c3.8-6.7,7.2-13.7,10.3-20.7c1.5-3.5,2.9-6.9,4.2-10.7
	c0.3-0.9,0.6-1.9,0.9-2.8c0.3-1,0.6-2,0.8-3c0.1-0.5,0.3-1,0.4-1.5c0.1-0.5,0.2-1.1,0.3-1.6c0.2-1.1,0.5-2.2,0.7-3.3
	c0.7-4.4,1.1-9,0.9-13.6C1059.9,302.5,1059.7,301.4,1059.6,300.2z M902,350.3C902,350.3,902,350.3,902,350.3
	C902,350.3,902,350.3,902,350.3z M889.9,343.1C889.9,343.1,889.9,343.1,889.9,343.1C889.9,343.1,889.9,343.1,889.9,343.1z
	 M937.8,343.2c-1.1,2.9-2.6,5.5-4.6,7.8c-1.9,2.3-4.3,4.3-6.9,6c-2.6,1.7-5.4,3-8.4,3.8c-3,0.9-6,1.3-9,1.3c-1.3,0-2.6-0.1-3.8-0.1
	c0-0.4,0.1-0.8,0.1-1.2c0.2-2.4,0.6-4.4-0.3-5.9c-0.4-0.7-1.2-1.2-2.4-1.3c-0.7,0-1.5,0.1-2.5,0.4c0.4-0.4,0.7-0.8,1.1-1.2
	c1.3-1.6,2.1-3.2,2.8-4.7c1.4-2.9,2.2-5.7,3-8.4c1.6-5.4,2.8-10.6,4.5-15.8c1.2-3.8,2.5-7.5,4.2-10.8l0.7-1.2l0.8-1.2
	c0.5-0.8,1-1.5,1.5-2.1c0.1-0.2,0.3-0.3,0.3-0.4l0.3-0.3c0.2-0.2,0.4-0.4,0.6-0.6c0.4-0.4,0.9-0.7,1.5-0.9c1.5-0.6,3.2-0.4,4.6,0.2
	c0.8,0.3,1.8,0.9,2.6,1.5c0.9,0.6,1.7,1.3,2.5,2.1c2,2,3.7,4.4,5,6.9c0.3,0.7,0.7,1.2,0.9,1.9c0.3,0.7,0.5,1.3,0.8,2
	c0.2,0.7,0.4,1.4,0.7,2.1c0.2,0.7,0.3,1.4,0.5,2.1C940.2,331,940.1,337.4,937.8,343.2z M1099.4,116L1099.4,116L1099.4,116
	L1099.4,116z M1270.3,213.9c-9.4,0.7-18.5,1.5-27.5,2.2c-4.4,0.3-9.3,0.6-14.3,1.1c-2.5,0.2-5.1,0.4-7.6,0.7
	c-2.6,0.3-5.1,0.6-7.7,0.9c-5.1,0.7-10.1,1.3-15.1,2.1c-5,0.8-9.9,1.5-15,2.3c-10,1.5-20.9,3.6-30.4,5.6c-4.7,1-9.1,1.8-13.4,2.5
	c-4.4,0.7-8.7,1.4-13.2,2c-2.5,0.3-5.2,0.7-7.8,1c0.3-12.7,0.4-25.2,0.2-36.8c-0.1-13.6-0.4-26.3-0.8-39.1
	c-0.2-6.4-0.5-12.7-0.9-19.2c-0.4-6.5-0.8-13-1.9-20c-0.2-1.4-0.4-2.7-0.8-4.2c0-0.1-0.2-0.1-0.2-0.2c0.1-0.6,0-1.2,0-1.3v0v0
	l-0.2-0.1l-0.2-0.1c-0.3-0.9-0.5-1.9-1-3c-0.3-0.6-0.6-1.3-1.1-2.1c-0.3-0.4-0.7-0.9-1.3-1.4c-0.2-0.1-0.3-0.3-0.5-0.4
	c-0.1,0-0.1-0.1-0.2-0.1c-0.3-0.3-0.5-0.5-1.2-0.8c-0.3-0.2-0.6-0.3-1-0.4c-0.5-0.1-1-0.2-1.5-0.2c-0.5,0-0.9,0.1-1.4,0.2
	c-0.2,0.1-0.5,0.1-0.7,0.2l-0.3,0.1l-0.2,0.1c-0.3,0.2-0.5,0.3-0.8,0.5c-0.1,0.1-0.3,0.2-0.3,0.3l-0.2,0.2c-0.2,0.2-0.5,0.6-0.6,0.8
	c-0.1,0.2-0.3,0.4-0.3,0.6l-0.2,0.4c-0.1,0.3-0.2,0.4-0.3,0.7l-0.2,0.5l-0.1,0.4c-0.3,1.1-0.4,1.9-0.5,2.7c-0.2,1.2-0.3,2.4-0.4,3.5
	l0,0l0,0c0,0,0,0,0,0c0,0.4-0.1,0.7-0.1,1.1c-0.2,3-0.4,5.9-0.5,8.9c-0.2,5.9-0.4,11.8-0.4,17.6c-0.2,11.7-0.2,23.4-0.1,34.7
	c0.1,13.1,0.3,25.9,0.8,39.3c0.2,6.2,0.5,12.5,0.9,19c-0.6,0.1-1.2,0.2-1.8,0.3c-5.6,0.7-11.2,1.5-16.8,2.4
	c-0.2-6.5-0.5-13-0.7-19.4c-0.6-13.2-1.6-26.2-2.9-39.3c-1.5-15.2-2.3-34.5-4.5-45.3c0.1,0,0.3,0,0.4,0.1c0.2,0.1,0.4,0.1,0.6,0.2
	c0.4,0.2,0.8,0.4,1.2,0.5c0.4,0.1,0.8,0.1,1.1-0.3c0.2-0.2,0.3-0.4,0.5-0.7c0.1-0.3,0.2-0.8,0.2-1.3c0-1-0.5-2.4-1.6-3.6
	c-1.1-1.2-2.7-2.3-5.4-2.6c-0.5-0.1-1,0-1.6,0c-0.6,0.1-1.2,0.2-1.8,0.4c-1.3,0.4-2.6,1.3-3.6,2.6l-0.5,0.6l-0.5,2.5
	c-2,10.7-2.8,28.4-3.7,42.7c-1,14.7-1.5,29.5-1.2,44.2c0.2,7.7,0.4,15.4,0.7,23c-1,0.2-2.1,0.4-3.1,0.6c-4.9,1.1-9.7,2.2-14.4,3.4
	c-4.5,1.2-8.7,3-12.9,5.1c-1.4,0.7-2.9,1.4-4.5,2.1l-15.1,6.8l10.9,7.7c4.4,3.1,8.8,6.2,12.2,6c3-0.1,5.6-1.2,6.1-3.9
	c2.9-0.2,5.7-0.6,8.5-1.1c4.5-1,8.9-1.9,13.2-2.9c0.5,11.8,1.2,23.5,1.9,35.3c0.7,10.6,1.4,21.6,2.2,32.8c0.3,3.6,0.5,7.1,0.8,10.7
	c0.4,5.5,0.9,11,1.3,16.6c0.9,11,1.9,22,2.8,33.1c1.1-0.8,2.2-1.5,3.4-2.3c0.6-0.4,1.1-0.8,1.7-1.2l0.2-0.1l0.3-0.2l0.7-0.5l1.3-1
	c3.6-2.6,6.6-4.9,9.6-7.2c3.6-2.6,7-5.9,10.2-10l2.4-3.3c0.8-1.2,1.5-2.5,2.2-3.7l0.6-0.9c0.2-0.3,0.4-0.6,0.5-1l1-2.1l1-2.1
	l0.5-1.1l0.4-1.1l1.7-4.6c0.5-1.5,1-3.2,1.5-4.8l0.7-2.4c0.1-0.2,0.1-0.4,0.1-0.6l0.1-0.5l0.2-0.7l0.7-2.8c0.4-1.9,0.8-3.7,1.1-5.6
	c0.4,3.8,0.9,7.5,1.3,11.3c3.2,26.5,9.2,47.9,13.7,48.2c4.7,0.3,5.9-22.1,2.8-50.1c-3-26.9-5.9-52.9-8.6-78.7
	c-0.4-4.3-0.9-8.7-1.4-13.2c4-1,8-1.9,12.2-3c9.8-2.4,20.5-5.2,29.7-7.7c4.5-1.2,8.8-2.3,13.1-3.2c4.3-0.9,8.6-1.7,13.1-2.4
	c4.5-0.7,9.1-1.2,13.7-1.8c4.6-0.5,9.2-0.9,13.7-1.2c9-0.7,17.7-0.9,28-1.5c5.1-0.3,10.2-0.7,15.2-1.1c5-0.4,10-0.9,15-1.4
	c9.2-0.9,16.4-5,16.3-9.5C1288,216.4,1280.1,213.2,1270.3,213.9z M1070.5,136.6L1070.5,136.6
	C1070.5,136.7,1070.5,136.7,1070.5,136.6z M1097.6,288.1c-1.4,12.4-3.2,25.8-5.7,38.9c-0.6,3.2-1.3,6.5-2.1,9.6
	c-0.2,0.8-0.4,1.6-0.6,2.3c-0.2,0.7-0.5,1.8-0.5,1.7c-0.1,0.3-0.2,0.6-0.4,0.9c-0.5,1.1-1.1,1.9-1.7,2.4c-0.3,0.2-0.6,0.4-0.9,0.4
	l-0.2,0l-0.1,0c0,0,0-0.1,0-0.1l0-0.2c0-0.3,0-0.6,0-0.9c0-0.8,0.1-1.5,0.1-2.1l0.1-0.8l0-0.3l0-0.1l0-0.9l-0.1-2
	c-0.3-5.2-0.5-10.5-0.8-15.8c-0.3-5.3-0.5-10.7-0.8-16.2c-0.7-14.3-1.3-28.6-1.9-42.8c6-1.4,12.2-2.8,18.4-4.3
	C1099.7,267.9,1098.8,277.8,1097.6,288.1z"/>
</svg>
